solid Default
  facet normal 0.000000e+00 0.000000e+00 1.000000e+00
    outer loop
      vertex 2.300001e+00 -2.999000e+00 4.600000e+00
      vertex -2.300001e+00 2.999000e+00 4.600000e+00
      vertex -2.300001e+00 -2.999000e+00 4.600000e+00
    endloop
  endfacet
  facet normal 0.000000e+00 0.000000e+00 1.000000e+00
    outer loop
      vertex -2.300001e+00 2.999000e+00 4.600000e+00
      vertex 2.300001e+00 -2.999000e+00 4.600000e+00
      vertex 2.300001e+00 2.999000e+00 4.600000e+00
    endloop
  endfacet
  facet normal 0.000000e+00 1.000000e+00 0.000000e+00
    outer loop
      vertex -2.300001e+00 2.999000e+00 0.000000e+00
      vertex -4.999981e-01 2.999000e+00 1.734001e+00
      vertex 2.300001e+00 2.999000e+00 0.000000e+00
    endloop
  endfacet
  facet normal 0.000000e+00 1.000000e+00 0.000000e+00
    outer loop
      vertex -4.999981e-01 2.999000e+00 1.734001e+00
      vertex -2.300001e+00 2.999000e+00 0.000000e+00
      vertex -7.059994e-01 2.999000e+00 1.892000e+00
    endloop
  endfacet
  facet normal 0.000000e+00 1.000000e+00 0.000000e+00
    outer loop
      vertex -7.059994e-01 2.999000e+00 1.892000e+00
      vertex -2.300001e+00 2.999000e+00 0.000000e+00
      vertex -8.659992e-01 2.999000e+00 2.100000e+00
    endloop
  endfacet
  facet normal 0.000000e+00 1.000000e+00 0.000000e+00
    outer loop
      vertex -8.659992e-01 2.999000e+00 2.100000e+00
      vertex -2.300001e+00 2.999000e+00 0.000000e+00
      vertex -2.300001e+00 2.999000e+00 4.600000e+00
    endloop
  endfacet
  facet normal 0.000000e+00 1.000000e+00 0.000000e+00
    outer loop
      vertex 2.300001e+00 2.999000e+00 0.000000e+00
      vertex -4.999981e-01 2.999000e+00 1.734001e+00
      vertex -2.579975e-01 2.999000e+00 1.634001e+00
    endloop
  endfacet
  facet normal 0.000000e+00 1.000000e+00 0.000000e+00
    outer loop
      vertex 2.300001e+00 2.999000e+00 0.000000e+00
      vertex -2.579975e-01 2.999000e+00 1.634001e+00
      vertex 1.907349e-06 2.999000e+00 1.600000e+00
    endloop
  endfacet
  facet normal 0.000000e+00 1.000000e+00 0.000000e+00
    outer loop
      vertex -8.659992e-01 2.999000e+00 2.100000e+00
      vertex -2.300001e+00 2.999000e+00 4.600000e+00
      vertex -9.659977e-01 2.999000e+00 2.340000e+00
    endloop
  endfacet
  facet normal 0.000000e+00 1.000000e+00 0.000000e+00
    outer loop
      vertex -9.659977e-01 2.999000e+00 2.340000e+00
      vertex -2.300001e+00 2.999000e+00 4.600000e+00
      vertex -9.999981e-01 2.999000e+00 2.600000e+00
    endloop
  endfacet
  facet normal 0.000000e+00 1.000000e+00 0.000000e+00
    outer loop
      vertex -9.999981e-01 2.999000e+00 2.600000e+00
      vertex -2.300001e+00 2.999000e+00 4.600000e+00
      vertex -9.659977e-01 2.999000e+00 2.858000e+00
    endloop
  endfacet
  facet normal 0.000000e+00 1.000000e+00 0.000000e+00
    outer loop
      vertex -9.659977e-01 2.999000e+00 2.858000e+00
      vertex -2.300001e+00 2.999000e+00 4.600000e+00
      vertex -8.659992e-01 2.999000e+00 3.100000e+00
    endloop
  endfacet
  facet normal 0.000000e+00 1.000000e+00 0.000000e+00
    outer loop
      vertex -8.659992e-01 2.999000e+00 3.100000e+00
      vertex -2.300001e+00 2.999000e+00 4.600000e+00
      vertex -7.059994e-01 2.999000e+00 3.306002e+00
    endloop
  endfacet
  facet normal 0.000000e+00 1.000000e+00 0.000000e+00
    outer loop
      vertex -7.059994e-01 2.999000e+00 3.306002e+00
      vertex -2.300001e+00 2.999000e+00 4.600000e+00
      vertex -4.999981e-01 2.999000e+00 3.466002e+00
    endloop
  endfacet
  facet normal 0.000000e+00 1.000000e+00 0.000000e+00
    outer loop
      vertex -4.999981e-01 2.999000e+00 3.466002e+00
      vertex -2.300001e+00 2.999000e+00 4.600000e+00
      vertex -2.579975e-01 2.999000e+00 3.566000e+00
    endloop
  endfacet
  facet normal 0.000000e+00 1.000000e+00 0.000000e+00
    outer loop
      vertex -2.579975e-01 2.999000e+00 3.566000e+00
      vertex -2.300001e+00 2.999000e+00 4.600000e+00
      vertex 1.907349e-06 2.999000e+00 3.600000e+00
    endloop
  endfacet
  facet normal 0.000000e+00 1.000000e+00 0.000000e+00
    outer loop
      vertex 2.300001e+00 2.999000e+00 0.000000e+00
      vertex 8.659992e-01 2.999000e+00 2.100000e+00
      vertex 2.300001e+00 2.999000e+00 4.600000e+00
    endloop
  endfacet
  facet normal 0.000000e+00 1.000000e+00 0.000000e+00
    outer loop
      vertex 8.659992e-01 2.999000e+00 2.100000e+00
      vertex 2.300001e+00 2.999000e+00 0.000000e+00
      vertex 7.080021e-01 2.999000e+00 1.892000e+00
    endloop
  endfacet
  facet normal 0.000000e+00 1.000000e+00 0.000000e+00
    outer loop
      vertex 7.080021e-01 2.999000e+00 1.892000e+00
      vertex 2.300001e+00 2.999000e+00 0.000000e+00
      vertex 5.000019e-01 2.999000e+00 1.734001e+00
    endloop
  endfacet
  facet normal 0.000000e+00 1.000000e+00 0.000000e+00
    outer loop
      vertex 5.000019e-01 2.999000e+00 1.734001e+00
      vertex 2.300001e+00 2.999000e+00 0.000000e+00
      vertex 2.600002e-01 2.999000e+00 1.634001e+00
    endloop
  endfacet
  facet normal 0.000000e+00 1.000000e+00 0.000000e+00
    outer loop
      vertex 2.600002e-01 2.999000e+00 1.634001e+00
      vertex 2.300001e+00 2.999000e+00 0.000000e+00
      vertex 1.907349e-06 2.999000e+00 1.600000e+00
    endloop
  endfacet
  facet normal 0.000000e+00 1.000000e+00 0.000000e+00
    outer loop
      vertex 2.300001e+00 2.999000e+00 4.600000e+00
      vertex 8.659992e-01 2.999000e+00 2.100000e+00
      vertex 9.660015e-01 2.999000e+00 2.340000e+00
    endloop
  endfacet
  facet normal 0.000000e+00 1.000000e+00 0.000000e+00
    outer loop
      vertex 2.300001e+00 2.999000e+00 4.600000e+00
      vertex 9.660015e-01 2.999000e+00 2.340000e+00
      vertex 1.000002e+00 2.999000e+00 2.600000e+00
    endloop
  endfacet
  facet normal 0.000000e+00 1.000000e+00 0.000000e+00
    outer loop
      vertex 2.300001e+00 2.999000e+00 4.600000e+00
      vertex 1.000002e+00 2.999000e+00 2.600000e+00
      vertex 9.660015e-01 2.999000e+00 2.858000e+00
    endloop
  endfacet
  facet normal 0.000000e+00 1.000000e+00 0.000000e+00
    outer loop
      vertex 2.300001e+00 2.999000e+00 4.600000e+00
      vertex 9.660015e-01 2.999000e+00 2.858000e+00
      vertex 8.659992e-01 2.999000e+00 3.100000e+00
    endloop
  endfacet
  facet normal 0.000000e+00 1.000000e+00 0.000000e+00
    outer loop
      vertex 2.300001e+00 2.999000e+00 4.600000e+00
      vertex 8.659992e-01 2.999000e+00 3.100000e+00
      vertex 7.080021e-01 2.999000e+00 3.306002e+00
    endloop
  endfacet
  facet normal 0.000000e+00 1.000000e+00 0.000000e+00
    outer loop
      vertex 2.300001e+00 2.999000e+00 4.600000e+00
      vertex 7.080021e-01 2.999000e+00 3.306002e+00
      vertex 5.000019e-01 2.999000e+00 3.466002e+00
    endloop
  endfacet
  facet normal 0.000000e+00 1.000000e+00 0.000000e+00
    outer loop
      vertex 2.300001e+00 2.999000e+00 4.600000e+00
      vertex 5.000019e-01 2.999000e+00 3.466002e+00
      vertex 2.600002e-01 2.999000e+00 3.566000e+00
    endloop
  endfacet
  facet normal 0.000000e+00 1.000000e+00 0.000000e+00
    outer loop
      vertex 2.300001e+00 2.999000e+00 4.600000e+00
      vertex 2.600002e-01 2.999000e+00 3.566000e+00
      vertex 1.907349e-06 2.999000e+00 3.600000e+00
    endloop
  endfacet
  facet normal 0.000000e+00 1.000000e+00 0.000000e+00
    outer loop
      vertex 2.300001e+00 2.999000e+00 4.600000e+00
      vertex 1.907349e-06 2.999000e+00 3.600000e+00
      vertex -2.300001e+00 2.999000e+00 4.600000e+00
    endloop
  endfacet
  facet normal 0.000000e+00 0.000000e+00 -1.000000e+00
    outer loop
      vertex 2.300001e+00 2.999000e+00 0.000000e+00
      vertex -2.300001e+00 -2.999000e+00 0.000000e+00
      vertex -2.300001e+00 2.999000e+00 0.000000e+00
    endloop
  endfacet
  facet normal 0.000000e+00 0.000000e+00 -1.000000e+00
    outer loop
      vertex -2.300001e+00 -2.999000e+00 0.000000e+00
      vertex 2.300001e+00 2.999000e+00 0.000000e+00
      vertex 2.300001e+00 -2.999000e+00 0.000000e+00
    endloop
  endfacet
  facet normal 0.000000e+00 -1.000000e+00 0.000000e+00
    outer loop
      vertex 2.300001e+00 -2.999000e+00 0.000000e+00
      vertex 5.000019e-01 -2.999000e+00 1.734001e+00
      vertex -2.300001e+00 -2.999000e+00 0.000000e+00
    endloop
  endfacet
  facet normal 0.000000e+00 -1.000000e+00 0.000000e+00
    outer loop
      vertex 5.000019e-01 -2.999000e+00 1.734001e+00
      vertex 2.300001e+00 -2.999000e+00 0.000000e+00
      vertex 7.080021e-01 -2.999000e+00 1.892000e+00
    endloop
  endfacet
  facet normal 0.000000e+00 -1.000000e+00 0.000000e+00
    outer loop
      vertex 7.080021e-01 -2.999000e+00 1.892000e+00
      vertex 2.300001e+00 -2.999000e+00 0.000000e+00
      vertex 8.280010e-01 -2.999000e+00 2.050001e+00
    endloop
  endfacet
  facet normal 0.000000e+00 -1.000000e+00 0.000000e+00
    outer loop
      vertex 8.280010e-01 -2.999000e+00 2.050001e+00
      vertex 2.300001e+00 -2.999000e+00 0.000000e+00
      vertex 8.659992e-01 -2.999000e+00 2.100000e+00
    endloop
  endfacet
  facet normal 0.000000e+00 -1.000000e+00 0.000000e+00
    outer loop
      vertex 8.659992e-01 -2.999000e+00 2.100000e+00
      vertex 2.300001e+00 -2.999000e+00 0.000000e+00
      vertex 2.300001e+00 -2.999000e+00 4.600000e+00
    endloop
  endfacet
  facet normal 0.000000e+00 -1.000000e+00 0.000000e+00
    outer loop
      vertex -2.300001e+00 -2.999000e+00 0.000000e+00
      vertex 5.000019e-01 -2.999000e+00 1.734001e+00
      vertex 2.600002e-01 -2.999000e+00 1.634001e+00
    endloop
  endfacet
  facet normal 0.000000e+00 -1.000000e+00 0.000000e+00
    outer loop
      vertex -2.300001e+00 -2.999000e+00 0.000000e+00
      vertex 2.600002e-01 -2.999000e+00 1.634001e+00
      vertex 1.907349e-06 -2.999000e+00 1.600000e+00
    endloop
  endfacet
  facet normal 0.000000e+00 -1.000000e+00 0.000000e+00
    outer loop
      vertex 8.659992e-01 -2.999000e+00 2.100000e+00
      vertex 2.300001e+00 -2.999000e+00 4.600000e+00
      vertex 9.660015e-01 -2.999000e+00 2.340000e+00
    endloop
  endfacet
  facet normal 0.000000e+00 -1.000000e+00 0.000000e+00
    outer loop
      vertex 9.660015e-01 -2.999000e+00 2.340000e+00
      vertex 2.300001e+00 -2.999000e+00 4.600000e+00
      vertex 1.000002e+00 -2.999000e+00 2.600000e+00
    endloop
  endfacet
  facet normal 0.000000e+00 -1.000000e+00 0.000000e+00
    outer loop
      vertex 1.000002e+00 -2.999000e+00 2.600000e+00
      vertex 2.300001e+00 -2.999000e+00 4.600000e+00
      vertex 9.660015e-01 -2.999000e+00 2.858000e+00
    endloop
  endfacet
  facet normal 0.000000e+00 -1.000000e+00 0.000000e+00
    outer loop
      vertex 9.660015e-01 -2.999000e+00 2.858000e+00
      vertex 2.300001e+00 -2.999000e+00 4.600000e+00
      vertex 8.659992e-01 -2.999000e+00 3.100000e+00
    endloop
  endfacet
  facet normal 0.000000e+00 -1.000000e+00 0.000000e+00
    outer loop
      vertex 8.659992e-01 -2.999000e+00 3.100000e+00
      vertex 2.300001e+00 -2.999000e+00 4.600000e+00
      vertex 7.080021e-01 -2.999000e+00 3.306002e+00
    endloop
  endfacet
  facet normal 0.000000e+00 -1.000000e+00 0.000000e+00
    outer loop
      vertex 7.080021e-01 -2.999000e+00 3.306002e+00
      vertex 2.300001e+00 -2.999000e+00 4.600000e+00
      vertex 5.000019e-01 -2.999000e+00 3.466002e+00
    endloop
  endfacet
  facet normal 0.000000e+00 -1.000000e+00 0.000000e+00
    outer loop
      vertex 5.000019e-01 -2.999000e+00 3.466002e+00
      vertex 2.300001e+00 -2.999000e+00 4.600000e+00
      vertex 2.600002e-01 -2.999000e+00 3.566000e+00
    endloop
  endfacet
  facet normal 0.000000e+00 -1.000000e+00 0.000000e+00
    outer loop
      vertex 2.600002e-01 -2.999000e+00 3.566000e+00
      vertex 2.300001e+00 -2.999000e+00 4.600000e+00
      vertex 1.907349e-06 -2.999000e+00 3.600000e+00
    endloop
  endfacet
  facet normal 0.000000e+00 -1.000000e+00 0.000000e+00
    outer loop
      vertex -2.300001e+00 -2.999000e+00 0.000000e+00
      vertex -8.659992e-01 -2.999000e+00 2.100000e+00
      vertex -2.300001e+00 -2.999000e+00 4.600000e+00
    endloop
  endfacet
  facet normal 0.000000e+00 -1.000000e+00 0.000000e+00
    outer loop
      vertex -8.659992e-01 -2.999000e+00 2.100000e+00
      vertex -2.300001e+00 -2.999000e+00 0.000000e+00
      vertex -7.059994e-01 -2.999000e+00 1.892000e+00
    endloop
  endfacet
  facet normal 0.000000e+00 -1.000000e+00 0.000000e+00
    outer loop
      vertex -7.059994e-01 -2.999000e+00 1.892000e+00
      vertex -2.300001e+00 -2.999000e+00 0.000000e+00
      vertex -4.999981e-01 -2.999000e+00 1.734001e+00
    endloop
  endfacet
  facet normal 0.000000e+00 -1.000000e+00 0.000000e+00
    outer loop
      vertex -4.999981e-01 -2.999000e+00 1.734001e+00
      vertex -2.300001e+00 -2.999000e+00 0.000000e+00
      vertex -2.579975e-01 -2.999000e+00 1.634001e+00
    endloop
  endfacet
  facet normal 0.000000e+00 -1.000000e+00 0.000000e+00
    outer loop
      vertex -2.579975e-01 -2.999000e+00 1.634001e+00
      vertex -2.300001e+00 -2.999000e+00 0.000000e+00
      vertex 1.907349e-06 -2.999000e+00 1.600000e+00
    endloop
  endfacet
  facet normal 0.000000e+00 -1.000000e+00 0.000000e+00
    outer loop
      vertex -2.300001e+00 -2.999000e+00 4.600000e+00
      vertex -8.659992e-01 -2.999000e+00 2.100000e+00
      vertex -9.659977e-01 -2.999000e+00 2.340000e+00
    endloop
  endfacet
  facet normal 0.000000e+00 -1.000000e+00 0.000000e+00
    outer loop
      vertex -2.300001e+00 -2.999000e+00 4.600000e+00
      vertex -9.659977e-01 -2.999000e+00 2.340000e+00
      vertex -9.999981e-01 -2.999000e+00 2.600000e+00
    endloop
  endfacet
  facet normal 0.000000e+00 -1.000000e+00 0.000000e+00
    outer loop
      vertex -2.300001e+00 -2.999000e+00 4.600000e+00
      vertex -9.999981e-01 -2.999000e+00 2.600000e+00
      vertex -9.659977e-01 -2.999000e+00 2.858000e+00
    endloop
  endfacet
  facet normal 0.000000e+00 -1.000000e+00 0.000000e+00
    outer loop
      vertex -2.300001e+00 -2.999000e+00 4.600000e+00
      vertex -9.659977e-01 -2.999000e+00 2.858000e+00
      vertex -8.659992e-01 -2.999000e+00 3.100000e+00
    endloop
  endfacet
  facet normal 0.000000e+00 -1.000000e+00 0.000000e+00
    outer loop
      vertex -2.300001e+00 -2.999000e+00 4.600000e+00
      vertex -8.659992e-01 -2.999000e+00 3.100000e+00
      vertex -7.059994e-01 -2.999000e+00 3.306002e+00
    endloop
  endfacet
  facet normal 0.000000e+00 -1.000000e+00 0.000000e+00
    outer loop
      vertex -2.300001e+00 -2.999000e+00 4.600000e+00
      vertex -7.059994e-01 -2.999000e+00 3.306002e+00
      vertex -4.999981e-01 -2.999000e+00 3.466002e+00
    endloop
  endfacet
  facet normal 0.000000e+00 -1.000000e+00 0.000000e+00
    outer loop
      vertex -2.300001e+00 -2.999000e+00 4.600000e+00
      vertex -4.999981e-01 -2.999000e+00 3.466002e+00
      vertex -2.579975e-01 -2.999000e+00 3.566000e+00
    endloop
  endfacet
  facet normal 0.000000e+00 -1.000000e+00 0.000000e+00
    outer loop
      vertex -2.300001e+00 -2.999000e+00 4.600000e+00
      vertex -2.579975e-01 -2.999000e+00 3.566000e+00
      vertex 1.907349e-06 -2.999000e+00 3.600000e+00
    endloop
  endfacet
  facet normal 0.000000e+00 -1.000000e+00 0.000000e+00
    outer loop
      vertex -2.300001e+00 -2.999000e+00 4.600000e+00
      vertex 1.907349e-06 -2.999000e+00 3.600000e+00
      vertex 2.300001e+00 -2.999000e+00 4.600000e+00
    endloop
  endfacet
  facet normal 0.000000e+00 9.284759e-01 3.713926e-01
    outer loop
      vertex -2.300001e+00 -9.769999e-01 2.110001e+00
      vertex -8.280010e-01 -9.530000e-01 2.050001e+00
      vertex -2.300001e+00 -9.530000e-01 2.050001e+00
    endloop
  endfacet
  facet normal 1.303624e-07 9.284748e-01 3.713953e-01
    outer loop
      vertex -8.280010e-01 -9.530000e-01 2.050001e+00
      vertex -2.300001e+00 -9.769999e-01 2.110001e+00
      vertex -8.659992e-01 -9.730000e-01 2.100000e+00
    endloop
  endfacet
  facet normal 1.326287e-04 9.217786e-01 3.877168e-01
    outer loop
      vertex -8.659992e-01 -9.730000e-01 2.100000e+00
      vertex -2.300001e+00 -9.769999e-01 2.110001e+00
      vertex -9.540005e-01 -1.063000e+00 2.314001e+00
    endloop
  endfacet
  facet normal 0.000000e+00 9.214656e-01 3.884600e-01
    outer loop
      vertex -9.540005e-01 -1.063000e+00 2.314001e+00
      vertex -2.300001e+00 -9.769999e-01 2.110001e+00
      vertex -2.300001e+00 -1.063000e+00 2.314001e+00
    endloop
  endfacet
  facet normal 0.000000e+00 9.970540e-01 7.670280e-02
    outer loop
      vertex 9.660015e-01 -1.065000e+00 2.340000e+00
      vertex 2.300001e+00 -1.063000e+00 2.314001e+00
      vertex 9.559994e-01 -1.063000e+00 2.314001e+00
    endloop
  endfacet
  facet normal 9.464488e-04 9.921703e-01 1.248889e-01
    outer loop
      vertex 2.300001e+00 -1.063000e+00 2.314001e+00
      vertex 9.660015e-01 -1.065000e+00 2.340000e+00
      vertex 2.300001e+00 -1.099000e+00 2.600000e+00
    endloop
  endfacet
  facet normal 0.000000e+00 9.915578e-01 1.296648e-01
    outer loop
      vertex 2.300001e+00 -1.099000e+00 2.600000e+00
      vertex 9.660015e-01 -1.065000e+00 2.340000e+00
      vertex 1.000002e+00 -1.099000e+00 2.600000e+00
    endloop
  endfacet
  facet normal 0.000000e+00 9.920615e-01 -1.257541e-01
    outer loop
      vertex -2.300001e+00 -1.063000e+00 2.884001e+00
      vertex -9.999981e-01 -1.099000e+00 2.600000e+00
      vertex -2.300001e+00 -1.099000e+00 2.600000e+00
    endloop
  endfacet
  facet normal -1.057393e-03 9.914456e-01 -1.305163e-01
    outer loop
      vertex -9.999981e-01 -1.099000e+00 2.600000e+00
      vertex -2.300001e+00 -1.063000e+00 2.884001e+00
      vertex -9.659977e-01 -1.065000e+00 2.858000e+00
    endloop
  endfacet
  facet normal 0.000000e+00 9.970544e-01 -7.669719e-02
    outer loop
      vertex -9.659977e-01 -1.065000e+00 2.858000e+00
      vertex -2.300001e+00 -1.063000e+00 2.884001e+00
      vertex -9.540005e-01 -1.063000e+00 2.884001e+00
    endloop
  endfacet
  facet normal 0.000000e+00 9.230768e-01 -3.846157e-01
    outer loop
      vertex -2.300001e+00 -1.063000e+00 2.884001e+00
      vertex -8.659992e-01 -9.730000e-01 3.100000e+00
      vertex -9.540005e-01 -1.063000e+00 2.884001e+00
    endloop
  endfacet
  facet normal -4.363419e-04 9.241019e-01 -3.821459e-01
    outer loop
      vertex -8.659992e-01 -9.730000e-01 3.100000e+00
      vertex -2.300001e+00 -1.063000e+00 2.884001e+00
      vertex -2.300001e+00 -9.530000e-01 3.150002e+00
    endloop
  endfacet
  facet normal 0.000000e+00 9.284797e-01 -3.713830e-01
    outer loop
      vertex -8.659992e-01 -9.730000e-01 3.100000e+00
      vertex -2.300001e+00 -9.530000e-01 3.150002e+00
      vertex -8.280010e-01 -9.530000e-01 3.150002e+00
    endloop
  endfacet
  facet normal 0.000000e+00 7.915885e-01 -6.110545e-01
    outer loop
      vertex 8.280010e-01 -9.530000e-01 3.150002e+00
      vertex 2.300001e+00 -7.769999e-01 3.378000e+00
      vertex 2.300001e+00 -9.530000e-01 3.150002e+00
    endloop
  endfacet
  facet normal -2.965586e-04 7.925137e-01 -6.098541e-01
    outer loop
      vertex 2.300001e+00 -7.769999e-01 3.378000e+00
      vertex 8.280010e-01 -9.530000e-01 3.150002e+00
      vertex 7.080021e-01 -8.329999e-01 3.306002e+00
    endloop
  endfacet
  facet normal 0.000000e+00 7.893464e-01 -6.139480e-01
    outer loop
      vertex 2.300001e+00 -7.769999e-01 3.378000e+00
      vertex 7.080021e-01 -8.329999e-01 3.306002e+00
      vertex 6.159992e-01 -7.769999e-01 3.378000e+00
    endloop
  endfacet
  facet normal -2.292095e-03 6.267146e-01 -7.792454e-01
    outer loop
      vertex 2.300001e+00 -5.490000e-01 3.552000e+00
      vertex 5.000019e-01 -6.649999e-01 3.464001e+00
      vertex 2.600002e-01 -5.490000e-01 3.558001e+00
    endloop
  endfacet
  facet normal -4.431411e-04 6.087393e-01 -7.933702e-01
    outer loop
      vertex 5.000019e-01 -6.649999e-01 3.464001e+00
      vertex 2.300001e+00 -5.490000e-01 3.552000e+00
      vertex 6.159992e-01 -7.769999e-01 3.378000e+00
    endloop
  endfacet
  facet normal 0.000000e+00 6.066729e-01 -7.949515e-01
    outer loop
      vertex 6.159992e-01 -7.769999e-01 3.378000e+00
      vertex 2.300001e+00 -5.490000e-01 3.552000e+00
      vertex 2.300001e+00 -7.769999e-01 3.378000e+00
    endloop
  endfacet
  facet normal 0.000000e+00 3.846172e-01 -9.230763e-01
    outer loop
      vertex 2.300001e+00 -2.849999e-01 3.662001e+00
      vertex -1.999998e+00 -5.490000e-01 3.552000e+00
      vertex -1.999998e+00 -2.849999e-01 3.662001e+00
    endloop
  endfacet
  facet normal 3.240394e-03 3.391869e-01 -9.407134e-01
    outer loop
      vertex -1.999998e+00 -5.490000e-01 3.552000e+00
      vertex 2.300001e+00 -2.849999e-01 3.662001e+00
      vertex -2.579975e-01 -5.490000e-01 3.558001e+00
    endloop
  endfacet
  facet normal 0.000000e+00 3.665248e-01 -9.304083e-01
    outer loop
      vertex -2.579975e-01 -5.490000e-01 3.558001e+00
      vertex 2.300001e+00 -2.849999e-01 3.662001e+00
      vertex 2.600002e-01 -5.490000e-01 3.558001e+00
    endloop
  endfacet
  facet normal -2.715154e-03 3.846157e-01 -9.230728e-01
    outer loop
      vertex 2.600002e-01 -5.490000e-01 3.558001e+00
      vertex 2.300001e+00 -2.849999e-01 3.662001e+00
      vertex 2.300001e+00 -5.490000e-01 3.552000e+00
    endloop
  endfacet
  facet normal 0.000000e+00 1.317100e-01 -9.912883e-01
    outer loop
      vertex 2.300001e+00 1.000106e-03 3.700001e+00
      vertex -1.999998e+00 -2.849999e-01 3.662001e+00
      vertex -1.999998e+00 1.000106e-03 3.700001e+00
    endloop
  endfacet
  facet normal 0.000000e+00 1.317100e-01 -9.912883e-01
    outer loop
      vertex -1.999998e+00 -2.849999e-01 3.662001e+00
      vertex 2.300001e+00 1.000106e-03 3.700001e+00
      vertex 2.300001e+00 -2.849999e-01 3.662001e+00
    endloop
  endfacet
  facet normal -0.000000e+00 -1.326213e-01 -9.911668e-01
    outer loop
      vertex 2.300001e+00 2.850000e-01 3.662001e+00
      vertex -1.999998e+00 1.000106e-03 3.700001e+00
      vertex -1.999998e+00 2.850000e-01 3.662001e+00
    endloop
  endfacet
  facet normal 0.000000e+00 -1.326213e-01 -9.911668e-01
    outer loop
      vertex -1.999998e+00 1.000106e-03 3.700001e+00
      vertex 2.300001e+00 2.850000e-01 3.662001e+00
      vertex 2.300001e+00 1.000106e-03 3.700001e+00
    endloop
  endfacet
  facet normal 3.183154e-03 -3.821470e-01 -9.240962e-01
    outer loop
      vertex -2.579975e-01 5.510001e-01 3.558001e+00
      vertex -1.999998e+00 2.850000e-01 3.662001e+00
      vertex -1.999998e+00 5.510001e-01 3.552000e+00
    endloop
  endfacet
  facet normal 0.000000e+00 -3.641355e-01 -9.313461e-01
    outer loop
      vertex -1.999998e+00 2.850000e-01 3.662001e+00
      vertex -2.579975e-01 5.510001e-01 3.558001e+00
      vertex 2.300001e+00 2.850000e-01 3.662001e+00
    endloop
  endfacet
  facet normal 0.000000e+00 -3.641355e-01 -9.313460e-01
    outer loop
      vertex 2.300001e+00 2.850000e-01 3.662001e+00
      vertex -2.579975e-01 5.510001e-01 3.558001e+00
      vertex 2.600002e-01 5.510001e-01 3.558001e+00
    endloop
  endfacet
  facet normal -2.718167e-03 -3.821475e-01 -9.240974e-01
    outer loop
      vertex 2.300001e+00 2.850000e-01 3.662001e+00
      vertex 2.600002e-01 5.510001e-01 3.558001e+00
      vertex 2.300001e+00 5.510001e-01 3.552000e+00
    endloop
  endfacet
  facet normal -2.276327e-03 -6.333224e-01 -7.738847e-01
    outer loop
      vertex 5.000019e-01 6.650001e-01 3.464001e+00
      vertex 2.300001e+00 5.510001e-01 3.552000e+00
      vertex 2.600002e-01 5.510001e-01 3.558001e+00
    endloop
  endfacet
  facet normal 1.915355e-04 -6.091527e-01 -7.930530e-01
    outer loop
      vertex 2.300001e+00 5.510001e-01 3.552000e+00
      vertex 5.000019e-01 6.650001e-01 3.464001e+00
      vertex 6.159992e-01 7.770001e-01 3.378000e+00
    endloop
  endfacet
  facet normal 0.000000e+00 -6.100491e-01 -7.923637e-01
    outer loop
      vertex 2.300001e+00 5.510001e-01 3.552000e+00
      vertex 6.159992e-01 7.770001e-01 3.378000e+00
      vertex 2.300001e+00 7.770001e-01 3.378000e+00
    endloop
  endfacet
  facet normal 0.000000e+00 -7.915888e-01 -6.110542e-01
    outer loop
      vertex 2.300001e+00 7.770001e-01 3.378000e+00
      vertex 8.280010e-01 9.530001e-01 3.150002e+00
      vertex 2.300001e+00 9.530001e-01 3.150002e+00
    endloop
  endfacet
  facet normal -2.965918e-04 -7.925140e-01 -6.098536e-01
    outer loop
      vertex 8.280010e-01 9.530001e-01 3.150002e+00
      vertex 2.300001e+00 7.770001e-01 3.378000e+00
      vertex 7.080021e-01 8.330001e-01 3.306002e+00
    endloop
  endfacet
  facet normal 0.000000e+00 -7.893464e-01 -6.139480e-01
    outer loop
      vertex 7.080021e-01 8.330001e-01 3.306002e+00
      vertex 2.300001e+00 7.770001e-01 3.378000e+00
      vertex 6.159992e-01 7.770001e-01 3.378000e+00
    endloop
  endfacet
  facet normal 0.000000e+00 -9.230767e-01 -3.846160e-01
    outer loop
      vertex -8.659992e-01 9.730001e-01 3.100000e+00
      vertex -2.300001e+00 1.063000e+00 2.884001e+00
      vertex -9.540005e-01 1.063000e+00 2.884001e+00
    endloop
  endfacet
  facet normal -4.363371e-04 -9.241017e-01 -3.821463e-01
    outer loop
      vertex -2.300001e+00 1.063000e+00 2.884001e+00
      vertex -8.659992e-01 9.730001e-01 3.100000e+00
      vertex -2.300001e+00 9.530001e-01 3.150002e+00
    endloop
  endfacet
  facet normal 0.000000e+00 -9.284796e-01 -3.713835e-01
    outer loop
      vertex -2.300001e+00 9.530001e-01 3.150002e+00
      vertex -8.659992e-01 9.730001e-01 3.100000e+00
      vertex -8.280010e-01 9.530001e-01 3.150002e+00
    endloop
  endfacet
  facet normal 0.000000e+00 -9.911668e-01 -1.326208e-01
    outer loop
      vertex 2.300001e+00 1.063000e+00 2.884001e+00
      vertex 1.000002e+00 1.101000e+00 2.600000e+00
      vertex 2.300001e+00 1.101000e+00 2.600000e+00
    endloop
  endfacet
  facet normal 1.205645e-03 -9.904259e-01 -1.380404e-01
    outer loop
      vertex 1.000002e+00 1.101000e+00 2.600000e+00
      vertex 2.300001e+00 1.063000e+00 2.884001e+00
      vertex 9.660015e-01 1.065000e+00 2.858000e+00
    endloop
  endfacet
  facet normal 0.000000e+00 -9.970547e-01 -7.669379e-02
    outer loop
      vertex 9.660015e-01 1.065000e+00 2.858000e+00
      vertex 2.300001e+00 1.063000e+00 2.884001e+00
      vertex 9.559994e-01 1.063000e+00 2.884001e+00
    endloop
  endfacet
  facet normal 0.000000e+00 -9.912884e-01 1.317100e-01
    outer loop
      vertex 2.300001e+00 1.101000e+00 2.600000e+00
      vertex 9.559994e-01 1.063000e+00 2.314001e+00
      vertex 2.300001e+00 1.063000e+00 2.314001e+00
    endloop
  endfacet
  facet normal 1.293111e-02 -9.973391e-01 7.174654e-02
    outer loop
      vertex 9.559994e-01 1.063000e+00 2.314001e+00
      vertex 2.300001e+00 1.101000e+00 2.600000e+00
      vertex 9.660015e-01 1.065000e+00 2.340000e+00
    endloop
  endfacet
  facet normal 0.000000e+00 -9.905499e-01 1.371530e-01
    outer loop
      vertex 9.660015e-01 1.065000e+00 2.340000e+00
      vertex 2.300001e+00 1.101000e+00 2.600000e+00
      vertex 1.000002e+00 1.101000e+00 2.600000e+00
    endloop
  endfacet
  facet normal 0.000000e+00 -9.230769e-01 3.846155e-01
    outer loop
      vertex 2.300001e+00 1.063000e+00 2.314001e+00
      vertex 8.280010e-01 9.530001e-01 2.050001e+00
      vertex 2.300001e+00 9.530001e-01 2.050001e+00
    endloop
  endfacet
  facet normal 3.215005e-03 -9.293100e-01 3.692865e-01
    outer loop
      vertex 8.280010e-01 9.530001e-01 2.050001e+00
      vertex 2.300001e+00 1.063000e+00 2.314001e+00
      vertex 8.659992e-01 9.730001e-01 2.100000e+00
    endloop
  endfacet
  facet normal 0.000000e+00 -9.217980e-01 3.876708e-01
    outer loop
      vertex 8.659992e-01 9.730001e-01 2.100000e+00
      vertex 2.300001e+00 1.063000e+00 2.314001e+00
      vertex 9.559994e-01 1.063000e+00 2.314001e+00
    endloop
  endfacet
  facet normal 0.000000e+00 0.000000e+00 1.000000e+00
    outer loop
      vertex 2.300001e+00 -9.769999e-01 8.000011e-01
      vertex -2.300001e+00 9.770001e-01 8.000011e-01
      vertex -2.300001e+00 -9.769999e-01 8.000011e-01
    endloop
  endfacet
  facet normal 0.000000e+00 0.000000e+00 1.000000e+00
    outer loop
      vertex -2.300001e+00 9.770001e-01 8.000011e-01
      vertex 2.300001e+00 -9.769999e-01 8.000011e-01
      vertex 2.300001e+00 9.770001e-01 8.000011e-01
    endloop
  endfacet
  facet normal 6.074460e-01 0.000000e+00 7.943611e-01
    outer loop
      vertex -7.059994e-01 2.999000e+00 1.892000e+00
      vertex -7.740002e-01 9.770001e-01 1.944000e+00
      vertex -7.059994e-01 9.770001e-01 1.892000e+00
    endloop
  endfacet
  facet normal 8.111198e-01 3.244091e-01 4.866655e-01
    outer loop
      vertex -7.740002e-01 9.770001e-01 1.944000e+00
      vertex -8.659992e-01 9.730001e-01 2.100000e+00
      vertex -8.280010e-01 9.530001e-01 2.050001e+00
    endloop
  endfacet
  facet normal 8.613684e-01 0.000000e+00 5.079808e-01
    outer loop
      vertex -8.659992e-01 9.730001e-01 2.100000e+00
      vertex -7.740002e-01 9.770001e-01 1.944000e+00
      vertex -8.659992e-01 2.999000e+00 2.100000e+00
    endloop
  endfacet
  facet normal 7.925768e-01 -1.097567e-02 6.096733e-01
    outer loop
      vertex -8.659992e-01 2.999000e+00 2.100000e+00
      vertex -7.740002e-01 9.770001e-01 1.944000e+00
      vertex -7.059994e-01 2.999000e+00 1.892000e+00
    endloop
  endfacet
  facet normal 9.248555e-01 0.000000e+00 3.803186e-01
    outer loop
      vertex -8.659992e-01 2.999000e+00 2.100000e+00
      vertex -9.540005e-01 1.063000e+00 2.314001e+00
      vertex -8.659992e-01 9.730001e-01 2.100000e+00
    endloop
  endfacet
  facet normal 9.081255e-01 4.999545e-03 4.186683e-01
    outer loop
      vertex -9.540005e-01 1.063000e+00 2.314001e+00
      vertex -8.659992e-01 2.999000e+00 2.100000e+00
      vertex -9.659977e-01 1.065000e+00 2.340000e+00
    endloop
  endfacet
  facet normal 9.230789e-01 0.000000e+00 3.846107e-01
    outer loop
      vertex -9.659977e-01 1.065000e+00 2.340000e+00
      vertex -8.659992e-01 2.999000e+00 2.100000e+00
      vertex -9.659977e-01 2.999000e+00 2.340000e+00
    endloop
  endfacet
  facet normal 9.915577e-01 0.000000e+00 1.296666e-01
    outer loop
      vertex -9.659977e-01 2.999000e+00 2.340000e+00
      vertex -9.999981e-01 1.101000e+00 2.600000e+00
      vertex -9.659977e-01 1.065000e+00 2.340000e+00
    endloop
  endfacet
  facet normal 9.915576e-01 0.000000e+00 1.296666e-01
    outer loop
      vertex -9.999981e-01 1.101000e+00 2.600000e+00
      vertex -9.659977e-01 2.999000e+00 2.340000e+00
      vertex -9.999981e-01 2.999000e+00 2.600000e+00
    endloop
  endfacet
  facet normal 9.914278e-01 0.000000e+00 -1.306551e-01
    outer loop
      vertex -9.999981e-01 1.101000e+00 2.600000e+00
      vertex -9.659977e-01 2.999000e+00 2.858000e+00
      vertex -9.659977e-01 1.065000e+00 2.858000e+00
    endloop
  endfacet
  facet normal 9.914278e-01 0.000000e+00 -1.306551e-01
    outer loop
      vertex -9.659977e-01 2.999000e+00 2.858000e+00
      vertex -9.999981e-01 1.101000e+00 2.600000e+00
      vertex -9.999981e-01 2.999000e+00 2.600000e+00
    endloop
  endfacet
  facet normal 9.260903e-01 0.000000e+00 -3.773021e-01
    outer loop
      vertex -9.540005e-01 1.063000e+00 2.884001e+00
      vertex -8.659992e-01 2.999000e+00 3.100000e+00
      vertex -8.659992e-01 9.730001e-01 3.100000e+00
    endloop
  endfacet
  facet normal 9.081476e-01 5.424873e-03 -4.186150e-01
    outer loop
      vertex -8.659992e-01 2.999000e+00 3.100000e+00
      vertex -9.540005e-01 1.063000e+00 2.884001e+00
      vertex -9.659977e-01 1.065000e+00 2.858000e+00
    endloop
  endfacet
  facet normal 9.242052e-01 0.000000e+00 -3.818962e-01
    outer loop
      vertex -8.659992e-01 2.999000e+00 3.100000e+00
      vertex -9.659977e-01 1.065000e+00 2.858000e+00
      vertex -9.659977e-01 2.999000e+00 2.858000e+00
    endloop
  endfacet
  facet normal 7.877144e-01 0.000000e+00 -6.160408e-01
    outer loop
      vertex -8.280010e-01 9.530001e-01 3.150002e+00
      vertex -7.059994e-01 2.999000e+00 3.306002e+00
      vertex -7.059994e-01 8.330001e-01 3.306002e+00
    endloop
  endfacet
  facet normal 7.959310e-01 -1.302344e-03 -6.053860e-01
    outer loop
      vertex -7.059994e-01 2.999000e+00 3.306002e+00
      vertex -8.280010e-01 9.530001e-01 3.150002e+00
      vertex -8.659992e-01 9.730001e-01 3.100000e+00
    endloop
  endfacet
  facet normal 7.897671e-01 0.000000e+00 -6.134069e-01
    outer loop
      vertex -7.059994e-01 2.999000e+00 3.306002e+00
      vertex -8.659992e-01 9.730001e-01 3.100000e+00
      vertex -8.659992e-01 2.999000e+00 3.100000e+00
    endloop
  endfacet
  facet normal 6.134069e-01 0.000000e+00 -7.897670e-01
    outer loop
      vertex -4.999981e-01 2.999000e+00 3.466002e+00
      vertex -7.059994e-01 8.330001e-01 3.306002e+00
      vertex -7.059994e-01 2.999000e+00 3.306002e+00
    endloop
  endfacet
  facet normal 6.161467e-01 -4.183462e-04 -7.876313e-01
    outer loop
      vertex -7.059994e-01 8.330001e-01 3.306002e+00
      vertex -4.999981e-01 2.999000e+00 3.466002e+00
      vertex -6.140003e-01 7.770001e-01 3.378000e+00
    endloop
  endfacet
  facet normal 6.026611e-01 6.840784e-04 -7.979969e-01
    outer loop
      vertex -6.140003e-01 7.770001e-01 3.378000e+00
      vertex -4.999981e-01 2.999000e+00 3.466002e+00
      vertex -4.999981e-01 6.650001e-01 3.464001e+00
    endloop
  endfacet
  facet normal 3.818961e-01 7.922696e-04 -9.242049e-01
    outer loop
      vertex -2.579975e-01 2.999000e+00 3.566000e+00
      vertex -4.999981e-01 6.650001e-01 3.464001e+00
      vertex -4.999981e-01 2.999000e+00 3.466002e+00
    endloop
  endfacet
  facet normal 3.633174e-01 3.044422e-03 -9.316605e-01
    outer loop
      vertex -4.999981e-01 6.650001e-01 3.464001e+00
      vertex -2.579975e-01 2.999000e+00 3.566000e+00
      vertex -2.579975e-01 5.510001e-01 3.558001e+00
    endloop
  endfacet
  facet normal 1.306544e-01 3.239708e-03 -9.914227e-01
    outer loop
      vertex 1.907349e-06 2.999000e+00 3.600000e+00
      vertex -2.579975e-01 5.510001e-01 3.558001e+00
      vertex -2.579975e-01 2.999000e+00 3.566000e+00
    endloop
  endfacet
  facet normal 1.535335e-01 7.721659e-04 -9.881431e-01
    outer loop
      vertex -2.579975e-01 5.510001e-01 3.558001e+00
      vertex 1.907349e-06 2.999000e+00 3.600000e+00
      vertex 1.907349e-06 4.410001e-01 3.598001e+00
    endloop
  endfacet
  facet normal -1.296675e-01 7.748338e-04 -9.915572e-01
    outer loop
      vertex 2.600002e-01 2.999000e+00 3.566000e+00
      vertex 1.907349e-06 4.410001e-01 3.598001e+00
      vertex 1.907349e-06 2.999000e+00 3.600000e+00
    endloop
  endfacet
  facet normal -1.533952e-01 3.229046e-03 -9.881597e-01
    outer loop
      vertex 1.907349e-06 4.410001e-01 3.598001e+00
      vertex 2.600002e-01 2.999000e+00 3.566000e+00
      vertex 2.600002e-01 5.510001e-01 3.558001e+00
    endloop
  endfacet
  facet normal -3.846063e-01 3.016368e-03 -9.230757e-01
    outer loop
      vertex 5.000019e-01 2.999000e+00 3.466002e+00
      vertex 2.600002e-01 5.510001e-01 3.558001e+00
      vertex 2.600002e-01 2.999000e+00 3.566000e+00
    endloop
  endfacet
  facet normal -3.650178e-01 7.980948e-04 -9.310002e-01
    outer loop
      vertex 2.600002e-01 5.510001e-01 3.558001e+00
      vertex 5.000019e-01 2.999000e+00 3.466002e+00
      vertex 5.000019e-01 6.650001e-01 3.464001e+00
    endloop
  endfacet
  facet normal -7.926269e-01 -0.000000e+00 -6.097070e-01
    outer loop
      vertex 7.080021e-01 2.999000e+00 3.306002e+00
      vertex 8.280010e-01 9.530001e-01 3.150002e+00
      vertex 7.080021e-01 8.330001e-01 3.306002e+00
    endloop
  endfacet
  facet normal -7.960773e-01 -5.464099e-04 -6.051948e-01
    outer loop
      vertex 8.280010e-01 9.530001e-01 3.150002e+00
      vertex 7.080021e-01 2.999000e+00 3.306002e+00
      vertex 8.659992e-01 9.730001e-01 3.100000e+00
    endloop
  endfacet
  facet normal -7.934896e-01 0.000000e+00 -6.085839e-01
    outer loop
      vertex 8.659992e-01 9.730001e-01 3.100000e+00
      vertex 7.080021e-01 2.999000e+00 3.306002e+00
      vertex 8.659992e-01 2.999000e+00 3.100000e+00
    endloop
  endfacet
  facet normal -9.230765e-01 -0.000000e+00 -3.846165e-01
    outer loop
      vertex 8.659992e-01 2.999000e+00 3.100000e+00
      vertex 9.559994e-01 1.063000e+00 2.884001e+00
      vertex 8.659992e-01 9.730001e-01 3.100000e+00
    endloop
  endfacet
  facet normal -9.332342e-01 -3.301976e-03 -3.592534e-01
    outer loop
      vertex 9.559994e-01 1.063000e+00 2.884001e+00
      vertex 8.659992e-01 2.999000e+00 3.100000e+00
      vertex 9.660015e-01 1.065000e+00 2.858000e+00
    endloop
  endfacet
  facet normal -9.242001e-01 0.000000e+00 -3.819087e-01
    outer loop
      vertex 9.660015e-01 1.065000e+00 2.858000e+00
      vertex 8.659992e-01 2.999000e+00 3.100000e+00
      vertex 9.660015e-01 2.999000e+00 2.858000e+00
    endloop
  endfacet
  facet normal -9.914278e-01 -0.000000e+00 -1.306551e-01
    outer loop
      vertex 9.660015e-01 2.999000e+00 2.858000e+00
      vertex 1.000002e+00 1.101000e+00 2.600000e+00
      vertex 9.660015e-01 1.065000e+00 2.858000e+00
    endloop
  endfacet
  facet normal -9.914278e-01 0.000000e+00 -1.306551e-01
    outer loop
      vertex 1.000002e+00 1.101000e+00 2.600000e+00
      vertex 9.660015e-01 2.999000e+00 2.858000e+00
      vertex 1.000002e+00 2.999000e+00 2.600000e+00
    endloop
  endfacet
  facet normal -9.915577e-01 0.000000e+00 1.296666e-01
    outer loop
      vertex 1.000002e+00 1.101000e+00 2.600000e+00
      vertex 9.660015e-01 2.999000e+00 2.340000e+00
      vertex 9.660015e-01 1.065000e+00 2.340000e+00
    endloop
  endfacet
  facet normal -9.915576e-01 0.000000e+00 1.296666e-01
    outer loop
      vertex 9.660015e-01 2.999000e+00 2.340000e+00
      vertex 1.000002e+00 1.101000e+00 2.600000e+00
      vertex 1.000002e+00 2.999000e+00 2.600000e+00
    endloop
  endfacet
  facet normal -9.217978e-01 0.000000e+00 3.876714e-01
    outer loop
      vertex 9.559994e-01 1.063000e+00 2.314001e+00
      vertex 8.659992e-01 2.999000e+00 2.100000e+00
      vertex 8.659992e-01 9.730001e-01 2.100000e+00
    endloop
  endfacet
  facet normal -9.332147e-01 -3.666810e-03 3.593003e-01
    outer loop
      vertex 8.659992e-01 2.999000e+00 2.100000e+00
      vertex 9.559994e-01 1.063000e+00 2.314001e+00
      vertex 9.660015e-01 1.065000e+00 2.340000e+00
    endloop
  endfacet
  facet normal -9.230736e-01 0.000000e+00 3.846232e-01
    outer loop
      vertex 8.659992e-01 2.999000e+00 2.100000e+00
      vertex 9.660015e-01 1.065000e+00 2.340000e+00
      vertex 9.660015e-01 2.999000e+00 2.340000e+00
    endloop
  endfacet
  facet normal -3.846143e-01 0.000000e+00 9.230773e-01
    outer loop
      vertex 2.600002e-01 9.770001e-01 1.634001e+00
      vertex 5.000019e-01 2.999000e+00 1.734001e+00
      vertex 2.600002e-01 2.999000e+00 1.634001e+00
    endloop
  endfacet
  facet normal -3.846143e-01 0.000000e+00 9.230773e-01
    outer loop
      vertex 5.000019e-01 2.999000e+00 1.734001e+00
      vertex 2.600002e-01 9.770001e-01 1.634001e+00
      vertex 5.000019e-01 9.770001e-01 1.734001e+00
    endloop
  endfacet
  facet normal -1.296676e-01 0.000000e+00 9.915575e-01
    outer loop
      vertex 1.907349e-06 9.770001e-01 1.600000e+00
      vertex 2.600002e-01 2.999000e+00 1.634001e+00
      vertex 1.907349e-06 2.999000e+00 1.600000e+00
    endloop
  endfacet
  facet normal -1.296676e-01 0.000000e+00 9.915575e-01
    outer loop
      vertex 2.600002e-01 2.999000e+00 1.634001e+00
      vertex 1.907349e-06 9.770001e-01 1.600000e+00
      vertex 2.600002e-01 9.770001e-01 1.634001e+00
    endloop
  endfacet
  facet normal 1.306551e-01 0.000000e+00 9.914279e-01
    outer loop
      vertex -2.579975e-01 9.770001e-01 1.634001e+00
      vertex 1.907349e-06 2.999000e+00 1.600000e+00
      vertex -2.579975e-01 2.999000e+00 1.634001e+00
    endloop
  endfacet
  facet normal 1.306551e-01 0.000000e+00 9.914279e-01
    outer loop
      vertex 1.907349e-06 2.999000e+00 1.600000e+00
      vertex -2.579975e-01 9.770001e-01 1.634001e+00
      vertex 1.907349e-06 9.770001e-01 1.600000e+00
    endloop
  endfacet
  facet normal 3.819025e-01 0.000000e+00 9.242026e-01
    outer loop
      vertex -4.999981e-01 9.770001e-01 1.734001e+00
      vertex -2.579975e-01 2.999000e+00 1.634001e+00
      vertex -4.999981e-01 2.999000e+00 1.734001e+00
    endloop
  endfacet
  facet normal 3.819025e-01 0.000000e+00 9.242026e-01
    outer loop
      vertex -2.579975e-01 2.999000e+00 1.634001e+00
      vertex -4.999981e-01 9.770001e-01 1.734001e+00
      vertex -2.579975e-01 9.770001e-01 1.634001e+00
    endloop
  endfacet
  facet normal 3.819024e-01 0.000000e+00 9.242026e-01
    outer loop
      vertex -2.579975e-01 -2.999000e+00 1.634001e+00
      vertex -4.999981e-01 -9.769999e-01 1.734001e+00
      vertex -4.999981e-01 -2.999000e+00 1.734001e+00
    endloop
  endfacet
  facet normal 3.819024e-01 0.000000e+00 9.242026e-01
    outer loop
      vertex -4.999981e-01 -9.769999e-01 1.734001e+00
      vertex -2.579975e-01 -2.999000e+00 1.634001e+00
      vertex -2.579975e-01 -9.769999e-01 1.634001e+00
    endloop
  endfacet
  facet normal 1.306551e-01 0.000000e+00 9.914279e-01
    outer loop
      vertex 1.907349e-06 -2.999000e+00 1.600000e+00
      vertex -2.579975e-01 -9.769999e-01 1.634001e+00
      vertex -2.579975e-01 -2.999000e+00 1.634001e+00
    endloop
  endfacet
  facet normal 1.306551e-01 0.000000e+00 9.914279e-01
    outer loop
      vertex -2.579975e-01 -9.769999e-01 1.634001e+00
      vertex 1.907349e-06 -2.999000e+00 1.600000e+00
      vertex 1.907349e-06 -9.769999e-01 1.600000e+00
    endloop
  endfacet
  facet normal -1.296676e-01 0.000000e+00 9.915575e-01
    outer loop
      vertex 2.600002e-01 -2.999000e+00 1.634001e+00
      vertex 1.907349e-06 -9.769999e-01 1.600000e+00
      vertex 1.907349e-06 -2.999000e+00 1.600000e+00
    endloop
  endfacet
  facet normal -1.296676e-01 0.000000e+00 9.915575e-01
    outer loop
      vertex 1.907349e-06 -9.769999e-01 1.600000e+00
      vertex 2.600002e-01 -2.999000e+00 1.634001e+00
      vertex 2.600002e-01 -9.769999e-01 1.634001e+00
    endloop
  endfacet
  facet normal -3.846143e-01 0.000000e+00 9.230773e-01
    outer loop
      vertex 5.000019e-01 -2.999000e+00 1.734001e+00
      vertex 2.600002e-01 -9.769999e-01 1.634001e+00
      vertex 2.600002e-01 -2.999000e+00 1.634001e+00
    endloop
  endfacet
  facet normal -3.846143e-01 0.000000e+00 9.230773e-01
    outer loop
      vertex 2.600002e-01 -9.769999e-01 1.634001e+00
      vertex 5.000019e-01 -2.999000e+00 1.734001e+00
      vertex 5.000019e-01 -9.769999e-01 1.734001e+00
    endloop
  endfacet
  facet normal -9.230736e-01 0.000000e+00 3.846232e-01
    outer loop
      vertex 9.660015e-01 -1.065000e+00 2.340000e+00
      vertex 8.659992e-01 -2.999000e+00 2.100000e+00
      vertex 9.660015e-01 -2.999000e+00 2.340000e+00
    endloop
  endfacet
  facet normal -9.332147e-01 3.666807e-03 3.593004e-01
    outer loop
      vertex 8.659992e-01 -2.999000e+00 2.100000e+00
      vertex 9.660015e-01 -1.065000e+00 2.340000e+00
      vertex 9.559994e-01 -1.063000e+00 2.314001e+00
    endloop
  endfacet
  facet normal -9.217977e-01 0.000000e+00 3.876713e-01
    outer loop
      vertex 8.659992e-01 -2.999000e+00 2.100000e+00
      vertex 9.559994e-01 -1.063000e+00 2.314001e+00
      vertex 8.659992e-01 -9.730000e-01 2.100000e+00
    endloop
  endfacet
  facet normal -9.915576e-01 0.000000e+00 1.296666e-01
    outer loop
      vertex 1.000002e+00 -1.099000e+00 2.600000e+00
      vertex 9.660015e-01 -2.999000e+00 2.340000e+00
      vertex 1.000002e+00 -2.999000e+00 2.600000e+00
    endloop
  endfacet
  facet normal -9.915577e-01 0.000000e+00 1.296666e-01
    outer loop
      vertex 9.660015e-01 -2.999000e+00 2.340000e+00
      vertex 1.000002e+00 -1.099000e+00 2.600000e+00
      vertex 9.660015e-01 -1.065000e+00 2.340000e+00
    endloop
  endfacet
  facet normal -9.914279e-01 -0.000000e+00 -1.306551e-01
    outer loop
      vertex 9.660015e-01 -1.065000e+00 2.858000e+00
      vertex 1.000002e+00 -2.999000e+00 2.600000e+00
      vertex 9.660015e-01 -2.999000e+00 2.858000e+00
    endloop
  endfacet
  facet normal -9.914279e-01 0.000000e+00 -1.306551e-01
    outer loop
      vertex 1.000002e+00 -2.999000e+00 2.600000e+00
      vertex 9.660015e-01 -1.065000e+00 2.858000e+00
      vertex 1.000002e+00 -1.099000e+00 2.600000e+00
    endloop
  endfacet
  facet normal -9.242001e-01 -0.000000e+00 -3.819087e-01
    outer loop
      vertex 8.659992e-01 -9.730000e-01 3.100000e+00
      vertex 9.660015e-01 -2.999000e+00 2.858000e+00
      vertex 8.659992e-01 -2.999000e+00 3.100000e+00
    endloop
  endfacet
  facet normal -9.230174e-01 3.987293e-04 -3.847581e-01
    outer loop
      vertex 9.660015e-01 -2.999000e+00 2.858000e+00
      vertex 8.659992e-01 -9.730000e-01 3.100000e+00
      vertex 9.559994e-01 -1.063000e+00 2.884001e+00
    endloop
  endfacet
  facet normal -9.333245e-01 0.000000e+00 -3.590342e-01
    outer loop
      vertex 9.660015e-01 -2.999000e+00 2.858000e+00
      vertex 9.559994e-01 -1.063000e+00 2.884001e+00
      vertex 9.660015e-01 -1.065000e+00 2.858000e+00
    endloop
  endfacet
  facet normal -7.934895e-01 -0.000000e+00 -6.085839e-01
    outer loop
      vertex 7.080021e-01 -8.329999e-01 3.306002e+00
      vertex 8.659992e-01 -2.999000e+00 3.100000e+00
      vertex 7.080021e-01 -2.999000e+00 3.306002e+00
    endloop
  endfacet
  facet normal -7.925588e-01 1.831213e-04 -6.097955e-01
    outer loop
      vertex 8.659992e-01 -2.999000e+00 3.100000e+00
      vertex 7.080021e-01 -8.329999e-01 3.306002e+00
      vertex 8.280010e-01 -9.530000e-01 3.150002e+00
    endloop
  endfacet
  facet normal -7.961827e-01 0.000000e+00 -6.050563e-01
    outer loop
      vertex 8.659992e-01 -2.999000e+00 3.100000e+00
      vertex 8.280010e-01 -9.530000e-01 3.150002e+00
      vertex 8.659992e-01 -9.730000e-01 3.100000e+00
    endloop
  endfacet
  facet normal -5.959983e-01 -6.883548e-04 -8.029854e-01
    outer loop
      vertex 6.159992e-01 -7.769999e-01 3.378000e+00
      vertex 5.000019e-01 -2.999000e+00 3.466002e+00
      vertex 5.000019e-01 -6.649999e-01 3.464001e+00
    endloop
  endfacet
  facet normal -6.097100e-01 4.377942e-04 -7.926245e-01
    outer loop
      vertex 5.000019e-01 -2.999000e+00 3.466002e+00
      vertex 6.159992e-01 -7.769999e-01 3.378000e+00
      vertex 7.080021e-01 -2.999000e+00 3.306002e+00
    endloop
  endfacet
  facet normal -6.162888e-01 0.000000e+00 -7.875202e-01
    outer loop
      vertex 7.080021e-01 -2.999000e+00 3.306002e+00
      vertex 6.159992e-01 -7.769999e-01 3.378000e+00
      vertex 7.080021e-01 -8.329999e-01 3.306002e+00
    endloop
  endfacet
  facet normal -3.659605e-01 -3.038557e-03 -9.306255e-01
    outer loop
      vertex 5.000019e-01 -6.649999e-01 3.464001e+00
      vertex 2.600002e-01 -2.999000e+00 3.566000e+00
      vertex 2.600002e-01 -5.490000e-01 3.558001e+00
    endloop
  endfacet
  facet normal -3.846080e-01 -7.913049e-04 -9.230797e-01
    outer loop
      vertex 2.600002e-01 -2.999000e+00 3.566000e+00
      vertex 5.000019e-01 -6.649999e-01 3.464001e+00
      vertex 5.000019e-01 -2.999000e+00 3.466002e+00
    endloop
  endfacet
  facet normal -1.523749e-01 -7.723060e-04 -9.883224e-01
    outer loop
      vertex 2.600002e-01 -5.490000e-01 3.558001e+00
      vertex 1.907349e-06 -2.999000e+00 3.600000e+00
      vertex 1.907349e-06 -4.409999e-01 3.598001e+00
    endloop
  endfacet
  facet normal -1.296669e-01 -3.237487e-03 -9.915523e-01
    outer loop
      vertex 1.907349e-06 -2.999000e+00 3.600000e+00
      vertex 2.600002e-01 -5.490000e-01 3.558001e+00
      vertex 2.600002e-01 -2.999000e+00 3.566000e+00
    endloop
  endfacet
  facet normal 1.545298e-01 -3.225832e-03 -9.879829e-01
    outer loop
      vertex 1.907349e-06 -4.409999e-01 3.598001e+00
      vertex -2.579975e-01 -2.999000e+00 3.566000e+00
      vertex -2.579975e-01 -5.490000e-01 3.558001e+00
    endloop
  endfacet
  facet normal 1.306551e-01 -7.747325e-04 -9.914276e-01
    outer loop
      vertex -2.579975e-01 -2.999000e+00 3.566000e+00
      vertex 1.907349e-06 -4.409999e-01 3.598001e+00
      vertex 1.907349e-06 -2.999000e+00 3.600000e+00
    endloop
  endfacet
  facet normal 3.818961e-01 -7.922696e-04 -9.242049e-01
    outer loop
      vertex -4.999981e-01 -6.649999e-01 3.464001e+00
      vertex -2.579975e-01 -2.999000e+00 3.566000e+00
      vertex -4.999981e-01 -2.999000e+00 3.466002e+00
    endloop
  endfacet
  facet normal 7.897670e-01 0.000000e+00 -6.134069e-01
    outer loop
      vertex -8.659992e-01 -9.730000e-01 3.100000e+00
      vertex -7.059994e-01 -2.999000e+00 3.306002e+00
      vertex -8.659992e-01 -2.999000e+00 3.100000e+00
    endloop
  endfacet
  facet normal 7.959310e-01 1.302345e-03 -6.053860e-01
    outer loop
      vertex -7.059994e-01 -2.999000e+00 3.306002e+00
      vertex -8.659992e-01 -9.730000e-01 3.100000e+00
      vertex -8.280010e-01 -9.530000e-01 3.150002e+00
    endloop
  endfacet
  facet normal 7.877143e-01 0.000000e+00 -6.160408e-01
    outer loop
      vertex -7.059994e-01 -2.999000e+00 3.306002e+00
      vertex -8.280010e-01 -9.530000e-01 3.150002e+00
      vertex -7.059994e-01 -8.329999e-01 3.306002e+00
    endloop
  endfacet
  facet normal 9.242052e-01 0.000000e+00 -3.818962e-01
    outer loop
      vertex -9.659977e-01 -1.065000e+00 2.858000e+00
      vertex -8.659992e-01 -2.999000e+00 3.100000e+00
      vertex -9.659977e-01 -2.999000e+00 2.858000e+00
    endloop
  endfacet
  facet normal 9.081476e-01 -5.424870e-03 -4.186150e-01
    outer loop
      vertex -8.659992e-01 -2.999000e+00 3.100000e+00
      vertex -9.659977e-01 -1.065000e+00 2.858000e+00
      vertex -9.540005e-01 -1.063000e+00 2.884001e+00
    endloop
  endfacet
  facet normal 9.260902e-01 0.000000e+00 -3.773021e-01
    outer loop
      vertex -8.659992e-01 -2.999000e+00 3.100000e+00
      vertex -9.540005e-01 -1.063000e+00 2.884001e+00
      vertex -8.659992e-01 -9.730000e-01 3.100000e+00
    endloop
  endfacet
  facet normal 9.914279e-01 0.000000e+00 -1.306551e-01
    outer loop
      vertex -9.999981e-01 -1.099000e+00 2.600000e+00
      vertex -9.659977e-01 -2.999000e+00 2.858000e+00
      vertex -9.999981e-01 -2.999000e+00 2.600000e+00
    endloop
  endfacet
  facet normal 9.914279e-01 0.000000e+00 -1.306551e-01
    outer loop
      vertex -9.659977e-01 -2.999000e+00 2.858000e+00
      vertex -9.999981e-01 -1.099000e+00 2.600000e+00
      vertex -9.659977e-01 -1.065000e+00 2.858000e+00
    endloop
  endfacet
  facet normal 9.915577e-01 0.000000e+00 1.296666e-01
    outer loop
      vertex -9.659977e-01 -1.065000e+00 2.340000e+00
      vertex -9.999981e-01 -2.999000e+00 2.600000e+00
      vertex -9.659977e-01 -2.999000e+00 2.340000e+00
    endloop
  endfacet
  facet normal 9.915576e-01 0.000000e+00 1.296666e-01
    outer loop
      vertex -9.999981e-01 -2.999000e+00 2.600000e+00
      vertex -9.659977e-01 -1.065000e+00 2.340000e+00
      vertex -9.999981e-01 -1.099000e+00 2.600000e+00
    endloop
  endfacet
  facet normal 9.230790e-01 0.000000e+00 3.846107e-01
    outer loop
      vertex -8.659992e-01 -9.730000e-01 2.100000e+00
      vertex -9.659977e-01 -2.999000e+00 2.340000e+00
      vertex -8.659992e-01 -2.999000e+00 2.100000e+00
    endloop
  endfacet
  facet normal 9.249482e-01 -6.274536e-04 3.800928e-01
    outer loop
      vertex -9.659977e-01 -2.999000e+00 2.340000e+00
      vertex -8.659992e-01 -9.730000e-01 2.100000e+00
      vertex -9.540005e-01 -1.063000e+00 2.314001e+00
    endloop
  endfacet
  facet normal 9.079906e-01 0.000000e+00 4.189906e-01
    outer loop
      vertex -9.659977e-01 -2.999000e+00 2.340000e+00
      vertex -9.540005e-01 -1.063000e+00 2.314001e+00
      vertex -9.659977e-01 -1.065000e+00 2.340000e+00
    endloop
  endfacet
  facet normal 0.000000e+00 7.926239e-01 -6.097108e-01
    outer loop
      vertex -2.300001e+00 -9.530000e-01 3.150002e+00
      vertex -7.059994e-01 -8.329999e-01 3.306002e+00
      vertex -8.280010e-01 -9.530000e-01 3.150002e+00
    endloop
  endfacet
  facet normal 2.094601e-04 7.915884e-01 -6.110545e-01
    outer loop
      vertex -7.059994e-01 -8.329999e-01 3.306002e+00
      vertex -2.300001e+00 -9.530000e-01 3.150002e+00
      vertex -2.300001e+00 -7.769999e-01 3.378000e+00
    endloop
  endfacet
  facet normal 0.000000e+00 7.893465e-01 -6.139480e-01
    outer loop
      vertex -2.300001e+00 -7.769999e-01 3.378000e+00
      vertex -1.999998e+00 -7.769999e-01 3.378000e+00
      vertex -7.059994e-01 -8.329999e-01 3.306002e+00
    endloop
  endfacet
  facet normal 0.000000e+00 7.893465e-01 -6.139480e-01
    outer loop
      vertex -6.140003e-01 -7.769999e-01 3.378000e+00
      vertex -7.059994e-01 -8.329999e-01 3.306002e+00
      vertex -1.999998e+00 -7.769999e-01 3.378000e+00
    endloop
  endfacet
  facet normal -2.908007e-03 6.332355e-01 -7.739537e-01
    outer loop
      vertex -1.999998e+00 -7.769999e-01 3.378000e+00
      vertex -2.579975e-01 -5.490000e-01 3.558001e+00
      vertex -4.999981e-01 -6.649999e-01 3.464001e+00
    endloop
  endfacet
  facet normal 0.000000e+00 6.090281e-01 -7.931486e-01
    outer loop
      vertex -1.999998e+00 -7.769999e-01 3.378000e+00
      vertex -4.999981e-01 -6.649999e-01 3.464001e+00
      vertex -6.140003e-01 -7.769999e-01 3.378000e+00
    endloop
  endfacet
  facet normal -0.000000e+00 -7.893465e-01 -6.139480e-01
    outer loop
      vertex -6.140003e-01 7.770001e-01 3.378000e+00
      vertex -1.999998e+00 7.770001e-01 3.378000e+00
      vertex -7.059994e-01 8.330001e-01 3.306002e+00
    endloop
  endfacet
  facet normal 0.000000e+00 -7.926244e-01 -6.097103e-01
    outer loop
      vertex -7.059994e-01 8.330001e-01 3.306002e+00
      vertex -2.300001e+00 9.530001e-01 3.150002e+00
      vertex -8.280010e-01 9.530001e-01 3.150002e+00
    endloop
  endfacet
  facet normal 2.094835e-04 -7.915887e-01 -6.110542e-01
    outer loop
      vertex -2.300001e+00 9.530001e-01 3.150002e+00
      vertex -7.059994e-01 8.330001e-01 3.306002e+00
      vertex -2.300001e+00 7.770001e-01 3.378000e+00
    endloop
  endfacet
  facet normal 0.000000e+00 -7.893465e-01 -6.139480e-01
    outer loop
      vertex -2.300001e+00 7.770001e-01 3.378000e+00
      vertex -7.059994e-01 8.330001e-01 3.306002e+00
      vertex -1.999998e+00 7.770001e-01 3.378000e+00
    endloop
  endfacet
  facet normal -2.273281e-04 -6.091734e-01 -7.930371e-01
    outer loop
      vertex -1.999998e+00 5.510001e-01 3.552000e+00
      vertex -6.140003e-01 7.770001e-01 3.378000e+00
      vertex -4.999981e-01 6.650001e-01 3.464001e+00
    endloop
  endfacet
  facet normal 0.000000e+00 -9.970542e-01 7.669938e-02
    outer loop
      vertex -9.659977e-01 1.065000e+00 2.340000e+00
      vertex -2.300001e+00 1.063000e+00 2.314001e+00
      vertex -9.540005e-01 1.063000e+00 2.314001e+00
    endloop
  endfacet
  facet normal -1.080774e-03 -9.912877e-01 1.317099e-01
    outer loop
      vertex -2.300001e+00 1.063000e+00 2.314001e+00
      vertex -9.659977e-01 1.065000e+00 2.340000e+00
      vertex -2.300001e+00 1.101000e+00 2.600000e+00
    endloop
  endfacet
  facet normal 0.000000e+00 -9.905499e-01 1.371530e-01
    outer loop
      vertex -2.300001e+00 1.101000e+00 2.600000e+00
      vertex -9.659977e-01 1.065000e+00 2.340000e+00
      vertex -9.999981e-01 1.101000e+00 2.600000e+00
    endloop
  endfacet
  facet normal 0.000000e+00 -9.284747e-01 3.713957e-01
    outer loop
      vertex -8.659992e-01 9.730001e-01 2.100000e+00
      vertex -2.300001e+00 9.530001e-01 2.050001e+00
      vertex -8.280010e-01 9.530001e-01 2.050001e+00
    endloop
  endfacet
  facet normal 7.911503e-08 -9.284754e-01 3.713938e-01
    outer loop
      vertex -2.300001e+00 9.530001e-01 2.050001e+00
      vertex -8.659992e-01 9.730001e-01 2.100000e+00
      vertex -2.300001e+00 9.770001e-01 2.110001e+00
    endloop
  endfacet
  facet normal 1.325929e-04 -9.217784e-01 3.877171e-01
    outer loop
      vertex -2.300001e+00 9.770001e-01 2.110001e+00
      vertex -8.659992e-01 9.730001e-01 2.100000e+00
      vertex -9.540005e-01 1.063000e+00 2.314001e+00
    endloop
  endfacet
  facet normal 0.000000e+00 -9.214656e-01 3.884600e-01
    outer loop
      vertex -2.300001e+00 9.770001e-01 2.110001e+00
      vertex -9.540005e-01 1.063000e+00 2.314001e+00
      vertex -2.300001e+00 1.063000e+00 2.314001e+00
    endloop
  endfacet
  facet normal 0.000000e+00 -9.904049e-01 -1.381964e-01
    outer loop
      vertex -9.659977e-01 1.065000e+00 2.858000e+00
      vertex -2.300001e+00 1.101000e+00 2.600000e+00
      vertex -9.999981e-01 1.101000e+00 2.600000e+00
    endloop
  endfacet
  facet normal -1.098896e-03 -9.911662e-01 -1.326207e-01
    outer loop
      vertex -2.300001e+00 1.101000e+00 2.600000e+00
      vertex -9.659977e-01 1.065000e+00 2.858000e+00
      vertex -2.300001e+00 1.063000e+00 2.884001e+00
    endloop
  endfacet
  facet normal 0.000000e+00 -9.970547e-01 -7.669379e-02
    outer loop
      vertex -2.300001e+00 1.063000e+00 2.884001e+00
      vertex -9.659977e-01 1.065000e+00 2.858000e+00
      vertex -9.540005e-01 1.063000e+00 2.884001e+00
    endloop
  endfacet
  facet normal 0.000000e+00 -9.241018e-01 -3.821464e-01
    outer loop
      vertex 2.300001e+00 9.530001e-01 3.150002e+00
      vertex 9.559994e-01 1.063000e+00 2.884001e+00
      vertex 2.300001e+00 1.063000e+00 2.884001e+00
    endloop
  endfacet
  facet normal 5.291058e-04 -9.231548e-01 -3.844281e-01
    outer loop
      vertex 9.559994e-01 1.063000e+00 2.884001e+00
      vertex 2.300001e+00 9.530001e-01 3.150002e+00
      vertex 8.659992e-01 9.730001e-01 3.100000e+00
    endloop
  endfacet
  facet normal 0.000000e+00 -9.284796e-01 -3.713835e-01
    outer loop
      vertex 8.659992e-01 9.730001e-01 3.100000e+00
      vertex 2.300001e+00 9.530001e-01 3.150002e+00
      vertex 8.280010e-01 9.530001e-01 3.150002e+00
    endloop
  endfacet
  facet normal 0.000000e+00 9.970540e-01 7.670279e-02
    outer loop
      vertex -2.300001e+00 -1.063000e+00 2.314001e+00
      vertex -9.659977e-01 -1.065000e+00 2.340000e+00
      vertex -9.540005e-01 -1.063000e+00 2.314001e+00
    endloop
  endfacet
  facet normal -9.464461e-04 9.921703e-01 1.248889e-01
    outer loop
      vertex -9.659977e-01 -1.065000e+00 2.340000e+00
      vertex -2.300001e+00 -1.063000e+00 2.314001e+00
      vertex -2.300001e+00 -1.099000e+00 2.600000e+00
    endloop
  endfacet
  facet normal 0.000000e+00 9.915578e-01 1.296648e-01
    outer loop
      vertex -9.659977e-01 -1.065000e+00 2.340000e+00
      vertex -2.300001e+00 -1.099000e+00 2.600000e+00
      vertex -9.999981e-01 -1.099000e+00 2.600000e+00
    endloop
  endfacet
  facet normal 0.000000e+00 9.284748e-01 3.713952e-01
    outer loop
      vertex 8.659992e-01 -9.730000e-01 2.100000e+00
      vertex 2.300001e+00 -9.530000e-01 2.050001e+00
      vertex 8.280010e-01 -9.530000e-01 2.050001e+00
    endloop
  endfacet
  facet normal -1.080590e-07 9.284759e-01 3.713926e-01
    outer loop
      vertex 2.300001e+00 -9.530000e-01 2.050001e+00
      vertex 8.659992e-01 -9.730000e-01 2.100000e+00
      vertex 2.300001e+00 -9.769999e-01 2.110001e+00
    endloop
  endfacet
  facet normal -1.326373e-04 9.217781e-01 3.877178e-01
    outer loop
      vertex 2.300001e+00 -9.769999e-01 2.110001e+00
      vertex 8.659992e-01 -9.730000e-01 2.100000e+00
      vertex 9.559994e-01 -1.063000e+00 2.314001e+00
    endloop
  endfacet
  facet normal 0.000000e+00 9.214656e-01 3.884600e-01
    outer loop
      vertex 2.300001e+00 -9.769999e-01 2.110001e+00
      vertex 9.559994e-01 -1.063000e+00 2.314001e+00
      vertex 2.300001e+00 -1.063000e+00 2.314001e+00
    endloop
  endfacet
  facet normal 0.000000e+00 9.914281e-01 -1.306533e-01
    outer loop
      vertex 9.660015e-01 -1.065000e+00 2.858000e+00
      vertex 2.300001e+00 -1.099000e+00 2.600000e+00
      vertex 1.000002e+00 -1.099000e+00 2.600000e+00
    endloop
  endfacet
  facet normal 9.636540e-04 9.920610e-01 -1.257541e-01
    outer loop
      vertex 2.300001e+00 -1.099000e+00 2.600000e+00
      vertex 9.660015e-01 -1.065000e+00 2.858000e+00
      vertex 2.300001e+00 -1.063000e+00 2.884001e+00
    endloop
  endfacet
  facet normal 0.000000e+00 9.970544e-01 -7.669720e-02
    outer loop
      vertex 2.300001e+00 -1.063000e+00 2.884001e+00
      vertex 9.660015e-01 -1.065000e+00 2.858000e+00
      vertex 9.559994e-01 -1.063000e+00 2.884001e+00
    endloop
  endfacet
  facet normal 0.000000e+00 9.230768e-01 -3.846157e-01
    outer loop
      vertex 8.659992e-01 -9.730000e-01 3.100000e+00
      vertex 2.300001e+00 -1.063000e+00 2.884001e+00
      vertex 9.559994e-01 -1.063000e+00 2.884001e+00
    endloop
  endfacet
  facet normal 4.363419e-04 9.241019e-01 -3.821459e-01
    outer loop
      vertex 2.300001e+00 -1.063000e+00 2.884001e+00
      vertex 8.659992e-01 -9.730000e-01 3.100000e+00
      vertex 2.300001e+00 -9.530000e-01 3.150002e+00
    endloop
  endfacet
  facet normal 0.000000e+00 9.284797e-01 -3.713830e-01
    outer loop
      vertex 2.300001e+00 -9.530000e-01 3.150002e+00
      vertex 8.659992e-01 -9.730000e-01 3.100000e+00
      vertex 8.280010e-01 -9.530000e-01 3.150002e+00
    endloop
  endfacet
  facet normal -5.959983e-01 6.883548e-04 -8.029854e-01
    outer loop
      vertex 5.000019e-01 2.999000e+00 3.466002e+00
      vertex 6.159992e-01 7.770001e-01 3.378000e+00
      vertex 5.000019e-01 6.650001e-01 3.464001e+00
    endloop
  endfacet
  facet normal -6.097100e-01 -4.377943e-04 -7.926245e-01
    outer loop
      vertex 6.159992e-01 7.770001e-01 3.378000e+00
      vertex 5.000019e-01 2.999000e+00 3.466002e+00
      vertex 7.080021e-01 2.999000e+00 3.306002e+00
    endloop
  endfacet
  facet normal -6.162889e-01 0.000000e+00 -7.875202e-01
    outer loop
      vertex 6.159992e-01 7.770001e-01 3.378000e+00
      vertex 7.080021e-01 2.999000e+00 3.306002e+00
      vertex 7.080021e-01 8.330001e-01 3.306002e+00
    endloop
  endfacet
  facet normal 6.163048e-01 0.000000e+00 -7.875078e-01
    outer loop
      vertex -6.140003e-01 -7.769999e-01 3.378000e+00
      vertex -7.059994e-01 -2.999000e+00 3.306002e+00
      vertex -7.059994e-01 -8.329999e-01 3.306002e+00
    endloop
  endfacet
  facet normal 6.134069e-01 1.931883e-04 -7.897670e-01
    outer loop
      vertex -7.059994e-01 -2.999000e+00 3.306002e+00
      vertex -6.140003e-01 -7.769999e-01 3.378000e+00
      vertex -4.999981e-01 -2.999000e+00 3.466002e+00
    endloop
  endfacet
  facet normal 6.026611e-01 -6.840784e-04 -7.979969e-01
    outer loop
      vertex -4.999981e-01 -2.999000e+00 3.466002e+00
      vertex -6.140003e-01 -7.769999e-01 3.378000e+00
      vertex -4.999981e-01 -6.649999e-01 3.464001e+00
    endloop
  endfacet
  facet normal -1.000000e+00 0.000000e+00 0.000000e+00
    outer loop
      vertex -2.300001e+00 -9.530000e-01 2.050001e+00
      vertex -2.300001e+00 -9.769999e-01 1.822001e+00
      vertex -2.300001e+00 -9.769999e-01 2.110001e+00
    endloop
  endfacet
  facet normal -1.000000e+00 0.000000e+00 0.000000e+00
    outer loop
      vertex -2.300001e+00 9.770001e-01 2.110001e+00
      vertex -2.300001e+00 9.770001e-01 1.944000e+00
      vertex -2.300001e+00 9.530001e-01 2.050001e+00
    endloop
  endfacet
  facet normal -1.000000e+00 0.000000e+00 0.000000e+00
    outer loop
      vertex -2.300001e+00 9.770001e-01 2.110001e+00
      vertex -2.300001e+00 1.063000e+00 2.314001e+00
      vertex -2.300001e+00 9.770001e-01 1.944000e+00
    endloop
  endfacet
  facet normal -1.000000e+00 0.000000e+00 0.000000e+00
    outer loop
      vertex -2.300001e+00 9.770001e-01 1.822001e+00
      vertex -2.300001e+00 9.770001e-01 1.944000e+00
      vertex -2.300001e+00 1.063000e+00 2.314001e+00
    endloop
  endfacet
  facet normal -1.000000e+00 0.000000e+00 0.000000e+00
    outer loop
      vertex -2.300001e+00 9.770001e-01 1.822001e+00
      vertex -2.300001e+00 1.063000e+00 2.314001e+00
      vertex -2.300001e+00 9.770001e-01 8.000011e-01
    endloop
  endfacet
  facet normal -1.000000e+00 0.000000e+00 0.000000e+00
    outer loop
      vertex -2.300001e+00 -2.999000e+00 4.600000e+00
      vertex -2.300001e+00 -9.530000e-01 3.150002e+00
      vertex -2.300001e+00 -2.999000e+00 0.000000e+00
    endloop
  endfacet
  facet normal -1.000000e+00 0.000000e+00 0.000000e+00
    outer loop
      vertex -2.300001e+00 -9.530000e-01 3.150002e+00
      vertex -2.300001e+00 -2.999000e+00 4.600000e+00
      vertex -2.300001e+00 -7.769999e-01 3.378000e+00
    endloop
  endfacet
  facet normal -1.000000e+00 0.000000e+00 0.000000e+00
    outer loop
      vertex -2.300001e+00 -7.769999e-01 3.378000e+00
      vertex -2.300001e+00 -2.999000e+00 4.600000e+00
      vertex -2.300001e+00 -5.490000e-01 3.552000e+00
    endloop
  endfacet
  facet normal -1.000000e+00 0.000000e+00 0.000000e+00
    outer loop
      vertex -2.300001e+00 -5.490000e-01 3.552000e+00
      vertex -2.300001e+00 -2.999000e+00 4.600000e+00
      vertex -2.300001e+00 -2.849999e-01 3.662001e+00
    endloop
  endfacet
  facet normal -1.000000e+00 0.000000e+00 0.000000e+00
    outer loop
      vertex -2.300001e+00 -2.849999e-01 3.662001e+00
      vertex -2.300001e+00 -2.999000e+00 4.600000e+00
      vertex -2.300001e+00 2.999000e+00 4.600000e+00
    endloop
  endfacet
  facet normal -1.000000e+00 0.000000e+00 0.000000e+00
    outer loop
      vertex -2.300001e+00 -2.999000e+00 0.000000e+00
      vertex -2.300001e+00 -9.530000e-01 3.150002e+00
      vertex -2.300001e+00 -1.063000e+00 2.884001e+00
    endloop
  endfacet
  facet normal -1.000000e+00 0.000000e+00 0.000000e+00
    outer loop
      vertex -2.300001e+00 -2.999000e+00 0.000000e+00
      vertex -2.300001e+00 -1.063000e+00 2.884001e+00
      vertex -2.300001e+00 -1.099000e+00 2.600000e+00
    endloop
  endfacet
  facet normal -1.000000e+00 0.000000e+00 0.000000e+00
    outer loop
      vertex -2.300001e+00 -2.849999e-01 3.662001e+00
      vertex -2.300001e+00 2.999000e+00 4.600000e+00
      vertex -2.300001e+00 1.000106e-03 3.700001e+00
    endloop
  endfacet
  facet normal -1.000000e+00 0.000000e+00 0.000000e+00
    outer loop
      vertex -2.300001e+00 1.000106e-03 3.700001e+00
      vertex -2.300001e+00 2.999000e+00 4.600000e+00
      vertex -2.300001e+00 2.850000e-01 3.662001e+00
    endloop
  endfacet
  facet normal -1.000000e+00 0.000000e+00 0.000000e+00
    outer loop
      vertex -2.300001e+00 2.850000e-01 3.662001e+00
      vertex -2.300001e+00 2.999000e+00 4.600000e+00
      vertex -2.300001e+00 5.510001e-01 3.552000e+00
    endloop
  endfacet
  facet normal -1.000000e+00 0.000000e+00 0.000000e+00
    outer loop
      vertex -2.300001e+00 5.510001e-01 3.552000e+00
      vertex -2.300001e+00 2.999000e+00 4.600000e+00
      vertex -2.300001e+00 7.770001e-01 3.378000e+00
    endloop
  endfacet
  facet normal -1.000000e+00 0.000000e+00 0.000000e+00
    outer loop
      vertex -2.300001e+00 7.770001e-01 3.378000e+00
      vertex -2.300001e+00 2.999000e+00 4.600000e+00
      vertex -2.300001e+00 9.530001e-01 3.150002e+00
    endloop
  endfacet
  facet normal -1.000000e+00 0.000000e+00 0.000000e+00
    outer loop
      vertex -2.300001e+00 9.530001e-01 3.150002e+00
      vertex -2.300001e+00 2.999000e+00 4.600000e+00
      vertex -2.300001e+00 1.063000e+00 2.884001e+00
    endloop
  endfacet
  facet normal -1.000000e+00 0.000000e+00 0.000000e+00
    outer loop
      vertex -2.300001e+00 1.063000e+00 2.884001e+00
      vertex -2.300001e+00 2.999000e+00 4.600000e+00
      vertex -2.300001e+00 1.101000e+00 2.600000e+00
    endloop
  endfacet
  facet normal -1.000000e+00 0.000000e+00 0.000000e+00
    outer loop
      vertex -2.300001e+00 -2.999000e+00 0.000000e+00
      vertex -2.300001e+00 -9.769999e-01 8.000011e-01
      vertex -2.300001e+00 2.999000e+00 0.000000e+00
    endloop
  endfacet
  facet normal -1.000000e+00 0.000000e+00 0.000000e+00
    outer loop
      vertex -2.300001e+00 -9.769999e-01 8.000011e-01
      vertex -2.300001e+00 -2.999000e+00 0.000000e+00
      vertex -2.300001e+00 -1.099000e+00 2.600000e+00
    endloop
  endfacet
  facet normal -1.000000e+00 0.000000e+00 0.000000e+00
    outer loop
      vertex -2.300001e+00 -9.769999e-01 8.000011e-01
      vertex -2.300001e+00 -1.099000e+00 2.600000e+00
      vertex -2.300001e+00 -1.063000e+00 2.314001e+00
    endloop
  endfacet
  facet normal -1.000000e+00 -0.000000e+00 -0.000000e+00
    outer loop
      vertex -2.300001e+00 -9.769999e-01 2.110001e+00
      vertex -2.300001e+00 -9.769999e-01 1.822001e+00
      vertex -2.300001e+00 -1.063000e+00 2.314001e+00
    endloop
  endfacet
  facet normal -1.000000e+00 0.000000e+00 0.000000e+00
    outer loop
      vertex -2.300001e+00 -9.769999e-01 8.000011e-01
      vertex -2.300001e+00 -1.063000e+00 2.314001e+00
      vertex -2.300001e+00 -9.769999e-01 1.822001e+00
    endloop
  endfacet
  facet normal -1.000000e+00 0.000000e+00 0.000000e+00
    outer loop
      vertex -2.300001e+00 2.999000e+00 0.000000e+00
      vertex -2.300001e+00 -9.769999e-01 8.000011e-01
      vertex -2.300001e+00 9.770001e-01 8.000011e-01
    endloop
  endfacet
  facet normal -1.000000e+00 0.000000e+00 0.000000e+00
    outer loop
      vertex -2.300001e+00 2.999000e+00 0.000000e+00
      vertex -2.300001e+00 9.770001e-01 8.000011e-01
      vertex -2.300001e+00 1.063000e+00 2.314001e+00
    endloop
  endfacet
  facet normal -1.000000e+00 0.000000e+00 0.000000e+00
    outer loop
      vertex -2.300001e+00 2.999000e+00 0.000000e+00
      vertex -2.300001e+00 1.063000e+00 2.314001e+00
      vertex -2.300001e+00 1.101000e+00 2.600000e+00
    endloop
  endfacet
  facet normal -1.000000e+00 0.000000e+00 0.000000e+00
    outer loop
      vertex -2.300001e+00 2.999000e+00 0.000000e+00
      vertex -2.300001e+00 1.101000e+00 2.600000e+00
      vertex -2.300001e+00 2.999000e+00 4.600000e+00
    endloop
  endfacet
  facet normal -0.000000e+00 -6.100491e-01 -7.923637e-01
    outer loop
      vertex -1.999998e+00 7.770001e-01 3.378000e+00
      vertex -2.300001e+00 5.510001e-01 3.552000e+00
      vertex -2.300001e+00 7.770001e-01 3.378000e+00
    endloop
  endfacet
  facet normal 0.000000e+00 -6.100491e-01 -7.923637e-01
    outer loop
      vertex -2.300001e+00 5.510001e-01 3.552000e+00
      vertex -1.999998e+00 7.770001e-01 3.378000e+00
      vertex -1.999998e+00 5.510001e-01 3.552000e+00
    endloop
  endfacet
  facet normal -0.000000e+00 -3.821489e-01 -9.241008e-01
    outer loop
      vertex -1.999998e+00 5.510001e-01 3.552000e+00
      vertex -2.300001e+00 2.850000e-01 3.662001e+00
      vertex -2.300001e+00 5.510001e-01 3.552000e+00
    endloop
  endfacet
  facet normal 0.000000e+00 -3.821489e-01 -9.241008e-01
    outer loop
      vertex -2.300001e+00 2.850000e-01 3.662001e+00
      vertex -1.999998e+00 5.510001e-01 3.552000e+00
      vertex -1.999998e+00 2.850000e-01 3.662001e+00
    endloop
  endfacet
  facet normal -0.000000e+00 -1.326213e-01 -9.911668e-01
    outer loop
      vertex -1.999998e+00 2.850000e-01 3.662001e+00
      vertex -2.300001e+00 1.000106e-03 3.700001e+00
      vertex -2.300001e+00 2.850000e-01 3.662001e+00
    endloop
  endfacet
  facet normal 0.000000e+00 -1.326213e-01 -9.911668e-01
    outer loop
      vertex -2.300001e+00 1.000106e-03 3.700001e+00
      vertex -1.999998e+00 2.850000e-01 3.662001e+00
      vertex -1.999998e+00 1.000106e-03 3.700001e+00
    endloop
  endfacet
  facet normal 0.000000e+00 1.317100e-01 -9.912883e-01
    outer loop
      vertex -1.999998e+00 1.000106e-03 3.700001e+00
      vertex -2.300001e+00 -2.849999e-01 3.662001e+00
      vertex -2.300001e+00 1.000106e-03 3.700001e+00
    endloop
  endfacet
  facet normal 0.000000e+00 1.317100e-01 -9.912883e-01
    outer loop
      vertex -2.300001e+00 -2.849999e-01 3.662001e+00
      vertex -1.999998e+00 1.000106e-03 3.700001e+00
      vertex -1.999998e+00 -2.849999e-01 3.662001e+00
    endloop
  endfacet
  facet normal 0.000000e+00 3.846171e-01 -9.230762e-01
    outer loop
      vertex -1.999998e+00 -2.849999e-01 3.662001e+00
      vertex -2.300001e+00 -5.490000e-01 3.552000e+00
      vertex -2.300001e+00 -2.849999e-01 3.662001e+00
    endloop
  endfacet
  facet normal 0.000000e+00 3.846171e-01 -9.230762e-01
    outer loop
      vertex -2.300001e+00 -5.490000e-01 3.552000e+00
      vertex -1.999998e+00 -2.849999e-01 3.662001e+00
      vertex -1.999998e+00 -5.490000e-01 3.552000e+00
    endloop
  endfacet
  facet normal 0.000000e+00 6.066729e-01 -7.949515e-01
    outer loop
      vertex -1.999998e+00 -5.490000e-01 3.552000e+00
      vertex -2.300001e+00 -7.769999e-01 3.378000e+00
      vertex -2.300001e+00 -5.490000e-01 3.552000e+00
    endloop
  endfacet
  facet normal 0.000000e+00 6.066729e-01 -7.949515e-01
    outer loop
      vertex -2.300001e+00 -7.769999e-01 3.378000e+00
      vertex -1.999998e+00 -5.490000e-01 3.552000e+00
      vertex -1.999998e+00 -7.769999e-01 3.378000e+00
    endloop
  endfacet
  facet normal 1.000000e+00 0.000000e+00 0.000000e+00
    outer loop
      vertex 2.300001e+00 -9.769999e-01 8.000011e-01
      vertex 2.300001e+00 -9.769999e-01 1.822001e+00
      vertex 2.300001e+00 -1.063000e+00 2.314001e+00
    endloop
  endfacet
  facet normal 1.000000e+00 0.000000e+00 0.000000e+00
    outer loop
      vertex 2.300001e+00 -9.769999e-01 2.110001e+00
      vertex 2.300001e+00 -1.063000e+00 2.314001e+00
      vertex 2.300001e+00 -9.769999e-01 1.822001e+00
    endloop
  endfacet
  facet normal 1.000000e+00 0.000000e+00 0.000000e+00
    outer loop
      vertex 2.300001e+00 -9.769999e-01 2.110001e+00
      vertex 2.300001e+00 -9.769999e-01 1.822001e+00
      vertex 2.300001e+00 -9.530000e-01 2.050001e+00
    endloop
  endfacet
  facet normal 1.000000e+00 0.000000e+00 0.000000e+00
    outer loop
      vertex 2.300001e+00 -2.999000e+00 0.000000e+00
      vertex 2.300001e+00 -9.769999e-01 8.000011e-01
      vertex 2.300001e+00 -2.999000e+00 4.600000e+00
    endloop
  endfacet
  facet normal 1.000000e+00 0.000000e+00 0.000000e+00
    outer loop
      vertex 2.300001e+00 -9.769999e-01 8.000011e-01
      vertex 2.300001e+00 -2.999000e+00 0.000000e+00
      vertex 2.300001e+00 2.999000e+00 0.000000e+00
    endloop
  endfacet
  facet normal 1.000000e+00 0.000000e+00 0.000000e+00
    outer loop
      vertex 2.300001e+00 -2.999000e+00 4.600000e+00
      vertex 2.300001e+00 -9.769999e-01 8.000011e-01
      vertex 2.300001e+00 -1.099000e+00 2.600000e+00
    endloop
  endfacet
  facet normal 1.000000e+00 0.000000e+00 0.000000e+00
    outer loop
      vertex 2.300001e+00 -1.099000e+00 2.600000e+00
      vertex 2.300001e+00 -9.769999e-01 8.000011e-01
      vertex 2.300001e+00 -1.063000e+00 2.314001e+00
    endloop
  endfacet
  facet normal 1.000000e+00 0.000000e+00 0.000000e+00
    outer loop
      vertex 2.300001e+00 -9.769999e-01 8.000011e-01
      vertex 2.300001e+00 2.999000e+00 0.000000e+00
      vertex 2.300001e+00 9.770001e-01 8.000011e-01
    endloop
  endfacet
  facet normal 1.000000e+00 0.000000e+00 0.000000e+00
    outer loop
      vertex 2.300001e+00 9.770001e-01 8.000011e-01
      vertex 2.300001e+00 2.999000e+00 0.000000e+00
      vertex 2.300001e+00 9.770001e-01 1.822001e+00
    endloop
  endfacet
  facet normal 1.000000e+00 0.000000e+00 0.000000e+00
    outer loop
      vertex 2.300001e+00 9.770001e-01 1.822001e+00
      vertex 2.300001e+00 2.999000e+00 0.000000e+00
      vertex 2.300001e+00 1.063000e+00 2.314001e+00
    endloop
  endfacet
  facet normal 1.000000e+00 0.000000e+00 0.000000e+00
    outer loop
      vertex 2.300001e+00 1.063000e+00 2.314001e+00
      vertex 2.300001e+00 2.999000e+00 0.000000e+00
      vertex 2.300001e+00 1.101000e+00 2.600000e+00
    endloop
  endfacet
  facet normal 1.000000e+00 0.000000e+00 0.000000e+00
    outer loop
      vertex 2.300001e+00 -2.999000e+00 4.600000e+00
      vertex 2.300001e+00 -2.849999e-01 3.662001e+00
      vertex 2.300001e+00 2.999000e+00 4.600000e+00
    endloop
  endfacet
  facet normal 1.000000e+00 0.000000e+00 0.000000e+00
    outer loop
      vertex 2.300001e+00 -2.849999e-01 3.662001e+00
      vertex 2.300001e+00 -2.999000e+00 4.600000e+00
      vertex 2.300001e+00 -5.490000e-01 3.552000e+00
    endloop
  endfacet
  facet normal 1.000000e+00 0.000000e+00 0.000000e+00
    outer loop
      vertex 2.300001e+00 -5.490000e-01 3.552000e+00
      vertex 2.300001e+00 -2.999000e+00 4.600000e+00
      vertex 2.300001e+00 -7.769999e-01 3.378000e+00
    endloop
  endfacet
  facet normal 1.000000e+00 0.000000e+00 0.000000e+00
    outer loop
      vertex 2.300001e+00 -7.769999e-01 3.378000e+00
      vertex 2.300001e+00 -2.999000e+00 4.600000e+00
      vertex 2.300001e+00 -9.530000e-01 3.150002e+00
    endloop
  endfacet
  facet normal 1.000000e+00 0.000000e+00 0.000000e+00
    outer loop
      vertex 2.300001e+00 -9.530000e-01 3.150002e+00
      vertex 2.300001e+00 -2.999000e+00 4.600000e+00
      vertex 2.300001e+00 -1.063000e+00 2.884001e+00
    endloop
  endfacet
  facet normal 1.000000e+00 0.000000e+00 0.000000e+00
    outer loop
      vertex 2.300001e+00 -1.063000e+00 2.884001e+00
      vertex 2.300001e+00 -2.999000e+00 4.600000e+00
      vertex 2.300001e+00 -1.099000e+00 2.600000e+00
    endloop
  endfacet
  facet normal 1.000000e+00 0.000000e+00 0.000000e+00
    outer loop
      vertex 2.300001e+00 2.999000e+00 4.600000e+00
      vertex 2.300001e+00 -2.849999e-01 3.662001e+00
      vertex 2.300001e+00 1.000106e-03 3.700001e+00
    endloop
  endfacet
  facet normal 1.000000e+00 0.000000e+00 0.000000e+00
    outer loop
      vertex 2.300001e+00 2.999000e+00 4.600000e+00
      vertex 2.300001e+00 1.000106e-03 3.700001e+00
      vertex 2.300001e+00 2.850000e-01 3.662001e+00
    endloop
  endfacet
  facet normal 1.000000e+00 0.000000e+00 0.000000e+00
    outer loop
      vertex 2.300001e+00 2.999000e+00 4.600000e+00
      vertex 2.300001e+00 2.850000e-01 3.662001e+00
      vertex 2.300001e+00 5.510001e-01 3.552000e+00
    endloop
  endfacet
  facet normal 1.000000e+00 0.000000e+00 0.000000e+00
    outer loop
      vertex 2.300001e+00 2.999000e+00 4.600000e+00
      vertex 2.300001e+00 5.510001e-01 3.552000e+00
      vertex 2.300001e+00 7.770001e-01 3.378000e+00
    endloop
  endfacet
  facet normal 1.000000e+00 0.000000e+00 0.000000e+00
    outer loop
      vertex 2.300001e+00 2.999000e+00 4.600000e+00
      vertex 2.300001e+00 7.770001e-01 3.378000e+00
      vertex 2.300001e+00 9.530001e-01 3.150002e+00
    endloop
  endfacet
  facet normal 1.000000e+00 0.000000e+00 0.000000e+00
    outer loop
      vertex 2.300001e+00 2.999000e+00 4.600000e+00
      vertex 2.300001e+00 9.530001e-01 3.150002e+00
      vertex 2.300001e+00 1.063000e+00 2.884001e+00
    endloop
  endfacet
  facet normal 1.000000e+00 0.000000e+00 0.000000e+00
    outer loop
      vertex 2.300001e+00 2.999000e+00 4.600000e+00
      vertex 2.300001e+00 1.063000e+00 2.884001e+00
      vertex 2.300001e+00 1.101000e+00 2.600000e+00
    endloop
  endfacet
  facet normal 1.000000e+00 0.000000e+00 0.000000e+00
    outer loop
      vertex 2.300001e+00 2.999000e+00 4.600000e+00
      vertex 2.300001e+00 1.101000e+00 2.600000e+00
      vertex 2.300001e+00 2.999000e+00 0.000000e+00
    endloop
  endfacet
  facet normal 1.000000e+00 0.000000e+00 0.000000e+00
    outer loop
      vertex 2.300001e+00 1.063000e+00 2.314001e+00
      vertex 2.300001e+00 9.530001e-01 2.050001e+00
      vertex 2.300001e+00 9.770001e-01 1.822001e+00
    endloop
  endfacet
  facet normal 0.000000e+00 -1.000000e+00 0.000000e+00
    outer loop
      vertex 2.300001e+00 9.770001e-01 1.822001e+00
      vertex -2.300001e+00 9.770001e-01 8.000011e-01
      vertex 2.300001e+00 9.770001e-01 8.000011e-01
    endloop
  endfacet
  facet normal 0.000000e+00 -1.000000e+00 0.000000e+00
    outer loop
      vertex -2.300001e+00 9.770001e-01 8.000011e-01
      vertex 2.300001e+00 9.770001e-01 1.822001e+00
      vertex 1.907349e-06 9.770001e-01 1.600000e+00
    endloop
  endfacet
  facet normal 0.000000e+00 -1.000000e+00 0.000000e+00
    outer loop
      vertex 1.907349e-06 9.770001e-01 1.600000e+00
      vertex 2.300001e+00 9.770001e-01 1.822001e+00
      vertex 2.600002e-01 9.770001e-01 1.634001e+00
    endloop
  endfacet
  facet normal 0.000000e+00 -1.000000e+00 0.000000e+00
    outer loop
      vertex 2.600002e-01 9.770001e-01 1.634001e+00
      vertex 2.300001e+00 9.770001e-01 1.822001e+00
      vertex 5.000019e-01 9.770001e-01 1.734001e+00
    endloop
  endfacet
  facet normal 0.000000e+00 -1.000000e+00 0.000000e+00
    outer loop
      vertex 5.000019e-01 9.770001e-01 1.734001e+00
      vertex 2.300001e+00 9.770001e-01 1.822001e+00
      vertex 8.280010e-01 9.770001e-01 1.822001e+00
    endloop
  endfacet
  facet normal 0.000000e+00 -1.000000e+00 0.000000e+00
    outer loop
      vertex 5.000019e-01 9.770001e-01 1.734001e+00
      vertex 8.280010e-01 9.770001e-01 1.822001e+00
      vertex 6.159992e-01 9.770001e-01 1.822001e+00
    endloop
  endfacet
  facet normal 0.000000e+00 -1.000000e+00 0.000000e+00
    outer loop
      vertex 1.907349e-06 9.770001e-01 1.600000e+00
      vertex -2.300001e+00 9.770001e-01 1.822001e+00
      vertex -2.300001e+00 9.770001e-01 8.000011e-01
    endloop
  endfacet
  facet normal 0.000000e+00 -1.000000e+00 0.000000e+00
    outer loop
      vertex -2.300001e+00 9.770001e-01 1.822001e+00
      vertex 1.907349e-06 9.770001e-01 1.600000e+00
      vertex -2.579975e-01 9.770001e-01 1.634001e+00
    endloop
  endfacet
  facet normal 0.000000e+00 -1.000000e+00 0.000000e+00
    outer loop
      vertex -2.300001e+00 9.770001e-01 1.822001e+00
      vertex -2.579975e-01 9.770001e-01 1.634001e+00
      vertex -4.999981e-01 9.770001e-01 1.734001e+00
    endloop
  endfacet
  facet normal 0.000000e+00 -1.000000e+00 0.000000e+00
    outer loop
      vertex -2.300001e+00 9.770001e-01 1.822001e+00
      vertex -4.999981e-01 9.770001e-01 1.734001e+00
      vertex -6.140003e-01 9.770001e-01 1.822001e+00
    endloop
  endfacet
  facet normal 7.926177e-01 -4.145154e-03 6.097048e-01
    outer loop
      vertex -6.999989e-01 -9.690000e-01 1.898001e+00
      vertex -8.659992e-01 -2.999000e+00 2.100000e+00
      vertex -7.059994e-01 -2.999000e+00 1.892000e+00
    endloop
  endfacet
  facet normal 7.725911e-01 0.000000e+00 6.349040e-01
    outer loop
      vertex -8.659992e-01 -2.999000e+00 2.100000e+00
      vertex -6.999989e-01 -9.690000e-01 1.898001e+00
      vertex -8.659992e-01 -9.730000e-01 2.100000e+00
    endloop
  endfacet
  facet normal 7.653770e-01 1.244274e-01 6.314395e-01
    outer loop
      vertex -8.659992e-01 -9.730000e-01 2.100000e+00
      vertex -6.999989e-01 -9.690000e-01 1.898001e+00
      vertex -8.280010e-01 -9.530000e-01 2.050001e+00
    endloop
  endfacet
  facet normal 6.085833e-01 -4.144385e-03 7.934792e-01
    outer loop
      vertex -4.999981e-01 -2.999000e+00 1.734001e+00
      vertex -6.999989e-01 -9.690000e-01 1.898001e+00
      vertex -7.059994e-01 -2.999000e+00 1.892000e+00
    endloop
  endfacet
  facet normal 6.624457e-01 4.747982e-03 7.490949e-01
    outer loop
      vertex -6.999989e-01 -9.690000e-01 1.898001e+00
      vertex -4.999981e-01 -2.999000e+00 1.734001e+00
      vertex -6.140003e-01 -9.769999e-01 1.822001e+00
    endloop
  endfacet
  facet normal 6.110418e-01 0.000000e+00 7.915983e-01
    outer loop
      vertex -6.140003e-01 -9.769999e-01 1.822001e+00
      vertex -4.999981e-01 -2.999000e+00 1.734001e+00
      vertex -4.999981e-01 -9.769999e-01 1.734001e+00
    endloop
  endfacet
  facet normal 0.000000e+00 -9.945055e-01 -1.046846e-01
    outer loop
      vertex 2.300001e+00 9.530001e-01 2.050001e+00
      vertex 8.280010e-01 9.770001e-01 1.822001e+00
      vertex 2.300001e+00 9.770001e-01 1.822001e+00
    endloop
  endfacet
  facet normal -7.441001e-03 -9.983436e-01 -5.704857e-02
    outer loop
      vertex 8.280010e-01 9.770001e-01 1.822001e+00
      vertex 2.300001e+00 9.530001e-01 2.050001e+00
      vertex 8.280010e-01 9.730001e-01 1.892000e+00
    endloop
  endfacet
  facet normal 0.000000e+00 -9.920835e-01 -1.255795e-01
    outer loop
      vertex 8.280010e-01 9.730001e-01 1.892000e+00
      vertex 2.300001e+00 9.530001e-01 2.050001e+00
      vertex 8.280010e-01 9.530001e-01 2.050001e+00
    endloop
  endfacet
  facet normal 0.000000e+00 9.935328e-01 -1.135456e-01
    outer loop
      vertex 7.080021e-01 -9.690000e-01 1.892000e+00
      vertex 2.300001e+00 -9.769999e-01 1.822001e+00
      vertex 6.159992e-01 -9.769999e-01 1.822001e+00
    endloop
  endfacet
  facet normal 3.945231e-04 9.945054e-01 -1.046842e-01
    outer loop
      vertex 2.300001e+00 -9.769999e-01 1.822001e+00
      vertex 7.080021e-01 -9.690000e-01 1.892000e+00
      vertex 2.300001e+00 -9.530000e-01 2.050001e+00
    endloop
  endfacet
  facet normal 0.000000e+00 9.949118e-01 -1.007502e-01
    outer loop
      vertex 2.300001e+00 -9.530000e-01 2.050001e+00
      vertex 7.080021e-01 -9.690000e-01 1.892000e+00
      vertex 8.280010e-01 -9.530000e-01 2.050001e+00
    endloop
  endfacet
  facet normal 6.085885e-01 0.000000e+00 7.934859e-01
    outer loop
      vertex -7.059994e-01 9.770001e-01 1.892000e+00
      vertex -4.999981e-01 2.999000e+00 1.734001e+00
      vertex -7.059994e-01 2.999000e+00 1.892000e+00
    endloop
  endfacet
  facet normal 6.055241e-01 4.951305e-04 7.958269e-01
    outer loop
      vertex -4.999981e-01 2.999000e+00 1.734001e+00
      vertex -7.059994e-01 9.770001e-01 1.892000e+00
      vertex -6.140003e-01 9.770001e-01 1.822001e+00
    endloop
  endfacet
  facet normal 6.110418e-01 0.000000e+00 7.915984e-01
    outer loop
      vertex -4.999981e-01 2.999000e+00 1.734001e+00
      vertex -6.140003e-01 9.770001e-01 1.822001e+00
      vertex -4.999981e-01 9.770001e-01 1.734001e+00
    endloop
  endfacet
  facet normal 0.000000e+00 -1.000000e+00 0.000000e+00
    outer loop
      vertex -7.059994e-01 9.770001e-01 1.892000e+00
      vertex -2.300001e+00 9.770001e-01 1.822001e+00
      vertex -6.140003e-01 9.770001e-01 1.822001e+00
    endloop
  endfacet
  facet normal 0.000000e+00 -1.000000e+00 0.000000e+00
    outer loop
      vertex -2.300001e+00 9.770001e-01 1.822001e+00
      vertex -7.059994e-01 9.770001e-01 1.892000e+00
      vertex -2.300001e+00 9.770001e-01 1.944000e+00
    endloop
  endfacet
  facet normal 0.000000e+00 -1.000000e+00 0.000000e+00
    outer loop
      vertex -2.300001e+00 9.770001e-01 1.944000e+00
      vertex -7.059994e-01 9.770001e-01 1.892000e+00
      vertex -7.740002e-01 9.770001e-01 1.944000e+00
    endloop
  endfacet
  facet normal 0.000000e+00 -9.753137e-01 -2.208240e-01
    outer loop
      vertex -8.280010e-01 9.530001e-01 2.050001e+00
      vertex -2.300001e+00 9.770001e-01 1.944000e+00
      vertex -7.740002e-01 9.770001e-01 1.944000e+00
    endloop
  endfacet
  facet normal 0.000000e+00 -9.753137e-01 -2.208240e-01
    outer loop
      vertex -2.300001e+00 9.770001e-01 1.944000e+00
      vertex -8.280010e-01 9.530001e-01 2.050001e+00
      vertex -2.300001e+00 9.530001e-01 2.050001e+00
    endloop
  endfacet
  facet normal -7.961715e-01 0.000000e+00 6.050709e-01
    outer loop
      vertex 8.659992e-01 -9.730000e-01 2.100000e+00
      vertex 8.280010e-01 -2.999000e+00 2.050001e+00
      vertex 8.659992e-01 -2.999000e+00 2.100000e+00
    endloop
  endfacet
  facet normal -7.961716e-01 0.000000e+00 6.050709e-01
    outer loop
      vertex 8.280010e-01 -2.999000e+00 2.050001e+00
      vertex 8.659992e-01 -9.730000e-01 2.100000e+00
      vertex 8.280010e-01 -9.530000e-01 2.050001e+00
    endloop
  endfacet
  facet normal -6.048864e-01 0.000000e+00 7.963117e-01
    outer loop
      vertex 7.080021e-01 -2.999000e+00 1.892000e+00
      vertex 5.000019e-01 -9.769999e-01 1.734001e+00
      vertex 5.000019e-01 -2.999000e+00 1.734001e+00
    endloop
  endfacet
  facet normal -6.043925e-01 8.010982e-05 7.966868e-01
    outer loop
      vertex 5.000019e-01 -9.769999e-01 1.734001e+00
      vertex 7.080021e-01 -2.999000e+00 1.892000e+00
      vertex 6.159992e-01 -9.769999e-01 1.822001e+00
    endloop
  endfacet
  facet normal -6.055081e-01 0.000000e+00 7.958391e-01
    outer loop
      vertex 6.159992e-01 -9.769999e-01 1.822001e+00
      vertex 7.080021e-01 -2.999000e+00 1.892000e+00
      vertex 7.080021e-01 -9.690000e-01 1.892000e+00
    endloop
  endfacet
  facet normal -7.963608e-01 0.000000e+00 6.048220e-01
    outer loop
      vertex 8.280010e-01 -9.530000e-01 2.050001e+00
      vertex 7.080021e-01 -2.999000e+00 1.892000e+00
      vertex 8.280010e-01 -2.999000e+00 2.050001e+00
    endloop
  endfacet
  facet normal -7.963607e-01 0.000000e+00 6.048219e-01
    outer loop
      vertex 7.080021e-01 -2.999000e+00 1.892000e+00
      vertex 8.280010e-01 -9.530000e-01 2.050001e+00
      vertex 7.080021e-01 -9.690000e-01 1.892000e+00
    endloop
  endfacet
  facet normal 0.000000e+00 1.000000e+00 0.000000e+00
    outer loop
      vertex -2.300001e+00 -9.769999e-01 1.822001e+00
      vertex 2.300001e+00 -9.769999e-01 8.000011e-01
      vertex -2.300001e+00 -9.769999e-01 8.000011e-01
    endloop
  endfacet
  facet normal 0.000000e+00 1.000000e+00 0.000000e+00
    outer loop
      vertex 2.300001e+00 -9.769999e-01 8.000011e-01
      vertex -2.300001e+00 -9.769999e-01 1.822001e+00
      vertex 1.907349e-06 -9.769999e-01 1.600000e+00
    endloop
  endfacet
  facet normal 0.000000e+00 1.000000e+00 0.000000e+00
    outer loop
      vertex 1.907349e-06 -9.769999e-01 1.600000e+00
      vertex -2.300001e+00 -9.769999e-01 1.822001e+00
      vertex -2.579975e-01 -9.769999e-01 1.634001e+00
    endloop
  endfacet
  facet normal 0.000000e+00 1.000000e+00 0.000000e+00
    outer loop
      vertex -2.579975e-01 -9.769999e-01 1.634001e+00
      vertex -2.300001e+00 -9.769999e-01 1.822001e+00
      vertex -4.999981e-01 -9.769999e-01 1.734001e+00
    endloop
  endfacet
  facet normal 0.000000e+00 1.000000e+00 0.000000e+00
    outer loop
      vertex -2.300001e+00 -9.769999e-01 1.822001e+00
      vertex -8.280010e-01 -9.769999e-01 1.822001e+00
      vertex -4.999981e-01 -9.769999e-01 1.734001e+00
    endloop
  endfacet
  facet normal 0.000000e+00 1.000000e+00 0.000000e+00
    outer loop
      vertex -6.140003e-01 -9.769999e-01 1.822001e+00
      vertex -4.999981e-01 -9.769999e-01 1.734001e+00
      vertex -8.280010e-01 -9.769999e-01 1.822001e+00
    endloop
  endfacet
  facet normal 0.000000e+00 1.000000e+00 0.000000e+00
    outer loop
      vertex 1.907349e-06 -9.769999e-01 1.600000e+00
      vertex 2.300001e+00 -9.769999e-01 1.822001e+00
      vertex 2.300001e+00 -9.769999e-01 8.000011e-01
    endloop
  endfacet
  facet normal 0.000000e+00 1.000000e+00 0.000000e+00
    outer loop
      vertex 2.300001e+00 -9.769999e-01 1.822001e+00
      vertex 1.907349e-06 -9.769999e-01 1.600000e+00
      vertex 2.600002e-01 -9.769999e-01 1.634001e+00
    endloop
  endfacet
  facet normal 0.000000e+00 1.000000e+00 0.000000e+00
    outer loop
      vertex 2.300001e+00 -9.769999e-01 1.822001e+00
      vertex 2.600002e-01 -9.769999e-01 1.634001e+00
      vertex 5.000019e-01 -9.769999e-01 1.734001e+00
    endloop
  endfacet
  facet normal 0.000000e+00 1.000000e+00 0.000000e+00
    outer loop
      vertex 2.300001e+00 -9.769999e-01 1.822001e+00
      vertex 5.000019e-01 -9.769999e-01 1.734001e+00
      vertex 6.159992e-01 -9.769999e-01 1.822001e+00
    endloop
  endfacet
  facet normal 0.000000e+00 9.945055e-01 -1.046842e-01
    outer loop
      vertex -2.300001e+00 -9.530000e-01 2.050001e+00
      vertex -8.280010e-01 -9.769999e-01 1.822001e+00
      vertex -2.300001e+00 -9.769999e-01 1.822001e+00
    endloop
  endfacet
  facet normal 0.000000e+00 9.945055e-01 -1.046842e-01
    outer loop
      vertex -8.280010e-01 -9.769999e-01 1.822001e+00
      vertex -2.300001e+00 -9.530000e-01 2.050001e+00
      vertex -8.280010e-01 -9.530000e-01 2.050001e+00
    endloop
  endfacet
  facet normal -7.963085e-01 7.116401e-04 6.048903e-01
    outer loop
      vertex 8.659992e-01 9.730001e-01 2.100000e+00
      vertex 7.080021e-01 9.770001e-01 1.892000e+00
      vertex 8.280010e-01 9.530001e-01 2.050001e+00
    endloop
  endfacet
  facet normal -7.963153e-01 0.000000e+00 6.048818e-01
    outer loop
      vertex 7.080021e-01 9.770001e-01 1.892000e+00
      vertex 8.659992e-01 9.730001e-01 2.100000e+00
      vertex 8.659992e-01 2.999000e+00 2.100000e+00
    endloop
  endfacet
  facet normal -7.963154e-01 0.000000e+00 6.048818e-01
    outer loop
      vertex 7.080021e-01 9.770001e-01 1.892000e+00
      vertex 8.659992e-01 2.999000e+00 2.100000e+00
      vertex 7.080021e-01 2.999000e+00 1.892000e+00
    endloop
  endfacet
  facet normal -6.048864e-01 0.000000e+00 7.963117e-01
    outer loop
      vertex 5.000019e-01 9.770001e-01 1.734001e+00
      vertex 7.080021e-01 2.999000e+00 1.892000e+00
      vertex 5.000019e-01 2.999000e+00 1.734001e+00
    endloop
  endfacet
  facet normal -6.043925e-01 -8.010984e-05 7.966867e-01
    outer loop
      vertex 7.080021e-01 2.999000e+00 1.892000e+00
      vertex 5.000019e-01 9.770001e-01 1.734001e+00
      vertex 6.159992e-01 9.770001e-01 1.822001e+00
    endloop
  endfacet
  facet normal -6.055083e-01 0.000000e+00 7.958391e-01
    outer loop
      vertex 7.080021e-01 2.999000e+00 1.892000e+00
      vertex 6.159992e-01 9.770001e-01 1.822001e+00
      vertex 7.080021e-01 9.770001e-01 1.892000e+00
    endloop
  endfacet
  facet normal -3.305174e-02 -9.915416e-01 -1.255109e-01
    outer loop
      vertex 8.280010e-01 9.530001e-01 2.050001e+00
      vertex 7.080021e-01 9.770001e-01 1.892000e+00
      vertex 8.280010e-01 9.730001e-01 1.892000e+00
    endloop
  endfacet
  facet normal 0.000000e+00 -9.983713e-01 -5.705015e-02
    outer loop
      vertex 8.280010e-01 9.730001e-01 1.892000e+00
      vertex 6.159992e-01 9.770001e-01 1.822001e+00
      vertex 8.280010e-01 9.770001e-01 1.822001e+00
    endloop
  endfacet
  facet normal 0.000000e+00 -3.473212e-01 9.377463e-01
    outer loop
      vertex -2.579975e-01 -5.490000e-01 3.558001e+00
      vertex 2.600002e-01 -5.490000e-01 3.558001e+00
      vertex 1.907349e-06 -4.409999e-01 3.598001e+00
    endloop
  endfacet
  facet normal 0.000000e+00 3.417499e-01 9.397909e-01
    outer loop
      vertex -2.579975e-01 5.510001e-01 3.558001e+00
      vertex 1.907349e-06 4.410001e-01 3.598001e+00
      vertex 2.600002e-01 5.510001e-01 3.558001e+00
    endloop
  endfacet
  facet normal -3.328330e-02 -9.984882e-01 4.374532e-02
    outer loop
      vertex 7.080021e-01 9.770001e-01 1.892000e+00
      vertex 6.159992e-01 9.770001e-01 1.822001e+00
      vertex 8.280010e-01 9.730001e-01 1.892000e+00
    endloop
  endfacet
  facet normal 6.174599e-07 9.945055e-01 -1.046842e-01
    outer loop
      vertex -6.999989e-01 -9.690000e-01 1.898001e+00
      vertex -8.280010e-01 -9.769999e-01 1.822001e+00
      vertex -8.280010e-01 -9.530000e-01 2.050001e+00
    endloop
  endfacet
  facet normal 0.000000e+00 9.945056e-01 -1.046832e-01
    outer loop
      vertex -8.280010e-01 -9.769999e-01 1.822001e+00
      vertex -6.999989e-01 -9.690000e-01 1.898001e+00
      vertex -6.140003e-01 -9.769999e-01 1.822001e+00
    endloop
  endfacet
  facet normal 3.633382e-01 -3.041910e-03 -9.316524e-01
    outer loop
      vertex -4.999981e-01 -6.649999e-01 3.464001e+00
      vertex -2.579975e-01 -5.490000e-01 3.558001e+00
      vertex -2.579975e-01 -2.999000e+00 3.566000e+00
    endloop
  endfacet
  facet normal 2.667194e-03 -6.328024e-01 -7.743087e-01
    outer loop
      vertex -1.999998e+00 5.510001e-01 3.552000e+00
      vertex -4.999981e-01 6.650001e-01 3.464001e+00
      vertex -2.579975e-01 5.510001e-01 3.558001e+00
    endloop
  endfacet
  facet normal -0.000000e+00 -6.100491e-01 -7.923636e-01
    outer loop
      vertex -6.140003e-01 7.770001e-01 3.378000e+00
      vertex -1.999998e+00 5.510001e-01 3.552000e+00
      vertex -1.999998e+00 7.770001e-01 3.378000e+00
    endloop
  endfacet
  facet normal 2.738291e-03 6.066707e-01 -7.949486e-01
    outer loop
      vertex -2.579975e-01 -5.490000e-01 3.558001e+00
      vertex -1.999998e+00 -7.769999e-01 3.378000e+00
      vertex -1.999998e+00 -5.490000e-01 3.552000e+00
    endloop
  endfacet
endsolid Default
