solid Default
  facet normal 1.000000e+00 1.224647e-16 0.000000e+00
    outer loop
      vertex 2.100000e+01 -1.696950e+01 7.105427e-15
      vertex 2.100000e+01 1.696950e+01 0.000000e+00
      vertex 2.100000e+01 -1.696950e+01 3.375000e+01
    endloop
  endfacet
  facet normal 1.000000e+00 1.224647e-16 0.000000e+00
    outer loop
      vertex 2.100000e+01 -1.696950e+01 3.375000e+01
      vertex 2.100000e+01 1.696950e+01 0.000000e+00
      vertex 2.100000e+01 1.696950e+01 3.375000e+01
    endloop
  endfacet
  facet normal 2.249640e-32 -1.836970e-16 -1.000000e+00
    outer loop
      vertex 2.100000e+01 1.696950e+01 0.000000e+00
      vertex 2.100000e+01 -1.696950e+01 7.105427e-15
      vertex 1.696950e+01 -2.100000e+01 7.105427e-15
    endloop
  endfacet
  facet normal 2.249640e-32 -1.836970e-16 -1.000000e+00
    outer loop
      vertex -2.100000e+01 -1.696950e+01 7.105427e-15
      vertex 2.100000e+01 1.696950e+01 0.000000e+00
      vertex -1.696950e+01 -2.100000e+01 7.105427e-15
    endloop
  endfacet
  facet normal 2.249640e-32 -1.836970e-16 -1.000000e+00
    outer loop
      vertex -1.696950e+01 -2.100000e+01 7.105427e-15
      vertex 2.100000e+01 1.696950e+01 0.000000e+00
      vertex 1.696950e+01 -2.100000e+01 7.105427e-15
    endloop
  endfacet
  facet normal 2.249640e-32 -1.836970e-16 -1.000000e+00
    outer loop
      vertex -2.100000e+01 1.696950e+01 0.000000e+00
      vertex 2.100000e+01 1.696950e+01 0.000000e+00
      vertex -2.100000e+01 -1.696950e+01 7.105427e-15
    endloop
  endfacet
  facet normal 2.249640e-32 -1.836970e-16 -1.000000e+00
    outer loop
      vertex -1.696950e+01 2.100000e+01 0.000000e+00
      vertex 2.100000e+01 1.696950e+01 0.000000e+00
      vertex -2.100000e+01 1.696950e+01 0.000000e+00
    endloop
  endfacet
  facet normal 2.249640e-32 -1.836970e-16 -1.000000e+00
    outer loop
      vertex 1.696950e+01 2.100000e+01 0.000000e+00
      vertex 2.100000e+01 1.696950e+01 0.000000e+00
      vertex -1.696950e+01 2.100000e+01 0.000000e+00
    endloop
  endfacet
  facet normal 7.071068e-01 -7.071068e-01 1.298934e-16
    outer loop
      vertex 1.696950e+01 -2.100000e+01 3.375000e+01
      vertex 1.696950e+01 -2.100000e+01 7.105427e-15
      vertex 2.100000e+01 -1.696950e+01 3.375000e+01
    endloop
  endfacet
  facet normal 7.071068e-01 -7.071068e-01 1.298934e-16
    outer loop
      vertex 2.100000e+01 -1.696950e+01 3.375000e+01
      vertex 1.696950e+01 -2.100000e+01 7.105427e-15
      vertex 2.100000e+01 -1.696950e+01 7.105427e-15
    endloop
  endfacet
  facet normal -2.249640e-32 1.836970e-16 1.000000e+00
    outer loop
      vertex 2.100000e+01 -1.696950e+01 3.375000e+01
      vertex 2.100000e+01 1.696950e+01 3.375000e+01
      vertex 1.696950e+01 -2.100000e+01 3.375000e+01
    endloop
  endfacet
  facet normal -2.249640e-32 1.836970e-16 1.000000e+00
    outer loop
      vertex 1.696950e+01 -2.100000e+01 3.375000e+01
      vertex 2.100000e+01 1.696950e+01 3.375000e+01
      vertex 1.696950e+01 2.100000e+01 3.375000e+01
    endloop
  endfacet
  facet normal -2.249640e-32 1.836970e-16 1.000000e+00
    outer loop
      vertex 1.590170e+01 -1.426360e+01 3.375000e+01
      vertex 1.696950e+01 2.100000e+01 3.375000e+01
      vertex -1.696950e+01 2.100000e+01 3.375000e+01
    endloop
  endfacet
  facet normal -2.249640e-32 1.836970e-16 1.000000e+00
    outer loop
      vertex 1.696950e+01 -2.100000e+01 3.375000e+01
      vertex -1.696950e+01 2.100000e+01 3.375000e+01
      vertex -2.100000e+01 1.696950e+01 3.375000e+01
    endloop
  endfacet
  facet normal -2.249640e-32 1.836970e-16 1.000000e+00
    outer loop
      vertex -1.680000e+01 -1.550000e+01 3.375000e+01
      vertex -2.100000e+01 1.696950e+01 3.375000e+01
      vertex -2.100000e+01 -1.696950e+01 3.375000e+01
    endloop
  endfacet
  facet normal -2.249640e-32 1.836970e-16 1.000000e+00
    outer loop
      vertex 1.696950e+01 -2.100000e+01 3.375000e+01
      vertex -2.100000e+01 -1.696950e+01 3.375000e+01
      vertex -1.696950e+01 -2.100000e+01 3.375000e+01
    endloop
  endfacet
  facet normal -2.249640e-32 1.836970e-16 1.000000e+00
    outer loop
      vertex 1.696950e+01 -2.100000e+01 3.375000e+01
      vertex 1.696950e+01 2.100000e+01 3.375000e+01
      vertex 1.680000e+01 -1.550000e+01 3.375000e+01
    endloop
  endfacet
  facet normal -2.249640e-32 1.836970e-16 1.000000e+00
    outer loop
      vertex 1.696950e+01 -2.100000e+01 3.375000e+01
      vertex 1.680000e+01 -1.550000e+01 3.375000e+01
      vertex 1.673640e+01 -1.590170e+01 3.375000e+01
    endloop
  endfacet
  facet normal -2.249640e-32 1.836970e-16 1.000000e+00
    outer loop
      vertex 1.696950e+01 -2.100000e+01 3.375000e+01
      vertex 1.673640e+01 -1.590170e+01 3.375000e+01
      vertex 1.655170e+01 -1.626410e+01 3.375000e+01
    endloop
  endfacet
  facet normal -2.249640e-32 1.836970e-16 1.000000e+00
    outer loop
      vertex 1.696950e+01 -2.100000e+01 3.375000e+01
      vertex 1.655170e+01 -1.626410e+01 3.375000e+01
      vertex 1.626410e+01 -1.655170e+01 3.375000e+01
    endloop
  endfacet
  facet normal -2.249640e-32 1.836970e-16 1.000000e+00
    outer loop
      vertex 1.696950e+01 -2.100000e+01 3.375000e+01
      vertex 1.626410e+01 -1.655170e+01 3.375000e+01
      vertex 1.590170e+01 -1.673640e+01 3.375000e+01
    endloop
  endfacet
  facet normal -2.249640e-32 1.836970e-16 1.000000e+00
    outer loop
      vertex 1.696950e+01 -2.100000e+01 3.375000e+01
      vertex 1.590170e+01 -1.673640e+01 3.375000e+01
      vertex 1.550000e+01 -1.680000e+01 3.375000e+01
    endloop
  endfacet
  facet normal -2.249640e-32 1.836970e-16 1.000000e+00
    outer loop
      vertex 1.696950e+01 -2.100000e+01 3.375000e+01
      vertex 1.550000e+01 -1.680000e+01 3.375000e+01
      vertex 1.509830e+01 -1.673640e+01 3.375000e+01
    endloop
  endfacet
  facet normal -2.249640e-32 1.836970e-16 1.000000e+00
    outer loop
      vertex 1.696950e+01 -2.100000e+01 3.375000e+01
      vertex 1.509830e+01 -1.673640e+01 3.375000e+01
      vertex 1.473590e+01 -1.655170e+01 3.375000e+01
    endloop
  endfacet
  facet normal -2.249640e-32 1.836970e-16 1.000000e+00
    outer loop
      vertex 1.696950e+01 -2.100000e+01 3.375000e+01
      vertex 1.473590e+01 -1.655170e+01 3.375000e+01
      vertex 1.444830e+01 -1.626410e+01 3.375000e+01
    endloop
  endfacet
  facet normal -2.249640e-32 1.836970e-16 1.000000e+00
    outer loop
      vertex 1.696950e+01 -2.100000e+01 3.375000e+01
      vertex 1.444830e+01 -1.626410e+01 3.375000e+01
      vertex -1.696950e+01 2.100000e+01 3.375000e+01
    endloop
  endfacet
  facet normal -2.249640e-32 1.836970e-16 1.000000e+00
    outer loop
      vertex 1.420000e+01 -1.550000e+01 3.375000e+01
      vertex -1.696950e+01 2.100000e+01 3.375000e+01
      vertex 1.426360e+01 -1.590170e+01 3.375000e+01
    endloop
  endfacet
  facet normal -2.249640e-32 1.836970e-16 1.000000e+00
    outer loop
      vertex 1.426360e+01 -1.509830e+01 3.375000e+01
      vertex -1.696950e+01 2.100000e+01 3.375000e+01
      vertex 1.420000e+01 -1.550000e+01 3.375000e+01
    endloop
  endfacet
  facet normal -2.249640e-32 1.836970e-16 1.000000e+00
    outer loop
      vertex 1.444830e+01 -1.473590e+01 3.375000e+01
      vertex -1.696950e+01 2.100000e+01 3.375000e+01
      vertex 1.426360e+01 -1.509830e+01 3.375000e+01
    endloop
  endfacet
  facet normal -2.249640e-32 1.836970e-16 1.000000e+00
    outer loop
      vertex 1.473590e+01 -1.444830e+01 3.375000e+01
      vertex -1.696950e+01 2.100000e+01 3.375000e+01
      vertex 1.444830e+01 -1.473590e+01 3.375000e+01
    endloop
  endfacet
  facet normal -2.249640e-32 1.836970e-16 1.000000e+00
    outer loop
      vertex 1.509830e+01 -1.426360e+01 3.375000e+01
      vertex -1.696950e+01 2.100000e+01 3.375000e+01
      vertex 1.473590e+01 -1.444830e+01 3.375000e+01
    endloop
  endfacet
  facet normal -2.249640e-32 1.836970e-16 1.000000e+00
    outer loop
      vertex 1.550000e+01 -1.420000e+01 3.375000e+01
      vertex -1.696950e+01 2.100000e+01 3.375000e+01
      vertex 1.509830e+01 -1.426360e+01 3.375000e+01
    endloop
  endfacet
  facet normal -2.249640e-32 1.836970e-16 1.000000e+00
    outer loop
      vertex 1.590170e+01 -1.426360e+01 3.375000e+01
      vertex -1.696950e+01 2.100000e+01 3.375000e+01
      vertex 1.550000e+01 -1.420000e+01 3.375000e+01
    endloop
  endfacet
  facet normal -2.249640e-32 1.836970e-16 1.000000e+00
    outer loop
      vertex 1.626410e+01 -1.444830e+01 3.375000e+01
      vertex 1.696950e+01 2.100000e+01 3.375000e+01
      vertex 1.590170e+01 -1.426360e+01 3.375000e+01
    endloop
  endfacet
  facet normal -2.249640e-32 1.836970e-16 1.000000e+00
    outer loop
      vertex -1.590170e+01 -1.673640e+01 3.375000e+01
      vertex -2.100000e+01 -1.696950e+01 3.375000e+01
      vertex -1.550000e+01 -1.680000e+01 3.375000e+01
    endloop
  endfacet
  facet normal -2.249640e-32 1.836970e-16 1.000000e+00
    outer loop
      vertex 1.655170e+01 -1.473590e+01 3.375000e+01
      vertex 1.696950e+01 2.100000e+01 3.375000e+01
      vertex 1.626410e+01 -1.444830e+01 3.375000e+01
    endloop
  endfacet
  facet normal -2.249640e-32 1.836970e-16 1.000000e+00
    outer loop
      vertex 1.673640e+01 -1.509830e+01 3.375000e+01
      vertex 1.696950e+01 2.100000e+01 3.375000e+01
      vertex 1.655170e+01 -1.473590e+01 3.375000e+01
    endloop
  endfacet
  facet normal -2.249640e-32 1.836970e-16 1.000000e+00
    outer loop
      vertex 1.680000e+01 -1.550000e+01 3.375000e+01
      vertex 1.696950e+01 2.100000e+01 3.375000e+01
      vertex 1.673640e+01 -1.509830e+01 3.375000e+01
    endloop
  endfacet
  facet normal -2.249640e-32 1.836970e-16 1.000000e+00
    outer loop
      vertex 1.696950e+01 -2.100000e+01 3.375000e+01
      vertex -1.420000e+01 -1.550000e+01 3.375000e+01
      vertex -1.426360e+01 -1.590170e+01 3.375000e+01
    endloop
  endfacet
  facet normal -2.249640e-32 1.836970e-16 1.000000e+00
    outer loop
      vertex 1.696950e+01 -2.100000e+01 3.375000e+01
      vertex -1.426360e+01 -1.590170e+01 3.375000e+01
      vertex -1.444830e+01 -1.626410e+01 3.375000e+01
    endloop
  endfacet
  facet normal -2.249640e-32 1.836970e-16 1.000000e+00
    outer loop
      vertex 1.696950e+01 -2.100000e+01 3.375000e+01
      vertex -1.444830e+01 -1.626410e+01 3.375000e+01
      vertex -1.473590e+01 -1.655170e+01 3.375000e+01
    endloop
  endfacet
  facet normal -2.249640e-32 1.836970e-16 1.000000e+00
    outer loop
      vertex 1.696950e+01 -2.100000e+01 3.375000e+01
      vertex -1.473590e+01 -1.655170e+01 3.375000e+01
      vertex -1.509830e+01 -1.673640e+01 3.375000e+01
    endloop
  endfacet
  facet normal -2.249640e-32 1.836970e-16 1.000000e+00
    outer loop
      vertex 1.696950e+01 -2.100000e+01 3.375000e+01
      vertex -1.509830e+01 -1.673640e+01 3.375000e+01
      vertex -1.550000e+01 -1.680000e+01 3.375000e+01
    endloop
  endfacet
  facet normal -2.249640e-32 1.836970e-16 1.000000e+00
    outer loop
      vertex 1.696950e+01 -2.100000e+01 3.375000e+01
      vertex -1.550000e+01 -1.680000e+01 3.375000e+01
      vertex -2.100000e+01 -1.696950e+01 3.375000e+01
    endloop
  endfacet
  facet normal -2.249640e-32 1.836970e-16 1.000000e+00
    outer loop
      vertex -1.626410e+01 -1.655170e+01 3.375000e+01
      vertex -2.100000e+01 -1.696950e+01 3.375000e+01
      vertex -1.590170e+01 -1.673640e+01 3.375000e+01
    endloop
  endfacet
  facet normal -2.249640e-32 1.836970e-16 1.000000e+00
    outer loop
      vertex -1.655170e+01 -1.626410e+01 3.375000e+01
      vertex -2.100000e+01 -1.696950e+01 3.375000e+01
      vertex -1.626410e+01 -1.655170e+01 3.375000e+01
    endloop
  endfacet
  facet normal -2.249640e-32 1.836970e-16 1.000000e+00
    outer loop
      vertex -1.673640e+01 -1.590170e+01 3.375000e+01
      vertex -2.100000e+01 -1.696950e+01 3.375000e+01
      vertex -1.655170e+01 -1.626410e+01 3.375000e+01
    endloop
  endfacet
  facet normal -2.249640e-32 1.836970e-16 1.000000e+00
    outer loop
      vertex -1.426360e+01 -1.509830e+01 3.375000e+01
      vertex -2.100000e+01 1.696950e+01 3.375000e+01
      vertex -1.444830e+01 -1.473590e+01 3.375000e+01
    endloop
  endfacet
  facet normal -2.249640e-32 1.836970e-16 1.000000e+00
    outer loop
      vertex -1.673640e+01 -1.509830e+01 3.375000e+01
      vertex -2.100000e+01 1.696950e+01 3.375000e+01
      vertex -1.680000e+01 -1.550000e+01 3.375000e+01
    endloop
  endfacet
  facet normal -2.249640e-32 1.836970e-16 1.000000e+00
    outer loop
      vertex -1.673640e+01 -1.590170e+01 3.375000e+01
      vertex -1.680000e+01 -1.550000e+01 3.375000e+01
      vertex -2.100000e+01 -1.696950e+01 3.375000e+01
    endloop
  endfacet
  facet normal -2.249640e-32 1.836970e-16 1.000000e+00
    outer loop
      vertex -1.655170e+01 -1.473590e+01 3.375000e+01
      vertex -2.100000e+01 1.696950e+01 3.375000e+01
      vertex -1.673640e+01 -1.509830e+01 3.375000e+01
    endloop
  endfacet
  facet normal -2.249640e-32 1.836970e-16 1.000000e+00
    outer loop
      vertex -1.626410e+01 -1.444830e+01 3.375000e+01
      vertex -2.100000e+01 1.696950e+01 3.375000e+01
      vertex -1.655170e+01 -1.473590e+01 3.375000e+01
    endloop
  endfacet
  facet normal -2.249640e-32 1.836970e-16 1.000000e+00
    outer loop
      vertex -1.590170e+01 -1.426360e+01 3.375000e+01
      vertex -2.100000e+01 1.696950e+01 3.375000e+01
      vertex -1.626410e+01 -1.444830e+01 3.375000e+01
    endloop
  endfacet
  facet normal -2.249640e-32 1.836970e-16 1.000000e+00
    outer loop
      vertex -1.550000e+01 -1.420000e+01 3.375000e+01
      vertex -2.100000e+01 1.696950e+01 3.375000e+01
      vertex -1.590170e+01 -1.426360e+01 3.375000e+01
    endloop
  endfacet
  facet normal -2.249640e-32 1.836970e-16 1.000000e+00
    outer loop
      vertex -1.509830e+01 -1.426360e+01 3.375000e+01
      vertex -2.100000e+01 1.696950e+01 3.375000e+01
      vertex -1.550000e+01 -1.420000e+01 3.375000e+01
    endloop
  endfacet
  facet normal -2.249640e-32 1.836970e-16 1.000000e+00
    outer loop
      vertex -1.473590e+01 -1.444830e+01 3.375000e+01
      vertex -2.100000e+01 1.696950e+01 3.375000e+01
      vertex -1.509830e+01 -1.426360e+01 3.375000e+01
    endloop
  endfacet
  facet normal -2.249640e-32 1.836970e-16 1.000000e+00
    outer loop
      vertex -1.444830e+01 -1.473590e+01 3.375000e+01
      vertex -2.100000e+01 1.696950e+01 3.375000e+01
      vertex -1.473590e+01 -1.444830e+01 3.375000e+01
    endloop
  endfacet
  facet normal -2.249640e-32 1.836970e-16 1.000000e+00
    outer loop
      vertex 1.696950e+01 -2.100000e+01 3.375000e+01
      vertex -2.100000e+01 1.696950e+01 3.375000e+01
      vertex -1.426360e+01 -1.509830e+01 3.375000e+01
    endloop
  endfacet
  facet normal -2.249640e-32 1.836970e-16 1.000000e+00
    outer loop
      vertex 1.696950e+01 -2.100000e+01 3.375000e+01
      vertex -1.426360e+01 -1.509830e+01 3.375000e+01
      vertex -1.420000e+01 -1.550000e+01 3.375000e+01
    endloop
  endfacet
  facet normal -2.249640e-32 1.836970e-16 1.000000e+00
    outer loop
      vertex 1.426360e+01 -1.590170e+01 3.375000e+01
      vertex -1.696950e+01 2.100000e+01 3.375000e+01
      vertex 1.444830e+01 -1.626410e+01 3.375000e+01
    endloop
  endfacet
  facet normal 7.071068e-01 7.071068e-01 -1.298934e-16
    outer loop
      vertex 1.696950e+01 2.100000e+01 3.375000e+01
      vertex 2.100000e+01 1.696950e+01 3.375000e+01
      vertex 1.696950e+01 2.100000e+01 0.000000e+00
    endloop
  endfacet
  facet normal 7.071068e-01 7.071068e-01 -1.298934e-16
    outer loop
      vertex 1.696950e+01 2.100000e+01 0.000000e+00
      vertex 2.100000e+01 1.696950e+01 3.375000e+01
      vertex 2.100000e+01 1.696950e+01 0.000000e+00
    endloop
  endfacet
  facet normal -1.224647e-16 1.000000e+00 -1.836970e-16
    outer loop
      vertex 1.696950e+01 2.100000e+01 3.375000e+01
      vertex 1.696950e+01 2.100000e+01 0.000000e+00
      vertex -1.696950e+01 2.100000e+01 0.000000e+00
    endloop
  endfacet
  facet normal -1.224647e-16 1.000000e+00 -1.836970e-16
    outer loop
      vertex -1.696950e+01 2.100000e+01 3.375000e+01
      vertex 1.696950e+01 2.100000e+01 3.375000e+01
      vertex -1.696950e+01 2.100000e+01 0.000000e+00
    endloop
  endfacet
  facet normal -7.071068e-01 7.071068e-01 -1.298934e-16
    outer loop
      vertex -2.100000e+01 1.696950e+01 0.000000e+00
      vertex -2.100000e+01 1.696950e+01 3.375000e+01
      vertex -1.696950e+01 2.100000e+01 3.375000e+01
    endloop
  endfacet
  facet normal -7.071068e-01 7.071068e-01 -1.298934e-16
    outer loop
      vertex -1.696950e+01 2.100000e+01 0.000000e+00
      vertex -2.100000e+01 1.696950e+01 0.000000e+00
      vertex -1.696950e+01 2.100000e+01 3.375000e+01
    endloop
  endfacet
  facet normal -1.000000e+00 -1.224647e-16 0.000000e+00
    outer loop
      vertex -2.100000e+01 1.696950e+01 0.000000e+00
      vertex -2.100000e+01 -1.696950e+01 7.105427e-15
      vertex -2.100000e+01 -1.696950e+01 3.375000e+01
    endloop
  endfacet
  facet normal -1.000000e+00 -1.224647e-16 0.000000e+00
    outer loop
      vertex -2.100000e+01 1.696950e+01 3.375000e+01
      vertex -2.100000e+01 1.696950e+01 0.000000e+00
      vertex -2.100000e+01 -1.696950e+01 3.375000e+01
    endloop
  endfacet
  facet normal -7.071068e-01 -7.071068e-01 1.298934e-16
    outer loop
      vertex -1.696950e+01 -2.100000e+01 3.375000e+01
      vertex -2.100000e+01 -1.696950e+01 3.375000e+01
      vertex -2.100000e+01 -1.696950e+01 7.105427e-15
    endloop
  endfacet
  facet normal -7.071068e-01 -7.071068e-01 1.298934e-16
    outer loop
      vertex -1.696950e+01 -2.100000e+01 7.105427e-15
      vertex -1.696950e+01 -2.100000e+01 3.375000e+01
      vertex -2.100000e+01 -1.696950e+01 7.105427e-15
    endloop
  endfacet
  facet normal 1.224647e-16 -1.000000e+00 1.836970e-16
    outer loop
      vertex 1.696950e+01 -2.100000e+01 7.105427e-15
      vertex 1.696950e+01 -2.100000e+01 3.375000e+01
      vertex -1.696950e+01 -2.100000e+01 7.105427e-15
    endloop
  endfacet
  facet normal 1.224647e-16 -1.000000e+00 1.836970e-16
    outer loop
      vertex -1.696950e+01 -2.100000e+01 7.105427e-15
      vertex 1.696950e+01 -2.100000e+01 3.375000e+01
      vertex -1.696950e+01 -2.100000e+01 3.375000e+01
    endloop
  endfacet
  facet normal -9.876881e-01 -1.564360e-01 -5.998874e-18
    outer loop
      vertex 1.680000e+01 -1.550000e+01 3.375000e+01
      vertex 1.673640e+01 -1.509830e+01 3.375000e+01
      vertex 1.673640e+01 -1.509830e+01 2.287500e+01
    endloop
  endfacet
  facet normal -9.876881e-01 -1.564360e-01 -5.998874e-18
    outer loop
      vertex 1.680000e+01 -1.550000e+01 2.287500e+01
      vertex 1.680000e+01 -1.550000e+01 3.375000e+01
      vertex 1.673640e+01 -1.509830e+01 2.287500e+01
    endloop
  endfacet
  facet normal -9.876881e-01 1.564360e-01 5.998874e-18
    outer loop
      vertex 1.673640e+01 -1.590170e+01 2.287500e+01
      vertex 1.673640e+01 -1.590170e+01 3.375000e+01
      vertex 1.680000e+01 -1.550000e+01 3.375000e+01
    endloop
  endfacet
  facet normal -9.876881e-01 1.564360e-01 5.998874e-18
    outer loop
      vertex 1.680000e+01 -1.550000e+01 2.287500e+01
      vertex 1.673640e+01 -1.590170e+01 2.287500e+01
      vertex 1.680000e+01 -1.550000e+01 3.375000e+01
    endloop
  endfacet
  facet normal -8.910072e-01 -4.539891e-01 -1.740958e-17
    outer loop
      vertex 1.673640e+01 -1.509830e+01 3.375000e+01
      vertex 1.655170e+01 -1.473590e+01 3.375000e+01
      vertex 1.655170e+01 -1.473590e+01 2.287500e+01
    endloop
  endfacet
  facet normal -8.910072e-01 -4.539891e-01 -1.740958e-17
    outer loop
      vertex 1.673640e+01 -1.509830e+01 2.287500e+01
      vertex 1.673640e+01 -1.509830e+01 3.375000e+01
      vertex 1.655170e+01 -1.473590e+01 2.287500e+01
    endloop
  endfacet
  facet normal -7.071068e-01 -7.071068e-01 -2.711555e-17
    outer loop
      vertex 1.655170e+01 -1.473590e+01 3.375000e+01
      vertex 1.626410e+01 -1.444830e+01 3.375000e+01
      vertex 1.626410e+01 -1.444830e+01 2.287500e+01
    endloop
  endfacet
  facet normal -7.071068e-01 -7.071068e-01 -2.711555e-17
    outer loop
      vertex 1.655170e+01 -1.473590e+01 2.287500e+01
      vertex 1.655170e+01 -1.473590e+01 3.375000e+01
      vertex 1.626410e+01 -1.444830e+01 2.287500e+01
    endloop
  endfacet
  facet normal -4.539891e-01 -8.910072e-01 -3.416767e-17
    outer loop
      vertex 1.590170e+01 -1.426360e+01 3.375000e+01
      vertex 1.590170e+01 -1.426360e+01 2.287500e+01
      vertex 1.626410e+01 -1.444830e+01 3.375000e+01
    endloop
  endfacet
  facet normal -4.539891e-01 -8.910072e-01 -3.416767e-17
    outer loop
      vertex 1.626410e+01 -1.444830e+01 3.375000e+01
      vertex 1.590170e+01 -1.426360e+01 2.287500e+01
      vertex 1.626410e+01 -1.444830e+01 2.287500e+01
    endloop
  endfacet
  facet normal -1.564360e-01 -9.876881e-01 -3.787566e-17
    outer loop
      vertex 1.550000e+01 -1.420000e+01 3.375000e+01
      vertex 1.550000e+01 -1.420000e+01 2.287500e+01
      vertex 1.590170e+01 -1.426360e+01 3.375000e+01
    endloop
  endfacet
  facet normal -1.564360e-01 -9.876881e-01 -3.787566e-17
    outer loop
      vertex 1.590170e+01 -1.426360e+01 3.375000e+01
      vertex 1.550000e+01 -1.420000e+01 2.287500e+01
      vertex 1.590170e+01 -1.426360e+01 2.287500e+01
    endloop
  endfacet
  facet normal 1.564360e-01 -9.876881e-01 -3.787566e-17
    outer loop
      vertex 1.509830e+01 -1.426360e+01 3.375000e+01
      vertex 1.509830e+01 -1.426360e+01 2.287500e+01
      vertex 1.550000e+01 -1.420000e+01 3.375000e+01
    endloop
  endfacet
  facet normal 1.564360e-01 -9.876881e-01 -3.787566e-17
    outer loop
      vertex 1.550000e+01 -1.420000e+01 3.375000e+01
      vertex 1.509830e+01 -1.426360e+01 2.287500e+01
      vertex 1.550000e+01 -1.420000e+01 2.287500e+01
    endloop
  endfacet
  facet normal 4.539891e-01 -8.910072e-01 -3.416767e-17
    outer loop
      vertex 1.473590e+01 -1.444830e+01 3.375000e+01
      vertex 1.473590e+01 -1.444830e+01 2.287500e+01
      vertex 1.509830e+01 -1.426360e+01 3.375000e+01
    endloop
  endfacet
  facet normal 4.539891e-01 -8.910072e-01 -3.416767e-17
    outer loop
      vertex 1.509830e+01 -1.426360e+01 3.375000e+01
      vertex 1.473590e+01 -1.444830e+01 2.287500e+01
      vertex 1.509830e+01 -1.426360e+01 2.287500e+01
    endloop
  endfacet
  facet normal 7.071068e-01 -7.071068e-01 -2.711555e-17
    outer loop
      vertex 1.444830e+01 -1.473590e+01 3.375000e+01
      vertex 1.444830e+01 -1.473590e+01 2.287500e+01
      vertex 1.473590e+01 -1.444830e+01 3.375000e+01
    endloop
  endfacet
  facet normal 7.071068e-01 -7.071068e-01 -2.711555e-17
    outer loop
      vertex 1.473590e+01 -1.444830e+01 3.375000e+01
      vertex 1.444830e+01 -1.473590e+01 2.287500e+01
      vertex 1.473590e+01 -1.444830e+01 2.287500e+01
    endloop
  endfacet
  facet normal 8.910072e-01 -4.539891e-01 -1.740958e-17
    outer loop
      vertex 1.426360e+01 -1.509830e+01 3.375000e+01
      vertex 1.426360e+01 -1.509830e+01 2.287500e+01
      vertex 1.444830e+01 -1.473590e+01 3.375000e+01
    endloop
  endfacet
  facet normal 8.910072e-01 -4.539891e-01 -1.740958e-17
    outer loop
      vertex 1.444830e+01 -1.473590e+01 3.375000e+01
      vertex 1.426360e+01 -1.509830e+01 2.287500e+01
      vertex 1.444830e+01 -1.473590e+01 2.287500e+01
    endloop
  endfacet
  facet normal 9.876881e-01 -1.564360e-01 -5.998874e-18
    outer loop
      vertex 1.420000e+01 -1.550000e+01 3.375000e+01
      vertex 1.420000e+01 -1.550000e+01 2.287500e+01
      vertex 1.426360e+01 -1.509830e+01 3.375000e+01
    endloop
  endfacet
  facet normal 9.876881e-01 -1.564360e-01 -5.998874e-18
    outer loop
      vertex 1.426360e+01 -1.509830e+01 3.375000e+01
      vertex 1.420000e+01 -1.550000e+01 2.287500e+01
      vertex 1.426360e+01 -1.509830e+01 2.287500e+01
    endloop
  endfacet
  facet normal 9.876881e-01 1.564360e-01 5.998874e-18
    outer loop
      vertex 1.420000e+01 -1.550000e+01 3.375000e+01
      vertex 1.426360e+01 -1.590170e+01 3.375000e+01
      vertex 1.420000e+01 -1.550000e+01 2.287500e+01
    endloop
  endfacet
  facet normal 9.876881e-01 1.564360e-01 5.998874e-18
    outer loop
      vertex 1.420000e+01 -1.550000e+01 2.287500e+01
      vertex 1.426360e+01 -1.590170e+01 3.375000e+01
      vertex 1.426360e+01 -1.590170e+01 2.287500e+01
    endloop
  endfacet
  facet normal 8.910072e-01 4.539891e-01 1.740958e-17
    outer loop
      vertex 1.426360e+01 -1.590170e+01 3.375000e+01
      vertex 1.444830e+01 -1.626410e+01 3.375000e+01
      vertex 1.426360e+01 -1.590170e+01 2.287500e+01
    endloop
  endfacet
  facet normal 8.910072e-01 4.539891e-01 1.740958e-17
    outer loop
      vertex 1.426360e+01 -1.590170e+01 2.287500e+01
      vertex 1.444830e+01 -1.626410e+01 3.375000e+01
      vertex 1.444830e+01 -1.626410e+01 2.287500e+01
    endloop
  endfacet
  facet normal 7.071068e-01 7.071068e-01 2.711555e-17
    outer loop
      vertex 1.444830e+01 -1.626410e+01 3.375000e+01
      vertex 1.473590e+01 -1.655170e+01 3.375000e+01
      vertex 1.444830e+01 -1.626410e+01 2.287500e+01
    endloop
  endfacet
  facet normal 7.071068e-01 7.071068e-01 2.711555e-17
    outer loop
      vertex 1.444830e+01 -1.626410e+01 2.287500e+01
      vertex 1.473590e+01 -1.655170e+01 3.375000e+01
      vertex 1.473590e+01 -1.655170e+01 2.287500e+01
    endloop
  endfacet
  facet normal 4.539891e-01 8.910072e-01 3.416767e-17
    outer loop
      vertex 1.473590e+01 -1.655170e+01 2.287500e+01
      vertex 1.473590e+01 -1.655170e+01 3.375000e+01
      vertex 1.509830e+01 -1.673640e+01 3.375000e+01
    endloop
  endfacet
  facet normal 4.539891e-01 8.910072e-01 3.416767e-17
    outer loop
      vertex 1.509830e+01 -1.673640e+01 2.287500e+01
      vertex 1.473590e+01 -1.655170e+01 2.287500e+01
      vertex 1.509830e+01 -1.673640e+01 3.375000e+01
    endloop
  endfacet
  facet normal 1.564360e-01 9.876881e-01 3.787566e-17
    outer loop
      vertex 1.509830e+01 -1.673640e+01 2.287500e+01
      vertex 1.509830e+01 -1.673640e+01 3.375000e+01
      vertex 1.550000e+01 -1.680000e+01 3.375000e+01
    endloop
  endfacet
  facet normal 1.564360e-01 9.876881e-01 3.787566e-17
    outer loop
      vertex 1.550000e+01 -1.680000e+01 2.287500e+01
      vertex 1.509830e+01 -1.673640e+01 2.287500e+01
      vertex 1.550000e+01 -1.680000e+01 3.375000e+01
    endloop
  endfacet
  facet normal -1.564360e-01 9.876881e-01 3.787566e-17
    outer loop
      vertex 1.550000e+01 -1.680000e+01 2.287500e+01
      vertex 1.550000e+01 -1.680000e+01 3.375000e+01
      vertex 1.590170e+01 -1.673640e+01 3.375000e+01
    endloop
  endfacet
  facet normal -1.564360e-01 9.876881e-01 3.787566e-17
    outer loop
      vertex 1.590170e+01 -1.673640e+01 2.287500e+01
      vertex 1.550000e+01 -1.680000e+01 2.287500e+01
      vertex 1.590170e+01 -1.673640e+01 3.375000e+01
    endloop
  endfacet
  facet normal -4.539891e-01 8.910072e-01 3.416767e-17
    outer loop
      vertex 1.590170e+01 -1.673640e+01 2.287500e+01
      vertex 1.590170e+01 -1.673640e+01 3.375000e+01
      vertex 1.626410e+01 -1.655170e+01 3.375000e+01
    endloop
  endfacet
  facet normal -4.539891e-01 8.910072e-01 3.416767e-17
    outer loop
      vertex 1.626410e+01 -1.655170e+01 2.287500e+01
      vertex 1.590170e+01 -1.673640e+01 2.287500e+01
      vertex 1.626410e+01 -1.655170e+01 3.375000e+01
    endloop
  endfacet
  facet normal -7.071068e-01 7.071068e-01 2.711555e-17
    outer loop
      vertex 1.626410e+01 -1.655170e+01 2.287500e+01
      vertex 1.626410e+01 -1.655170e+01 3.375000e+01
      vertex 1.655170e+01 -1.626410e+01 3.375000e+01
    endloop
  endfacet
  facet normal -7.071068e-01 7.071068e-01 2.711555e-17
    outer loop
      vertex 1.655170e+01 -1.626410e+01 2.287500e+01
      vertex 1.626410e+01 -1.655170e+01 2.287500e+01
      vertex 1.655170e+01 -1.626410e+01 3.375000e+01
    endloop
  endfacet
  facet normal -8.910072e-01 4.539891e-01 1.740958e-17
    outer loop
      vertex 1.655170e+01 -1.626410e+01 2.287500e+01
      vertex 1.655170e+01 -1.626410e+01 3.375000e+01
      vertex 1.673640e+01 -1.590170e+01 3.375000e+01
    endloop
  endfacet
  facet normal -8.910072e-01 4.539891e-01 1.740958e-17
    outer loop
      vertex 1.673640e+01 -1.590170e+01 2.287500e+01
      vertex 1.655170e+01 -1.626410e+01 2.287500e+01
      vertex 1.673640e+01 -1.590170e+01 3.375000e+01
    endloop
  endfacet
  facet normal -9.876881e-01 -1.564360e-01 -5.998874e-18
    outer loop
      vertex -1.420000e+01 -1.550000e+01 3.375000e+01
      vertex -1.426360e+01 -1.509830e+01 3.375000e+01
      vertex -1.426360e+01 -1.509830e+01 2.287500e+01
    endloop
  endfacet
  facet normal -9.876881e-01 -1.564360e-01 -5.998874e-18
    outer loop
      vertex -1.420000e+01 -1.550000e+01 2.287500e+01
      vertex -1.420000e+01 -1.550000e+01 3.375000e+01
      vertex -1.426360e+01 -1.509830e+01 2.287500e+01
    endloop
  endfacet
  facet normal -9.876881e-01 1.564360e-01 5.998874e-18
    outer loop
      vertex -1.426360e+01 -1.590170e+01 2.287500e+01
      vertex -1.426360e+01 -1.590170e+01 3.375000e+01
      vertex -1.420000e+01 -1.550000e+01 3.375000e+01
    endloop
  endfacet
  facet normal -9.876881e-01 1.564360e-01 5.998874e-18
    outer loop
      vertex -1.420000e+01 -1.550000e+01 2.287500e+01
      vertex -1.426360e+01 -1.590170e+01 2.287500e+01
      vertex -1.420000e+01 -1.550000e+01 3.375000e+01
    endloop
  endfacet
  facet normal -8.910072e-01 -4.539891e-01 -1.740958e-17
    outer loop
      vertex -1.426360e+01 -1.509830e+01 3.375000e+01
      vertex -1.444830e+01 -1.473590e+01 3.375000e+01
      vertex -1.444830e+01 -1.473590e+01 2.287500e+01
    endloop
  endfacet
  facet normal -8.910072e-01 -4.539891e-01 -1.740958e-17
    outer loop
      vertex -1.426360e+01 -1.509830e+01 2.287500e+01
      vertex -1.426360e+01 -1.509830e+01 3.375000e+01
      vertex -1.444830e+01 -1.473590e+01 2.287500e+01
    endloop
  endfacet
  facet normal -7.071068e-01 -7.071068e-01 -2.711555e-17
    outer loop
      vertex -1.444830e+01 -1.473590e+01 3.375000e+01
      vertex -1.473590e+01 -1.444830e+01 3.375000e+01
      vertex -1.473590e+01 -1.444830e+01 2.287500e+01
    endloop
  endfacet
  facet normal -7.071068e-01 -7.071068e-01 -2.711555e-17
    outer loop
      vertex -1.444830e+01 -1.473590e+01 2.287500e+01
      vertex -1.444830e+01 -1.473590e+01 3.375000e+01
      vertex -1.473590e+01 -1.444830e+01 2.287500e+01
    endloop
  endfacet
  facet normal -4.539891e-01 -8.910072e-01 -3.416767e-17
    outer loop
      vertex -1.509830e+01 -1.426360e+01 3.375000e+01
      vertex -1.509830e+01 -1.426360e+01 2.287500e+01
      vertex -1.473590e+01 -1.444830e+01 3.375000e+01
    endloop
  endfacet
  facet normal -4.539891e-01 -8.910072e-01 -3.416767e-17
    outer loop
      vertex -1.473590e+01 -1.444830e+01 3.375000e+01
      vertex -1.509830e+01 -1.426360e+01 2.287500e+01
      vertex -1.473590e+01 -1.444830e+01 2.287500e+01
    endloop
  endfacet
  facet normal -1.564360e-01 -9.876881e-01 -3.787566e-17
    outer loop
      vertex -1.550000e+01 -1.420000e+01 3.375000e+01
      vertex -1.550000e+01 -1.420000e+01 2.287500e+01
      vertex -1.509830e+01 -1.426360e+01 3.375000e+01
    endloop
  endfacet
  facet normal -1.564360e-01 -9.876881e-01 -3.787566e-17
    outer loop
      vertex -1.509830e+01 -1.426360e+01 3.375000e+01
      vertex -1.550000e+01 -1.420000e+01 2.287500e+01
      vertex -1.509830e+01 -1.426360e+01 2.287500e+01
    endloop
  endfacet
  facet normal 1.564360e-01 -9.876881e-01 -3.787566e-17
    outer loop
      vertex -1.590170e+01 -1.426360e+01 3.375000e+01
      vertex -1.590170e+01 -1.426360e+01 2.287500e+01
      vertex -1.550000e+01 -1.420000e+01 3.375000e+01
    endloop
  endfacet
  facet normal 1.564360e-01 -9.876881e-01 -3.787566e-17
    outer loop
      vertex -1.550000e+01 -1.420000e+01 3.375000e+01
      vertex -1.590170e+01 -1.426360e+01 2.287500e+01
      vertex -1.550000e+01 -1.420000e+01 2.287500e+01
    endloop
  endfacet
  facet normal 4.539891e-01 -8.910072e-01 -3.416767e-17
    outer loop
      vertex -1.626410e+01 -1.444830e+01 3.375000e+01
      vertex -1.626410e+01 -1.444830e+01 2.287500e+01
      vertex -1.590170e+01 -1.426360e+01 3.375000e+01
    endloop
  endfacet
  facet normal 4.539891e-01 -8.910072e-01 -3.416767e-17
    outer loop
      vertex -1.590170e+01 -1.426360e+01 3.375000e+01
      vertex -1.626410e+01 -1.444830e+01 2.287500e+01
      vertex -1.590170e+01 -1.426360e+01 2.287500e+01
    endloop
  endfacet
  facet normal 7.071068e-01 -7.071068e-01 -2.711555e-17
    outer loop
      vertex -1.655170e+01 -1.473590e+01 3.375000e+01
      vertex -1.655170e+01 -1.473590e+01 2.287500e+01
      vertex -1.626410e+01 -1.444830e+01 3.375000e+01
    endloop
  endfacet
  facet normal 7.071068e-01 -7.071068e-01 -2.711555e-17
    outer loop
      vertex -1.626410e+01 -1.444830e+01 3.375000e+01
      vertex -1.655170e+01 -1.473590e+01 2.287500e+01
      vertex -1.626410e+01 -1.444830e+01 2.287500e+01
    endloop
  endfacet
  facet normal 8.910072e-01 -4.539891e-01 -1.740958e-17
    outer loop
      vertex -1.673640e+01 -1.509830e+01 3.375000e+01
      vertex -1.673640e+01 -1.509830e+01 2.287500e+01
      vertex -1.655170e+01 -1.473590e+01 3.375000e+01
    endloop
  endfacet
  facet normal 8.910072e-01 -4.539891e-01 -1.740958e-17
    outer loop
      vertex -1.655170e+01 -1.473590e+01 3.375000e+01
      vertex -1.673640e+01 -1.509830e+01 2.287500e+01
      vertex -1.655170e+01 -1.473590e+01 2.287500e+01
    endloop
  endfacet
  facet normal 9.876881e-01 -1.564360e-01 -5.998874e-18
    outer loop
      vertex -1.680000e+01 -1.550000e+01 3.375000e+01
      vertex -1.680000e+01 -1.550000e+01 2.287500e+01
      vertex -1.673640e+01 -1.509830e+01 3.375000e+01
    endloop
  endfacet
  facet normal 9.876881e-01 -1.564360e-01 -5.998874e-18
    outer loop
      vertex -1.673640e+01 -1.509830e+01 3.375000e+01
      vertex -1.680000e+01 -1.550000e+01 2.287500e+01
      vertex -1.673640e+01 -1.509830e+01 2.287500e+01
    endloop
  endfacet
  facet normal 9.876881e-01 1.564360e-01 5.998874e-18
    outer loop
      vertex -1.680000e+01 -1.550000e+01 3.375000e+01
      vertex -1.673640e+01 -1.590170e+01 3.375000e+01
      vertex -1.680000e+01 -1.550000e+01 2.287500e+01
    endloop
  endfacet
  facet normal 9.876881e-01 1.564360e-01 5.998874e-18
    outer loop
      vertex -1.680000e+01 -1.550000e+01 2.287500e+01
      vertex -1.673640e+01 -1.590170e+01 3.375000e+01
      vertex -1.673640e+01 -1.590170e+01 2.287500e+01
    endloop
  endfacet
  facet normal 8.910072e-01 4.539891e-01 1.740958e-17
    outer loop
      vertex -1.673640e+01 -1.590170e+01 3.375000e+01
      vertex -1.655170e+01 -1.626410e+01 3.375000e+01
      vertex -1.673640e+01 -1.590170e+01 2.287500e+01
    endloop
  endfacet
  facet normal 8.910072e-01 4.539891e-01 1.740958e-17
    outer loop
      vertex -1.673640e+01 -1.590170e+01 2.287500e+01
      vertex -1.655170e+01 -1.626410e+01 3.375000e+01
      vertex -1.655170e+01 -1.626410e+01 2.287500e+01
    endloop
  endfacet
  facet normal 7.071068e-01 7.071068e-01 2.711555e-17
    outer loop
      vertex -1.655170e+01 -1.626410e+01 3.375000e+01
      vertex -1.626410e+01 -1.655170e+01 3.375000e+01
      vertex -1.655170e+01 -1.626410e+01 2.287500e+01
    endloop
  endfacet
  facet normal 7.071068e-01 7.071068e-01 2.711555e-17
    outer loop
      vertex -1.655170e+01 -1.626410e+01 2.287500e+01
      vertex -1.626410e+01 -1.655170e+01 3.375000e+01
      vertex -1.626410e+01 -1.655170e+01 2.287500e+01
    endloop
  endfacet
  facet normal 4.539891e-01 8.910072e-01 3.416767e-17
    outer loop
      vertex -1.626410e+01 -1.655170e+01 2.287500e+01
      vertex -1.626410e+01 -1.655170e+01 3.375000e+01
      vertex -1.590170e+01 -1.673640e+01 3.375000e+01
    endloop
  endfacet
  facet normal 4.539891e-01 8.910072e-01 3.416767e-17
    outer loop
      vertex -1.590170e+01 -1.673640e+01 2.287500e+01
      vertex -1.626410e+01 -1.655170e+01 2.287500e+01
      vertex -1.590170e+01 -1.673640e+01 3.375000e+01
    endloop
  endfacet
  facet normal 1.564360e-01 9.876881e-01 3.787566e-17
    outer loop
      vertex -1.590170e+01 -1.673640e+01 2.287500e+01
      vertex -1.590170e+01 -1.673640e+01 3.375000e+01
      vertex -1.550000e+01 -1.680000e+01 3.375000e+01
    endloop
  endfacet
  facet normal 1.564360e-01 9.876881e-01 3.787566e-17
    outer loop
      vertex -1.550000e+01 -1.680000e+01 2.287500e+01
      vertex -1.590170e+01 -1.673640e+01 2.287500e+01
      vertex -1.550000e+01 -1.680000e+01 3.375000e+01
    endloop
  endfacet
  facet normal -1.564360e-01 9.876881e-01 3.787566e-17
    outer loop
      vertex -1.550000e+01 -1.680000e+01 2.287500e+01
      vertex -1.550000e+01 -1.680000e+01 3.375000e+01
      vertex -1.509830e+01 -1.673640e+01 3.375000e+01
    endloop
  endfacet
  facet normal -1.564360e-01 9.876881e-01 3.787566e-17
    outer loop
      vertex -1.509830e+01 -1.673640e+01 2.287500e+01
      vertex -1.550000e+01 -1.680000e+01 2.287500e+01
      vertex -1.509830e+01 -1.673640e+01 3.375000e+01
    endloop
  endfacet
  facet normal -4.539891e-01 8.910072e-01 3.416767e-17
    outer loop
      vertex -1.509830e+01 -1.673640e+01 2.287500e+01
      vertex -1.509830e+01 -1.673640e+01 3.375000e+01
      vertex -1.473590e+01 -1.655170e+01 3.375000e+01
    endloop
  endfacet
  facet normal -4.539891e-01 8.910072e-01 3.416767e-17
    outer loop
      vertex -1.473590e+01 -1.655170e+01 2.287500e+01
      vertex -1.509830e+01 -1.673640e+01 2.287500e+01
      vertex -1.473590e+01 -1.655170e+01 3.375000e+01
    endloop
  endfacet
  facet normal -7.071068e-01 7.071068e-01 2.711555e-17
    outer loop
      vertex -1.473590e+01 -1.655170e+01 2.287500e+01
      vertex -1.473590e+01 -1.655170e+01 3.375000e+01
      vertex -1.444830e+01 -1.626410e+01 3.375000e+01
    endloop
  endfacet
  facet normal -7.071068e-01 7.071068e-01 2.711555e-17
    outer loop
      vertex -1.444830e+01 -1.626410e+01 2.287500e+01
      vertex -1.473590e+01 -1.655170e+01 2.287500e+01
      vertex -1.444830e+01 -1.626410e+01 3.375000e+01
    endloop
  endfacet
  facet normal -8.910072e-01 4.539891e-01 1.740958e-17
    outer loop
      vertex -1.444830e+01 -1.626410e+01 2.287500e+01
      vertex -1.444830e+01 -1.626410e+01 3.375000e+01
      vertex -1.426360e+01 -1.590170e+01 3.375000e+01
    endloop
  endfacet
  facet normal -8.910072e-01 4.539891e-01 1.740958e-17
    outer loop
      vertex -1.426360e+01 -1.590170e+01 2.287500e+01
      vertex -1.444830e+01 -1.626410e+01 2.287500e+01
      vertex -1.426360e+01 -1.590170e+01 3.375000e+01
    endloop
  endfacet
  facet normal 4.696273e-33 -3.834798e-17 1.000000e+00
    outer loop
      vertex 1.655170e+01 -1.473590e+01 2.287500e+01
      vertex 1.626410e+01 -1.444830e+01 2.287500e+01
      vertex 1.673640e+01 -1.509830e+01 2.287500e+01
    endloop
  endfacet
  facet normal 4.696273e-33 -3.834798e-17 1.000000e+00
    outer loop
      vertex 1.673640e+01 -1.509830e+01 2.287500e+01
      vertex 1.626410e+01 -1.444830e+01 2.287500e+01
      vertex 1.590170e+01 -1.426360e+01 2.287500e+01
    endloop
  endfacet
  facet normal 4.696273e-33 -3.834798e-17 1.000000e+00
    outer loop
      vertex 1.673640e+01 -1.509830e+01 2.287500e+01
      vertex 1.590170e+01 -1.426360e+01 2.287500e+01
      vertex 1.550000e+01 -1.420000e+01 2.287500e+01
    endloop
  endfacet
  facet normal 4.696273e-33 -3.834798e-17 1.000000e+00
    outer loop
      vertex 1.673640e+01 -1.509830e+01 2.287500e+01
      vertex 1.550000e+01 -1.420000e+01 2.287500e+01
      vertex 1.509830e+01 -1.426360e+01 2.287500e+01
    endloop
  endfacet
  facet normal 4.696273e-33 -3.834798e-17 1.000000e+00
    outer loop
      vertex 1.673640e+01 -1.509830e+01 2.287500e+01
      vertex 1.509830e+01 -1.426360e+01 2.287500e+01
      vertex 1.473590e+01 -1.444830e+01 2.287500e+01
    endloop
  endfacet
  facet normal 4.696273e-33 -3.834798e-17 1.000000e+00
    outer loop
      vertex 1.673640e+01 -1.509830e+01 2.287500e+01
      vertex 1.473590e+01 -1.444830e+01 2.287500e+01
      vertex 1.444830e+01 -1.473590e+01 2.287500e+01
    endloop
  endfacet
  facet normal 4.696273e-33 -3.834798e-17 1.000000e+00
    outer loop
      vertex 1.673640e+01 -1.509830e+01 2.287500e+01
      vertex 1.444830e+01 -1.473590e+01 2.287500e+01
      vertex 1.426360e+01 -1.509830e+01 2.287500e+01
    endloop
  endfacet
  facet normal 4.696273e-33 -3.834798e-17 1.000000e+00
    outer loop
      vertex 1.673640e+01 -1.509830e+01 2.287500e+01
      vertex 1.426360e+01 -1.509830e+01 2.287500e+01
      vertex 1.420000e+01 -1.550000e+01 2.287500e+01
    endloop
  endfacet
  facet normal 4.696273e-33 -3.834798e-17 1.000000e+00
    outer loop
      vertex 1.673640e+01 -1.509830e+01 2.287500e+01
      vertex 1.420000e+01 -1.550000e+01 2.287500e+01
      vertex 1.426360e+01 -1.590170e+01 2.287500e+01
    endloop
  endfacet
  facet normal 4.696273e-33 -3.834798e-17 1.000000e+00
    outer loop
      vertex 1.673640e+01 -1.509830e+01 2.287500e+01
      vertex 1.426360e+01 -1.590170e+01 2.287500e+01
      vertex 1.444830e+01 -1.626410e+01 2.287500e+01
    endloop
  endfacet
  facet normal 4.696273e-33 -3.834798e-17 1.000000e+00
    outer loop
      vertex 1.673640e+01 -1.509830e+01 2.287500e+01
      vertex 1.444830e+01 -1.626410e+01 2.287500e+01
      vertex 1.473590e+01 -1.655170e+01 2.287500e+01
    endloop
  endfacet
  facet normal 4.696273e-33 -3.834798e-17 1.000000e+00
    outer loop
      vertex 1.673640e+01 -1.509830e+01 2.287500e+01
      vertex 1.473590e+01 -1.655170e+01 2.287500e+01
      vertex 1.509830e+01 -1.673640e+01 2.287500e+01
    endloop
  endfacet
  facet normal 4.696273e-33 -3.834798e-17 1.000000e+00
    outer loop
      vertex 1.673640e+01 -1.509830e+01 2.287500e+01
      vertex 1.509830e+01 -1.673640e+01 2.287500e+01
      vertex 1.550000e+01 -1.680000e+01 2.287500e+01
    endloop
  endfacet
  facet normal 4.696273e-33 -3.834798e-17 1.000000e+00
    outer loop
      vertex 1.673640e+01 -1.509830e+01 2.287500e+01
      vertex 1.550000e+01 -1.680000e+01 2.287500e+01
      vertex 1.590170e+01 -1.673640e+01 2.287500e+01
    endloop
  endfacet
  facet normal 4.696273e-33 -3.834798e-17 1.000000e+00
    outer loop
      vertex 1.673640e+01 -1.509830e+01 2.287500e+01
      vertex 1.590170e+01 -1.673640e+01 2.287500e+01
      vertex 1.626410e+01 -1.655170e+01 2.287500e+01
    endloop
  endfacet
  facet normal 4.696273e-33 -3.834798e-17 1.000000e+00
    outer loop
      vertex 1.673640e+01 -1.509830e+01 2.287500e+01
      vertex 1.626410e+01 -1.655170e+01 2.287500e+01
      vertex 1.655170e+01 -1.626410e+01 2.287500e+01
    endloop
  endfacet
  facet normal 4.696273e-33 -3.834798e-17 1.000000e+00
    outer loop
      vertex 1.673640e+01 -1.509830e+01 2.287500e+01
      vertex 1.655170e+01 -1.626410e+01 2.287500e+01
      vertex 1.673640e+01 -1.590170e+01 2.287500e+01
    endloop
  endfacet
  facet normal 4.696273e-33 -3.834798e-17 1.000000e+00
    outer loop
      vertex 1.673640e+01 -1.509830e+01 2.287500e+01
      vertex 1.673640e+01 -1.590170e+01 2.287500e+01
      vertex 1.680000e+01 -1.550000e+01 2.287500e+01
    endloop
  endfacet
  facet normal 4.696273e-33 -3.834798e-17 1.000000e+00
    outer loop
      vertex -1.444830e+01 -1.473590e+01 2.287500e+01
      vertex -1.473590e+01 -1.444830e+01 2.287500e+01
      vertex -1.426360e+01 -1.509830e+01 2.287500e+01
    endloop
  endfacet
  facet normal 4.696273e-33 -3.834798e-17 1.000000e+00
    outer loop
      vertex -1.426360e+01 -1.509830e+01 2.287500e+01
      vertex -1.473590e+01 -1.444830e+01 2.287500e+01
      vertex -1.509830e+01 -1.426360e+01 2.287500e+01
    endloop
  endfacet
  facet normal 4.696273e-33 -3.834798e-17 1.000000e+00
    outer loop
      vertex -1.426360e+01 -1.509830e+01 2.287500e+01
      vertex -1.509830e+01 -1.426360e+01 2.287500e+01
      vertex -1.550000e+01 -1.420000e+01 2.287500e+01
    endloop
  endfacet
  facet normal 4.696273e-33 -3.834798e-17 1.000000e+00
    outer loop
      vertex -1.426360e+01 -1.509830e+01 2.287500e+01
      vertex -1.550000e+01 -1.420000e+01 2.287500e+01
      vertex -1.590170e+01 -1.426360e+01 2.287500e+01
    endloop
  endfacet
  facet normal 4.696273e-33 -3.834798e-17 1.000000e+00
    outer loop
      vertex -1.426360e+01 -1.509830e+01 2.287500e+01
      vertex -1.590170e+01 -1.426360e+01 2.287500e+01
      vertex -1.626410e+01 -1.444830e+01 2.287500e+01
    endloop
  endfacet
  facet normal 4.696273e-33 -3.834798e-17 1.000000e+00
    outer loop
      vertex -1.426360e+01 -1.509830e+01 2.287500e+01
      vertex -1.626410e+01 -1.444830e+01 2.287500e+01
      vertex -1.655170e+01 -1.473590e+01 2.287500e+01
    endloop
  endfacet
  facet normal 4.696273e-33 -3.834798e-17 1.000000e+00
    outer loop
      vertex -1.426360e+01 -1.509830e+01 2.287500e+01
      vertex -1.655170e+01 -1.473590e+01 2.287500e+01
      vertex -1.673640e+01 -1.509830e+01 2.287500e+01
    endloop
  endfacet
  facet normal 4.696273e-33 -3.834798e-17 1.000000e+00
    outer loop
      vertex -1.426360e+01 -1.509830e+01 2.287500e+01
      vertex -1.673640e+01 -1.509830e+01 2.287500e+01
      vertex -1.680000e+01 -1.550000e+01 2.287500e+01
    endloop
  endfacet
  facet normal 4.696273e-33 -3.834798e-17 1.000000e+00
    outer loop
      vertex -1.426360e+01 -1.509830e+01 2.287500e+01
      vertex -1.680000e+01 -1.550000e+01 2.287500e+01
      vertex -1.673640e+01 -1.590170e+01 2.287500e+01
    endloop
  endfacet
  facet normal 4.696273e-33 -3.834798e-17 1.000000e+00
    outer loop
      vertex -1.426360e+01 -1.509830e+01 2.287500e+01
      vertex -1.673640e+01 -1.590170e+01 2.287500e+01
      vertex -1.655170e+01 -1.626410e+01 2.287500e+01
    endloop
  endfacet
  facet normal 4.696273e-33 -3.834798e-17 1.000000e+00
    outer loop
      vertex -1.426360e+01 -1.509830e+01 2.287500e+01
      vertex -1.655170e+01 -1.626410e+01 2.287500e+01
      vertex -1.626410e+01 -1.655170e+01 2.287500e+01
    endloop
  endfacet
  facet normal 4.696273e-33 -3.834798e-17 1.000000e+00
    outer loop
      vertex -1.426360e+01 -1.509830e+01 2.287500e+01
      vertex -1.626410e+01 -1.655170e+01 2.287500e+01
      vertex -1.590170e+01 -1.673640e+01 2.287500e+01
    endloop
  endfacet
  facet normal 4.696273e-33 -3.834798e-17 1.000000e+00
    outer loop
      vertex -1.426360e+01 -1.509830e+01 2.287500e+01
      vertex -1.590170e+01 -1.673640e+01 2.287500e+01
      vertex -1.550000e+01 -1.680000e+01 2.287500e+01
    endloop
  endfacet
  facet normal 4.696273e-33 -3.834798e-17 1.000000e+00
    outer loop
      vertex -1.426360e+01 -1.509830e+01 2.287500e+01
      vertex -1.550000e+01 -1.680000e+01 2.287500e+01
      vertex -1.509830e+01 -1.673640e+01 2.287500e+01
    endloop
  endfacet
  facet normal 4.696273e-33 -3.834798e-17 1.000000e+00
    outer loop
      vertex -1.426360e+01 -1.509830e+01 2.287500e+01
      vertex -1.509830e+01 -1.673640e+01 2.287500e+01
      vertex -1.473590e+01 -1.655170e+01 2.287500e+01
    endloop
  endfacet
  facet normal 4.696273e-33 -3.834798e-17 1.000000e+00
    outer loop
      vertex -1.426360e+01 -1.509830e+01 2.287500e+01
      vertex -1.473590e+01 -1.655170e+01 2.287500e+01
      vertex -1.444830e+01 -1.626410e+01 2.287500e+01
    endloop
  endfacet
  facet normal 4.696273e-33 -3.834798e-17 1.000000e+00
    outer loop
      vertex -1.426360e+01 -1.509830e+01 2.287500e+01
      vertex -1.444830e+01 -1.626410e+01 2.287500e+01
      vertex -1.426360e+01 -1.590170e+01 2.287500e+01
    endloop
  endfacet
  facet normal 4.696273e-33 -3.834798e-17 1.000000e+00
    outer loop
      vertex -1.426360e+01 -1.509830e+01 2.287500e+01
      vertex -1.426360e+01 -1.590170e+01 2.287500e+01
      vertex -1.420000e+01 -1.550000e+01 2.287500e+01
    endloop
  endfacet
endsolid Default
