solid OpenSCAD_Model
  facet normal -1 0 0
    outer loop
      vertex -34 -75 0
      vertex -34 -75 2
      vertex -34 -35 0
    endloop
  endfacet
  facet normal -1 0 0
    outer loop
      vertex -34 -35 0
      vertex -34 -75 2
      vertex -34 -35 2
    endloop
  endfacet
  facet normal 0 -1 0
    outer loop
      vertex -34 -75 2
      vertex -34 -75 0
      vertex 34 -75 0
    endloop
  endfacet
  facet normal 0 -1 0
    outer loop
      vertex 34 -75 2
      vertex -34 -75 2
      vertex 34 -75 0
    endloop
  endfacet
  facet normal 0 0 -1
    outer loop
      vertex -34 -75 0
      vertex -34 -35 0
      vertex 34 -75 0
    endloop
  endfacet
  facet normal 0 0 -1
    outer loop
      vertex 34 -75 0
      vertex -34 -35 0
      vertex -32.9977 -35 0
    endloop
  endfacet
  facet normal 0 0 -1
    outer loop
      vertex 34 -75 0
      vertex -32.9977 -35 0
      vertex -33.0451 -34.9389 0
    endloop
  endfacet
  facet normal 0 0 -1
    outer loop
      vertex 34 -75 0
      vertex -33.0451 -34.9389 0
      vertex -33.2216 -34.6791 0
    endloop
  endfacet
  facet normal 0 0 -1
    outer loop
      vertex 34 -75 0
      vertex -33.2216 -34.6791 0
      vertex -33.3815 -34.4088 0
    endloop
  endfacet
  facet normal 0 0 -1
    outer loop
      vertex 34 -75 0
      vertex -33.3815 -34.4088 0
      vertex -33.5241 -34.1289 0
    endloop
  endfacet
  facet normal 0 0 -1
    outer loop
      vertex 34 -75 0
      vertex -33.5241 -34.1289 0
      vertex -33.6489 -33.8406 0
    endloop
  endfacet
  facet normal 0 0 -1
    outer loop
      vertex 34 -75 0
      vertex -33.6489 -33.8406 0
      vertex -33.7553 -33.5451 0
    endloop
  endfacet
  facet normal 0 0 -1
    outer loop
      vertex 34 -75 0
      vertex -33.7553 -33.5451 0
      vertex -33.8429 -33.2434 0
    endloop
  endfacet
  facet normal 0 0 -1
    outer loop
      vertex 34 -75 0
      vertex -33.8429 -33.2434 0
      vertex -33.9114 -32.9369 0
    endloop
  endfacet
  facet normal 0 0 -1
    outer loop
      vertex 34 -75 0
      vertex -33.9114 -32.9369 0
      vertex -33.9606 -32.6267 0
    endloop
  endfacet
  facet normal 0 0 -1
    outer loop
      vertex 34 -75 0
      vertex -33.9606 -32.6267 0
      vertex -33.9901 -32.314 0
    endloop
  endfacet
  facet normal 0 0 -1
    outer loop
      vertex 34 -75 0
      vertex -33.9901 -32.314 0
      vertex -34 -32 0
    endloop
  endfacet
  facet normal 0 0 -1
    outer loop
      vertex 34 -75 0
      vertex -34 -32 0
      vertex -33.9901 -31.686 0
    endloop
  endfacet
  facet normal 0 0 -1
    outer loop
      vertex 34 -75 0
      vertex -33.9901 -31.686 0
      vertex -33.9606 -31.3733 0
    endloop
  endfacet
  facet normal 0 0 -1
    outer loop
      vertex 34 -75 0
      vertex -33.9606 -31.3733 0
      vertex -33.9114 -31.0631 0
    endloop
  endfacet
  facet normal 0 0 -1
    outer loop
      vertex 34 -75 0
      vertex -33.9114 -31.0631 0
      vertex -33.8429 -30.7566 0
    endloop
  endfacet
  facet normal 0 0 -1
    outer loop
      vertex 34 -75 0
      vertex -33.8429 -30.7566 0
      vertex -33.7553 -30.4549 0
    endloop
  endfacet
  facet normal 0 0 -1
    outer loop
      vertex 34 -75 0
      vertex -33.7553 -30.4549 0
      vertex -33.6489 -30.1594 0
    endloop
  endfacet
  facet normal 0 0 -1
    outer loop
      vertex 34 -75 0
      vertex -33.6489 -30.1594 0
      vertex -33.5241 -29.8711 0
    endloop
  endfacet
  facet normal 0 0 -1
    outer loop
      vertex 34 -75 0
      vertex -33.5241 -29.8711 0
      vertex -33.3815 -29.5912 0
    endloop
  endfacet
  facet normal 0 0 -1
    outer loop
      vertex 34 -75 0
      vertex -33.3815 -29.5912 0
      vertex -33.2216 -29.3209 0
    endloop
  endfacet
  facet normal 0 0 -1
    outer loop
      vertex 34 -75 0
      vertex -33.2216 -29.3209 0
      vertex -33.0451 -29.0611 0
    endloop
  endfacet
  facet normal 0 0 -1
    outer loop
      vertex 34 -75 0
      vertex -33.0451 -29.0611 0
      vertex -32.8526 -28.8129 0
    endloop
  endfacet
  facet normal 0 0 -1
    outer loop
      vertex 34 -75 0
      vertex -32.8526 -28.8129 0
      vertex -32.6448 -28.5773 0
    endloop
  endfacet
  facet normal 0 0 -1
    outer loop
      vertex 34 -75 0
      vertex -32.6448 -28.5773 0
      vertex -32.4227 -28.3552 0
    endloop
  endfacet
  facet normal 0 0 -1
    outer loop
      vertex 34 -75 0
      vertex -32.4227 -28.3552 0
      vertex -32.1871 -28.1474 0
    endloop
  endfacet
  facet normal 0 0 -1
    outer loop
      vertex 34 -75 0
      vertex -32.1871 -28.1474 0
      vertex -31.9389 -27.9549 0
    endloop
  endfacet
  facet normal 0 0 -1
    outer loop
      vertex 34 -75 0
      vertex -31.9389 -27.9549 0
      vertex -31.6791 -27.7784 0
    endloop
  endfacet
  facet normal 0 0 -1
    outer loop
      vertex 34 -75 0
      vertex -31.6791 -27.7784 0
      vertex -31.4088 -27.6185 0
    endloop
  endfacet
  facet normal 0 0 -1
    outer loop
      vertex 34 -75 0
      vertex -31.4088 -27.6185 0
      vertex -31.1289 -27.4759 0
    endloop
  endfacet
  facet normal 0 0 -1
    outer loop
      vertex 34 -75 0
      vertex -31.1289 -27.4759 0
      vertex -30.8406 -27.3511 0
    endloop
  endfacet
  facet normal 0 0 -1
    outer loop
      vertex 34 -75 0
      vertex -30.8406 -27.3511 0
      vertex -30.5451 -27.2447 0
    endloop
  endfacet
  facet normal 0 0 -1
    outer loop
      vertex 34 -75 0
      vertex -30.5451 -27.2447 0
      vertex -30.2434 -27.1571 0
    endloop
  endfacet
  facet normal 0 0 -1
    outer loop
      vertex 34 -75 0
      vertex -30.2434 -27.1571 0
      vertex -30 -27.1027 0
    endloop
  endfacet
  facet normal 0 0 -1
    outer loop
      vertex 34 -75 0
      vertex -30 -27.1027 0
      vertex -30 -27 0
    endloop
  endfacet
  facet normal 0 0 -1
    outer loop
      vertex 34 -75 0
      vertex -30 -27 0
      vertex -15 -27 0
    endloop
  endfacet
  facet normal 0 0 -1
    outer loop
      vertex 34 -75 0
      vertex -15 -27 0
      vertex -15 -23 0
    endloop
  endfacet
  facet normal 0 0 -1
    outer loop
      vertex 15 -27 0
      vertex -15 -23 0
      vertex 15 -23 0
    endloop
  endfacet
  facet normal 0 0 -1
    outer loop
      vertex 34 -75 0
      vertex -15 -23 0
      vertex 15 -27 0
    endloop
  endfacet
  facet normal 0 0 -1
    outer loop
      vertex 30.2434 -27.1571 0
      vertex 34 -75 0
      vertex 30 -27.1027 0
    endloop
  endfacet
  facet normal 0 0 -1
    outer loop
      vertex 33.9901 -32.314 0
      vertex 33.9901 -31.686 0
      vertex 34 -32 0
    endloop
  endfacet
  facet normal 0 0 -1
    outer loop
      vertex 34 -75 0
      vertex 30.2434 -27.1571 0
      vertex 30.5451 -27.2447 0
    endloop
  endfacet
  facet normal 0 0 -1
    outer loop
      vertex 34 -75 0
      vertex 30.5451 -27.2447 0
      vertex 30.8406 -27.3511 0
    endloop
  endfacet
  facet normal 0 0 -1
    outer loop
      vertex 34 -75 0
      vertex 30.8406 -27.3511 0
      vertex 31.1289 -27.4759 0
    endloop
  endfacet
  facet normal 0 0 -1
    outer loop
      vertex 34 -75 0
      vertex 31.1289 -27.4759 0
      vertex 31.4088 -27.6185 0
    endloop
  endfacet
  facet normal 0 0 -1
    outer loop
      vertex 34 -75 0
      vertex 31.4088 -27.6185 0
      vertex 31.6791 -27.7784 0
    endloop
  endfacet
  facet normal 0 0 -1
    outer loop
      vertex 34 -75 0
      vertex 31.6791 -27.7784 0
      vertex 31.9389 -27.9549 0
    endloop
  endfacet
  facet normal 0 0 -1
    outer loop
      vertex 34 -75 0
      vertex 31.9389 -27.9549 0
      vertex 32.1871 -28.1474 0
    endloop
  endfacet
  facet normal 0 0 -1
    outer loop
      vertex 34 -75 0
      vertex 32.1871 -28.1474 0
      vertex 32.4227 -28.3552 0
    endloop
  endfacet
  facet normal 0 0 -1
    outer loop
      vertex 34 -75 0
      vertex 32.4227 -28.3552 0
      vertex 32.6448 -28.5773 0
    endloop
  endfacet
  facet normal 0 0 -1
    outer loop
      vertex 32.9977 -35 0
      vertex 32.6448 -28.5773 0
      vertex 32.8526 -28.8129 0
    endloop
  endfacet
  facet normal 0 0 -1
    outer loop
      vertex 33.0451 -34.9389 0
      vertex 32.8526 -28.8129 0
      vertex 33.0451 -29.0611 0
    endloop
  endfacet
  facet normal 0 0 -1
    outer loop
      vertex 33.2216 -34.6791 0
      vertex 33.0451 -29.0611 0
      vertex 33.2216 -29.3209 0
    endloop
  endfacet
  facet normal 0 0 -1
    outer loop
      vertex 33.3815 -34.4088 0
      vertex 33.2216 -29.3209 0
      vertex 33.3815 -29.5912 0
    endloop
  endfacet
  facet normal 0 0 -1
    outer loop
      vertex 33.5241 -34.1289 0
      vertex 33.3815 -29.5912 0
      vertex 33.5241 -29.8711 0
    endloop
  endfacet
  facet normal 0 0 -1
    outer loop
      vertex 33.6489 -33.8406 0
      vertex 33.5241 -29.8711 0
      vertex 33.6489 -30.1594 0
    endloop
  endfacet
  facet normal 0 0 -1
    outer loop
      vertex 33.7553 -33.5451 0
      vertex 33.6489 -30.1594 0
      vertex 33.7553 -30.4549 0
    endloop
  endfacet
  facet normal 0 0 -1
    outer loop
      vertex 33.8429 -33.2434 0
      vertex 33.7553 -30.4549 0
      vertex 33.8429 -30.7566 0
    endloop
  endfacet
  facet normal 0 0 -1
    outer loop
      vertex 33.9114 -32.9369 0
      vertex 33.8429 -30.7566 0
      vertex 33.9114 -31.0631 0
    endloop
  endfacet
  facet normal 0 0 -1
    outer loop
      vertex 33.9606 -32.6267 0
      vertex 33.9114 -31.0631 0
      vertex 33.9606 -31.3733 0
    endloop
  endfacet
  facet normal 0 0 -1
    outer loop
      vertex 33.9901 -32.314 0
      vertex 33.9606 -31.3733 0
      vertex 33.9901 -31.686 0
    endloop
  endfacet
  facet normal 0 0 -1
    outer loop
      vertex 33.9606 -32.6267 0
      vertex 33.9606 -31.3733 0
      vertex 33.9901 -32.314 0
    endloop
  endfacet
  facet normal 0 0 -1
    outer loop
      vertex 33.9114 -32.9369 0
      vertex 33.9114 -31.0631 0
      vertex 33.9606 -32.6267 0
    endloop
  endfacet
  facet normal 0 0 -1
    outer loop
      vertex 33.8429 -33.2434 0
      vertex 33.8429 -30.7566 0
      vertex 33.9114 -32.9369 0
    endloop
  endfacet
  facet normal 0 0 -1
    outer loop
      vertex 33.7553 -33.5451 0
      vertex 33.7553 -30.4549 0
      vertex 33.8429 -33.2434 0
    endloop
  endfacet
  facet normal 0 0 -1
    outer loop
      vertex 33.6489 -33.8406 0
      vertex 33.6489 -30.1594 0
      vertex 33.7553 -33.5451 0
    endloop
  endfacet
  facet normal 0 0 -1
    outer loop
      vertex 33.5241 -34.1289 0
      vertex 33.5241 -29.8711 0
      vertex 33.6489 -33.8406 0
    endloop
  endfacet
  facet normal 0 0 -1
    outer loop
      vertex 33.3815 -34.4088 0
      vertex 33.3815 -29.5912 0
      vertex 33.5241 -34.1289 0
    endloop
  endfacet
  facet normal 0 0 -1
    outer loop
      vertex 33.2216 -34.6791 0
      vertex 33.2216 -29.3209 0
      vertex 33.3815 -34.4088 0
    endloop
  endfacet
  facet normal 0 0 -1
    outer loop
      vertex 33.0451 -34.9389 0
      vertex 33.0451 -29.0611 0
      vertex 33.2216 -34.6791 0
    endloop
  endfacet
  facet normal 0 0 -1
    outer loop
      vertex 32.9977 -35 0
      vertex 32.8526 -28.8129 0
      vertex 33.0451 -34.9389 0
    endloop
  endfacet
  facet normal 0 0 -1
    outer loop
      vertex 34 -75 0
      vertex 32.6448 -28.5773 0
      vertex 32.9977 -35 0
    endloop
  endfacet
  facet normal 0 0 -1
    outer loop
      vertex 34 -35 0
      vertex 34 -75 0
      vertex 32.9977 -35 0
    endloop
  endfacet
  facet normal 0 0 -1
    outer loop
      vertex 30 -27.1027 0
      vertex 34 -75 0
      vertex 15 -27 0
    endloop
  endfacet
  facet normal 0 0 -1
    outer loop
      vertex 30 -27 0
      vertex 30 -27.1027 0
      vertex 15 -27 0
    endloop
  endfacet
  facet normal 0 1 0
    outer loop
      vertex -34 -35 0
      vertex -34 -35 2
      vertex -32.9977 -35 0
    endloop
  endfacet
  facet normal 0 1 0
    outer loop
      vertex -32.9977 -35 0
      vertex -34 -35 2
      vertex -32.9977 -35 2
    endloop
  endfacet
  facet normal 0 0 1
    outer loop
      vertex -34 -35 2
      vertex -34 -75 2
      vertex 34 -75 2
    endloop
  endfacet
  facet normal 0 0 1
    outer loop
      vertex -32.9977 -35 2
      vertex -34 -35 2
      vertex 34 -75 2
    endloop
  endfacet
  facet normal 0 0 1
    outer loop
      vertex 32.9977 -35 2
      vertex -32.9977 -35 2
      vertex 34 -75 2
    endloop
  endfacet
  facet normal 0 0 1
    outer loop
      vertex 34 -35 2
      vertex 32.9977 -35 2
      vertex 34 -75 2
    endloop
  endfacet
  facet normal 0 0 1
    outer loop
      vertex -33.0451 -34.9389 2
      vertex 33.9114 -31.0631 2
      vertex 33.8429 -30.7566 2
    endloop
  endfacet
  facet normal 0 0 1
    outer loop
      vertex -33.0451 -34.9389 2
      vertex 33.9606 -31.3733 2
      vertex 33.9114 -31.0631 2
    endloop
  endfacet
  facet normal 0 0 1
    outer loop
      vertex -33.0451 -34.9389 2
      vertex 33.9901 -31.686 2
      vertex 33.9606 -31.3733 2
    endloop
  endfacet
  facet normal 0 0 1
    outer loop
      vertex -33.0451 -34.9389 2
      vertex 34 -32 2
      vertex 33.9901 -31.686 2
    endloop
  endfacet
  facet normal 0 0 1
    outer loop
      vertex -33.0451 -34.9389 2
      vertex 33.9901 -32.314 2
      vertex 34 -32 2
    endloop
  endfacet
  facet normal 0 0 1
    outer loop
      vertex -33.0451 -34.9389 2
      vertex 33.9606 -32.6267 2
      vertex 33.9901 -32.314 2
    endloop
  endfacet
  facet normal 0 0 1
    outer loop
      vertex -33.0451 -34.9389 2
      vertex 33.9114 -32.9369 2
      vertex 33.9606 -32.6267 2
    endloop
  endfacet
  facet normal 0 0 1
    outer loop
      vertex -33.0451 -34.9389 2
      vertex 33.8429 -33.2434 2
      vertex 33.9114 -32.9369 2
    endloop
  endfacet
  facet normal 0 0 1
    outer loop
      vertex -33.0451 -34.9389 2
      vertex 33.7553 -33.5451 2
      vertex 33.8429 -33.2434 2
    endloop
  endfacet
  facet normal 0 0 1
    outer loop
      vertex -33.0451 -34.9389 2
      vertex 33.6489 -33.8406 2
      vertex 33.7553 -33.5451 2
    endloop
  endfacet
  facet normal 0 0 1
    outer loop
      vertex -33.0451 -34.9389 2
      vertex 33.5241 -34.1289 2
      vertex 33.6489 -33.8406 2
    endloop
  endfacet
  facet normal 0 0 1
    outer loop
      vertex -33.0451 -34.9389 2
      vertex 33.3815 -34.4088 2
      vertex 33.5241 -34.1289 2
    endloop
  endfacet
  facet normal 0 0 1
    outer loop
      vertex -33.0451 -34.9389 2
      vertex 33.2216 -34.6791 2
      vertex 33.3815 -34.4088 2
    endloop
  endfacet
  facet normal 0 0 1
    outer loop
      vertex -33.0451 -34.9389 2
      vertex 33.0451 -34.9389 2
      vertex 33.2216 -34.6791 2
    endloop
  endfacet
  facet normal 0 0 1
    outer loop
      vertex -33.0451 -34.9389 2
      vertex -32.9977 -35 2
      vertex 33.0451 -34.9389 2
    endloop
  endfacet
  facet normal 0 0 1
    outer loop
      vertex -33.2216 -34.6791 2
      vertex 30 -27 2
      vertex 15 -27 2
    endloop
  endfacet
  facet normal 0 0 1
    outer loop
      vertex -33.8429 -33.2434 2
      vertex -33.7553 -33.5451 2
      vertex -33.0451 -29.0611 2
    endloop
  endfacet
  facet normal 0 0 1
    outer loop
      vertex 15 -23 2
      vertex -15 -23 2
      vertex -15 -27 2
    endloop
  endfacet
  facet normal 0 0 1
    outer loop
      vertex -34 -32 2
      vertex -33.9901 -32.314 2
      vertex -33.9901 -31.686 2
    endloop
  endfacet
  facet normal 0 0 1
    outer loop
      vertex -33.2216 -34.6791 2
      vertex 30 -27.1027 2
      vertex 30 -27 2
    endloop
  endfacet
  facet normal 0 0 1
    outer loop
      vertex -33.2216 -34.6791 2
      vertex 30.2434 -27.1571 2
      vertex 30 -27.1027 2
    endloop
  endfacet
  facet normal 0 0 1
    outer loop
      vertex -33.2216 -34.6791 2
      vertex 30.5451 -27.2447 2
      vertex 30.2434 -27.1571 2
    endloop
  endfacet
  facet normal 0 0 1
    outer loop
      vertex -33.2216 -34.6791 2
      vertex 30.8406 -27.3511 2
      vertex 30.5451 -27.2447 2
    endloop
  endfacet
  facet normal 0 0 1
    outer loop
      vertex -33.6489 -33.8406 2
      vertex -31.4088 -27.6185 2
      vertex -31.6791 -27.7784 2
    endloop
  endfacet
  facet normal 0 0 1
    outer loop
      vertex -33.6489 -33.8406 2
      vertex -31.1289 -27.4759 2
      vertex -31.4088 -27.6185 2
    endloop
  endfacet
  facet normal 0 0 1
    outer loop
      vertex -33.6489 -33.8406 2
      vertex -30.8406 -27.3511 2
      vertex -31.1289 -27.4759 2
    endloop
  endfacet
  facet normal 0 0 1
    outer loop
      vertex -33.6489 -33.8406 2
      vertex -30.5451 -27.2447 2
      vertex -30.8406 -27.3511 2
    endloop
  endfacet
  facet normal 0 0 1
    outer loop
      vertex -33.7553 -33.5451 2
      vertex -32.6448 -28.5773 2
      vertex -32.8526 -28.8129 2
    endloop
  endfacet
  facet normal 0 0 1
    outer loop
      vertex -33.7553 -33.5451 2
      vertex -32.4227 -28.3552 2
      vertex -32.6448 -28.5773 2
    endloop
  endfacet
  facet normal 0 0 1
    outer loop
      vertex -33.7553 -33.5451 2
      vertex -32.1871 -28.1474 2
      vertex -32.4227 -28.3552 2
    endloop
  endfacet
  facet normal 0 0 1
    outer loop
      vertex -33.8429 -33.2434 2
      vertex -33.3815 -29.5912 2
      vertex -33.5241 -29.8711 2
    endloop
  endfacet
  facet normal 0 0 1
    outer loop
      vertex -33.9114 -32.9369 2
      vertex -33.6489 -30.1594 2
      vertex -33.7553 -30.4549 2
    endloop
  endfacet
  facet normal 0 0 1
    outer loop
      vertex -33.9901 -32.314 2
      vertex -33.9606 -32.6267 2
      vertex -33.9606 -31.3733 2
    endloop
  endfacet
  facet normal 0 0 1
    outer loop
      vertex -33.9606 -32.6267 2
      vertex -33.8429 -30.7566 2
      vertex -33.9114 -31.0631 2
    endloop
  endfacet
  facet normal 0 0 1
    outer loop
      vertex -33.9606 -31.3733 2
      vertex -33.9901 -31.686 2
      vertex -33.9901 -32.314 2
    endloop
  endfacet
  facet normal 0 0 1
    outer loop
      vertex -33.9114 -32.9369 2
      vertex -33.8429 -33.2434 2
      vertex -33.6489 -30.1594 2
    endloop
  endfacet
  facet normal 0 0 1
    outer loop
      vertex -33.9114 -31.0631 2
      vertex -33.9606 -31.3733 2
      vertex -33.9606 -32.6267 2
    endloop
  endfacet
  facet normal 0 0 1
    outer loop
      vertex -33.8429 -33.2434 2
      vertex -33.2216 -29.3209 2
      vertex -33.3815 -29.5912 2
    endloop
  endfacet
  facet normal 0 0 1
    outer loop
      vertex -33.7553 -30.4549 2
      vertex -33.8429 -30.7566 2
      vertex -33.9114 -32.9369 2
    endloop
  endfacet
  facet normal 0 0 1
    outer loop
      vertex -33.7553 -33.5451 2
      vertex -31.9389 -27.9549 2
      vertex -32.1871 -28.1474 2
    endloop
  endfacet
  facet normal 0 0 1
    outer loop
      vertex -33.5241 -29.8711 2
      vertex -33.6489 -30.1594 2
      vertex -33.8429 -33.2434 2
    endloop
  endfacet
  facet normal 0 0 1
    outer loop
      vertex -33.6489 -33.8406 2
      vertex -30.2434 -27.1571 2
      vertex -30.5451 -27.2447 2
    endloop
  endfacet
  facet normal 0 0 1
    outer loop
      vertex -32.8526 -28.8129 2
      vertex -33.0451 -29.0611 2
      vertex -33.7553 -33.5451 2
    endloop
  endfacet
  facet normal 0 0 1
    outer loop
      vertex -33.2216 -34.6791 2
      vertex 31.1289 -27.4759 2
      vertex 30.8406 -27.3511 2
    endloop
  endfacet
  facet normal 0 0 1
    outer loop
      vertex -31.6791 -27.7784 2
      vertex -31.9389 -27.9549 2
      vertex -33.6489 -33.8406 2
    endloop
  endfacet
  facet normal 0 0 1
    outer loop
      vertex -33.3815 -34.4088 2
      vertex -33.2216 -34.6791 2
      vertex -15 -27 2
    endloop
  endfacet
  facet normal 0 0 1
    outer loop
      vertex -33.8429 -33.2434 2
      vertex -33.0451 -29.0611 2
      vertex -33.2216 -29.3209 2
    endloop
  endfacet
  facet normal 0 0 1
    outer loop
      vertex -33.9606 -32.6267 2
      vertex -33.9114 -32.9369 2
      vertex -33.8429 -30.7566 2
    endloop
  endfacet
  facet normal 0 0 1
    outer loop
      vertex 15 -23 2
      vertex -15 -27 2
      vertex -33.2216 -34.6791 2
    endloop
  endfacet
  facet normal 0 0 1
    outer loop
      vertex 33.8429 -30.7566 2
      vertex 33.7553 -30.4549 2
      vertex -33.0451 -34.9389 2
    endloop
  endfacet
  facet normal 0 0 1
    outer loop
      vertex 33.0451 -34.9389 2
      vertex -32.9977 -35 2
      vertex 32.9977 -35 2
    endloop
  endfacet
  facet normal 0 0 1
    outer loop
      vertex -33.2216 -34.6791 2
      vertex 15 -27 2
      vertex 15 -23 2
    endloop
  endfacet
  facet normal 0 0 1
    outer loop
      vertex -15 -27 2
      vertex -33.5241 -34.1289 2
      vertex -33.3815 -34.4088 2
    endloop
  endfacet
  facet normal 0 0 1
    outer loop
      vertex -15 -27 2
      vertex -30 -27.1027 2
      vertex -33.5241 -34.1289 2
    endloop
  endfacet
  facet normal 0 0 1
    outer loop
      vertex -15 -27 2
      vertex -30 -27 2
      vertex -30 -27.1027 2
    endloop
  endfacet
  facet normal 0 0 1
    outer loop
      vertex -33.7553 -33.5451 2
      vertex -33.6489 -33.8406 2
      vertex -31.9389 -27.9549 2
    endloop
  endfacet
  facet normal 0 0 1
    outer loop
      vertex -33.6489 -33.8406 2
      vertex -30 -27.1027 2
      vertex -30.2434 -27.1571 2
    endloop
  endfacet
  facet normal 0 0 1
    outer loop
      vertex -33.6489 -33.8406 2
      vertex -33.5241 -34.1289 2
      vertex -30 -27.1027 2
    endloop
  endfacet
  facet normal 0 0 1
    outer loop
      vertex -33.2216 -34.6791 2
      vertex 31.4088 -27.6185 2
      vertex 31.1289 -27.4759 2
    endloop
  endfacet
  facet normal 0 0 1
    outer loop
      vertex -33.2216 -34.6791 2
      vertex 31.6791 -27.7784 2
      vertex 31.4088 -27.6185 2
    endloop
  endfacet
  facet normal 0 0 1
    outer loop
      vertex -33.2216 -34.6791 2
      vertex 31.9389 -27.9549 2
      vertex 31.6791 -27.7784 2
    endloop
  endfacet
  facet normal 0 0 1
    outer loop
      vertex -33.2216 -34.6791 2
      vertex 32.1871 -28.1474 2
      vertex 31.9389 -27.9549 2
    endloop
  endfacet
  facet normal 0 0 1
    outer loop
      vertex -33.2216 -34.6791 2
      vertex 32.4227 -28.3552 2
      vertex 32.1871 -28.1474 2
    endloop
  endfacet
  facet normal 0 0 1
    outer loop
      vertex -33.2216 -34.6791 2
      vertex 32.6448 -28.5773 2
      vertex 32.4227 -28.3552 2
    endloop
  endfacet
  facet normal 0 0 1
    outer loop
      vertex -33.2216 -34.6791 2
      vertex 32.8526 -28.8129 2
      vertex 32.6448 -28.5773 2
    endloop
  endfacet
  facet normal 0 0 1
    outer loop
      vertex -33.2216 -34.6791 2
      vertex 33.0451 -29.0611 2
      vertex 32.8526 -28.8129 2
    endloop
  endfacet
  facet normal 0 0 1
    outer loop
      vertex -33.2216 -34.6791 2
      vertex 33.2216 -29.3209 2
      vertex 33.0451 -29.0611 2
    endloop
  endfacet
  facet normal 0 0 1
    outer loop
      vertex -33.2216 -34.6791 2
      vertex 33.3815 -29.5912 2
      vertex 33.2216 -29.3209 2
    endloop
  endfacet
  facet normal 0 0 1
    outer loop
      vertex -33.2216 -34.6791 2
      vertex 33.5241 -29.8711 2
      vertex 33.3815 -29.5912 2
    endloop
  endfacet
  facet normal 0 0 1
    outer loop
      vertex -33.2216 -34.6791 2
      vertex 33.6489 -30.1594 2
      vertex 33.5241 -29.8711 2
    endloop
  endfacet
  facet normal 0 0 1
    outer loop
      vertex -33.2216 -34.6791 2
      vertex 33.7553 -30.4549 2
      vertex 33.6489 -30.1594 2
    endloop
  endfacet
  facet normal 0 0 1
    outer loop
      vertex -33.2216 -34.6791 2
      vertex -33.0451 -34.9389 2
      vertex 33.7553 -30.4549 2
    endloop
  endfacet
  facet normal 1 0 0
    outer loop
      vertex 34 -75 2
      vertex 34 -75 0
      vertex 34 -35 0
    endloop
  endfacet
  facet normal 1 0 0
    outer loop
      vertex 34 -35 2
      vertex 34 -75 2
      vertex 34 -35 0
    endloop
  endfacet
  facet normal 0 1 0
    outer loop
      vertex 32.9977 -35 0
      vertex 32.9977 -35 2
      vertex 34 -35 0
    endloop
  endfacet
  facet normal 0 1 0
    outer loop
      vertex 34 -35 0
      vertex 32.9977 -35 2
      vertex 34 -35 2
    endloop
  endfacet
  facet normal 0.790155 -0.612907 0
    outer loop
      vertex 32.9977 -35 2
      vertex 32.9977 -35 0
      vertex 33.0451 -34.9389 0
    endloop
  endfacet
  facet normal 0.790155 -0.612907 0
    outer loop
      vertex 33.0451 -34.9389 2
      vertex 32.9977 -35 2
      vertex 33.0451 -34.9389 0
    endloop
  endfacet
  facet normal 0.82708 -0.562085 0
    outer loop
      vertex 33.0451 -34.9389 2
      vertex 33.0451 -34.9389 0
      vertex 33.2216 -34.6791 0
    endloop
  endfacet
  facet normal 0.82708 -0.562085 0
    outer loop
      vertex 33.2216 -34.6791 2
      vertex 33.0451 -34.9389 2
      vertex 33.2216 -34.6791 0
    endloop
  endfacet
  facet normal 0.860743 -0.509039 0
    outer loop
      vertex 33.2216 -34.6791 2
      vertex 33.2216 -34.6791 0
      vertex 33.3815 -34.4088 0
    endloop
  endfacet
  facet normal 0.860743 -0.509039 0
    outer loop
      vertex 33.3815 -34.4088 2
      vertex 33.2216 -34.6791 2
      vertex 33.3815 -34.4088 0
    endloop
  endfacet
  facet normal 0.891006 -0.453991 0
    outer loop
      vertex 33.3815 -34.4088 2
      vertex 33.3815 -34.4088 0
      vertex 33.5241 -34.1289 0
    endloop
  endfacet
  facet normal 0.891006 -0.453991 0
    outer loop
      vertex 33.5241 -34.1289 2
      vertex 33.3815 -34.4088 2
      vertex 33.5241 -34.1289 0
    endloop
  endfacet
  facet normal 0.917754 -0.397148 0
    outer loop
      vertex 33.5241 -34.1289 2
      vertex 33.5241 -34.1289 0
      vertex 33.6489 -33.8406 0
    endloop
  endfacet
  facet normal 0.917754 -0.397148 0
    outer loop
      vertex 33.6489 -33.8406 2
      vertex 33.5241 -34.1289 2
      vertex 33.6489 -33.8406 0
    endloop
  endfacet
  facet normal 0.94088 -0.33874 0
    outer loop
      vertex 33.6489 -33.8406 2
      vertex 33.6489 -33.8406 0
      vertex 33.7553 -33.5451 0
    endloop
  endfacet
  facet normal 0.94088 -0.33874 0
    outer loop
      vertex 33.7553 -33.5451 2
      vertex 33.6489 -33.8406 2
      vertex 33.7553 -33.5451 0
    endloop
  endfacet
  facet normal 0.960294 -0.27899 0
    outer loop
      vertex 33.7553 -33.5451 2
      vertex 33.7553 -33.5451 0
      vertex 33.8429 -33.2434 0
    endloop
  endfacet
  facet normal 0.960294 -0.27899 0
    outer loop
      vertex 33.8429 -33.2434 2
      vertex 33.7553 -33.5451 2
      vertex 33.8429 -33.2434 0
    endloop
  endfacet
  facet normal 0.975917 -0.218142 0
    outer loop
      vertex 33.8429 -33.2434 2
      vertex 33.8429 -33.2434 0
      vertex 33.9114 -32.9369 0
    endloop
  endfacet
  facet normal 0.975917 -0.218142 0
    outer loop
      vertex 33.9114 -32.9369 2
      vertex 33.8429 -33.2434 2
      vertex 33.9114 -32.9369 0
    endloop
  endfacet
  facet normal 0.987688 -0.156436 0
    outer loop
      vertex 33.9114 -32.9369 2
      vertex 33.9114 -32.9369 0
      vertex 33.9606 -32.6267 0
    endloop
  endfacet
  facet normal 0.987688 -0.156436 0
    outer loop
      vertex 33.9606 -32.6267 2
      vertex 33.9114 -32.9369 2
      vertex 33.9606 -32.6267 0
    endloop
  endfacet
  facet normal 0.995562 -0.0941081 0
    outer loop
      vertex 33.9606 -32.6267 2
      vertex 33.9606 -32.6267 0
      vertex 33.9901 -32.314 0
    endloop
  endfacet
  facet normal 0.995562 -0.0941081 0
    outer loop
      vertex 33.9901 -32.314 2
      vertex 33.9606 -32.6267 2
      vertex 33.9901 -32.314 0
    endloop
  endfacet
  facet normal 0.999507 -0.0314096 0
    outer loop
      vertex 33.9901 -32.314 2
      vertex 33.9901 -32.314 0
      vertex 34 -32 0
    endloop
  endfacet
  facet normal 0.999507 -0.0314096 0
    outer loop
      vertex 34 -32 2
      vertex 33.9901 -32.314 2
      vertex 34 -32 0
    endloop
  endfacet
  facet normal 0.999507 0.0314096 0
    outer loop
      vertex 34 -32 0
      vertex 33.9901 -31.686 0
      vertex 33.9901 -31.686 2
    endloop
  endfacet
  facet normal 0.999507 0.0314096 0
    outer loop
      vertex 34 -32 2
      vertex 34 -32 0
      vertex 33.9901 -31.686 2
    endloop
  endfacet
  facet normal 0.995562 0.0941081 0
    outer loop
      vertex 33.9901 -31.686 0
      vertex 33.9606 -31.3733 0
      vertex 33.9606 -31.3733 2
    endloop
  endfacet
  facet normal 0.995562 0.0941081 0
    outer loop
      vertex 33.9901 -31.686 2
      vertex 33.9901 -31.686 0
      vertex 33.9606 -31.3733 2
    endloop
  endfacet
  facet normal 0.987688 0.156436 0
    outer loop
      vertex 33.9606 -31.3733 0
      vertex 33.9114 -31.0631 0
      vertex 33.9114 -31.0631 2
    endloop
  endfacet
  facet normal 0.987688 0.156436 0
    outer loop
      vertex 33.9606 -31.3733 2
      vertex 33.9606 -31.3733 0
      vertex 33.9114 -31.0631 2
    endloop
  endfacet
  facet normal 0.975917 0.218142 0
    outer loop
      vertex 33.9114 -31.0631 0
      vertex 33.8429 -30.7566 0
      vertex 33.8429 -30.7566 2
    endloop
  endfacet
  facet normal 0.975917 0.218142 0
    outer loop
      vertex 33.9114 -31.0631 2
      vertex 33.9114 -31.0631 0
      vertex 33.8429 -30.7566 2
    endloop
  endfacet
  facet normal 0.960294 0.27899 0
    outer loop
      vertex 33.8429 -30.7566 0
      vertex 33.7553 -30.4549 0
      vertex 33.7553 -30.4549 2
    endloop
  endfacet
  facet normal 0.960294 0.27899 0
    outer loop
      vertex 33.8429 -30.7566 2
      vertex 33.8429 -30.7566 0
      vertex 33.7553 -30.4549 2
    endloop
  endfacet
  facet normal 0.94088 0.33874 0
    outer loop
      vertex 33.7553 -30.4549 0
      vertex 33.6489 -30.1594 0
      vertex 33.6489 -30.1594 2
    endloop
  endfacet
  facet normal 0.94088 0.33874 0
    outer loop
      vertex 33.7553 -30.4549 2
      vertex 33.7553 -30.4549 0
      vertex 33.6489 -30.1594 2
    endloop
  endfacet
  facet normal 0.917754 0.397148 0
    outer loop
      vertex 33.6489 -30.1594 0
      vertex 33.5241 -29.8711 0
      vertex 33.5241 -29.8711 2
    endloop
  endfacet
  facet normal 0.917754 0.397148 0
    outer loop
      vertex 33.6489 -30.1594 2
      vertex 33.6489 -30.1594 0
      vertex 33.5241 -29.8711 2
    endloop
  endfacet
  facet normal 0.891006 0.453991 0
    outer loop
      vertex 33.5241 -29.8711 0
      vertex 33.3815 -29.5912 0
      vertex 33.3815 -29.5912 2
    endloop
  endfacet
  facet normal 0.891006 0.453991 0
    outer loop
      vertex 33.5241 -29.8711 2
      vertex 33.5241 -29.8711 0
      vertex 33.3815 -29.5912 2
    endloop
  endfacet
  facet normal 0.860743 0.509039 0
    outer loop
      vertex 33.3815 -29.5912 0
      vertex 33.2216 -29.3209 0
      vertex 33.2216 -29.3209 2
    endloop
  endfacet
  facet normal 0.860743 0.509039 0
    outer loop
      vertex 33.3815 -29.5912 2
      vertex 33.3815 -29.5912 0
      vertex 33.2216 -29.3209 2
    endloop
  endfacet
  facet normal 0.82708 0.562085 0
    outer loop
      vertex 33.2216 -29.3209 0
      vertex 33.0451 -29.0611 0
      vertex 33.0451 -29.0611 2
    endloop
  endfacet
  facet normal 0.82708 0.562085 0
    outer loop
      vertex 33.2216 -29.3209 2
      vertex 33.2216 -29.3209 0
      vertex 33.0451 -29.0611 2
    endloop
  endfacet
  facet normal 0.790155 0.612907 0
    outer loop
      vertex 33.0451 -29.0611 0
      vertex 32.8526 -28.8129 0
      vertex 32.8526 -28.8129 2
    endloop
  endfacet
  facet normal 0.790155 0.612907 0
    outer loop
      vertex 33.0451 -29.0611 2
      vertex 33.0451 -29.0611 0
      vertex 32.8526 -28.8129 2
    endloop
  endfacet
  facet normal 0.750112 0.661311 0
    outer loop
      vertex 32.8526 -28.8129 0
      vertex 32.6448 -28.5773 0
      vertex 32.6448 -28.5773 2
    endloop
  endfacet
  facet normal 0.750112 0.661311 0
    outer loop
      vertex 32.8526 -28.8129 2
      vertex 32.8526 -28.8129 0
      vertex 32.6448 -28.5773 2
    endloop
  endfacet
  facet normal 0.707107 0.707107 0
    outer loop
      vertex 32.4227 -28.3552 0
      vertex 32.4227 -28.3552 2
      vertex 32.6448 -28.5773 0
    endloop
  endfacet
  facet normal 0.707107 0.707107 0
    outer loop
      vertex 32.6448 -28.5773 0
      vertex 32.4227 -28.3552 2
      vertex 32.6448 -28.5773 2
    endloop
  endfacet
  facet normal 0.661311 0.750112 0
    outer loop
      vertex 32.1871 -28.1474 0
      vertex 32.1871 -28.1474 2
      vertex 32.4227 -28.3552 0
    endloop
  endfacet
  facet normal 0.661311 0.750112 0
    outer loop
      vertex 32.4227 -28.3552 0
      vertex 32.1871 -28.1474 2
      vertex 32.4227 -28.3552 2
    endloop
  endfacet
  facet normal 0.612907 0.790155 0
    outer loop
      vertex 31.9389 -27.9549 0
      vertex 31.9389 -27.9549 2
      vertex 32.1871 -28.1474 0
    endloop
  endfacet
  facet normal 0.612907 0.790155 0
    outer loop
      vertex 32.1871 -28.1474 0
      vertex 31.9389 -27.9549 2
      vertex 32.1871 -28.1474 2
    endloop
  endfacet
  facet normal 0.562085 0.82708 0
    outer loop
      vertex 31.6791 -27.7784 0
      vertex 31.6791 -27.7784 2
      vertex 31.9389 -27.9549 0
    endloop
  endfacet
  facet normal 0.562085 0.82708 0
    outer loop
      vertex 31.9389 -27.9549 0
      vertex 31.6791 -27.7784 2
      vertex 31.9389 -27.9549 2
    endloop
  endfacet
  facet normal 0.509039 0.860743 0
    outer loop
      vertex 31.4088 -27.6185 0
      vertex 31.4088 -27.6185 2
      vertex 31.6791 -27.7784 0
    endloop
  endfacet
  facet normal 0.509039 0.860743 0
    outer loop
      vertex 31.6791 -27.7784 0
      vertex 31.4088 -27.6185 2
      vertex 31.6791 -27.7784 2
    endloop
  endfacet
  facet normal 0.453991 0.891006 0
    outer loop
      vertex 31.1289 -27.4759 0
      vertex 31.1289 -27.4759 2
      vertex 31.4088 -27.6185 0
    endloop
  endfacet
  facet normal 0.453991 0.891006 0
    outer loop
      vertex 31.4088 -27.6185 0
      vertex 31.1289 -27.4759 2
      vertex 31.4088 -27.6185 2
    endloop
  endfacet
  facet normal 0.397148 0.917754 0
    outer loop
      vertex 30.8406 -27.3511 0
      vertex 30.8406 -27.3511 2
      vertex 31.1289 -27.4759 0
    endloop
  endfacet
  facet normal 0.397148 0.917754 0
    outer loop
      vertex 31.1289 -27.4759 0
      vertex 30.8406 -27.3511 2
      vertex 31.1289 -27.4759 2
    endloop
  endfacet
  facet normal 0.33874 0.94088 0
    outer loop
      vertex 30.5451 -27.2447 0
      vertex 30.5451 -27.2447 2
      vertex 30.8406 -27.3511 0
    endloop
  endfacet
  facet normal 0.33874 0.94088 0
    outer loop
      vertex 30.8406 -27.3511 0
      vertex 30.5451 -27.2447 2
      vertex 30.8406 -27.3511 2
    endloop
  endfacet
  facet normal 0.27899 0.960294 0
    outer loop
      vertex 30.2434 -27.1571 0
      vertex 30.2434 -27.1571 2
      vertex 30.5451 -27.2447 0
    endloop
  endfacet
  facet normal 0.27899 0.960294 0
    outer loop
      vertex 30.5451 -27.2447 0
      vertex 30.2434 -27.1571 2
      vertex 30.5451 -27.2447 2
    endloop
  endfacet
  facet normal 0.218142 0.975917 0
    outer loop
      vertex 30 -27.1027 0
      vertex 30 -27.1027 2
      vertex 30.2434 -27.1571 0
    endloop
  endfacet
  facet normal 0.218142 0.975917 0
    outer loop
      vertex 30.2434 -27.1571 0
      vertex 30 -27.1027 2
      vertex 30.2434 -27.1571 2
    endloop
  endfacet
  facet normal 1 0 0
    outer loop
      vertex 30 -27.1027 2
      vertex 30 -27.1027 0
      vertex 30 -27 0
    endloop
  endfacet
  facet normal 1 0 0
    outer loop
      vertex 30 -27 2
      vertex 30 -27.1027 2
      vertex 30 -27 0
    endloop
  endfacet
  facet normal 0 1 0
    outer loop
      vertex 15 -27 0
      vertex 15 -27 2
      vertex 30 -27 0
    endloop
  endfacet
  facet normal 0 1 0
    outer loop
      vertex 30 -27 0
      vertex 15 -27 2
      vertex 30 -27 2
    endloop
  endfacet
  facet normal 1 0 0
    outer loop
      vertex 15 -27 2
      vertex 15 -27 0
      vertex 15 -23 0
    endloop
  endfacet
  facet normal 1 0 0
    outer loop
      vertex 15 -23 2
      vertex 15 -27 2
      vertex 15 -23 0
    endloop
  endfacet
  facet normal 0 1 0
    outer loop
      vertex -15 -23 0
      vertex -15 -23 2
      vertex 15 -23 0
    endloop
  endfacet
  facet normal 0 1 0
    outer loop
      vertex 15 -23 0
      vertex -15 -23 2
      vertex 15 -23 2
    endloop
  endfacet
  facet normal -1 0 0
    outer loop
      vertex -15 -27 0
      vertex -15 -27 2
      vertex -15 -23 0
    endloop
  endfacet
  facet normal -1 0 0
    outer loop
      vertex -15 -23 0
      vertex -15 -27 2
      vertex -15 -23 2
    endloop
  endfacet
  facet normal 0 1 0
    outer loop
      vertex -30 -27 0
      vertex -30 -27 2
      vertex -15 -27 0
    endloop
  endfacet
  facet normal 0 1 0
    outer loop
      vertex -15 -27 0
      vertex -30 -27 2
      vertex -15 -27 2
    endloop
  endfacet
  facet normal -1 0 0
    outer loop
      vertex -30 -27.1027 0
      vertex -30 -27.1027 2
      vertex -30 -27 0
    endloop
  endfacet
  facet normal -1 0 0
    outer loop
      vertex -30 -27 0
      vertex -30 -27.1027 2
      vertex -30 -27 2
    endloop
  endfacet
  facet normal -0.218142 0.975917 0
    outer loop
      vertex -30.2434 -27.1571 0
      vertex -30.2434 -27.1571 2
      vertex -30 -27.1027 0
    endloop
  endfacet
  facet normal -0.218142 0.975917 0
    outer loop
      vertex -30 -27.1027 0
      vertex -30.2434 -27.1571 2
      vertex -30 -27.1027 2
    endloop
  endfacet
  facet normal -0.27899 0.960294 0
    outer loop
      vertex -30.5451 -27.2447 0
      vertex -30.5451 -27.2447 2
      vertex -30.2434 -27.1571 0
    endloop
  endfacet
  facet normal -0.27899 0.960294 0
    outer loop
      vertex -30.2434 -27.1571 0
      vertex -30.5451 -27.2447 2
      vertex -30.2434 -27.1571 2
    endloop
  endfacet
  facet normal -0.33874 0.94088 0
    outer loop
      vertex -30.8406 -27.3511 0
      vertex -30.8406 -27.3511 2
      vertex -30.5451 -27.2447 0
    endloop
  endfacet
  facet normal -0.33874 0.94088 0
    outer loop
      vertex -30.5451 -27.2447 0
      vertex -30.8406 -27.3511 2
      vertex -30.5451 -27.2447 2
    endloop
  endfacet
  facet normal -0.397148 0.917754 0
    outer loop
      vertex -31.1289 -27.4759 0
      vertex -31.1289 -27.4759 2
      vertex -30.8406 -27.3511 0
    endloop
  endfacet
  facet normal -0.397148 0.917754 0
    outer loop
      vertex -30.8406 -27.3511 0
      vertex -31.1289 -27.4759 2
      vertex -30.8406 -27.3511 2
    endloop
  endfacet
  facet normal -0.453991 0.891006 0
    outer loop
      vertex -31.4088 -27.6185 0
      vertex -31.4088 -27.6185 2
      vertex -31.1289 -27.4759 0
    endloop
  endfacet
  facet normal -0.453991 0.891006 0
    outer loop
      vertex -31.1289 -27.4759 0
      vertex -31.4088 -27.6185 2
      vertex -31.1289 -27.4759 2
    endloop
  endfacet
  facet normal -0.509039 0.860743 0
    outer loop
      vertex -31.6791 -27.7784 0
      vertex -31.6791 -27.7784 2
      vertex -31.4088 -27.6185 0
    endloop
  endfacet
  facet normal -0.509039 0.860743 0
    outer loop
      vertex -31.4088 -27.6185 0
      vertex -31.6791 -27.7784 2
      vertex -31.4088 -27.6185 2
    endloop
  endfacet
  facet normal -0.562085 0.82708 0
    outer loop
      vertex -31.9389 -27.9549 0
      vertex -31.9389 -27.9549 2
      vertex -31.6791 -27.7784 0
    endloop
  endfacet
  facet normal -0.562085 0.82708 0
    outer loop
      vertex -31.6791 -27.7784 0
      vertex -31.9389 -27.9549 2
      vertex -31.6791 -27.7784 2
    endloop
  endfacet
  facet normal -0.612907 0.790155 0
    outer loop
      vertex -32.1871 -28.1474 0
      vertex -32.1871 -28.1474 2
      vertex -31.9389 -27.9549 0
    endloop
  endfacet
  facet normal -0.612907 0.790155 0
    outer loop
      vertex -31.9389 -27.9549 0
      vertex -32.1871 -28.1474 2
      vertex -31.9389 -27.9549 2
    endloop
  endfacet
  facet normal -0.661311 0.750112 0
    outer loop
      vertex -32.4227 -28.3552 0
      vertex -32.4227 -28.3552 2
      vertex -32.1871 -28.1474 0
    endloop
  endfacet
  facet normal -0.661311 0.750112 0
    outer loop
      vertex -32.1871 -28.1474 0
      vertex -32.4227 -28.3552 2
      vertex -32.1871 -28.1474 2
    endloop
  endfacet
  facet normal -0.707107 0.707107 0
    outer loop
      vertex -32.6448 -28.5773 0
      vertex -32.6448 -28.5773 2
      vertex -32.4227 -28.3552 0
    endloop
  endfacet
  facet normal -0.707107 0.707107 0
    outer loop
      vertex -32.4227 -28.3552 0
      vertex -32.6448 -28.5773 2
      vertex -32.4227 -28.3552 2
    endloop
  endfacet
  facet normal -0.750112 0.661311 0
    outer loop
      vertex -32.8526 -28.8129 0
      vertex -32.8526 -28.8129 2
      vertex -32.6448 -28.5773 0
    endloop
  endfacet
  facet normal -0.750112 0.661311 0
    outer loop
      vertex -32.6448 -28.5773 0
      vertex -32.8526 -28.8129 2
      vertex -32.6448 -28.5773 2
    endloop
  endfacet
  facet normal -0.790155 0.612907 0
    outer loop
      vertex -33.0451 -29.0611 0
      vertex -33.0451 -29.0611 2
      vertex -32.8526 -28.8129 0
    endloop
  endfacet
  facet normal -0.790155 0.612907 0
    outer loop
      vertex -32.8526 -28.8129 0
      vertex -33.0451 -29.0611 2
      vertex -32.8526 -28.8129 2
    endloop
  endfacet
  facet normal -0.82708 0.562085 0
    outer loop
      vertex -33.2216 -29.3209 0
      vertex -33.2216 -29.3209 2
      vertex -33.0451 -29.0611 0
    endloop
  endfacet
  facet normal -0.82708 0.562085 0
    outer loop
      vertex -33.0451 -29.0611 0
      vertex -33.2216 -29.3209 2
      vertex -33.0451 -29.0611 2
    endloop
  endfacet
  facet normal -0.860743 0.509039 0
    outer loop
      vertex -33.3815 -29.5912 0
      vertex -33.3815 -29.5912 2
      vertex -33.2216 -29.3209 0
    endloop
  endfacet
  facet normal -0.860743 0.509039 0
    outer loop
      vertex -33.2216 -29.3209 0
      vertex -33.3815 -29.5912 2
      vertex -33.2216 -29.3209 2
    endloop
  endfacet
  facet normal -0.891006 0.453991 0
    outer loop
      vertex -33.5241 -29.8711 0
      vertex -33.5241 -29.8711 2
      vertex -33.3815 -29.5912 0
    endloop
  endfacet
  facet normal -0.891006 0.453991 0
    outer loop
      vertex -33.3815 -29.5912 0
      vertex -33.5241 -29.8711 2
      vertex -33.3815 -29.5912 2
    endloop
  endfacet
  facet normal -0.917754 0.397148 0
    outer loop
      vertex -33.6489 -30.1594 0
      vertex -33.6489 -30.1594 2
      vertex -33.5241 -29.8711 0
    endloop
  endfacet
  facet normal -0.917754 0.397148 0
    outer loop
      vertex -33.5241 -29.8711 0
      vertex -33.6489 -30.1594 2
      vertex -33.5241 -29.8711 2
    endloop
  endfacet
  facet normal -0.94088 0.33874 0
    outer loop
      vertex -33.7553 -30.4549 0
      vertex -33.7553 -30.4549 2
      vertex -33.6489 -30.1594 0
    endloop
  endfacet
  facet normal -0.94088 0.33874 0
    outer loop
      vertex -33.6489 -30.1594 0
      vertex -33.7553 -30.4549 2
      vertex -33.6489 -30.1594 2
    endloop
  endfacet
  facet normal -0.960294 0.27899 0
    outer loop
      vertex -33.8429 -30.7566 0
      vertex -33.8429 -30.7566 2
      vertex -33.7553 -30.4549 0
    endloop
  endfacet
  facet normal -0.960294 0.27899 0
    outer loop
      vertex -33.7553 -30.4549 0
      vertex -33.8429 -30.7566 2
      vertex -33.7553 -30.4549 2
    endloop
  endfacet
  facet normal -0.975917 0.218142 0
    outer loop
      vertex -33.9114 -31.0631 0
      vertex -33.9114 -31.0631 2
      vertex -33.8429 -30.7566 0
    endloop
  endfacet
  facet normal -0.975917 0.218142 0
    outer loop
      vertex -33.8429 -30.7566 0
      vertex -33.9114 -31.0631 2
      vertex -33.8429 -30.7566 2
    endloop
  endfacet
  facet normal -0.987688 0.156436 0
    outer loop
      vertex -33.9606 -31.3733 0
      vertex -33.9606 -31.3733 2
      vertex -33.9114 -31.0631 0
    endloop
  endfacet
  facet normal -0.987688 0.156436 0
    outer loop
      vertex -33.9114 -31.0631 0
      vertex -33.9606 -31.3733 2
      vertex -33.9114 -31.0631 2
    endloop
  endfacet
  facet normal -0.995562 0.0941081 0
    outer loop
      vertex -33.9901 -31.686 0
      vertex -33.9901 -31.686 2
      vertex -33.9606 -31.3733 0
    endloop
  endfacet
  facet normal -0.995562 0.0941081 0
    outer loop
      vertex -33.9606 -31.3733 0
      vertex -33.9901 -31.686 2
      vertex -33.9606 -31.3733 2
    endloop
  endfacet
  facet normal -0.999507 0.0314096 0
    outer loop
      vertex -34 -32 0
      vertex -34 -32 2
      vertex -33.9901 -31.686 0
    endloop
  endfacet
  facet normal -0.999507 0.0314096 0
    outer loop
      vertex -33.9901 -31.686 0
      vertex -34 -32 2
      vertex -33.9901 -31.686 2
    endloop
  endfacet
  facet normal -0.999507 -0.0314096 0
    outer loop
      vertex -34 -32 0
      vertex -33.9901 -32.314 0
      vertex -34 -32 2
    endloop
  endfacet
  facet normal -0.999507 -0.0314096 0
    outer loop
      vertex -34 -32 2
      vertex -33.9901 -32.314 0
      vertex -33.9901 -32.314 2
    endloop
  endfacet
  facet normal -0.995562 -0.0941081 0
    outer loop
      vertex -33.9901 -32.314 0
      vertex -33.9606 -32.6267 0
      vertex -33.9901 -32.314 2
    endloop
  endfacet
  facet normal -0.995562 -0.0941081 0
    outer loop
      vertex -33.9901 -32.314 2
      vertex -33.9606 -32.6267 0
      vertex -33.9606 -32.6267 2
    endloop
  endfacet
  facet normal -0.987688 -0.156436 0
    outer loop
      vertex -33.9606 -32.6267 0
      vertex -33.9114 -32.9369 0
      vertex -33.9606 -32.6267 2
    endloop
  endfacet
  facet normal -0.987688 -0.156436 0
    outer loop
      vertex -33.9606 -32.6267 2
      vertex -33.9114 -32.9369 0
      vertex -33.9114 -32.9369 2
    endloop
  endfacet
  facet normal -0.975917 -0.218142 0
    outer loop
      vertex -33.9114 -32.9369 0
      vertex -33.8429 -33.2434 0
      vertex -33.9114 -32.9369 2
    endloop
  endfacet
  facet normal -0.975917 -0.218142 0
    outer loop
      vertex -33.9114 -32.9369 2
      vertex -33.8429 -33.2434 0
      vertex -33.8429 -33.2434 2
    endloop
  endfacet
  facet normal -0.960294 -0.27899 0
    outer loop
      vertex -33.8429 -33.2434 0
      vertex -33.7553 -33.5451 0
      vertex -33.8429 -33.2434 2
    endloop
  endfacet
  facet normal -0.960294 -0.27899 0
    outer loop
      vertex -33.8429 -33.2434 2
      vertex -33.7553 -33.5451 0
      vertex -33.7553 -33.5451 2
    endloop
  endfacet
  facet normal -0.94088 -0.33874 0
    outer loop
      vertex -33.7553 -33.5451 0
      vertex -33.6489 -33.8406 0
      vertex -33.7553 -33.5451 2
    endloop
  endfacet
  facet normal -0.94088 -0.33874 0
    outer loop
      vertex -33.7553 -33.5451 2
      vertex -33.6489 -33.8406 0
      vertex -33.6489 -33.8406 2
    endloop
  endfacet
  facet normal -0.917754 -0.397148 0
    outer loop
      vertex -33.6489 -33.8406 0
      vertex -33.5241 -34.1289 0
      vertex -33.6489 -33.8406 2
    endloop
  endfacet
  facet normal -0.917754 -0.397148 0
    outer loop
      vertex -33.6489 -33.8406 2
      vertex -33.5241 -34.1289 0
      vertex -33.5241 -34.1289 2
    endloop
  endfacet
  facet normal -0.891006 -0.453991 0
    outer loop
      vertex -33.5241 -34.1289 0
      vertex -33.3815 -34.4088 0
      vertex -33.5241 -34.1289 2
    endloop
  endfacet
  facet normal -0.891006 -0.453991 0
    outer loop
      vertex -33.5241 -34.1289 2
      vertex -33.3815 -34.4088 0
      vertex -33.3815 -34.4088 2
    endloop
  endfacet
  facet normal -0.860743 -0.509039 0
    outer loop
      vertex -33.3815 -34.4088 0
      vertex -33.2216 -34.6791 0
      vertex -33.3815 -34.4088 2
    endloop
  endfacet
  facet normal -0.860743 -0.509039 0
    outer loop
      vertex -33.3815 -34.4088 2
      vertex -33.2216 -34.6791 0
      vertex -33.2216 -34.6791 2
    endloop
  endfacet
  facet normal -0.82708 -0.562085 0
    outer loop
      vertex -33.2216 -34.6791 0
      vertex -33.0451 -34.9389 0
      vertex -33.2216 -34.6791 2
    endloop
  endfacet
  facet normal -0.82708 -0.562085 0
    outer loop
      vertex -33.2216 -34.6791 2
      vertex -33.0451 -34.9389 0
      vertex -33.0451 -34.9389 2
    endloop
  endfacet
  facet normal -0.790155 -0.612907 0
    outer loop
      vertex -33.0451 -34.9389 0
      vertex -32.9977 -35 0
      vertex -33.0451 -34.9389 2
    endloop
  endfacet
  facet normal -0.790155 -0.612907 0
    outer loop
      vertex -33.0451 -34.9389 2
      vertex -32.9977 -35 0
      vertex -32.9977 -35 2
    endloop
  endfacet
endsolid OpenSCAD_Model
