700 0 1 0           
11 SatConsumer 23 ASM 218.0.1.400 Unknown 24 Mon Apr  8 10:53:33 2013 
10 9.999999999999999547e-07 1.000000000000000036e-10 
body $-1 -1 $-1 $1 $-1 $2 #
lump $-1 -1 $-1 $-1 $3 $0 #
transform $-1 -1 1 0 0 0 1 0 0 0 1 0 0 0 1 no_rotate no_reflect no_shear #
shell $-1 -1 $-1 $-1 $-1 $4 $-1 $1 #
face $-1 -1 $-1 $5 $6 $3 $-1 $7 forward single #
face $-1 -1 $-1 $8 $9 $3 $-1 $10 forward single #
loop $-1 -1 $-1 $-1 $11 $4 #
cone-surface $-1 -1 $-1 1.500000000000000222 0.8499999999999996447 0.1499999999999999667 -1 4.440892098500626162e-16 0 0 0.1060660171779821831 -0.1060660171779820304 1 I I 0 1 0.1499999999999999667 forward I I I I #
face $-1 -1 $-1 $12 $13 $3 $-1 $14 forward single #
loop $-1 -1 $-1 $-1 $15 $5 #
cone-surface $-1 -1 $-1 1.850000000000000089 0.8499999999999989786 0.3750000000000006661 -0 1.776356839400250465e-15 -1 0.1060660171779820998 0.1060660171779820998 1.57009245868377566e-16 1 I I 0 1 0.1499999999999999667 forward I I I I #
coedge $-1 -1 $-1 $16 $17 $18 $19 forward $6 $-1 #
face $-1 -1 $-1 $20 $21 $3 $-1 $22 forward single #
loop $-1 -1 $-1 $-1 $23 $8 #
cone-surface $-1 -1 $-1 0.500000000000000111 0.8499999999999996447 0.3500000000000000333 1 -4.440892098500626162e-16 -0 1.570092458683773934e-16 0.1060660171779820027 0.1060660171779822247 1 I I 0 1 0.1499999999999999667 forward I I I I #
coedge $-1 -1 $-1 $24 $25 $26 $27 forward $9 $-1 #
coedge $-1 -1 $-1 $28 $11 $29 $30 forward $6 $-1 #
coedge $-1 -1 $-1 $11 $28 $31 $32 forward $6 $-1 #
coedge $-1 -1 $-1 $33 $34 $11 $19 reversed $35 $-1 #
edge $-1 -1 $-1 $36 0 $37 1.570796326794898556 $11 $38 forward @7 tangent #
face $-1 -1 $-1 $39 $35 $3 $-1 $40 forward single #
loop $-1 -1 $-1 $-1 $41 $12 #
sphere-surface $-1 -1 $-1 1.850000000000000089 0.8499999999999989786 0.3500000000000000888 0.1499999999999999667 0.577350269189625398 0.5773502691896257311 0.5773502691896263972 0.4082482904638626287 -0.8164965809277261455 0.4082482904638632948 forward_v I I I I #
coedge $-1 -1 $-1 $42 $43 $44 $45 forward $13 $-1 #
coedge $-1 -1 $-1 $46 $15 $47 $48 forward $9 $-1 #
coedge $-1 -1 $-1 $15 $46 $49 $50 forward $9 $-1 #
coedge $-1 -1 $-1 $41 $51 $15 $27 reversed $21 $-1 #
edge $-1 -1 $-1 $52 0 $53 1.570796326794896558 $15 $54 forward @7 tangent #
coedge $-1 -1 $-1 $17 $16 $55 $56 forward $6 $-1 #
coedge $-1 -1 $-1 $57 $58 $16 $30 reversed $59 $-1 #
edge $-1 -1 $-1 $37 -0.3499999999999998668 $60 1.350000000000000089 $29 $61 forward @7 tangent #
coedge $-1 -1 $-1 $62 $49 $17 $32 reversed $63 $-1 #
edge $-1 -1 $-1 $64 -1.350000000000000089 $36 0.3499999999999998668 $31 $65 forward @7 tangent #
coedge $-1 -1 $-1 $34 $18 $46 $66 reversed $35 $-1 #
coedge $-1 -1 $-1 $18 $33 $67 $68 forward $35 $-1 #
loop $-1 -1 $-1 $-1 $33 $20 #
vertex $-1 -1 $-1 $32 $69 #
vertex $-1 -1 $-1 $30 $70 #
ellipse-curve $-1 -1 $-1 1.850000000000000089 0.8499999999999995337 0.1499999999999999667 -1 0 -0 0 0.1499999999999999112 2.775557561562891351e-16 1 F 0 F 1.570796326794898556 #
face $-1 -1 $-1 $71 $72 $3 $-1 $73 forward single #
sphere-surface $-1 -1 $-1 1.850000000000000089 0.8499999999999994227 0.1499999999999998557 0.1499999999999999667 0.5773502691896260641 0.5773502691896269523 -0.5773502691896243988 -0.8164965809277260345 0.4082482904638641275 -0.4082482904638623511 forward_v I I I I #
coedge $-1 -1 $-1 $51 $26 $74 $75 reversed $21 $-1 #
coedge $-1 -1 $-1 $74 $23 $76 $77 forward $13 $-1 #
coedge $-1 -1 $-1 $23 $74 $78 $79 forward $13 $-1 #
coedge $-1 -1 $-1 $80 $81 $23 $45 reversed $82 $-1 #
edge $-1 -1 $-1 $83 0 $84 1.570796326794894782 $23 $85 forward @7 tangent #
coedge $-1 -1 $-1 $25 $24 $33 $66 forward $9 $-1 #
coedge $-1 -1 $-1 $86 $87 $24 $48 reversed $88 $-1 #
edge $-1 -1 $-1 $53 0.02500000000000057732 $89 0.2250000000000008105 $47 $90 forward @7 tangent #
coedge $-1 -1 $-1 $31 $78 $25 $50 reversed $63 $-1 #
edge $-1 -1 $-1 $36 -0.2250000000000006994 $52 -0.02500000000000057732 $49 $91 forward @7 tangent #
coedge $-1 -1 $-1 $26 $41 $92 $93 forward $21 $-1 #
vertex $-1 -1 $-1 $50 $94 #
vertex $-1 -1 $-1 $93 $95 #
ellipse-curve $-1 -1 $-1 1.850000000000000089 0.8499999999999989786 0.3500000000000000888 -0 1.850371707708595154e-15 -1 0 0.1499999999999999112 2.775557561562891351e-16 1 F 0 F 1.570796326794896558 #
coedge $-1 -1 $-1 $96 $97 $28 $56 reversed $98 $-1 #
edge $-1 -1 $-1 $60 0 $64 1.570796326794898556 $28 $99 forward @7 tangent #
coedge $-1 -1 $-1 $100 $29 $101 $102 reversed $59 $-1 #
coedge $-1 -1 $-1 $29 $100 $103 $104 reversed $59 $-1 #
loop $-1 -1 $-1 $-1 $29 $105 #
vertex $-1 -1 $-1 $104 $106 #
straight-curve $-1 -1 $-1 1.500000000000000222 0.8499999999999996447 0 -1 4.440892098500626162e-16 0 F -0.5150010000000000421 F 1.515001000000000264 #
coedge $-1 -1 $-1 $78 $31 $107 $108 reversed $63 $-1 #
loop $-1 -1 $-1 $-1 $31 $109 #
vertex $-1 -1 $-1 $32 $110 #
straight-curve $-1 -1 $-1 1.500000000000000222 0.9999999999999995559 0.1500000000000002442 1 -4.440892098500626162e-16 -0 F -1.515001000000000264 F 0.5150010000000000421 #
edge $-1 -1 $-1 $89 0 $36 1.570796326794896558 $46 $111 forward @7 tangent #
coedge $-1 -1 $-1 $112 $101 $34 $68 reversed $113 $-1 #
edge $-1 -1 $-1 $89 -0.7853981633974477239 $37 0.7853981633974488341 $67 $114 forward @7 tangent #
point $-1 -1 $-1 1.850000000000000089 0.9999999999999994449 0.1500000000000002442 #
point $-1 -1 $-1 1.850000000000000089 0.8499999999999995337 0 #
face $-1 -1 $-1 $115 $82 $3 $-1 $116 forward single #
loop $-1 -1 $-1 $-1 $117 $39 #
cone-surface $-1 -1 $-1 0.1499999999999999667 0.8500000000000003109 0.1250000000000006106 0 -1.776356839400250465e-15 1 -0.1060660171779820998 0.1060660171779820998 1.96261557335471939e-16 1 I I 0 1 0.1499999999999999667 forward I I I I #
coedge $-1 -1 $-1 $43 $42 $41 $75 forward $13 $-1 #
edge $-1 -1 $-1 $118 0 $52 1.570796326794894782 $74 $119 forward @7 tangent #
coedge $-1 -1 $-1 $120 $121 $42 $77 reversed $122 $-1 #
edge $-1 -1 $-1 $84 -0.3500000000000000888 $118 1.350000000000000089 $76 $123 forward @7 tangent #
coedge $-1 -1 $-1 $49 $62 $43 $79 reversed $63 $-1 #
edge $-1 -1 $-1 $52 -1.349999999999999867 $83 0.3500000000000000888 $78 $124 forward @7 tangent #
coedge $-1 -1 $-1 $81 $44 $125 $126 reversed $82 $-1 #
coedge $-1 -1 $-1 $44 $80 $127 $128 forward $82 $-1 #
loop $-1 -1 $-1 $-1 $80 $71 #
vertex $-1 -1 $-1 $79 $129 #
vertex $-1 -1 $-1 $128 $130 #
ellipse-curve $-1 -1 $-1 0.1500000000000000222 0.8499999999999997558 0.3500000000000000333 1 -7.401486830834378251e-16 -1.850371707708594563e-16 1.11022302462515654e-16 0.1499999999999999112 2.775557561562891351e-16 1 F 0 F 1.570796326794894782 #
coedge $-1 -1 $-1 $131 $47 $132 $133 reversed $88 $-1 #
coedge $-1 -1 $-1 $47 $134 $112 $135 reversed $88 $-1 #
loop $-1 -1 $-1 $-1 $47 $136 #
vertex $-1 -1 $-1 $135 $137 #
straight-curve $-1 -1 $-1 2 0.8499999999999989786 0.3750000000000006661 -0 1.776356839400250465e-15 -1 F -0.2900009999999993981 F 0.3900010000000007637 #
straight-curve $-1 -1 $-1 1.850000000000000089 0.9999999999999988898 0.3750000000000009437 0 -1.776356839400250465e-15 1 F -0.3900010000000007637 F 0.2900009999999993981 #
coedge $-1 -1 $-1 $138 $132 $51 $93 reversed $139 $-1 #
edge $-1 -1 $-1 $118 -0.7853981633974488341 $53 0.7853981633974477239 $92 $140 forward @7 tangent #
point $-1 -1 $-1 1.850000000000000089 0.9999999999999988898 0.3500000000000003664 #
point $-1 -1 $-1 2 0.8499999999999989786 0.3500000000000000888 #
coedge $-1 -1 $-1 $97 $55 $141 $142 forward $98 $-1 #
coedge $-1 -1 $-1 $55 $96 $117 $143 reversed $98 $-1 #
loop $-1 -1 $-1 $-1 $55 $115 #
ellipse-curve $-1 -1 $-1 0.1500000000000001332 0.8500000000000001998 0.1499999999999999667 1 1.369550182675367757e-30 -7.401486830834378251e-16 -1.11022302462515654e-16 0 -0.1499999999999999667 1 F 0 F 1.570796326794898556 #
coedge $-1 -1 $-1 $58 $57 $144 $145 reversed $59 $-1 #
coedge $-1 -1 $-1 $67 $146 $57 $102 forward $113 $-1 #
edge $-1 -1 $-1 $147 8.881784197001252323e-16 $37 0.8500000000000004219 $57 $148 forward @7 tangent #
coedge $-1 -1 $-1 $149 $141 $58 $104 forward $150 $-1 #
edge $-1 -1 $-1 $60 -0.8500000000000001998 $151 -0 $58 $152 forward @7 tangent #
face $-1 -1 $-1 $153 $59 $3 $-1 $154 forward single #
point $-1 -1 $-1 0.1500000000000000222 0.8500000000000001998 0 #
coedge $-1 -1 $-1 $117 $125 $62 $108 forward $72 $-1 #
edge $-1 -1 $-1 $83 -0.2249999999999994227 $64 -0.02499999999999938383 $62 $155 forward @7 tangent #
face $-1 -1 $-1 $156 $63 $3 $-1 $157 forward single #
point $-1 -1 $-1 0.1500000000000000222 1.000000000000000222 0.150000000000000272 #
ellipse-curve $-1 -1 $-1 1.850000000000000089 0.8499999999999994227 0.1499999999999998557 -0 -1.850371707708595154e-15 1 0.1499999999999999112 0 0 1 F 0 F 1.570796326794896558 #
coedge $-1 -1 $-1 $146 $67 $87 $135 forward $113 $-1 #
loop $-1 -1 $-1 $-1 $67 $158 #
ellipse-curve $-1 -1 $-1 1.850000000000000089 0.8499999999999994227 0.1499999999999998557 0 1 0 0.1060660171779821415 0 -0.1060660171779820166 1 I I #
face $-1 -1 $-1 $159 $98 $3 $-1 $160 forward single #
sphere-surface $-1 -1 $-1 0.15000000000000005 0.8499999999999997558 0.3499999999999999778 0.1499999999999999667 -0.5773502691896251759 0.577350269189625398 0.5773502691896267303 -0.4082482904638621846 -0.8164965809277262565 0.4082482904638632948 forward_v I I I I #
coedge $-1 -1 $-1 $161 $107 $97 $143 forward $72 $-1 #
vertex $-1 -1 $-1 $162 $163 #
ellipse-curve $-1 -1 $-1 1.850000000000000089 0.8499999999999990896 0.3500000000000000333 -1 1.480297366166876242e-15 -0 0 0 0.1499999999999999667 1 F 0 F 1.570796326794894782 #
coedge $-1 -1 $-1 $164 $76 $165 $166 reversed $122 $-1 #
coedge $-1 -1 $-1 $76 $167 $138 $162 reversed $122 $-1 #
loop $-1 -1 $-1 $-1 $76 $168 #
straight-curve $-1 -1 $-1 0.500000000000000111 0.8499999999999996447 0.5 1 -4.440892098500626162e-16 -0 F -0.5150010000000000421 F 1.515001000000000264 #
straight-curve $-1 -1 $-1 0.500000000000000222 0.9999999999999995559 0.3500000000000003109 -1 4.440892098500626162e-16 0 F -1.515001000000000264 F 0.5150010000000000421 #
coedge $-1 -1 $-1 $107 $161 $80 $126 forward $72 $-1 #
edge $-1 -1 $-1 $169 0 $83 1.570796326794897002 $125 $170 forward @7 tangent #
coedge $-1 -1 $-1 $171 $165 $81 $128 reversed $172 $-1 #
edge $-1 -1 $-1 $169 -0.785398163397448057 $84 0.785398163397448501 $127 $173 forward @7 tangent #
point $-1 -1 $-1 0.1500000000000001332 0.9999999999999996669 0.3500000000000003109 #
point $-1 -1 $-1 0.15000000000000005 0.8499999999999997558 0.5 #
coedge $-1 -1 $-1 $174 $86 $175 $176 reversed $88 $-1 #
coedge $-1 -1 $-1 $92 $177 $86 $133 forward $139 $-1 #
edge $-1 -1 $-1 $178 0.3249999999999990674 $53 0.8499999999999998668 $86 $179 forward @7 tangent #
coedge $-1 -1 $-1 $87 $180 $181 $182 reversed $88 $-1 #
edge $-1 -1 $-1 $89 -0.8500000000000003109 $183 8.881784197001252323e-16 $87 $184 forward @7 tangent #
face $-1 -1 $-1 $185 $88 $3 $-1 $186 forward single #
point $-1 -1 $-1 2 0.8499999999999994227 0.1499999999999998557 #
coedge $-1 -1 $-1 $177 $92 $121 $162 forward $139 $-1 #
loop $-1 -1 $-1 $-1 $92 $159 #
ellipse-curve $-1 -1 $-1 1.850000000000000089 0.8499999999999989786 0.3500000000000000888 0 1 0 0.1060660171779821415 0 0.1060660171779820304 1 I I #
coedge $-1 -1 $-1 $103 $187 $96 $142 reversed $150 $-1 #
edge $-1 -1 $-1 $60 -0.78539816339744839 $188 0.785398163397448168 $141 $189 forward @7 tangent #
edge $-1 -1 $-1 $64 1.267088455154820463e-45 $188 1.570796326794897002 $117 $190 forward @7 tangent #
coedge $-1 -1 $-1 $191 $192 $100 $145 forward $193 $-1 #
edge $-1 -1 $-1 $151 0.1500000000000000222 $147 1.850000000000000089 $100 $194 forward @7 unknown #
coedge $-1 -1 $-1 $101 $112 $191 $195 forward $113 $-1 #
vertex $-1 -1 $-1 $102 $196 #
straight-curve $-1 -1 $-1 1.850000000000000089 -8.881784197001252323e-16 0 0 1 0 F -0.4650009999999986099 F 1.465001000000000442 #
coedge $-1 -1 $-1 $187 $103 $192 $197 forward $150 $-1 #
loop $-1 -1 $-1 $-1 $141 $156 #
vertex $-1 -1 $-1 $145 $198 #
straight-curve $-1 -1 $-1 0.1500000000000000222 0 0 -0 -1 -0 F -1.465000999999999998 F 0.4650009999999999422 #
face $-1 -1 $-1 $199 $200 $3 $-1 $201 forward single #
plane-surface $-1 -1 $-1 2 0 0 0 0 -1 -1 -0 -0 forward_v I I I I #
straight-curve $-1 -1 $-1 0.1500000000000000222 1.000000000000000222 0.1250000000000008882 -0 1.776356839400250465e-15 -1 F -0.3900009999999993204 F 0.1400010000000005972 #
face $-1 -1 $-1 $158 $150 $3 $-1 $202 forward single #
plane-surface $-1 -1 $-1 0.999999999999999889 0.9999999999999995559 0.25 4.440892098500626162e-16 1 1.776356839400250465e-15 0 -1.776356839400250465e-15 1 forward_v I I I I #
face $-1 -1 $-1 $105 $113 $3 $-1 $203 forward single #
face $-1 -1 $-1 $168 $139 $3 $-1 $204 forward single #
sphere-surface $-1 -1 $-1 0.1500000000000000222 0.8500000000000001998 0.1499999999999999944 0.1499999999999999667 -0.5773502691896260641 0.5773502691896265082 -0.5773502691896248429 -0.8164965809277259234 -0.4082482904638638499 0.4082482904638626842 forward_v I I I I #
coedge $-1 -1 $-1 $125 $117 $205 $206 forward $72 $-1 #
edge $-1 -1 $-1 $118 -0.8499999999999999778 $207 -0.3249999999999990674 $121 $208 forward @7 tangent #
point $-1 -1 $-1 1.850000000000000089 0.8499999999999990896 0.5 #
coedge $-1 -1 $-1 $209 $120 $210 $211 reversed $122 $-1 #
coedge $-1 -1 $-1 $127 $212 $120 $166 forward $172 $-1 #
edge $-1 -1 $-1 $213 -1.332267629550189032e-16 $84 0.8499999999999997558 $120 $214 forward @7 tangent #
coedge $-1 -1 $-1 $121 $209 $215 $216 reversed $122 $-1 #
face $-1 -1 $-1 $217 $122 $3 $-1 $218 forward single #
vertex $-1 -1 $-1 $219 $220 #
ellipse-curve $-1 -1 $-1 0.1499999999999999667 0.8499999999999998668 0.3499999999999999778 -0 1.850371707708595154e-15 -1 -0.1499999999999999667 0 0 1 F 0 F 1.570796326794897002 #
coedge $-1 -1 $-1 $212 $127 $221 $219 forward $172 $-1 #
loop $-1 -1 $-1 $-1 $127 $217 #
ellipse-curve $-1 -1 $-1 0.15000000000000005 0.8499999999999997558 0.3499999999999999778 0 1 0 -0.1060660171779821692 0 0.1060660171779821415 1 I I #
coedge $-1 -1 $-1 $222 $131 $223 $224 reversed $88 $-1 #
coedge $-1 -1 $-1 $225 $226 $131 $176 forward $200 $-1 #
edge $-1 -1 $-1 $227 -0.7853981633974488341 $178 0.7853981633974477239 $131 $228 forward @7 tangent #
coedge $-1 -1 $-1 $132 $138 $225 $229 forward $139 $-1 #
vertex $-1 -1 $-1 $133 $230 #
straight-curve $-1 -1 $-1 2 -8.881784197001252323e-16 0.3500000000000000888 0 1 0 F -0.1650010000000008137 F 1.465000999999998887 #
coedge $-1 -1 $-1 $134 $222 $231 $232 reversed $88 $-1 #
coedge $-1 -1 $-1 $233 $191 $134 $182 forward $193 $-1 #
edge $-1 -1 $-1 $183 -0.3500000000000001443 $234 0.25 $181 $235 forward @7 unknown #
vertex $-1 -1 $-1 $182 $236 #
straight-curve $-1 -1 $-1 2 -8.881784197001252323e-16 0.1499999999999998557 -0 -1 -0 F -1.465001000000000442 F 0.4650009999999986099 #
face $-1 -1 $-1 $237 $238 $3 $-1 $239 forward single #
plane-surface $-1 -1 $-1 2 -1.776356839400250465e-15 0.5 1 0 -0 -0 3.552713678800500929e-15 -1 forward_v I I I I #
coedge $-1 -1 $-1 $141 $149 $240 $241 forward $150 $-1 #
vertex $-1 -1 $-1 $206 $242 #
ellipse-curve $-1 -1 $-1 0.1500000000000000222 0.8500000000000001998 0.1499999999999999944 0 1 0 -0.1060660171779821276 0 -0.1060660171779821137 1 I I #
ellipse-curve $-1 -1 $-1 0.1499999999999999667 0.8500000000000003109 0.1499999999999999944 -0 -1.850371707708595154e-15 1 5.551115123125782702e-17 0.1499999999999999112 2.775557561562891351e-16 1 F 1.267088455154820463e-45 F 1.570796326794897002 #
coedge $-1 -1 $-1 $181 $144 $146 $195 reversed $193 $-1 #
coedge $-1 -1 $-1 $144 $243 $149 $197 reversed $193 $-1 #
loop $-1 -1 $-1 $244 $192 $245 #
straight-curve $-1 -1 $-1 0 0 0 1 0 0 F 0 F 2 #
edge $-1 -1 $-1 $183 -0.785398163397448168 $147 0.78539816339744839 $191 $246 forward @7 unknown #
point $-1 -1 $-1 1.850000000000000089 0 0 #
edge $-1 -1 $-1 $151 -0.78539816339744839 $247 0.78539816339744839 $192 $248 forward @7 unknown #
point $-1 -1 $-1 0.1500000000000000222 0 0 #
face $-1 -1 $-1 $249 $250 $3 $-1 $251 forward single #
loop $-1 -1 $-1 $-1 $226 $153 #
torus-surface $-1 -1 $-1 1.850000000000000089 0.3249999999999981792 0.5749999999999999556 1 0 -0 0.2249999999999998113 0.1499999999999999112 -0 0 -1 forward_v I I I I #
cone-surface $-1 -1 $-1 0.1500000000000000222 0 0.1499999999999999944 0 1 0 -0.1060660171779821276 0 -0.1060660171779821137 1 I I 0 1 0.1499999999999999944 forward I I I I #
cone-surface $-1 -1 $-1 1.850000000000000089 -8.881784197001252323e-16 0.1499999999999998557 0 1 0 0.1060660171779820443 0 -0.1060660171779820166 1 I I 0 1 0.1499999999999998557 forward I I I I #
cone-surface $-1 -1 $-1 1.850000000000000089 -8.881784197001252323e-16 0.3500000000000000888 0 1 0 0.1060660171779820582 0 0.1060660171779820582 1 I I 0 1 0.1499999999999999112 forward I I I I #
coedge $-1 -1 $-1 $240 $221 $161 $206 reversed $252 $-1 #
edge $-1 -1 $-1 $188 0.02499999999999938383 $169 0.2249999999999993672 $205 $253 forward @7 tangent #
vertex $-1 -1 $-1 $216 $254 #
straight-curve $-1 -1 $-1 1.850000000000000089 -8.881784197001252323e-16 0.5 -0 -1 -0 F -1.465000999999998887 F 0.1650010000000008137 #
coedge $-1 -1 $-1 $167 $164 $255 $256 reversed $122 $-1 #
coedge $-1 -1 $-1 $257 $258 $164 $211 forward $193 $-1 #
edge $-1 -1 $-1 $259 0.75 $213 1.849999999999999867 $164 $260 forward @7 unknown #
coedge $-1 -1 $-1 $165 $171 $257 $261 forward $172 $-1 #
vertex $-1 -1 $-1 $166 $262 #
straight-curve $-1 -1 $-1 0.15000000000000005 0 0.5 0 1 0 F -0.4650010000000001642 F 1.465000999999999998 #
coedge $-1 -1 $-1 $263 $264 $167 $216 forward $265 $-1 #
edge $-1 -1 $-1 $207 -0.8500000000000000888 $266 -0.25 $167 $267 forward @7 tangent #
face $-1 -1 $-1 $268 $172 $3 $-1 $269 forward single #
plane-surface $-1 -1 $-1 0 0 0.5 0 -0 1 1 -8.881784197001252323e-16 -0 forward_v I I I I #
edge $-1 -1 $-1 $169 -0.8499999999999998668 $270 -0 $221 $271 forward @7 tangent #
point $-1 -1 $-1 0 0.8499999999999998668 0.3499999999999999778 #
coedge $-1 -1 $-1 $205 $272 $171 $219 reversed $252 $-1 #
coedge $-1 -1 $-1 $180 $174 $273 $274 reversed $88 $-1 #
coedge $-1 -1 $-1 $275 $276 $174 $224 forward $250 $-1 #
edge $-1 -1 $-1 $277 -0.08071763399179809895 $227 -0.07499999999999995559 $174 $278 forward @7 tangent #
coedge $-1 -1 $-1 $279 $175 $177 $229 reversed $200 $-1 #
coedge $-1 -1 $-1 $175 $279 $275 $280 forward $200 $-1 #
vertex $-1 -1 $-1 $176 $281 #
ellipse-curve $-1 -1 $-1 2 0.3249999999999981792 0.5749999999999999556 1 0 -0 0 -0.1590990257669729901 -0.1590990257669731567 1 F -1.611168898812142869 F 2.356194490192344393 #
edge $-1 -1 $-1 $207 0 $178 1.570796326794896558 $177 $282 forward @7 tangent #
point $-1 -1 $-1 2 0.3249999999999981792 0.3500000000000000888 #
coedge $-1 -1 $-1 $283 $284 $180 $232 forward $238 $-1 #
edge $-1 -1 $-1 $234 -0.0625 $285 0.03750000000000008188 $180 $286 forward @7 tangent #
coedge $-1 -1 $-1 $258 $181 $284 $287 reversed $193 $-1 #
vertex $-1 -1 $-1 $232 $288 #
straight-curve $-1 -1 $-1 2 -1.776356839400250465e-15 0.5 0 0 1 I I #
point $-1 -1 $-1 2 -1.776356839400250465e-15 0.1499999999999998557 #
face $-1 -1 $-1 $289 $290 $3 $-1 $291 forward single #
loop $-1 -1 $-1 $-1 $283 $185 #
cone-surface $-1 -1 $-1 1.75 0.06249999999999823058 0.75 -0 1 0 0.1767766952966368377 0 0.1767766952966368377 1 I I 0 1 0.2499999999999999445 forward I I I I #
coedge $-1 -1 $-1 $272 $205 $187 $241 reversed $252 $-1 #
edge $-1 -1 $-1 $247 0 $188 0.8500000000000003109 $240 $292 forward @7 tangent #
point $-1 -1 $-1 0 0.8500000000000003109 0.1499999999999999944 #
coedge $-1 -1 $-1 $192 $257 $272 $293 forward $193 $-1 #
loop $-1 -1 $-1 $-1 $294 $245 #
face $-1 -1 $-1 $-1 $193 $3 $-1 $295 reversed single #
ellipse-curve $-1 -1 $-1 1.850000000000000089 -4.440892098500626162e-16 0.1499999999999998557 4.440892098500626162e-16 1 1.776356839400250465e-15 0.1060660171779820443 0 -0.1060660171779820166 1 I I #
vertex $-1 -1 $-1 $241 $296 #
ellipse-curve $-1 -1 $-1 0.1500000000000000222 -4.440892098500625669e-16 0.1499999999999999944 4.440892098500626162e-16 1 1.776356839400250465e-15 -0.1060660171779821276 0 -0.1060660171779821137 1 I I #
face $-1 -1 $-1 $297 $298 $3 $-1 $299 forward single #
loop $-1 -1 $-1 $-1 $276 $199 #
cone-surface $-1 -1 $-1 1.850000000000000089 0.09999999999999831246 0.5 0 -0 1 0.1060660171779820582 0.1060660171779820582 0 1 I I 0 1 0.1499999999999999112 forward I I I I #
loop $-1 -1 $-1 $-1 $205 $268 #
straight-curve $-1 -1 $-1 0 0.8500000000000003109 0.1250000000000006106 0 -1.776356839400250465e-15 1 F -0.1400010000000005972 F 0.3900009999999993204 #
point $-1 -1 $-1 1.850000000000000089 0.3249999999999981792 0.5 #
coedge $-1 -1 $-1 $300 $301 $209 $256 forward $290 $-1 #
edge $-1 -1 $-1 $266 -0.1999999999999990674 $259 0.125000000000000222 $209 $302 forward @7 tangent #
coedge $-1 -1 $-1 $243 $210 $212 $261 reversed $193 $-1 #
coedge $-1 -1 $-1 $210 $233 $300 $303 reversed $193 $-1 #
vertex $-1 -1 $-1 $211 $304 #
straight-curve $-1 -1 $-1 2 -1.776356839400250465e-15 0.5 -1 8.881784197001252323e-16 0 F 0 F 2 #
edge $-1 -1 $-1 $270 -0.785398163397448168 $213 0.7853981633974490562 $257 $305 forward @7 unknown #
point $-1 -1 $-1 0.1500000000000001332 -1.332267629550189032e-16 0.5 #
coedge $-1 -1 $-1 $306 $215 $307 $308 reversed $265 $-1 #
coedge $-1 -1 $-1 $215 $309 $279 $310 reversed $265 $-1 #
loop $-1 -1 $-1 $-1 $264 $311 #
vertex $-1 -1 $-1 $216 $312 #
straight-curve $-1 -1 $-1 1 0.3249999999999981792 0.5 -1 0 0 I I #
face $-1 -1 $-1 $109 $252 $3 $-1 $313 forward single #
cone-surface $-1 -1 $-1 0.15000000000000005 0 0.3499999999999999778 0 1 0 -0.1060660171779821692 0 0.1060660171779821553 1 I I 0 1 0.15000000000000005 forward I I I I #
vertex $-1 -1 $-1 $293 $314 #
straight-curve $-1 -1 $-1 0 0 0.3499999999999999778 -0 -1 -0 F -1.465000999999999998 F 0.4650010000000001642 #
coedge $-1 -1 $-1 $221 $240 $243 $293 reversed $252 $-1 #
coedge $-1 -1 $-1 $315 $316 $222 $274 forward $298 $-1 #
edge $-1 -1 $-1 $285 -0.25 $277 -0.08071763399179809895 $222 $317 forward @7 tangent #
coedge $-1 -1 $-1 $318 $223 $226 $280 reversed $250 $-1 #
coedge $-1 -1 $-1 $223 $318 $315 $319 forward $250 $-1 #
vertex $-1 -1 $-1 $224 $320 #
straight-curve $-1 -1 $-1 2 0.09999999999999831246 0.5 -0 0 -1 F -0.4150009999999999533 F 0.09000099999999994216 #
coedge $-1 -1 $-1 $226 $225 $264 $310 forward $200 $-1 #
edge $-1 -1 $-1 $321 0 $227 1.570796326794896558 $226 $322 forward @7 tangent #
point $-1 -1 $-1 2 0.09999999999999834022 0.5749999999999999556 #
ellipse-curve $-1 -1 $-1 1.850000000000000089 0.3249999999999981792 0.3500000000000000888 -0 1 -0 0 0 0.1499999999999999112 1 F 0 F 1.570796326794896558 #
coedge $-1 -1 $-1 $323 $231 $324 $325 reversed $238 $-1 #
coedge $-1 -1 $-1 $231 $323 $233 $287 forward $238 $-1 #
vertex $-1 -1 $-1 $325 $326 #
straight-curve $-1 -1 $-1 2 0.06249999999999823058 0.75 -0 1 0 F -0.8375009999999999399 F 1.212501000000001605 #
edge $-1 -1 $-1 $327 -2.356194490192344837 $234 0.785398163397448279 $233 $328 forward @7 unknown #
point $-1 -1 $-1 2 -1.776356839400250465e-15 0.75 #
face $-1 -1 $-1 $311 $329 $3 $-1 $330 forward single #
loop $-1 -1 $-1 $-1 $331 $237 #
cone-surface $-1 -1 $-1 1.25 0.1249999999999991118 0.75 0 1 -0 0.1767766952966368377 0 -0.1767766952966368377 1 I I 0 -1 0.2499999999999999445 forward I I I I #
straight-curve $-1 -1 $-1 0 0 0.1499999999999999944 0 1 0 F -0.4650009999999999422 F 1.465000999999999998 #
edge $-1 -1 $-1 $270 0.1500000000000000222 $247 0.3499999999999999778 $272 $332 forward @7 unknown #
coedge $-1 -1 $-1 $294 $294 $333 $334 forward $244 $-1 #
plane-surface $-1 -1 $-1 0.999999999999999889 -4.440892098500625669e-16 0.25 4.440892098500626162e-16 1 1.776356839400250465e-15 0 -1.776356839400250465e-15 1 forward_v I I I I #
point $-1 -1 $-1 0 0 0.1500000000000000222 #
face $-1 -1 $-1 $335 $336 $3 $-1 $337 forward single #
loop $-1 -1 $-1 $-1 $338 $249 #
cone-surface $-1 -1 $-1 1.850000000000000089 0.09999999999999831246 0.5 -0 0 -1 0.1060660171779820582 0.1060660171779820582 0 1 I I 0 1 0.1499999999999999112 forward I I I I #
coedge $-1 -1 $-1 $339 $255 $258 $303 forward $290 $-1 #
coedge $-1 -1 $-1 $255 $340 $341 $342 reversed $290 $-1 #
straight-curve $-1 -1 $-1 1.25 0.1249999999999991118 0.5 -0 -1 0 F -1.150001000000000717 F 0.9000010000000008281 #
edge $-1 -1 $-1 $259 -0.785398163397448279 $327 0.785398163397448279 $300 $343 forward @7 unknown #
point $-1 -1 $-1 1.25 -1.11022302462515654e-15 0.5 #
ellipse-curve $-1 -1 $-1 0.15000000000000005 -4.440892098500625669e-16 0.3499999999999999778 4.440892098500626162e-16 1 1.776356839400250465e-15 -0.1060660171779821692 0 0.1060660171779821553 1 I I #
coedge $-1 -1 $-1 $344 $263 $345 $346 forward $265 $-1 #
coedge $-1 -1 $-1 $341 $347 $263 $308 forward $348 $349 #
edge $-1 -1 $-1 $350 -0.5059402799996050026 $266 0.000976687224399080435 $263 $351 forward @7 tangent #
coedge $-1 -1 $-1 $264 $344 $352 $353 forward $265 $-1 #
edge $-1 -1 $-1 $207 -0.7853981633974478349 $321 0.7853981633974487231 $264 $354 forward @7 tangent #
face $-1 -1 $-1 $355 $265 $3 $-1 $356 forward single #
point $-1 -1 $-1 1.25 0.3249999999999981792 0.5 #
plane-surface $-1 -1 $-1 0 0 0 -1 0 0 -0 -0 1 forward_v I I I I #
point $-1 -1 $-1 0 0 0.3499999999999999778 #
coedge $-1 -1 $-1 $338 $273 $276 $319 reversed $298 $-1 #
coedge $-1 -1 $-1 $273 $338 $357 $358 forward $298 $-1 #
straight-curve $-1 -1 $-1 2 0.09999999999999831246 0.5 -0 0 -1 F -0.6650009999999999533 F 0.6650009999999999533 #
coedge $-1 -1 $-1 $276 $275 $359 $360 forward $250 $-1 #
edge $-1 -1 $-1 $361 0 $277 1.570796326794896558 $276 $362 forward @7 tangent #
point $-1 -1 $-1 2 0.09999999999999831246 0.5807176339917980989 #
vertex $-1 -1 $-1 $360 $363 #
ellipse-curve $-1 -1 $-1 1.850000000000000089 0.09999999999999834022 0.5749999999999999556 -0 -0 -1 0 0.1499999999999998834 0 1 F 0 F 1.570796326794896558 #
coedge $-1 -1 $-1 $284 $283 $339 $364 forward $238 $-1 #
coedge $-1 -1 $-1 $357 $365 $283 $325 forward $366 $-1 #
edge $-1 -1 $-1 $367 -1.570796326794896558 $285 1.570796326794896558 $283 $368 forward @7 tangent #
point $-1 -1 $-1 2 0.09999999999999831246 0.75 #
vertex $-1 -1 $-1 $287 $369 #
ellipse-curve $-1 -1 $-1 1.75 -4.440892098500626162e-16 0.75 4.440892098500626162e-16 1 1.776356839400250465e-15 0.1767766952966368377 0 0.1767766952966368377 1 I I #
loop $-1 -1 $-1 $-1 $370 $289 #
plane-surface $-1 -1 $-1 2 0.2499999999999982236 0.5 0 1 0 -1 -0 -0 forward_v I I I I #
coedge $-1 -1 $-1 $340 $339 $371 $372 reversed $290 $-1 #
straight-curve $-1 -1 $-1 0 0 0.5 0 0 -1 F 0 F 0.5 #
coedge $-1 -1 $-1 $333 $333 $294 $334 reversed $373 $-1 #
edge $-1 -1 $-1 $374 -3.141592653589793116 $374 3.141592653589793116 $294 $375 forward @7 unknown #
face $-1 -1 $-1 $376 $348 $3 $-1 $377 forward single #
loop $-1 -1 $-1 $-1 $378 $297 #
torus-surface $-1 -1 $-1 1.25 0.09999999999999831246 0.75 -0 -1 -0 0.3999999999999998557 0.1499999999999999112 0 0 -1 forward_v I I I I #
coedge $-1 -1 $-1 $316 $315 $379 $380 reversed $298 $-1 #
coedge $-1 -1 $-1 $331 $300 $323 $364 reversed $290 $-1 #
coedge $-1 -1 $-1 $301 $331 $381 $382 reversed $290 $-1 #
coedge $-1 -1 $-1 $347 $307 $301 $342 forward $348 $383 #
edge $-1 -1 $-1 $266 -0.000976687224399080435 $384 0.5059402799996050026 $301 $385 forward @7 tangent #
ellipse-curve $-1 -1 $-1 1.25 -4.440892098500626162e-16 0.75 -4.440892098500626162e-16 -1 -1.776356839400250465e-15 0.1767766952966368377 0 -0.1767766952966368377 1 I I #
coedge $-1 -1 $-1 $309 $306 $386 $387 reversed $265 $-1 #
coedge $-1 -1 $-1 $370 $388 $306 $346 reversed $329 $-1 #
edge $-1 -1 $-1 $350 0.6096873642484537115 $389 0.645371408420418291 $345 $390 reversed @7 unknown #
coedge $-1 -1 $-1 $307 $341 $391 $392 reversed $348 $393 #
loop $-1 -1 $-1 $-1 $347 $335 #
pcurve $-1 -1 $-1 0 reversed { exppc nubs 1 open 2 
	-0.0009766872243990865066 1 0.5059402799996051137 1 
	1 -0.000976687224399080435 
	1 0.5059402799996050026 
	0 
	spline reversed { rbblnsur @11 blendsupsur cone 1.25 0.1249999999999991118 0.75 0 1 -0 0.1767766952966368377 0 -0.1767766952966368377 1 I I 0 -1 0.2499999999999999445 forward I I I I null_curve nullbs 0 0 0 
	@11 blendsupsur cone 1 0.3249999999999981792 0.5749999999999999556 1 -0 -0 0 -0.0530330085889910291 -0.0530330085889910291 1 I I 0 -1 0.07499999999999995559 forward I I I I null_curve nullbs 0 0 0 
	intcurve forward { offintcur full nubs 3 open 6 
	-0.000976687224399080435 3 0 2 0.1524420814309433159 2 0.3074597220450827617 2 0.4196402356232591391 2 
	0.5059402799996050026 3 
	1.25 0.3249999999999981792 0.3500000000000000888 
	1.250260449926506423 0.3248046625551183619 0.3500000000000000888 
	1.250520899932524577 0.3246093250505924788 0.3500002543781159381 
	1.291432538011401565 0.2939256306400661045 0.3500801702653432157 
	1.332420694077839141 0.2631735888602159679 0.3563614013079051124 
	1.412634409029958737 0.2048037821416587578 0.3820951039283224659 
	1.452715535286002613 0.1765413966425577186 0.4021045829134626826 
	1.51633410747062225 0.1362931254378304813 0.4497020140390208254 
	1.541953833484208669 0.1216225605178611613 0.4741955187029638363 
	1.581490689979015096 0.1045489537111163464 0.5244200061435189131 
	1.597101941110236512 0.09999999999999832634 0.5491324704197895201 
	1.609687364248453711 0.09999999999999831246 0.5749999999999998446 
	1000 
	cone 1 0.3249999999999981792 0.5749999999999999556 1 -0 -0 0 -0.0530330085889910291 -0.0530330085889910291 1 I I 0 -1 0.07499999999999995559 forward I I I I 
	cone 1.25 0.1249999999999991118 0.75 0 1 -0 0.1767766952966368377 0 -0.1767766952966368377 1 I I 0 -1 0.2499999999999999445 forward I I I I 
	nullbs 
	nullbs 
	F 0 I 
	0 
	1 0 
	0 
	-0.1499999999999999112 -0.1499999999999999112 } I I -0.1499999999999999112 -0.1499999999999999112 
	no_radius 
	F 0 F 1 
	F -0.000976687224399080435 I 
	1 0.001000000000000000021 0.0004245606003313665824 
	1 
	full nubs 3 3 open open none low 4 6 
	0 3 0.3333333333333333148 1 0.6666666666666666297 1 1 3 
	-0.000976687224399080435 3 0.1524420814309433159 2 0.2820156958292498461 2 0.3815377332382965947 2 0.4580931466298709953 2 
	0.5059402799996050026 3 
	1.25 0.3249999999999981792 0.5 
	1.25 0.3249999999999981792 0.5 
	1.25 0.3249999999999981792 0.5 
	1.25 0.3249999999999981792 0.5 
	1.25 0.3249999999999981792 0.5 
	1.25 0.3249999999999981792 0.5 
	1.275569794775890609 0.2943162462689294934 0.5 
	1.277274447760949894 0.2965891169156753548 0.5 
	1.280683753731068686 0.3011348582091670223 0.5 
	1.285797712686246763 0.3079534701494044957 0.5 
	1.289207018656365555 0.3124992114428961631 0.5 
	1.29091167164142484 0.3147720820896419691 0.5 
	1.301353677754284011 0.2633590084141447241 0.5039247842093702578 
	1.304779371707252444 0.2679229232893226009 0.5044863899136152741 
	1.311633397955293878 0.2770508346286902346 0.5050973832251780538 
	1.321904437308329072 0.2907512214037811793 0.5044962588975991924 
	1.328745422837296575 0.2998882196643489206 0.5030711072762398262 
	1.332165884406854461 0.3044530028047136572 0.5020932182449975301 
	1.347497669796756448 0.209634212880623394 0.5187284343039791912 
	1.353157102089772801 0.2187427095249185605 0.5209979401096220819 
	1.3652994011291959 0.2369594125330726775 0.5233954087323340332 
	1.385214338878028917 0.2631431478204860896 0.5204235712501981137 
	1.399068887300507491 0.2791055655203892871 0.5141420319065729272 
	1.405996271674810227 0.2865447376268732693 0.5099884982954555612 
	1.368473481203657416 0.1858636208708334681 0.5285778505572776842 
	1.374803594666043072 0.1972229953191613205 0.531917954739950738 
	1.388996401104636291 0.2199411391925134851 0.5354299466895827697 
	1.413465513920524552 0.2518794478556144467 0.5308597685325124882 
	1.430860070190867583 0.270379369121633184 0.5214209251310516491 
	1.439557569925851821 0.278621206956943257 0.5152415202972148167 
	1.40344941883388219 0.149104302351915019 0.5517934329840722407 
	1.409721510651020138 0.1647976002630552328 0.5566183324460758364 
	1.4259735253901209 0.1961798779065692389 0.5613372717087897756 
	1.458568421866076603 0.2376980222383105745 0.5527897713269264157 
	1.483201060420909601 0.2583880454631685142 0.5373374385224124472 
	1.495519070134211592 0.2663681007839704962 0.5276231642581719061 
	1.418078841521078548 0.1347344620908262347 0.5638980328738841807 
	1.423899629931731248 0.152458287609293891 0.5692349998060967087 
	1.440515503450401802 0.1878988237926852434 0.5742283595844148714 
	1.476701257048095517 0.2334262396898457159 0.5635508624964918889 
	1.504849320898162146 0.2542881305195344166 0.5453202572254879366 
	1.518926146433725588 0.2615781540302741792 0.5340789508660716001 
	1.441926174703295871 0.1147409260168574807 0.5890906396693131875 
	1.446107247923436701 0.1360723263897390956 0.5941323315774902358 
	1.462143829919612115 0.1787189248258729546 0.5976879572043047872 
	1.504545519678047061 0.2303392777915773404 0.5823907730797899251 
	1.539565335093349363 0.2498404426142099011 0.5604012054197832216 
	1.557081879525273216 0.2549136420056179464 0.5475150078236337148 
	1.451547315735032928 0.1079172022910037942 0.6012369542094614383 
	1.454733951701671968 0.130816274778384728 0.6057323810983593626 
	1.470100832264958024 0.176592792239825519 0.6079956897746037203 
	1.515142074563850638 0.2305098081679919642 0.5904155330319365014 
	1.55335850827508537 0.2488584921431905572 0.5672172731175365579 
	1.572475705176052507 0.2526390674303334305 0.5539930422450459746 
	1.465514579500261982 0.1013801316747546116 0.6229102229055497597 
	1.466898835876996543 0.126397525479118672 0.6253390352876210256 
	1.480776044013047521 0.1764006911040058301 0.6236114681130646709 
	1.529771474157603839 0.2328924385885592085 0.6018843239326973071 
	1.573130247557119832 0.248876210726054925 0.5782230144263380556 
	1.594823327200419083 0.2504600438915837168 0.5655521188829597534 
	1.470443535811688074 0.09999999999999831246 0.631661453495518832 
	1.471100027473825733 0.125715162294495697 0.6330107778132636476 
	1.484318666934273612 0.177109812280330986 0.6292926632861627345 
	1.534740481009960522 0.2342977651949290918 0.6058757743984966027 
	1.5800427997833002 0.2492699308039237061 0.5824084857630721368 
	1.602709657298700741 0.2499999999999982236 0.5702194418642765328 
	1.474804602655283681 0.09999999999999831246 0.640625 
	1.474804602655283681 0.1261799387799132366 0.640625 
	1.487413648623201468 0.1785006629332828165 0.6344902750590887264 
	1.539098122892880172 0.2359777715636297013 0.6093440400333119955 
	1.586145881308619998 0.2499999999999982236 0.5864537232162126967 
	1.609687364248453711 0.2499999999999982236 0.5749999999999998446 
	0.0004245606003313665824 
	0 
	0 
	0 
	0 
	1 0 
	0 
	} I I I I 
	} 0 0 #
vertex $-1 -1 $-1 $346 $394 #
intcurve-curve $-1 -1 $-1 reversed { bldcur full nubs 3 open 6 
	-0.000976687224399080435 3 0.1524420814309433159 2 0.2820156958292498461 2 0.3815377332382965947 2 0.4580931466298709953 2 
	0.5059402799996050026 3 
	1.25 0.3249999999999981792 0.5 
	1.29091167164142484 0.3147720820896419691 0.5 
	1.332165884406854461 0.3044530028047136572 0.5020932182449975301 
	1.405996271674810227 0.2865447376268732693 0.5099884982954555612 
	1.439557569925851821 0.278621206956943257 0.5152415202972148167 
	1.495519070134211592 0.2663681007839704962 0.5276231642581719061 
	1.518926146433725588 0.2615781540302741792 0.5340789508660716001 
	1.557081879525273216 0.2549136420056179464 0.5475150078236337148 
	1.572475705176052507 0.2526390674303334305 0.5539930422450459746 
	1.594823327200419083 0.2504600438915837168 0.5655521188829597534 
	1.602709657298700741 0.2499999999999982236 0.5702194418642765328 
	1.609687364248453711 0.2499999999999982236 0.5749999999999998446 
	0.0004245606003313665824 
	spline reversed { ref 1 } I I I I 
	null_surface 
	nubs 1 open 2 
	-0.000976687224399080435 1 0.5059402799996050026 1 
	1 -0.000976687224399080435 
	1 0.5059402799996050026 
	
	nullbs 
	I I 
	0 
	1 0 
	0 
	surf1 } I I #
coedge $-1 -1 $-1 $395 $359 $309 $353 reversed $396 $-1 #
edge $-1 -1 $-1 $397 0.8404016781274332715 $321 0.8500000000000000888 $352 $398 forward @7 tangent #
ellipse-curve $-1 -1 $-1 1.850000000000000089 0.3249999999999981792 0.5749999999999999556 -1 -0 0 0 -0.05303300858899100828 -0.05303300858899106379 1 F -2.356194490192344393 F 1.611168898812142869 #
face $-1 -1 $-1 $399 $396 $3 $-1 $330 forward single #
cone-surface $-1 -1 $-1 1 0.3249999999999981792 0.5749999999999999556 1 -0 -0 0 -0.0530330085889910291 -0.0530330085889910291 1 I I 0 -1 0.07499999999999995559 forward I I I I #
coedge $-1 -1 $-1 $400 $324 $316 $358 reversed $366 $-1 #
edge $-1 -1 $-1 $401 0.5127971227640970575 $285 1.570796326794896558 $316 $402 forward @7 tangent #
coedge $-1 -1 $-1 $352 $395 $318 $360 reversed $396 $-1 #
edge $-1 -1 $-1 $321 0.07499999999999995559 $361 0.08071763399179809895 $359 $403 forward @7 tangent #
vertex $-1 -1 $-1 $380 $404 #
ellipse-curve $-1 -1 $-1 1.850000000000000089 0.09999999999999831246 0.5807176339917980989 -0 -0 -1 0 0.1499999999999999112 0 1 F 0 F 1.570796326794896558 #
point $-1 -1 $-1 1.850000000000000089 0.2499999999999982236 0.5749999999999999556 #
edge $-1 -1 $-1 $367 0.08749999999999991118 $327 0.1875 $323 $405 forward @7 tangent #
coedge $-1 -1 $-1 $324 $400 $406 $407 reversed $366 $-1 #
loop $-1 -1 $-1 $-1 $400 $408 #
vertex $-1 -1 $-1 $364 $409 #
ellipse-curve $-1 -1 $-1 1.75 0.09999999999999831246 0.75 0 1 0 0 0 0.2499999999999999445 1 F -1.570796326794896558 F 1.570796326794896558 #
point $-1 -1 $-1 1.5 -1.776356839400250465e-15 0.75 #
coedge $-1 -1 $-1 $388 $345 $410 $411 reversed $329 $-1 #
coedge $-1 -1 $-1 $406 $412 $331 $372 forward $413 $-1 #
edge $-1 -1 $-1 $414 -0.4023757185669175063 $367 0 $331 $415 forward @7 tangent #
loop $-1 -1 $-1 $416 $333 $399 #
vertex $-1 -1 $-1 $334 $417 #
ellipse-curve $-1 -1 $-1 1.742886543273925781 -4.440892098500626162e-16 0.7496161460876464844 4.440892098500626162e-16 1 1.776356839400250465e-15 0 0 0.0940556955300268227 1 I I #
face $-1 -1 $-1 $408 $413 $3 $-1 $418 forward single #
spline-surface $-1 -1 $-1 reversed { ref 1 } I I I I #
coedge $-1 -1 $-1 $410 $381 $412 $419 forward $336 $-1 #
coedge $-1 -1 $-1 $420 $421 $338 $380 forward $422 $-1 #
edge $-1 -1 $-1 $401 -0.0003837127418163110981 $361 0.1852851940801083508 $379 $423 forward @7 unknown #
coedge $-1 -1 $-1 $378 $391 $340 $382 forward $336 $-1 #
edge $-1 -1 $-1 $384 -0.0651178464395495149 $414 -0.0146769702615409791 $340 $424 forward @7 tangent #
pcurve $-1 -1 $-1 0 forward { exppc nubs 1 open 2 
	-0.0009766872243990865066 1 0.5059402799996051137 1 
	0 -0.000976687224399080435 
	0 0.5059402799996050026 
	0 
	spline reversed { ref 1 } I I I I 
	} 0 0 #
vertex $-1 -1 $-1 $382 $425 #
intcurve-curve $-1 -1 $-1 forward { bldcur full nubs 3 open 6 
	-0.000976687224399080435 3 0.1524420814309433159 2 0.2820156958292498461 2 0.3815377332382965947 2 0.4580931466298709953 2 
	0.5059402799996050026 3 
	1.25 0.3249999999999981792 0.5 
	1.275569794775890609 0.2943162462689294934 0.5 
	1.301353677754284011 0.2633590084141447241 0.5039247842093702578 
	1.347497669796756448 0.209634212880623394 0.5187284343039791912 
	1.368473481203657416 0.1858636208708334681 0.5285778505572776842 
	1.40344941883388219 0.149104302351915019 0.5517934329840722407 
	1.418078841521078548 0.1347344620908262347 0.5638980328738841807 
	1.441926174703295871 0.1147409260168574807 0.5890906396693131875 
	1.451547315735032928 0.1079172022910037942 0.6012369542094614383 
	1.465514579500261982 0.1013801316747546116 0.6229102229055497597 
	1.470443535811688074 0.09999999999999831246 0.631661453495518832 
	1.474804602655283681 0.09999999999999831246 0.640625 
	0.0004245606003313665824 
	spline reversed { ref 1 } I I I I 
	null_surface 
	nubs 1 open 2 
	-0.000976687224399080435 1 0.5059402799996050026 1 
	0 -0.000976687224399080435 
	0 0.5059402799996050026 
	
	nullbs 
	I I 
	0 
	1 0 
	0 
	surf1 } I I #
coedge $-1 -1 $-1 $426 $420 $344 $387 forward $422 $-1 #
edge $-1 -1 $-1 $397 -0.8657776620710284643 $389 -0.6570208129026072763 $344 $427 reversed @7 unknown #
coedge $-1 -1 $-1 $345 $370 $426 $428 forward $329 $-1 #
vertex $-1 -1 $-1 $428 $429 #
straight-curve $-1 -1 $-1 1 0.2499999999999982236 0.5749999999999999556 -1 0 0 I I #
coedge $-1 -1 $-1 $381 $410 $347 $392 forward $336 $-1 #
edge $-1 -1 $-1 $350 -3.232752438644476171e-32 $384 1.570796326794895226 $391 $430 forward @7 tangent #
pcurve $-1 -1 $-1 0 forward { exppc nubs 1 open 2 
	-1.570796326794895226 1 0 1 
	0 0.5059402799996050026 
	1 0.5059402799996050026 
	0 
	spline reversed { ref 1 } I I I I 
	} 0 0 #
point $-1 -1 $-1 1.609687364248453711 0.2499999999999982236 0.5749999999999999556 #
coedge $-1 -1 $-1 $359 $352 $420 $431 forward $396 $-1 #
loop $-1 -1 $-1 $-1 $359 $355 #
vertex $-1 -1 $-1 $431 $432 #
straight-curve $-1 -1 $-1 1 0.2499999999999982236 0.5749999999999999556 1 -0 -0 F -1.082500999999999935 F 1.232501000000000069 #
face $-1 -1 $-1 $433 $373 $3 $-1 $434 reversed single #
coedge $-1 -1 $-1 $365 $357 $421 $435 forward $366 $-1 #
vertex $-1 -1 $-1 $380 $436 #
ellipse-curve $-1 -1 $-1 1.850000000000000089 0.09999999999999831246 0.75 -0 -0 -1 0 0.1499999999999999112 0 1 F 0 F 1.570796326794896558 #
straight-curve $-1 -1 $-1 1.850000000000000089 0.2499999999999982236 0.5 0 -0 1 F -0.09000099999999994216 F 0.4150009999999999533 #
point $-1 -1 $-1 1.850000000000000089 0.2499999999999982236 0.5807176339917980989 #
straight-curve $-1 -1 $-1 1.5 0.1874999999999982236 0.75 0 -1 0 F -0.8375009999999998289 F 0.9625009999999999399 #
coedge $-1 -1 $-1 $437 $371 $365 $407 forward $413 $-1 #
edge $-1 -1 $-1 $367 0 $438 0.9889724414216689574 $406 $439 forward @7 tangent #
face $-1 -1 $-1 $136 $366 $3 $-1 $440 forward single #
point $-1 -1 $-1 1.5 0.09999999999999831246 0.75 #
coedge $-1 -1 $-1 $391 $378 $370 $411 forward $336 $-1 #
edge $-1 -1 $-1 $441 0.01467697026154115431 $350 0.06511784643954941776 $370 $442 forward @7 tangent #
coedge $-1 -1 $-1 $371 $437 $378 $419 reversed $413 $-1 #
loop $-1 -1 $-1 $-1 $437 $376 #
vertex $-1 -1 $-1 $382 $443 #
ellipse-curve $-1 -1 $-1 1.25 0.09999999999999831246 0.75 -0 -1 -0 0.2499999999999999445 0 0 1 F -1.996406840382665582 F 1.996406840382665582 #
loop $-1 -1 $-1 $-1 $444 $399 #
point $-1 -1 $-1 1.742886543273925781 -4.440892098500626162e-16 0.6555604505576196894 #
torus-surface $-1 -1 $-1 1.25 0.09999999999999831246 0.75 -0 -1 -0 0.3999999999999998557 0.1499999999999999112 0 0 -1 forward_v I I I I #
edge $-1 -1 $-1 $414 0 $441 1.570796326794895226 $378 $445 forward @7 tangent #
coedge $-1 -1 $-1 $386 $379 $395 $431 reversed $422 $-1 #
coedge $-1 -1 $-1 $379 $446 $400 $435 reversed $422 $-1 #
loop $-1 -1 $-1 $447 $379 $433 #
intcurve-curve $-1 -1 $-1 forward { surfintcur full nubs 3 open 5 
	-0.0003837127418163110981 3 0 3 0.07803191072828732922 2 0.1560638214565746584 2 0.1852851940801083508 3 
	1.92359247612598061 0.2307063405411019508 0.75 
	1.923592650077368571 0.2307062426000738575 0.7498720017927704706 
	1.923592736957148164 0.230706193683220484 0.7497440503349185326 
	1.923592736957148164 0.230706193683220484 0.7496161460876464844 
	1.923592736957148164 0.230706193683220484 0.7236055091782174209 
	1.919872714623408916 0.2330400714619536018 0.6956429546429326871 
	1.903375063674381584 0.2404740692048930317 0.6435154617549700973 
	1.890774368387932558 0.2454429052744687145 0.6192760631326172938 
	1.866628095151031452 0.2492241504665254348 0.5931839105195672035 
	1.858733348410216202 0.2499999999999982236 0.5862562211907224041 
	1.850000000000000089 0.2499999999999982236 0.5807176339917980989 
	0.000216184608182404031 
	cone 1.742886543273925781 0.2089255650988771362 0.7496161460876464844 0 -1 0 0 0 0.1589255650988790347 1 I I 0.7071067811865474617 -0.7071067811865475727 0.1589255650988790347 forward I I I I 
	cone 1.850000000000000089 0.09999999999999831246 0.5 -0 0 -1 0.1060660171779820582 0.1060660171779820582 0 1 I I 0 1 0.1499999999999999112 forward I I I I 
	nullbs 
	nullbs 
	I I 
	0 
	0 
	0 
	} I I #
ellipse-curve $-1 -1 $-1 1.25 0.09999999999999831246 0.75 -0 -1 -0 0.2314453798182119215 0 -0.09451474044192043067 1 F -0.9083731806553893007 F 0.8128954756562517536 #
point $-1 -1 $-1 1.474804602655283459 0.09999999999999831246 0.640625 #
coedge $-1 -1 $-1 $446 $386 $388 $428 reversed $422 $-1 #
intcurve-curve $-1 -1 $-1 forward { surfintcur full nubs 3 periodic 29 
	0 3 0.09000937513303972071 2 0.1800187502660794414 2 0.2930671440562689911 2 0.3343065473410939403 2 
	0.348099516817396426 2 0.3618924862936989117 2 0.3790357537280408806 2 0.3961790211623828495 2 0.4304655560310667872 2 
	0.4953275239787467976 2 0.5601894919264267525 2 0.6607943647066221171 2 0.7110968010967197994 2 0.7613992374868175927 2 
	0.8117016738769153861 2 0.8620041102670130684 2 0.962608983047208433 2 1.027470950994888277 2 1.092332918942568343 2 
	1.126619453811252392 2 1.143762721245594305 2 1.160905988679936218 2 1.174698958156238593 2 1.18849192763254119 2 
	1.229731330917366305 2 1.342779724707555911 2 1.432789099840595659 2 1.522798474973635408 3 
	1.742886543273925781 0.2919332144571299414 0.5076829316305147 
	1.712883418229579124 0.2919332144571299414 0.5076829316305147 
	1.683451824549452081 0.3027586151901071054 0.5024156516246109927 
	1.623891345537066933 0.3259753593696616547 0.4990994691669117245 
	1.594175821972140472 0.339294624589425553 0.5002490115766660139 
	1.533092084444940051 0.3665871516486764459 0.5105095741989540414 
	1.493712756936993458 0.3847261010742308862 0.5233562614344139385 
	1.454853002839531673 0.397689663671204674 0.5544502307188859946 
	1.443790373715947206 0.4005048952861200995 0.5663583308677153649 
	1.435532042139437303 0.3997145653622541372 0.5827193281728731966 
	1.433709267664834197 0.3991285069635511773 0.5873748825096705151 
	1.431405883552736569 0.3969381969725369608 0.5967501523071044867 
	1.430932360468939013 0.3953242146157432968 0.601469331608867841 
	1.43123133206715214 0.3911099407235230641 0.6108762165466545824 
	1.432275455650377616 0.3882370630166926961 0.6156899324764987247 
	1.435711888641640233 0.3817022581715998064 0.6243909158437059848 
	1.438106461450617823 0.378039291846247183 0.6282765086241111074 
	1.446685393394882224 0.3663621203016824146 0.6384065038316699692 
	1.454299680602187284 0.3576268731703661774 0.6430707764563909912 
	1.476222792152703578 0.3342573469417180476 0.6511647208653362773 
	1.493013176827214572 0.3183506444268635605 0.6511661350364202905 
	1.527841280005011182 0.2898304273981873735 0.6428865540965343905 
	1.545996265278586357 0.2774166264359713696 0.6344136318319637535 
	1.590056249175850311 0.2554438675737455422 0.6095528716686913207 
	1.618692795890676939 0.2496143040288271997 0.589625463179374032 
	1.663775163360122766 0.2502278045964384523 0.5648829392090457535 
	1.679085154394134749 0.2518433025804045489 0.557412027359871276 
	1.71026530666821075 0.2555865089643592492 0.5459645731416594705 
	1.726119064477226406 0.2576829316305129236 0.5419332144571316068 
	1.759654022070625157 0.2576829316305129236 0.5419332144571316068 
	1.775507779879640369 0.2555865089643592492 0.5459645731416595815 
	1.806687932153716147 0.2518433025804044934 0.5574120273598713871 
	1.821997923187728352 0.2502278045964384523 0.5648829392090455315 
	1.86708029065717418 0.2496143040288271442 0.5896254631793736989 
	1.895716837372001029 0.2554438675737455422 0.6095528716686914317 
	1.939776821269265206 0.2774166264359713696 0.6344136318319637535 
	1.957931806542840603 0.2898304273981875956 0.6428865540965345016 
	1.992759909720637213 0.318350644426863838 0.6511661350364202905 
	2.009550294395148207 0.3342573469417180476 0.6511647208653363883 
	2.031473405945664279 0.3576268731703662329 0.6430707764563909912 
	2.039087693152969116 0.3663621203016821926 0.6384065038316700802 
	2.047666625097233517 0.3780392918462470719 0.6282765086241112185 
	2.05006119790621133 0.3817022581715997509 0.6243909158437060958 
	2.053497630897473503 0.3882370630166927516 0.6156899324764986137 
	2.054541754480699645 0.3911099407235231196 0.6108762165466545824 
	2.054840726078912105 0.3953242146157432968 0.601469331608867841 
	2.054367202995114994 0.3969381969725369608 0.5967501523071043756 
	2.052063818883017365 0.3991285069635511218 0.587374882509670404 
	2.050241044408414481 0.3997145653622541372 0.5827193281728731966 
	2.041982712831904578 0.400504895286120155 0.5663583308677153649 
	2.03092008370831989 0.397689663671204674 0.5544502307188859946 
	1.992060329610858105 0.3847261010742308862 0.5233562614344139385 
	1.952681002102911512 0.3665871516486764459 0.5105095741989540414 
	1.89159726457571109 0.339294624589425553 0.5002490115766660139 
	1.86188174101078463 0.3259753593696616547 0.4990994691669117245 
	1.802321261998399482 0.3027586151901071054 0.5024156516246109927 
	1.772889668318272438 0.2919332144571299414 0.5076829316305147 
	1.742886543273925781 0.2919332144571299414 0.5076829316305147 
	0.0003908741789092343632 
	cone 1 0.3249999999999981792 0.5749999999999999556 1 -0 -0 0 -0.0530330085889910291 -0.0530330085889910291 1 I I 0 -1 0.07499999999999995559 forward I I I I 
	cone 1.742886543273925781 0.2089255650988771362 0.7496161460876464844 0 -1 0 0 0 0.1589255650988790347 1 I I 0.7071067811865474617 -0.7071067811865475727 0.1589255650988790347 forward I I I I 
	nullbs 
	nullbs 
	I I 
	0 
	0 
	0 
	} I I #
edge $-1 -1 $-1 $441 2.467528755339395641 $389 2.632281809157531072 $388 $448 forward @7 unknown #
point $-1 -1 $-1 1.645371408420418291 0.2499999999999982236 0.5749999999999999556 #
ellipse-curve $-1 -1 $-1 1.609687364248453934 0.09999999999999831246 0.5749999999999999556 0.4374999999999996114 6.476300976980078504e-16 0.8992184106211351668 -2.220446049250313081e-16 0.1499999999999999112 0 1 F -3.232752438644476171e-32 F 1.570796326794895226 #
edge $-1 -1 $-1 $397 -2.632281809157531072 $361 -2.576413304459286291 $395 $448 forward @7 unknown #
point $-1 -1 $-1 1.840401678127433271 0.2499999999999982236 0.5749999999999999556 #
face $-1 -1 $-1 $449 $422 $3 $-1 $450 reversed single #
cone-surface $-1 -1 $-1 1.742886543273925781 -0.02110831191737888579 0.7496161460876464844 0 -1 0 0 0 0.05892556509887897365 1 I I -0.8571673007021121116 0.5150380749100543776 0.05892556509887897365 forward I I I I #
edge $-1 -1 $-1 $401 1.112641963624591668 $438 1.673252714229291449 $421 $451 forward @7 unknown #
point $-1 -1 $-1 1.92359247612598061 0.2307063405411019508 0.75 #
coedge $-1 -1 $-1 $412 $406 $446 $452 forward $413 $-1 #
vertex $-1 -1 $-1 $452 $453 #
ellipse-curve $-1 -1 $-1 1.649999999999999911 0.09999999999999831246 0.75 -0 0 -1 -0.1499999999999999112 0 0 1 F 0 F 1.570796326794896558 #
torus-surface $-1 -1 $-1 1.75 0.09999999999999831246 0.75 -0 -1 -0 0.1000000000000000194 0.1499999999999999112 0 0 -1 forward_v I I I I #
vertex $-1 -1 $-1 $428 $454 #
ellipse-curve $-1 -1 $-1 1.25 0.2499999999999982236 0.75 0 1 0 0.3703126077091390411 0 -0.1512235847070726724 1 F -0.8128954756562517536 F 0.9083731806553893007 #
point $-1 -1 $-1 1.48003331180907427 0.09999999999999831246 0.6520986442476446321 #
coedge $-1 -1 $-1 $444 $444 $455 $456 reversed $416 $-1 #
ellipse-curve $-1 -1 $-1 1.618053298894518655 0.09999999999999831246 0.5933578307962315002 -0.3916054230094213606 -5.796924762575118357e-16 -0.9201332472362968584 -0.1380199870854443844 0 0.05874081345141313193 1 F 0 F 1.570796326794895226 #
coedge $-1 -1 $-1 $421 $426 $437 $452 reversed $422 $-1 #
loop $-1 -1 $-1 $-1 $457 $433 #
ellipse-curve $-1 -1 $-1 1.742886543273925781 0.2499999999999982236 0.7496161460876464844 -0 -1 -0 0 0 0.2000000000000001221 1 I I #
face $-1 -1 $-1 $245 $458 $3 $-1 $459 reversed single #
cone-surface $-1 -1 $-1 1.742886543273925781 0.2089255650988771362 0.7496161460876464844 0 -1 0 0 0 0.1589255650988790347 1 I I -0.7071067811865474617 0.7071067811865475727 0.1589255650988790347 forward I I I I #
intcurve-curve $-1 -1 $-1 forward { surfintcur full nubs 3 open 10 
	1.112641963624591668 3 1.122005701247259513 3 1.191593775296331481 2 1.261256792457655873 2 1.331002083650639545 2 
	1.400832792865430942 2 1.470728733014494694 2 1.540635776693586534 2 1.610474249757421816 2 1.673252714229291449 3 
	1.92359247612598061 0.2307063405411019508 0.75 
	1.923588238985212584 0.2307087262071646772 0.7531178045098319007 
	1.923502119876282501 0.2307099215282155114 0.7562366750045941277 
	1.923333936961417301 0.2307099215282155114 0.759353386462926272 
	1.922084059444015613 0.2307099215282155114 0.7825157129282653834 
	1.91632051826998917 0.2306439969731332307 0.8052122966112376101 
	1.896404583247470521 0.2303864378685420711 0.8471387580110518734 
	1.882434109028771507 0.2301970897001150707 0.8659628946703880059 
	1.848035692798907226 0.2297157073968713048 0.8972026083700609389 
	1.827930920226503497 0.2294281138551219623 0.9093101812136875628 
	1.784179269602670148 0.2287887676945555004 0.92512096443950953 
	1.76095000547963898 0.2284430545610345031 0.9286613857289035545 
	1.714425574379358608 0.227737644260221278 0.9265998133368630318 
	1.691579862028269599 0.2273847485356725873 0.9210091949347721796 
	1.649336912688699419 0.2267200741830654731 0.9013436233774089201 
	1.630348361195077533 0.2264147705221575546 0.8874573308888917822 
	1.598814897854778927 0.2258960204127811455 0.8531756455529588834 
	1.586567649538707103 0.2256875521622027925 0.83311711631701868 
	1.571299060228421807 0.225413253937485375 0.7916329908161706674 
	1.567595294992243593 0.225337407357827757 0.7708904772644932235 
	1.56756770453669203 0.2253192589534804002 0.749999999999999778 
	8.8263634387484537e-08 
	torus 1.75 0.09999999999999831246 0.75 -0 -1 -0 0.1000000000000000194 0.1499999999999999112 0 0 -1 forward_v I I I I 
	cone 1.742886543273925781 0.2089255650988771362 0.7496161460876464844 0 -1 0 0 0 0.1589255650988790347 1 I I 0.7071067811865474617 -0.7071067811865475727 0.1589255650988790347 forward I I I I 
	nullbs 
	nullbs 
	I I 
	0 
	0 
	0 
	} I I #
edge $-1 -1 $-1 $438 0.45076035587754959 $441 0.6013476126916122988 $446 $460 forward @7 unknown #
point $-1 -1 $-1 1.56756770453669203 0.2253192589534803725 0.75 #
point $-1 -1 $-1 1.618053298894518433 0.2499999999999982236 0.5933578307962315002 #
coedge $-1 -1 $-1 $455 $455 $444 $456 forward $461 $-1 #
edge $-1 -1 $-1 $462 0 $462 6.283185307179586232 $455 $463 forward @7 unknown #
coedge $-1 -1 $-1 $457 $457 $464 $465 forward $447 $-1 #
loop $-1 -1 $-1 $461 $464 $449 #
cone-surface $-1 -1 $-1 1.742886543273925781 0.1321488698022402763 0.7496161460876464844 0 -1 0 0 0 0.1178511301977579473 1 I I 0 1 0.1178511301977579473 forward I I I I #
intcurve-curve $-1 -1 $-1 forward { surfintcur full nubs 3 open 5 
	0.45076035587754959 3 0.4925195518875493117 2 0.5379490622821275769 2 0.5797943744447454639 2 0.6013476126916122988 3 
	1.56756770453669203 0.2253192589534803725 0.75 
	1.567545393100599149 0.2253045829738458128 0.7331066019346833551 
	1.568412719428946112 0.2268558818192599191 0.7164226699106039931 
	1.572543141670283529 0.2323221257069964518 0.6822513374613037307 
	1.575994488757092915 0.236292330895498004 0.6653459163705949253 
	1.585970643024618321 0.2432746318142919306 0.6358433470471298588 
	1.592577164761412201 0.2466013563883889537 0.6220013910527412149 
	1.606594999785127653 0.2494398041972914482 0.6038049726331387035 
	1.611988712607081542 0.2499999999999982236 0.5982027696442392406 
	1.618053298894518433 0.2499999999999982236 0.5933578307962315002 
	2.09128966002233182e-05 
	torus 1.25 0.09999999999999831246 0.75 -0 -1 -0 0.3999999999999998557 0.1499999999999999112 0 0 -1 forward_v I I I I 
	cone 1.742886543273925781 0.2089255650988771362 0.7496161460876464844 0 -1 0 0 0 0.1589255650988790347 1 I I 0.7071067811865474617 -0.7071067811865475727 0.1589255650988790347 forward I I I I 
	nullbs 
	nullbs 
	I I 
	0 
	0 
	0 
	} I I #
loop $-1 -1 $-1 $-1 $455 $449 #
vertex $-1 -1 $-1 $456 $466 #
ellipse-curve $-1 -1 $-1 1.742886543273925781 0.01429773960448235681 0.7496161460876464844 0 -1 0 0 0 0.1178511301977579473 1 I I #
coedge $-1 -1 $-1 $464 $464 $457 $465 reversed $458 $-1 #
edge $-1 -1 $-1 $467 0 $467 6.283185307179586232 $464 $468 forward @7 unknown #
point $-1 -1 $-1 1.742886543273925781 0.01429773960448235681 0.8674672762854044317 #
vertex $-1 -1 $-1 $465 $469 #
ellipse-curve $-1 -1 $-1 1.742886543273925781 0.1678511301977560211 0.7496161460876464844 0 -1 0 0 0 0.1178511301977579473 1 I I #
point $-1 -1 $-1 1.742886543273925781 0.1678511301977560488 0.8674672762854044317 #
End-of-ACIS-data 