  0
SECTION
  2
HEADER
  9
$ACADVER
  1
AC1018
  9
$ACADMAINTVER
 70
     0
  9
$DWGCODEPAGE
  3
ANSI_932
  9
$INSBASE
 10
0.0
 20
0.0
 30
0.0
  9
$EXTMIN
 10
1.000000000000000E+20
 20
1.000000000000000E+20
 30
1.000000000000000E+20
  9
$EXTMAX
 10
-1.000000000000000E+20
 20
-1.000000000000000E+20
 30
-1.000000000000000E+20
  9
$LIMMIN
 10
0.0
 20
0.0
  9
$LIMMAX
 10
12.0
 20
9.0
  9
$ORTHOMODE
 70
     0
  9
$REGENMODE
 70
     1
  9
$FILLMODE
 70
     1
  9
$QTEXTMODE
 70
     0
  9
$MIRRTEXT
 70
     1
  9
$LTSCALE
 40
1.0
  9
$ATTMODE
 70
     1
  9
$TEXTSIZE
 40
0.2
  9
$TRACEWID
 40
0.05
  9
$TEXTSTYLE
  7
Standard
  9
$CLAYER
  8
0
  9
$CELTYPE
  6
ByLayer
  9
$CECOLOR
 62
   256
  9
$CELTSCALE
 40
1.0
  9
$DISPSILH
 70
     0
  9
$DIMSCALE
 40
1.0
  9
$DIMASZ
 40
0.18
  9
$DIMEXO
 40
0.0625
  9
$DIMDLI
 40
0.38
  9
$DIMRND
 40
0.0
  9
$DIMDLE
 40
0.0
  9
$DIMEXE
 40
0.18
  9
$DIMTP
 40
0.0
  9
$DIMTM
 40
0.0
  9
$DIMTXT
 40
0.18
  9
$DIMCEN
 40
0.09
  9
$DIMTSZ
 40
0.0
  9
$DIMTOL
 70
     0
  9
$DIMLIM
 70
     0
  9
$DIMTIH
 70
     1
  9
$DIMTOH
 70
     1
  9
$DIMSE1
 70
     0
  9
$DIMSE2
 70
     0
  9
$DIMTAD
 70
     0
  9
$DIMZIN
 70
     0
  9
$DIMBLK
  1

  9
$DIMASO
 70
     1
  9
$DIMSHO
 70
     1
  9
$DIMPOST
  1

  9
$DIMAPOST
  1

  9
$DIMALT
 70
     0
  9
$DIMALTD
 70
     2
  9
$DIMALTF
 40
25.4
  9
$DIMLFAC
 40
1.0
  9
$DIMTOFL
 70
     0
  9
$DIMTVP
 40
0.0
  9
$DIMTIX
 70
     0
  9
$DIMSOXD
 70
     0
  9
$DIMSAH
 70
     0
  9
$DIMBLK1
  1

  9
$DIMBLK2
  1

  9
$DIMSTYLE
  2
Standard
  9
$DIMCLRD
 70
     0
  9
$DIMCLRE
 70
     0
  9
$DIMCLRT
 70
     0
  9
$DIMTFAC
 40
1.0
  9
$DIMGAP
 40
0.09
  9
$DIMJUST
 70
     0
  9
$DIMSD1
 70
     0
  9
$DIMSD2
 70
     0
  9
$DIMTOLJ
 70
     1
  9
$DIMTZIN
 70
     0
  9
$DIMALTZ
 70
     0
  9
$DIMALTTZ
 70
     0
  9
$DIMUPT
 70
     0
  9
$DIMDEC
 70
     4
  9
$DIMTDEC
 70
     4
  9
$DIMALTU
 70
     2
  9
$DIMALTTD
 70
     2
  9
$DIMTXSTY
  7
Standard
  9
$DIMAUNIT
 70
     0
  9
$DIMADEC
 70
     0
  9
$DIMALTRND
 40
0.0
  9
$DIMAZIN
 70
     0
  9
$DIMDSEP
 70
    46
  9
$DIMATFIT
 70
     3
  9
$DIMFRAC
 70
     0
  9
$DIMLDRBLK
  1

  9
$DIMLUNIT
 70
     2
  9
$DIMLWD
 70
    -2
  9
$DIMLWE
 70
    -2
  9
$DIMTMOVE
 70
     0
  9
$LUNITS
 70
     2
  9
$LUPREC
 70
     4
  9
$SKETCHINC
 40
0.1
  9
$FILLETRAD
 40
0.5
  9
$AUNITS
 70
     0
  9
$AUPREC
 70
     0
  9
$MENU
  1
.
  9
$ELEVATION
 40
0.0
  9
$PELEVATION
 40
0.0
  9
$THICKNESS
 40
0.0
  9
$LIMCHECK
 70
     0
  9
$CHAMFERA
 40
0.5
  9
$CHAMFERB
 40
0.5
  9
$CHAMFERC
 40
1.0
  9
$CHAMFERD
 40
0.0
  9
$SKPOLY
 70
     0
  9
$TDCREATE
 40
2456308.657905092
  9
$TDUCREATE
 40
2456308.991238426
  9
$TDUPDATE
 40
2456308.657905104
  9
$TDUUPDATE
 40
2456308.991238438
  9
$TDINDWG
 40
0.0000000116
  9
$TDUSRTIMER
 40
0.0000000116
  9
$USRTIMER
 70
     1
  9
$ANGBASE
 50
0.0
  9
$ANGDIR
 70
     0
  9
$PDMODE
 70
     0
  9
$PDSIZE
 40
0.0
  9
$PLINEWID
 40
0.0
  9
$SPLFRAME
 70
     0
  9
$SPLINETYPE
 70
     6
  9
$SPLINESEGS
 70
     8
  9
$HANDSEED
  5
49
  9
$SURFTAB1
 70
     6
  9
$SURFTAB2
 70
     6
  9
$SURFTYPE
 70
     6
  9
$SURFU
 70
     6
  9
$SURFV
 70
     6
  9
$UCSBASE
  2

  9
$UCSNAME
  2

  9
$UCSORG
 10
0.0
 20
0.0
 30
0.0
  9
$UCSXDIR
 10
1.0
 20
0.0
 30
0.0
  9
$UCSYDIR
 10
0.0
 20
1.0
 30
0.0
  9
$UCSORTHOREF
  2

  9
$UCSORTHOVIEW
 70
     0
  9
$UCSORGTOP
 10
0.0
 20
0.0
 30
0.0
  9
$UCSORGBOTTOM
 10
0.0
 20
0.0
 30
0.0
  9
$UCSORGLEFT
 10
0.0
 20
0.0
 30
0.0
  9
$UCSORGRIGHT
 10
0.0
 20
0.0
 30
0.0
  9
$UCSORGFRONT
 10
0.0
 20
0.0
 30
0.0
  9
$UCSORGBACK
 10
0.0
 20
0.0
 30
0.0
  9
$PUCSBASE
  2

  9
$PUCSNAME
  2

  9
$PUCSORG
 10
0.0
 20
0.0
 30
0.0
  9
$PUCSXDIR
 10
1.0
 20
0.0
 30
0.0
  9
$PUCSYDIR
 10
0.0
 20
1.0
 30
0.0
  9
$PUCSORTHOREF
  2

  9
$PUCSORTHOVIEW
 70
     0
  9
$PUCSORGTOP
 10
0.0
 20
0.0
 30
0.0
  9
$PUCSORGBOTTOM
 10
0.0
 20
0.0
 30
0.0
  9
$PUCSORGLEFT
 10
0.0
 20
0.0
 30
0.0
  9
$PUCSORGRIGHT
 10
0.0
 20
0.0
 30
0.0
  9
$PUCSORGFRONT
 10
0.0
 20
0.0
 30
0.0
  9
$PUCSORGBACK
 10
0.0
 20
0.0
 30
0.0
  9
$USERI1
 70
     0
  9
$USERI2
 70
     0
  9
$USERI3
 70
     0
  9
$USERI4
 70
     0
  9
$USERI5
 70
     0
  9
$USERR1
 40
0.0
  9
$USERR2
 40
0.0
  9
$USERR3
 40
0.0
  9
$USERR4
 40
0.0
  9
$USERR5
 40
0.0
  9
$WORLDVIEW
 70
     1
  9
$SHADEDGE
 70
     3
  9
$SHADEDIF
 70
    70
  9
$TILEMODE
 70
     1
  9
$MAXACTVP
 70
    64
  9
$PINSBASE
 10
0.0
 20
0.0
 30
0.0
  9
$PLIMCHECK
 70
     0
  9
$PEXTMIN
 10
1.000000000000000E+20
 20
1.000000000000000E+20
 30
1.000000000000000E+20
  9
$PEXTMAX
 10
-1.000000000000000E+20
 20
-1.000000000000000E+20
 30
-1.000000000000000E+20
  9
$PLIMMIN
 10
0.0
 20
0.0
  9
$PLIMMAX
 10
12.0
 20
9.0
  9
$UNITMODE
 70
     0
  9
$VISRETAIN
 70
     1
  9
$PLINEGEN
 70
     0
  9
$PSLTSCALE
 70
     1
  9
$TREEDEPTH
 70
  3020
  9
$CMLSTYLE
  2
Standard
  9
$CMLJUST
 70
     0
  9
$CMLSCALE
 40
1.0
  9
$PROXYGRAPHICS
 70
     1
  9
$MEASUREMENT
 70
     0
  9
$CELWEIGHT
370
    -1
  9
$ENDCAPS
280
     0
  9
$JOINSTYLE
280
     0
  9
$LWDISPLAY
290
     1
  9
$INSUNITS
 70
     1
  9
$HYPERLINKBASE
  1

  9
$STYLESHEET
  1

  9
$XEDIT
290
     1
  9
$CEPSNTYPE
380
     0
  9
$PSTYLEMODE
290
     1
  9
$FINGERPRINTGUID
  2
{89B796A5-ABE9-5043-557B-E31FAE711731}
  9
$VERSIONGUID
  2
{FAEB1C32-E019-11D5-929B-00C0DF256EC4}
  9
$EXTNAMES
290
     1
  9
$PSVPSCALE
 40
0.0
  9
$OLESTARTUP
290
     0
  9
$SORTENTS
280
   127
  9
$INDEXCTL
280
     0
  9
$HIDETEXT
280
     1
  9
$XCLIPFRAME
290
     0
  9
$HALOGAP
280
     0
  9
$OBSCOLOR
 70
   257
  9
$OBSLTYPE
280
     0
  9
$INTERSECTIONDISPLAY
280
     0
  9
$INTERSECTIONCOLOR
 70
   257
  9
$DIMASSOC
280
     2
  9
$PROJECTNAME
  1

  0
ENDSEC
  0
SECTION
  2
CLASSES
  0
CLASS
  1
ACDBDICTIONARYWDFLT
  2
AcDbDictionaryWithDefault
  3
ObjectDBX Classes
 90
        0
 91
        3
280
     0
281
     0
  0
CLASS
  1
VISUALSTYLE
  2
AcDbVisualStyle
  3
ObjectDBX Classes
 90
     4095
 91
        3
280
     0
281
     0
  0
ENDSEC
  0
SECTION
  2
TABLES
  0
TABLE
  2
VPORT
  5
8
330
0
100
AcDbSymbolTable
 70
     1
  0
VPORT
  5
29
330
8
100
AcDbSymbolTableRecord
100
AcDbViewportTableRecord
  2
*Active
 70
     0
 10
0.0
 20
0.0
 11
1.0
 21
1.0
 12
0.0
 22
0.0
 13
0.0
 23
0.0
 14
0.5
 24
0.5
 15
0.5
 25
0.5
 16
0.0
 26
0.0
 36
1.0
 17
105.0008952513716
 27
-148.5000775824991
 37
0.0
 40
297.0001551649982
 41
0.7070763662937379
 42
50.0
 43
0.0
 44
0.0
 50
0.0
 51
0.0
 71
     0
 72
   100
 73
     1
 74
     3
 75
     0
 76
     0
 77
     0
 78
     0
281
     0
 65
     1
110
0.0
120
0.0
130
0.0
111
1.0
121
0.0
131
0.0
112
0.0
122
1.0
132
0.0
 79
     0
146
0.0
  0
ENDTAB
  0
TABLE
  2
LTYPE
  5
5
330
0
100
AcDbSymbolTable
 70
     1
  0
LTYPE
  5
14
330
5
100
AcDbSymbolTableRecord
100
AcDbLinetypeTableRecord
  2
ByBlock
 70
     0
  3

 72
    65
 73
     0
 40
0.0
  0
LTYPE
  5
15
330
5
100
AcDbSymbolTableRecord
100
AcDbLinetypeTableRecord
  2
ByLayer
 70
     0
  3

 72
    65
 73
     0
 40
0.0
  0
LTYPE
  5
16
330
5
100
AcDbSymbolTableRecord
100
AcDbLinetypeTableRecord
  2
Continuous
 70
     0
  3
Solid line
 72
    65
 73
     0
 40
0.0
  0
ENDTAB
  0
TABLE
  2
LAYER
  5
2
330
0
100
AcDbSymbolTable
 70
     2
  0
LAYER
  5
10
330
2
100
AcDbSymbolTableRecord
100
AcDbLayerTableRecord
  2
0
 70
     0
 62
     7
  6
Continuous
370
    -3
390
F
  0
LAYER
  5
3B
330
2
100
AcDbSymbolTableRecord
100
AcDbLayerTableRecord
  2
Layer 1
 70
     0
 62
     7
  6
Continuous
370
    -3
390
F
  0
ENDTAB
  0
TABLE
  2
STYLE
  5
3
330
0
100
AcDbSymbolTable
 70
     1
  0
STYLE
  5
11
330
3
100
AcDbSymbolTableRecord
100
AcDbTextStyleTableRecord
  2
Standard
 70
     0
 40
0.0
 41
1.0
 50
0.0
 71
     0
 42
0.2
  3
txt
  4

  0
ENDTAB
  0
TABLE
  2
VIEW
  5
6
330
0
100
AcDbSymbolTable
 70
     0
  0
ENDTAB
  0
TABLE
  2
UCS
  5
7
330
0
100
AcDbSymbolTable
 70
     0
  0
ENDTAB
  0
TABLE
  2
APPID
  5
9
330
0
100
AcDbSymbolTable
 70
     1
  0
APPID
  5
12
330
9
100
AcDbSymbolTableRecord
100
AcDbRegAppTableRecord
  2
ACAD
 70
     0
  0
ENDTAB
  0
TABLE
  2
DIMSTYLE
  5
A
330
0
100
AcDbSymbolTable
 70
     1
100
AcDbDimStyleTable
  0
DIMSTYLE
105
27
330
A
100
AcDbSymbolTableRecord
100
AcDbDimStyleTableRecord
  2
Standard
 70
     0
340
11
  0
ENDTAB
  0
TABLE
  2
BLOCK_RECORD
  5
1
330
0
100
AcDbSymbolTable
 70
     3
  0
BLOCK_RECORD
  5
1F
330
1
100
AcDbSymbolTableRecord
100
AcDbBlockTableRecord
  2
*Model_Space
340
22
  0
BLOCK_RECORD
  5
1B
330
1
100
AcDbSymbolTableRecord
100
AcDbBlockTableRecord
  2
*Paper_Space
340
1E
  0
BLOCK_RECORD
  5
23
330
1
100
AcDbSymbolTableRecord
100
AcDbBlockTableRecord
  2
*Paper_Space0
340
26
  0
BLOCK_RECORD
  5
3C
330
1
100
AcDbSymbolTableRecord
100
AcDbBlockTableRecord
  2
block 2
340
0
102
{BLKREFS
331
3D
102
}
  0
BLOCK_RECORD
  5
40
330
1
100
AcDbSymbolTableRecord
100
AcDbBlockTableRecord
  2
block 3
340
0
102
{BLKREFS
331
41
102
}
  0
ENDTAB
  0
ENDSEC
  0
SECTION
  2
BLOCKS
  0
BLOCK
  5
20
330
1F
100
AcDbEntity
  8
0
100
AcDbBlockBegin
  2
*Model_Space
 70
     0
 71
     0
 10
0.0
 20
0.0
 30
0.0
  3
*Model_Space
  1

  0
ENDBLK
  5
21
330
1F
100
AcDbEntity
  8
0
100
AcDbBlockEnd
  0
BLOCK
  5
1C
330
1B
100
AcDbEntity
 67
     1
  8
0
100
AcDbBlockBegin
  2
*Paper_Space
 70
     0
 71
     0
 10
0.0
 20
0.0
 30
0.0
  3
*Paper_Space
  1

  0
ENDBLK
  5
1D
330
1B
100
AcDbEntity
 67
     1
  8
0
100
AcDbBlockEnd
  0
BLOCK
  5
24
330
23
100
AcDbEntity
  8
0
100
AcDbBlockBegin
  2
*Paper_Space0
 70
     0
 71
     0
 10
0.0
 20
0.0
 30
0.0
  3
*Paper_Space0
  1

  0
ENDBLK
  5
25
330
23
100
AcDbEntity
  8
0
100
AcDbBlockEnd
  0
BLOCK
  5
3E
330
3C
100
AcDbEntity
  8
0
100
AcDbBlockBegin
  2
block 2
 70
     0
 71
     0
 10
0.0
 20
0.0
 30
0.0
  3
block 2
  1

  0
ENDBLK
  5
3F
330
3C
100
AcDbEntity
  8
0
100
AcDbBlockEnd
  0
BLOCK
  5
42
330
40
100
AcDbEntity
  8
0
100
AcDbBlockBegin
  2
block 3
 70
     0
 71
     0
 10
0.0
 20
0.0
 30
0.0
  3
block 3
  1

  0
SPLINE
  5
44
330
40
100
AcDbEntity
  8
Layer 1
370
     0
100
AcDbSpline
210
0.0
220
0.0
230
1.0
 70
    11
 71
     3
 72
   221
 73
   217
 74
     0
 42
0.0000000001
 43
0.0000000001
 40
0.0
 40
0.0
 40
0.0
 40
0.0
 40
1.0
 40
1.0
 40
1.0
 40
2.0
 40
2.0
 40
2.0
 40
3.0
 40
3.0
 40
3.0
 40
4.0
 40
4.0
 40
4.0
 40
5.0
 40
5.0
 40
5.0
 40
6.0
 40
6.0
 40
6.0
 40
7.0
 40
7.0
 40
7.0
 40
8.0
 40
8.0
 40
8.0
 40
9.0
 40
9.0
 40
9.0
 40
10.0
 40
10.0
 40
10.0
 40
11.0
 40
11.0
 40
11.0
 40
12.0
 40
12.0
 40
12.0
 40
13.0
 40
13.0
 40
13.0
 40
14.0
 40
14.0
 40
14.0
 40
15.0
 40
15.0
 40
15.0
 40
16.0
 40
16.0
 40
16.0
 40
17.0
 40
17.0
 40
17.0
 40
18.0
 40
18.0
 40
18.0
 40
19.0
 40
19.0
 40
19.0
 40
20.0
 40
20.0
 40
20.0
 40
21.0
 40
21.0
 40
21.0
 40
22.0
 40
22.0
 40
22.0
 40
23.0
 40
23.0
 40
23.0
 40
24.0
 40
24.0
 40
24.0
 40
25.0
 40
25.0
 40
25.0
 40
26.0
 40
26.0
 40
26.0
 40
27.0
 40
27.0
 40
27.0
 40
28.0
 40
28.0
 40
28.0
 40
29.0
 40
29.0
 40
29.0
 40
30.0
 40
30.0
 40
30.0
 40
31.0
 40
31.0
 40
31.0
 40
32.0
 40
32.0
 40
32.0
 40
33.0
 40
33.0
 40
33.0
 40
34.0
 40
34.0
 40
34.0
 40
35.0
 40
35.0
 40
35.0
 40
36.0
 40
36.0
 40
36.0
 40
37.0
 40
37.0
 40
37.0
 40
38.0
 40
38.0
 40
38.0
 40
39.0
 40
39.0
 40
39.0
 40
40.0
 40
40.0
 40
40.0
 40
41.0
 40
41.0
 40
41.0
 40
42.0
 40
42.0
 40
42.0
 40
43.0
 40
43.0
 40
43.0
 40
44.0
 40
44.0
 40
44.0
 40
45.0
 40
45.0
 40
45.0
 40
46.0
 40
46.0
 40
46.0
 40
47.0
 40
47.0
 40
47.0
 40
48.0
 40
48.0
 40
48.0
 40
49.0
 40
49.0
 40
49.0
 40
50.0
 40
50.0
 40
50.0
 40
51.0
 40
51.0
 40
51.0
 40
52.0
 40
52.0
 40
52.0
 40
53.0
 40
53.0
 40
53.0
 40
54.0
 40
54.0
 40
54.0
 40
55.0
 40
55.0
 40
55.0
 40
56.0
 40
56.0
 40
56.0
 40
57.0
 40
57.0
 40
57.0
 40
58.0
 40
58.0
 40
58.0
 40
59.0
 40
59.0
 40
59.0
 40
60.0
 40
60.0
 40
60.0
 40
61.0
 40
61.0
 40
61.0
 40
62.0
 40
62.0
 40
62.0
 40
63.0
 40
63.0
 40
63.0
 40
64.0
 40
64.0
 40
64.0
 40
65.0
 40
65.0
 40
65.0
 40
66.0
 40
66.0
 40
66.0
 40
67.0
 40
67.0
 40
67.0
 40
68.0
 40
68.0
 40
68.0
 40
69.0
 40
69.0
 40
69.0
 40
70.0
 40
70.0
 40
70.0
 40
71.0
 40
71.0
 40
71.0
 40
72.0
 40
72.0
 40
72.0
 40
72.0
 10
107.479815343113
 20
-92.67881410047006
 30
0.0
 10
128.9982404491175
 20
-92.67881410047006
 30
0.0
 10
146.5048492159756
 20
-110.1854228673282
 30
0.0
 10
146.5048492159756
 20
-131.7038479733327
 30
0.0
 10
146.5048492159756
 20
-151.520567041792
 30
0.0
 10
130.3824807282665
 20
-167.6429355295011
 30
0.0
 10
110.5655894049193
 20
-167.6429355295011
 30
0.0
 10
90.74887033645992
 20
-167.6429355295011
 30
0.0
 10
74.6266741036387
 20
-151.520567041792
 30
0.0
 10
74.6266741036387
 20
-131.7038479733327
 30
0.0
 10
74.6266741036387
 20
-131.7038479733327
 30
0.0
 10
74.60703704641833
 20
-131.7038479733327
 30
0.0
 10
74.60703704641833
 20
-131.7038479733327
 30
0.0
 10
74.60703704641833
 20
-113.577810629593
 30
0.0
 10
89.35377799937334
 20
-98.83106967663804
 30
0.0
 10
107.479815343113
 20
-98.83106967663804
 30
0.0
 10
125.6058526868526
 20
-98.83106967663804
 30
0.0
 10
140.3525936398076
 20
-113.577810629593
 30
0.0
 10
140.3525936398076
 20
-131.7038479733327
 30
0.0
 10
140.3525936398076
 20
-148.128351534415
 30
0.0
 10
126.9900929660016
 20
-161.4906799533331
 30
0.0
 10
110.5655894049193
 20
-161.4906799533331
 30
0.0
 10
94.14125809872479
 20
-161.4906799533331
 30
0.0
 10
80.7789296798067
 20
-148.128351534415
 30
0.0
 10
80.7789296798067
 20
-131.7038479733327
 30
0.0
 10
80.7789296798067
 20
-131.7038479733327
 30
0.0
 10
80.7594648774742
 20
-131.7038479733327
 30
0.0
 10
80.7594648774742
 20
-131.7038479733327
 30
0.0
 10
80.7594648774742
 20
-116.9701983918579
 30
0.0
 10
92.74616576163821
 20
-104.9834975076939
 30
0.0
 10
107.479815343113
 20
-104.9834975076939
 30
0.0
 10
122.2134649245877
 20
-104.9834975076939
 30
0.0
 10
134.2003380636396
 20
-116.9701983918579
 30
0.0
 10
134.2003380636396
 20
-131.7038479733327
 30
0.0
 10
134.2003380636396
 20
-144.7359637721501
 30
0.0
 10
123.5977052037367
 20
-155.3384243771652
 30
0.0
 10
110.5655894049193
 20
-155.3384243771652
 30
0.0
 10
97.53364586098967
 20
-155.3384243771652
 30
0.0
 10
86.93135751086257
 20
-144.7359637721501
 30
0.0
 10
86.93135751086257
 20
-131.7038479733327
 30
0.0
 10
86.93135751086257
 20
-131.7038479733327
 30
0.0
 10
86.91172045364219
 20
-131.7038479733327
 30
0.0
 10
86.91172045364219
 20
-131.7038479733327
 30
0.0
 10
86.91172045364219
 20
-120.3625861541228
 30
0.0
 10
96.13855352390308
 20
-111.1357530838619
 30
0.0
 10
107.479815343113
 20
-111.1357530838619
 30
0.0
 10
118.8210771623228
 20
-111.1357530838619
 30
0.0
 10
128.0477379776958
 20
-120.3625861541228
 30
0.0
 10
128.0477379776958
 20
-131.7038479733327
 30
0.0
 10
128.0477379776958
 20
-131.7038479733327
 30
0.0
 10
128.0480824874716
 20
-131.7038479733327
 30
0.0
 10
128.0480824874716
 20
-131.7038479733327
 30
0.0
 10
128.0480824874716
 20
-141.3434037549974
 30
0.0
 10
120.2053174414718
 20
-149.1858242912214
 30
0.0
 10
110.5655894049193
 20
-149.1858242912214
 30
0.0
 10
100.9260336232545
 20
-149.1858242912214
 30
0.0
 10
93.08361308703056
 20
-141.3434037549974
 30
0.0
 10
93.08361308703056
 20
-131.7038479733327
 30
0.0
 10
93.08361308703056
 20
-131.7038479733327
 30
0.0
 10
93.06414828469808
 20
-131.7038479733327
 30
0.0
 10
93.06414828469808
 20
-131.7038479733327
 30
0.0
 10
93.06414828469808
 20
-123.7549739163877
 30
0.0
 10
99.53094128616796
 20
-117.2881809149178
 30
0.0
 10
107.479815343113
 20
-117.2881809149178
 30
0.0
 10
115.428689400058
 20
-117.2881809149178
 30
0.0
 10
121.8954824015278
 20
-123.7549739163877
 30
0.0
 10
121.8954824015278
 20
-131.7038479733327
 30
0.0
 10
121.8954824015278
 20
-131.7038479733327
 30
0.0
 10
121.8958269113036
 20
-131.7038479733327
 30
0.0
 10
121.8958269113036
 20
-131.7038479733327
 30
0.0
 10
121.8958269113036
 20
-137.9510159927325
 30
0.0
 10
116.812929679207
 20
-143.0335687150534
 30
0.0
 10
110.5655894049193
 20
-143.0335687150534
 30
0.0
 10
104.3184213855194
 20
-143.0335687150534
 30
0.0
 10
99.23604091808643
 20
-137.9510159927325
 30
0.0
 10
99.23604091808643
 20
-131.7038479733327
 30
0.0
 10
99.23604091808643
 20
-131.7038479733327
 30
0.0
 10
99.21640386086605
 20
-131.7038479733327
 30
0.0
 10
99.21640386086605
 20
-131.7038479733327
 30
0.0
 10
99.21640386086605
 20
-127.1475339335404
 30
0.0
 10
102.9233290484328
 20
-123.4406087459737
 30
0.0
 10
107.479815343113
 20
-123.4406087459737
 30
0.0
 10
112.0363016377931
 20
-123.4406087459737
 30
0.0
 10
115.7432268253599
 20
-127.1475339335404
 30
0.0
 10
115.7432268253599
 20
-131.7038479733327
 30
0.0
 10
115.7432268253599
 20
-131.7038479733327
 30
0.0
 10
115.7428823155841
 20
-131.7038479733327
 30
0.0
 10
115.7428823155841
 20
-131.7038479733327
 30
0.0
 10
115.7428823155841
 20
-134.5586282304676
 30
0.0
 10
113.4201974071663
 20
-136.8813131388854
 30
0.0
 10
110.5655894049193
 20
-136.8813131388854
 30
0.0
 10
107.7109814026722
 20
-136.8813131388854
 30
0.0
 10
105.3882964942544
 20
-134.5586282304676
 30
0.0
 10
105.3882964942544
 20
-131.7038479733327
 30
0.0
 10
105.3882964942544
 20
-131.7038479733327
 30
0.0
 10
105.3688316919219
 20
-131.7038479733327
 30
0.0
 10
105.3688316919219
 20
-131.7038479733327
 30
0.0
 10
105.3688316919219
 20
-130.5399216958053
 30
0.0
 10
106.3157168106977
 20
-129.5928643221417
 30
0.0
 10
107.479815343113
 20
-129.5928643221417
 30
0.0
 10
108.6435693657524
 20
-129.5928643221417
 30
0.0
 10
109.5906267394161
 20
-130.5399216958053
 30
0.0
 10
109.5906267394161
 20
-131.7038479733327
 30
0.0
 10
109.5906267394161
 20
-131.7038479733327
 30
0.0
 10
111.5405520704224
 20
-131.7038479733327
 30
0.0
 10
111.5405520704224
 20
-131.7038479733327
 30
0.0
 10
111.5405520704224
 20
-129.4647066855455
 30
0.0
 10
109.7187843760123
 20
-127.6429389911353
 30
0.0
 10
107.479815343113
 20
-127.6429389911353
 30
0.0
 10
105.2406740553258
 20
-127.6429389911353
 30
0.0
 10
103.4189063609156
 20
-129.4647066855455
 30
0.0
 10
103.4189063609156
 20
-131.7038479733327
 30
0.0
 10
103.4189063609156
 20
-131.7038479733327
 30
0.0
 10
103.4383711632481
 20
-131.7038479733327
 30
0.0
 10
103.4383711632481
 20
-131.7038479733327
 30
0.0
 10
103.4383711632481
 20
-135.6338432407275
 30
0.0
 10
106.6357663924124
 20
-138.8312384698917
 30
0.0
 10
110.5655894049193
 20
-138.8312384698917
 30
0.0
 10
114.4954124174261
 20
-138.8312384698917
 30
0.0
 10
117.6928076465904
 20
-135.6338432407275
 30
0.0
 10
117.6928076465904
 20
-131.7038479733327
 30
0.0
 10
117.6928076465904
 20
-131.7038479733327
 30
0.0
 10
117.6931521563662
 20
-131.7038479733327
 30
0.0
 10
117.6931521563662
 20
-131.7038479733327
 30
0.0
 10
117.6931521563662
 20
-126.0723189232806
 30
0.0
 10
113.1115166480529
 20
-121.4906834149674
 30
0.0
 10
107.479815343113
 20
-121.4906834149674
 30
0.0
 10
101.848114038173
 20
-121.4906834149674
 30
0.0
 10
97.26647852985974
 20
-126.0723189232806
 30
0.0
 10
97.26647852985974
 20
-131.7038479733327
 30
0.0
 10
97.26647852985974
 20
-131.7038479733327
 30
0.0
 10
97.28611558708012
 20
-131.7038479733327
 30
0.0
 10
97.28611558708012
 20
-131.7038479733327
 30
0.0
 10
97.28611558708012
 20
-139.0262310029923
 30
0.0
 10
103.2432063752596
 20
-144.9834940460597
 30
0.0
 10
110.5655894049193
 20
-144.9834940460597
 30
0.0
 10
117.8884891992426
 20
-144.9834940460597
 30
0.0
 10
123.84575224231
 20
-139.0262310029923
 30
0.0
 10
123.84575224231
 20
-131.7038479733327
 30
0.0
 10
123.84575224231
 20
-131.7038479733327
 30
0.0
 10
123.8454077325342
 20
-131.7038479733327
 30
0.0
 10
123.8454077325342
 20
-131.7038479733327
 30
0.0
 10
123.8454077325342
 20
-122.6797589061278
 30
0.0
 10
116.5039044103178
 20
-115.3382555839115
 30
0.0
 10
107.479815343113
 20
-115.3382555839115
 30
0.0
 10
98.45572627590812
 20
-115.3382555839115
 30
0.0
 10
91.11422295369175
 20
-122.6797589061278
 30
0.0
 10
91.11422295369175
 20
-131.7038479733327
 30
0.0
 10
91.11422295369175
 20
-131.7038479733327
 30
0.0
 10
91.13368775602424
 20
-131.7038479733327
 30
0.0
 10
91.13368775602424
 20
-131.7038479733327
 30
0.0
 10
91.13368775602424
 20
-142.4186187652572
 30
0.0
 10
99.8508186129947
 20
-151.1357496222277
 30
0.0
 10
110.5655894049193
 20
-151.1357496222277
 30
0.0
 10
121.2805324517317
 20
-151.1357496222277
 30
0.0
 10
129.998007818478
 20
-142.4186187652572
 30
0.0
 10
129.998007818478
 20
-131.7038479733327
 30
0.0
 10
129.998007818478
 20
-131.7038479733327
 30
0.0
 10
129.9976633087022
 20
-131.7038479733327
 30
0.0
 10
129.9976633087022
 20
-131.7038479733327
 30
0.0
 10
129.9976633087022
 20
-119.287371143863
 30
0.0
 10
119.8962921725827
 20
-109.1858277528556
 30
0.0
 10
107.479815343113
 20
-109.1858277528556
 30
0.0
 10
95.06333851364325
 20
-109.1858277528556
 30
0.0
 10
84.96179512263588
 20
-119.287371143863
 30
0.0
 10
84.96179512263588
 20
-131.7038479733327
 30
0.0
 10
84.96179512263588
 20
-131.7038479733327
 30
0.0
 10
84.98143217985626
 20
-131.7038479733327
 30
0.0
 10
84.98143217985626
 20
-131.7038479733327
 30
0.0
 10
84.98143217985626
 20
-145.81117878241
 30
0.0
 10
96.45843085072983
 20
-157.2883497081715
 30
0.0
 10
110.5655894049193
 20
-157.2883497081715
 30
0.0
 10
124.6729202139966
 20
-157.2883497081715
 30
0.0
 10
136.1502633946459
 20
-145.81117878241
 30
0.0
 10
136.1502633946459
 20
-131.7038479733327
 30
0.0
 10
136.1502633946459
 20
-115.8949833815981
 30
0.0
 10
123.2886799348476
 20
-103.0335721766876
 30
0.0
 10
107.479815343113
 20
-103.0335721766876
 30
0.0
 10
91.67095075137837
 20
-103.0335721766876
 30
0.0
 10
78.80953954646789
 20
-115.8949833815981
 30
0.0
 10
78.80953954646789
 20
-131.7038479733327
 30
0.0
 10
78.80953954646789
 20
-131.7038479733327
 30
0.0
 10
78.82900434880038
 20
-131.7038479733327
 30
0.0
 10
78.82900434880038
 20
-131.7038479733327
 30
0.0
 10
78.82900434880038
 20
-149.2037387995628
 30
0.0
 10
93.06604308846495
 20
-163.4406052843395
 30
0.0
 10
110.5655894049193
 20
-163.4406052843395
 30
0.0
 10
128.0653079762614
 20
-163.4406052843395
 30
0.0
 10
142.3025189708139
 20
-149.2037387995628
 30
0.0
 10
142.3025189708139
 20
-131.7038479733327
 30
0.0
 10
142.3025189708139
 20
-112.5025956193332
 30
0.0
 10
126.6810676971124
 20
-96.88114434563172
 30
0.0
 10
107.479815343113
 20
-96.88114434563172
 30
0.0
 10
88.2785629891135
 20
-96.88114434563172
 30
0.0
 10
72.65711171541201
 20
-112.5025956193332
 30
0.0
 10
72.65711171541201
 20
-131.7038479733327
 30
0.0
 10
72.65711171541201
 20
-131.7038479733327
 30
0.0
 10
72.6767487726324
 20
-131.7038479733327
 30
0.0
 10
72.6767487726324
 20
-131.7038479733327
 30
0.0
 10
72.6767487726324
 20
-152.5957820520518
 30
0.0
 10
89.67365532620008
 20
-169.5928608605074
 30
0.0
 10
110.5655894049193
 20
-169.5928608605074
 30
0.0
 10
131.4576957385263
 20
-169.5928608605074
 30
0.0
 10
148.4547745469819
 20
-152.5957820520518
 30
0.0
 10
148.4547745469819
 20
-131.7038479733327
 30
0.0
 10
148.4547745469819
 20
-109.1102078570683
 30
0.0
 10
130.0734554593773
 20
-90.72888876946374
 30
0.0
 10
107.479815343113
 20
-90.72888876946374
 30
0.0
 10
84.88617522684862
 20
-90.72888876946374
 30
0.0
 10
66.50485613924403
 20
-109.1102078570683
 30
0.0
 10
66.50485613924403
 20
-131.7038479733327
 30
0.0
 10
66.50485613924403
 20
-131.7038479733327
 30
0.0
 10
68.45478147025034
 20
-131.7038479733327
 30
0.0
 10
68.45478147025034
 20
-131.7038479733327
 30
0.0
 10
68.45478147025034
 20
-110.1854228673282
 30
0.0
 10
85.96139023710846
 20
-92.67881410047006
 30
0.0
 10
107.479815343113
 20
-92.67881410047006
 30
0.0
  0
HATCH
  5
45
330
40
100
AcDbEntity
  8
Layer 1
 62
   179
420
  2301728
100
AcDbHatch
 10
0.0
 20
0.0
 30
0.0
210
0.0
220
0.0
230
1.0
  2
SOLID
 70
     1
 71
     0
 91
        1
 92
        1
 93
        1
 72
     4
 94
        3
 73
     0
 74
     1
 95
      221
 96
      217
 40
0.0
 40
0.0
 40
0.0
 40
0.0
 40
1.0
 40
1.0
 40
1.0
 40
2.0
 40
2.0
 40
2.0
 40
3.0
 40
3.0
 40
3.0
 40
4.0
 40
4.0
 40
4.0
 40
5.0
 40
5.0
 40
5.0
 40
6.0
 40
6.0
 40
6.0
 40
7.0
 40
7.0
 40
7.0
 40
8.0
 40
8.0
 40
8.0
 40
9.0
 40
9.0
 40
9.0
 40
10.0
 40
10.0
 40
10.0
 40
11.0
 40
11.0
 40
11.0
 40
12.0
 40
12.0
 40
12.0
 40
13.0
 40
13.0
 40
13.0
 40
14.0
 40
14.0
 40
14.0
 40
15.0
 40
15.0
 40
15.0
 40
16.0
 40
16.0
 40
16.0
 40
17.0
 40
17.0
 40
17.0
 40
18.0
 40
18.0
 40
18.0
 40
19.0
 40
19.0
 40
19.0
 40
20.0
 40
20.0
 40
20.0
 40
21.0
 40
21.0
 40
21.0
 40
22.0
 40
22.0
 40
22.0
 40
23.0
 40
23.0
 40
23.0
 40
24.0
 40
24.0
 40
24.0
 40
25.0
 40
25.0
 40
25.0
 40
26.0
 40
26.0
 40
26.0
 40
27.0
 40
27.0
 40
27.0
 40
28.0
 40
28.0
 40
28.0
 40
29.0
 40
29.0
 40
29.0
 40
30.0
 40
30.0
 40
30.0
 40
31.0
 40
31.0
 40
31.0
 40
32.0
 40
32.0
 40
32.0
 40
33.0
 40
33.0
 40
33.0
 40
34.0
 40
34.0
 40
34.0
 40
35.0
 40
35.0
 40
35.0
 40
36.0
 40
36.0
 40
36.0
 40
37.0
 40
37.0
 40
37.0
 40
38.0
 40
38.0
 40
38.0
 40
39.0
 40
39.0
 40
39.0
 40
40.0
 40
40.0
 40
40.0
 40
41.0
 40
41.0
 40
41.0
 40
42.0
 40
42.0
 40
42.0
 40
43.0
 40
43.0
 40
43.0
 40
44.0
 40
44.0
 40
44.0
 40
45.0
 40
45.0
 40
45.0
 40
46.0
 40
46.0
 40
46.0
 40
47.0
 40
47.0
 40
47.0
 40
48.0
 40
48.0
 40
48.0
 40
49.0
 40
49.0
 40
49.0
 40
50.0
 40
50.0
 40
50.0
 40
51.0
 40
51.0
 40
51.0
 40
52.0
 40
52.0
 40
52.0
 40
53.0
 40
53.0
 40
53.0
 40
54.0
 40
54.0
 40
54.0
 40
55.0
 40
55.0
 40
55.0
 40
56.0
 40
56.0
 40
56.0
 40
57.0
 40
57.0
 40
57.0
 40
58.0
 40
58.0
 40
58.0
 40
59.0
 40
59.0
 40
59.0
 40
60.0
 40
60.0
 40
60.0
 40
61.0
 40
61.0
 40
61.0
 40
62.0
 40
62.0
 40
62.0
 40
63.0
 40
63.0
 40
63.0
 40
64.0
 40
64.0
 40
64.0
 40
65.0
 40
65.0
 40
65.0
 40
66.0
 40
66.0
 40
66.0
 40
67.0
 40
67.0
 40
67.0
 40
68.0
 40
68.0
 40
68.0
 40
69.0
 40
69.0
 40
69.0
 40
70.0
 40
70.0
 40
70.0
 40
71.0
 40
71.0
 40
71.0
 40
72.0
 40
72.0
 40
72.0
 40
72.0
 10
107.479815343113
 20
-92.67881410047006
 10
128.9982404491175
 20
-92.67881410047006
 10
146.5048492159756
 20
-110.1854228673282
 10
146.5048492159756
 20
-131.7038479733327
 10
146.5048492159756
 20
-151.520567041792
 10
130.3824807282665
 20
-167.6429355295011
 10
110.5655894049193
 20
-167.6429355295011
 10
90.74887033645992
 20
-167.6429355295011
 10
74.6266741036387
 20
-151.520567041792
 10
74.6266741036387
 20
-131.7038479733327
 10
74.6266741036387
 20
-131.7038479733327
 10
74.60703704641833
 20
-131.7038479733327
 10
74.60703704641833
 20
-131.7038479733327
 10
74.60703704641833
 20
-113.577810629593
 10
89.35377799937334
 20
-98.83106967663804
 10
107.479815343113
 20
-98.83106967663804
 10
125.6058526868526
 20
-98.83106967663804
 10
140.3525936398076
 20
-113.577810629593
 10
140.3525936398076
 20
-131.7038479733327
 10
140.3525936398076
 20
-148.128351534415
 10
126.9900929660016
 20
-161.4906799533331
 10
110.5655894049193
 20
-161.4906799533331
 10
94.14125809872479
 20
-161.4906799533331
 10
80.7789296798067
 20
-148.128351534415
 10
80.7789296798067
 20
-131.7038479733327
 10
80.7789296798067
 20
-131.7038479733327
 10
80.7594648774742
 20
-131.7038479733327
 10
80.7594648774742
 20
-131.7038479733327
 10
80.7594648774742
 20
-116.9701983918579
 10
92.74616576163821
 20
-104.9834975076939
 10
107.479815343113
 20
-104.9834975076939
 10
122.2134649245877
 20
-104.9834975076939
 10
134.2003380636396
 20
-116.9701983918579
 10
134.2003380636396
 20
-131.7038479733327
 10
134.2003380636396
 20
-144.7359637721501
 10
123.5977052037367
 20
-155.3384243771652
 10
110.5655894049193
 20
-155.3384243771652
 10
97.53364586098967
 20
-155.3384243771652
 10
86.93135751086257
 20
-144.7359637721501
 10
86.93135751086257
 20
-131.7038479733327
 10
86.93135751086257
 20
-131.7038479733327
 10
86.91172045364219
 20
-131.7038479733327
 10
86.91172045364219
 20
-131.7038479733327
 10
86.91172045364219
 20
-120.3625861541228
 10
96.13855352390308
 20
-111.1357530838619
 10
107.479815343113
 20
-111.1357530838619
 10
118.8210771623228
 20
-111.1357530838619
 10
128.0477379776958
 20
-120.3625861541228
 10
128.0477379776958
 20
-131.7038479733327
 10
128.0477379776958
 20
-131.7038479733327
 10
128.0480824874716
 20
-131.7038479733327
 10
128.0480824874716
 20
-131.7038479733327
 10
128.0480824874716
 20
-141.3434037549974
 10
120.2053174414718
 20
-149.1858242912214
 10
110.5655894049193
 20
-149.1858242912214
 10
100.9260336232545
 20
-149.1858242912214
 10
93.08361308703056
 20
-141.3434037549974
 10
93.08361308703056
 20
-131.7038479733327
 10
93.08361308703056
 20
-131.7038479733327
 10
93.06414828469808
 20
-131.7038479733327
 10
93.06414828469808
 20
-131.7038479733327
 10
93.06414828469808
 20
-123.7549739163877
 10
99.53094128616796
 20
-117.2881809149178
 10
107.479815343113
 20
-117.2881809149178
 10
115.428689400058
 20
-117.2881809149178
 10
121.8954824015278
 20
-123.7549739163877
 10
121.8954824015278
 20
-131.7038479733327
 10
121.8954824015278
 20
-131.7038479733327
 10
121.8958269113036
 20
-131.7038479733327
 10
121.8958269113036
 20
-131.7038479733327
 10
121.8958269113036
 20
-137.9510159927325
 10
116.812929679207
 20
-143.0335687150534
 10
110.5655894049193
 20
-143.0335687150534
 10
104.3184213855194
 20
-143.0335687150534
 10
99.23604091808643
 20
-137.9510159927325
 10
99.23604091808643
 20
-131.7038479733327
 10
99.23604091808643
 20
-131.7038479733327
 10
99.21640386086605
 20
-131.7038479733327
 10
99.21640386086605
 20
-131.7038479733327
 10
99.21640386086605
 20
-127.1475339335404
 10
102.9233290484328
 20
-123.4406087459737
 10
107.479815343113
 20
-123.4406087459737
 10
112.0363016377931
 20
-123.4406087459737
 10
115.7432268253599
 20
-127.1475339335404
 10
115.7432268253599
 20
-131.7038479733327
 10
115.7432268253599
 20
-131.7038479733327
 10
115.7428823155841
 20
-131.7038479733327
 10
115.7428823155841
 20
-131.7038479733327
 10
115.7428823155841
 20
-134.5586282304676
 10
113.4201974071663
 20
-136.8813131388854
 10
110.5655894049193
 20
-136.8813131388854
 10
107.7109814026722
 20
-136.8813131388854
 10
105.3882964942544
 20
-134.5586282304676
 10
105.3882964942544
 20
-131.7038479733327
 10
105.3882964942544
 20
-131.7038479733327
 10
105.3688316919219
 20
-131.7038479733327
 10
105.3688316919219
 20
-131.7038479733327
 10
105.3688316919219
 20
-130.5399216958053
 10
106.3157168106977
 20
-129.5928643221417
 10
107.479815343113
 20
-129.5928643221417
 10
108.6435693657524
 20
-129.5928643221417
 10
109.5906267394161
 20
-130.5399216958053
 10
109.5906267394161
 20
-131.7038479733327
 10
109.5906267394161
 20
-131.7038479733327
 10
111.5405520704224
 20
-131.7038479733327
 10
111.5405520704224
 20
-131.7038479733327
 10
111.5405520704224
 20
-129.4647066855455
 10
109.7187843760123
 20
-127.6429389911353
 10
107.479815343113
 20
-127.6429389911353
 10
105.2406740553258
 20
-127.6429389911353
 10
103.4189063609156
 20
-129.4647066855455
 10
103.4189063609156
 20
-131.7038479733327
 10
103.4189063609156
 20
-131.7038479733327
 10
103.4383711632481
 20
-131.7038479733327
 10
103.4383711632481
 20
-131.7038479733327
 10
103.4383711632481
 20
-135.6338432407275
 10
106.6357663924124
 20
-138.8312384698917
 10
110.5655894049193
 20
-138.8312384698917
 10
114.4954124174261
 20
-138.8312384698917
 10
117.6928076465904
 20
-135.6338432407275
 10
117.6928076465904
 20
-131.7038479733327
 10
117.6928076465904
 20
-131.7038479733327
 10
117.6931521563662
 20
-131.7038479733327
 10
117.6931521563662
 20
-131.7038479733327
 10
117.6931521563662
 20
-126.0723189232806
 10
113.1115166480529
 20
-121.4906834149674
 10
107.479815343113
 20
-121.4906834149674
 10
101.848114038173
 20
-121.4906834149674
 10
97.26647852985974
 20
-126.0723189232806
 10
97.26647852985974
 20
-131.7038479733327
 10
97.26647852985974
 20
-131.7038479733327
 10
97.28611558708012
 20
-131.7038479733327
 10
97.28611558708012
 20
-131.7038479733327
 10
97.28611558708012
 20
-139.0262310029923
 10
103.2432063752596
 20
-144.9834940460597
 10
110.5655894049193
 20
-144.9834940460597
 10
117.8884891992426
 20
-144.9834940460597
 10
123.84575224231
 20
-139.0262310029923
 10
123.84575224231
 20
-131.7038479733327
 10
123.84575224231
 20
-131.7038479733327
 10
123.8454077325342
 20
-131.7038479733327
 10
123.8454077325342
 20
-131.7038479733327
 10
123.8454077325342
 20
-122.6797589061278
 10
116.5039044103178
 20
-115.3382555839115
 10
107.479815343113
 20
-115.3382555839115
 10
98.45572627590812
 20
-115.3382555839115
 10
91.11422295369175
 20
-122.6797589061278
 10
91.11422295369175
 20
-131.7038479733327
 10
91.11422295369175
 20
-131.7038479733327
 10
91.13368775602424
 20
-131.7038479733327
 10
91.13368775602424
 20
-131.7038479733327
 10
91.13368775602424
 20
-142.4186187652572
 10
99.8508186129947
 20
-151.1357496222277
 10
110.5655894049193
 20
-151.1357496222277
 10
121.2805324517317
 20
-151.1357496222277
 10
129.998007818478
 20
-142.4186187652572
 10
129.998007818478
 20
-131.7038479733327
 10
129.998007818478
 20
-131.7038479733327
 10
129.9976633087022
 20
-131.7038479733327
 10
129.9976633087022
 20
-131.7038479733327
 10
129.9976633087022
 20
-119.287371143863
 10
119.8962921725827
 20
-109.1858277528556
 10
107.479815343113
 20
-109.1858277528556
 10
95.06333851364325
 20
-109.1858277528556
 10
84.96179512263588
 20
-119.287371143863
 10
84.96179512263588
 20
-131.7038479733327
 10
84.96179512263588
 20
-131.7038479733327
 10
84.98143217985626
 20
-131.7038479733327
 10
84.98143217985626
 20
-131.7038479733327
 10
84.98143217985626
 20
-145.81117878241
 10
96.45843085072983
 20
-157.2883497081715
 10
110.5655894049193
 20
-157.2883497081715
 10
124.6729202139966
 20
-157.2883497081715
 10
136.1502633946459
 20
-145.81117878241
 10
136.1502633946459
 20
-131.7038479733327
 10
136.1502633946459
 20
-115.8949833815981
 10
123.2886799348476
 20
-103.0335721766876
 10
107.479815343113
 20
-103.0335721766876
 10
91.67095075137837
 20
-103.0335721766876
 10
78.80953954646789
 20
-115.8949833815981
 10
78.80953954646789
 20
-131.7038479733327
 10
78.80953954646789
 20
-131.7038479733327
 10
78.82900434880038
 20
-131.7038479733327
 10
78.82900434880038
 20
-131.7038479733327
 10
78.82900434880038
 20
-149.2037387995628
 10
93.06604308846495
 20
-163.4406052843395
 10
110.5655894049193
 20
-163.4406052843395
 10
128.0653079762614
 20
-163.4406052843395
 10
142.3025189708139
 20
-149.2037387995628
 10
142.3025189708139
 20
-131.7038479733327
 10
142.3025189708139
 20
-112.5025956193332
 10
126.6810676971124
 20
-96.88114434563172
 10
107.479815343113
 20
-96.88114434563172
 10
88.2785629891135
 20
-96.88114434563172
 10
72.65711171541201
 20
-112.5025956193332
 10
72.65711171541201
 20
-131.7038479733327
 10
72.65711171541201
 20
-131.7038479733327
 10
72.6767487726324
 20
-131.7038479733327
 10
72.6767487726324
 20
-131.7038479733327
 10
72.6767487726324
 20
-152.5957820520518
 10
89.67365532620008
 20
-169.5928608605074
 10
110.5655894049193
 20
-169.5928608605074
 10
131.4576957385263
 20
-169.5928608605074
 10
148.4547745469819
 20
-152.5957820520518
 10
148.4547745469819
 20
-131.7038479733327
 10
148.4547745469819
 20
-109.1102078570683
 10
130.0734554593773
 20
-90.72888876946374
 10
107.479815343113
 20
-90.72888876946374
 10
84.88617522684862
 20
-90.72888876946374
 10
66.50485613924403
 20
-109.1102078570683
 10
66.50485613924403
 20
-131.7038479733327
 10
66.50485613924403
 20
-131.7038479733327
 10
68.45478147025034
 20
-131.7038479733327
 10
68.45478147025034
 20
-131.7038479733327
 10
68.45478147025034
 20
-110.1854228673282
 10
85.96139023710846
 20
-92.67881410047006
 10
107.479815343113
 20
-92.67881410047006
 97
        0
 75
     2
 76
     1
 98
        0
  0
SPLINE
  5
46
330
40
100
AcDbEntity
  8
Layer 1
370
     0
100
AcDbSpline
210
0.0
220
0.0
230
1.0
 70
    11
 71
     3
 72
   203
 73
   199
 74
     0
 42
0.0000000001
 43
0.0000000001
 40
0.0
 40
0.0
 40
0.0
 40
0.0
 40
1.0
 40
1.0
 40
1.0
 40
2.0
 40
2.0
 40
2.0
 40
3.0
 40
3.0
 40
3.0
 40
4.0
 40
4.0
 40
4.0
 40
5.0
 40
5.0
 40
5.0
 40
6.0
 40
6.0
 40
6.0
 40
7.0
 40
7.0
 40
7.0
 40
8.0
 40
8.0
 40
8.0
 40
9.0
 40
9.0
 40
9.0
 40
10.0
 40
10.0
 40
10.0
 40
11.0
 40
11.0
 40
11.0
 40
12.0
 40
12.0
 40
12.0
 40
13.0
 40
13.0
 40
13.0
 40
14.0
 40
14.0
 40
14.0
 40
15.0
 40
15.0
 40
15.0
 40
16.0
 40
16.0
 40
16.0
 40
17.0
 40
17.0
 40
17.0
 40
18.0
 40
18.0
 40
18.0
 40
19.0
 40
19.0
 40
19.0
 40
20.0
 40
20.0
 40
20.0
 40
21.0
 40
21.0
 40
21.0
 40
22.0
 40
22.0
 40
22.0
 40
23.0
 40
23.0
 40
23.0
 40
24.0
 40
24.0
 40
24.0
 40
25.0
 40
25.0
 40
25.0
 40
26.0
 40
26.0
 40
26.0
 40
27.0
 40
27.0
 40
27.0
 40
28.0
 40
28.0
 40
28.0
 40
29.0
 40
29.0
 40
29.0
 40
30.0
 40
30.0
 40
30.0
 40
31.0
 40
31.0
 40
31.0
 40
32.0
 40
32.0
 40
32.0
 40
33.0
 40
33.0
 40
33.0
 40
34.0
 40
34.0
 40
34.0
 40
35.0
 40
35.0
 40
35.0
 40
36.0
 40
36.0
 40
36.0
 40
37.0
 40
37.0
 40
37.0
 40
38.0
 40
38.0
 40
38.0
 40
39.0
 40
39.0
 40
39.0
 40
40.0
 40
40.0
 40
40.0
 40
41.0
 40
41.0
 40
41.0
 40
42.0
 40
42.0
 40
42.0
 40
43.0
 40
43.0
 40
43.0
 40
44.0
 40
44.0
 40
44.0
 40
45.0
 40
45.0
 40
45.0
 40
46.0
 40
46.0
 40
46.0
 40
47.0
 40
47.0
 40
47.0
 40
48.0
 40
48.0
 40
48.0
 40
49.0
 40
49.0
 40
49.0
 40
50.0
 40
50.0
 40
50.0
 40
51.0
 40
51.0
 40
51.0
 40
52.0
 40
52.0
 40
52.0
 40
53.0
 40
53.0
 40
53.0
 40
54.0
 40
54.0
 40
54.0
 40
55.0
 40
55.0
 40
55.0
 40
56.0
 40
56.0
 40
56.0
 40
57.0
 40
57.0
 40
57.0
 40
58.0
 40
58.0
 40
58.0
 40
59.0
 40
59.0
 40
59.0
 40
60.0
 40
60.0
 40
60.0
 40
61.0
 40
61.0
 40
61.0
 40
62.0
 40
62.0
 40
62.0
 40
63.0
 40
63.0
 40
63.0
 40
64.0
 40
64.0
 40
64.0
 40
65.0
 40
65.0
 40
65.0
 40
66.0
 40
66.0
 40
66.0
 40
66.0
 10
149.5909677875577
 20
-131.7038479733327
 30
0.0
 10
149.5909677875577
 20
-153.2224453342251
 30
0.0
 10
132.0843590206995
 20
-170.7290541010832
 30
0.0
 10
110.5655894049193
 20
-170.7290541010832
 30
0.0
 10
89.04716429891474
 20
-170.7290541010832
 30
0.0
 10
71.54072778694453
 20
-153.2224453342251
 30
0.0
 10
71.54072778694453
 20
-131.7038479733327
 30
0.0
 10
71.54072778694453
 20
-111.8869566499854
 30
0.0
 10
87.66292401976574
 20
-95.76476041716424
 30
0.0
 10
107.479815343113
 20
-95.76476041716424
 30
0.0
 10
127.2967066664602
 20
-95.76476041716424
 30
0.0
 10
143.4190751541693
 20
-111.8869566499854
 30
0.0
 10
143.4190751541693
 20
-131.7038479733327
 30
0.0
 10
143.4190751541693
 20
-131.7038479733327
 30
0.0
 10
143.4387122113897
 20
-131.7038479733327
 30
0.0
 10
143.4387122113897
 20
-131.7038479733327
 30
0.0
 10
143.4387122113897
 20
-149.8297130621844
 30
0.0
 10
128.6919712584347
 20
-164.5764540151394
 30
0.0
 10
110.5655894049193
 20
-164.5764540151394
 30
0.0
 10
92.43955206117961
 20
-164.5764540151394
 30
0.0
 10
77.6929833631125
 20
-149.8297130621844
 30
0.0
 10
77.6929833631125
 20
-131.7038479733327
 30
0.0
 10
77.6929833631125
 20
-115.2793444122503
 30
0.0
 10
91.05531178203061
 20
-101.9170159933322
 30
0.0
 10
107.479815343113
 20
-101.9170159933322
 30
0.0
 10
123.9043189041953
 20
-101.9170159933322
 30
0.0
 10
137.2664750682255
 20
-115.2793444122503
 30
0.0
 10
137.2664750682255
 20
-131.7038479733327
 30
0.0
 10
137.2664750682255
 20
-131.7038479733327
 30
0.0
 10
137.2864566352217
 20
-131.7038479733327
 30
0.0
 10
137.2864566352217
 20
-131.7038479733327
 30
0.0
 10
137.2864566352217
 20
-146.4374975548074
 30
0.0
 10
125.2995834961698
 20
-158.4241984389714
 30
0.0
 10
110.5655894049193
 20
-158.4241984389714
 30
0.0
 10
95.83211207833239
 20
-158.4241984389714
 30
0.0
 10
83.84541119416839
 20
-146.4374975548074
 30
0.0
 10
83.84541119416839
 20
-131.7038479733327
 30
0.0
 10
83.84541119416839
 20
-118.6717321745152
 30
0.0
 10
94.44769954429549
 20
-108.0694438243881
 30
0.0
 10
107.479815343113
 20
-108.0694438243881
 30
0.0
 10
120.5119311419304
 20
-108.0694438243881
 30
0.0
 10
131.1142194920575
 20
-118.6717321745152
 30
0.0
 10
131.1142194920575
 20
-131.7038479733327
 30
0.0
 10
131.1142194920575
 20
-131.7038479733327
 30
0.0
 10
131.1335120395021
 20
-131.7038479733327
 30
0.0
 10
131.1335120395021
 20
-131.7038479733327
 30
0.0
 10
131.1335120395021
 20
-143.0451097925425
 30
0.0
 10
121.9068512241291
 20
-152.2719428628035
 30
0.0
 10
110.5655894049193
 20
-152.2719428628035
 30
0.0
 10
99.22449984059726
 20
-152.2719428628035
 30
0.0
 10
89.99766677033637
 20
-143.0451097925425
 30
0.0
 10
89.99766677033637
 20
-131.7038479733327
 30
0.0
 10
89.99766677033637
 20
-122.0641199367801
 30
0.0
 10
97.84008730656036
 20
-114.2216994005561
 30
0.0
 10
107.479815343113
 20
-114.2216994005561
 30
0.0
 10
117.1195433796656
 20
-114.2216994005561
 30
0.0
 10
124.9619639158896
 20
-122.0641199367801
 30
0.0
 10
124.9619639158896
 20
-131.7038479733327
 30
0.0
 10
124.9619639158896
 20
-131.7038479733327
 30
0.0
 10
124.9812564633341
 20
-131.7038479733327
 30
0.0
 10
124.9812564633341
 20
-131.7038479733327
 30
0.0
 10
124.9812564633341
 20
-139.6527220302777
 30
0.0
 10
118.5144634618643
 20
-146.1195150317476
 30
0.0
 10
110.5655894049193
 20
-146.1195150317476
 30
0.0
 10
102.6168876028621
 20
-146.1195150317476
 30
0.0
 10
96.15009460139225
 20
-139.6527220302777
 30
0.0
 10
96.15009460139225
 20
-131.7038479733327
 30
0.0
 10
96.15009460139225
 20
-125.4566799539328
 30
0.0
 10
101.2326473237131
 20
-120.374127231612
 30
0.0
 10
107.479815343113
 20
-120.374127231612
 30
0.0
 10
113.7271556174007
 20
-120.374127231612
 30
0.0
 10
118.8097083397216
 20
-125.4566799539328
 30
0.0
 10
118.8097083397216
 20
-131.7038479733327
 30
0.0
 10
118.8097083397216
 20
-131.7038479733327
 30
0.0
 10
118.8290008871661
 20
-131.7038479733327
 30
0.0
 10
118.8290008871661
 20
-131.7038479733327
 30
0.0
 10
118.8290008871661
 20
-136.2601620131249
 30
0.0
 10
115.1220756995994
 20
-139.9670872006917
 30
0.0
 10
110.5655894049193
 20
-139.9670872006917
 30
0.0
 10
106.0091031102391
 20
-139.9670872006917
 30
0.0
 10
102.3023501775602
 20
-136.2601620131249
 30
0.0
 10
102.3023501775602
 20
-131.7038479733327
 30
0.0
 10
102.3023501775602
 20
-128.8490677161977
 30
0.0
 10
104.625035085978
 20
-126.52638280778
 30
0.0
 10
107.479815343113
 20
-126.52638280778
 30
0.0
 10
110.33442334536
 20
-126.52638280778
 30
0.0
 10
112.6571082537778
 20
-128.8490677161977
 30
0.0
 10
112.6571082537778
 20
-131.7038479733327
 30
0.0
 10
112.6571082537778
 20
-131.7038479733327
 30
0.0
 10
112.6767453109982
 20
-131.7038479733327
 30
0.0
 10
112.6767453109982
 20
-131.7038479733327
 30
0.0
 10
112.6767453109982
 20
-132.86777425086
 30
0.0
 10
111.7296879373345
 20
-133.8148316245237
 30
0.0
 10
110.5655894049193
 20
-133.8148316245237
 30
0.0
 10
109.4018353822798
 20
-133.8148316245237
 30
0.0
 10
108.4547780086161
 20
-132.86777425086
 30
0.0
 10
108.4547780086161
 20
-131.7038479733327
 30
0.0
 10
108.4547780086161
 20
-131.7038479733327
 30
0.0
 10
106.5048526776098
 20
-131.7038479733327
 30
0.0
 10
106.5048526776098
 20
-131.7038479733327
 30
0.0
 10
106.5048526776098
 20
-133.9429892611199
 30
0.0
 10
108.3266203720199
 20
-135.76475695553
 30
0.0
 10
110.5655894049193
 20
-135.76475695553
 30
0.0
 10
112.8049029475943
 20
-135.76475695553
 30
0.0
 10
114.6266706420045
 20
-133.9429892611199
 30
0.0
 10
114.6266706420045
 20
-131.7038479733327
 30
0.0
 10
114.6266706420045
 20
-131.7038479733327
 30
0.0
 10
114.6070335847841
 20
-131.7038479733327
 30
0.0
 10
114.6070335847841
 20
-131.7038479733327
 30
0.0
 10
114.6070335847841
 20
-127.7738527059379
 30
0.0
 10
111.4096383556199
 20
-124.5764574767736
 30
0.0
 10
107.479815343113
 20
-124.5764574767736
 30
0.0
 10
103.5498200757182
 20
-124.5764574767736
 30
0.0
 10
100.3524248465539
 20
-127.7738527059379
 30
0.0
 10
100.3524248465539
 20
-131.7038479733327
 30
0.0
 10
100.3524248465539
 20
-137.3353770233848
 30
0.0
 10
104.9340603548672
 20
-141.917012531698
 30
0.0
 10
110.5655894049193
 20
-141.917012531698
 30
0.0
 10
116.1972907098592
 20
-141.917012531698
 30
0.0
 10
120.7789262181725
 20
-137.3353770233848
 30
0.0
 10
120.7789262181725
 20
-131.7038479733327
 30
0.0
 10
120.7789262181725
 20
-131.7038479733327
 30
0.0
 10
120.7596336707279
 20
-131.7038479733327
 30
0.0
 10
120.7596336707279
 20
-131.7038479733327
 30
0.0
 10
120.7596336707279
 20
-124.381464943673
 30
0.0
 10
114.8023706276605
 20
-118.4242019006057
 30
0.0
 10
107.479815343113
 20
-118.4242019006057
 30
0.0
 10
100.1574323134533
 20
-118.4242019006057
 30
0.0
 10
94.20016927038594
 20
-124.381464943673
 30
0.0
 10
94.20016927038594
 20
-131.7038479733327
 30
0.0
 10
94.20016927038594
 20
-140.7279370405375
 30
0.0
 10
101.5416725926023
 20
-148.0694403627539
 30
0.0
 10
110.5655894049193
 20
-148.0694403627539
 30
0.0
 10
119.5896784721241
 20
-148.0694403627539
 30
0.0
 10
126.9311817943404
 20
-140.7279370405375
 30
0.0
 10
126.9311817943404
 20
-131.7038479733327
 30
0.0
 10
126.9311817943404
 20
-131.7038479733327
 30
0.0
 10
126.9118892468959
 20
-131.7038479733327
 30
0.0
 10
126.9118892468959
 20
-131.7038479733327
 30
0.0
 10
126.9118892468959
 20
-120.9889049265202
 30
0.0
 10
118.1947583899254
 20
-112.2717740695498
 30
0.0
 10
107.479815343113
 20
-112.2717740695498
 30
0.0
 10
96.76487229630052
 20
-112.2717740695498
 30
0.0
 10
88.04774143933005
 20
-120.9889049265202
 30
0.0
 10
88.04774143933005
 20
-131.7038479733327
 30
0.0
 10
88.04774143933005
 20
-144.1203248028024
 30
0.0
 10
98.14911257544952
 20
-154.2218681938098
 30
0.0
 10
110.5655894049193
 20
-154.2218681938098
 30
0.0
 10
122.982066234389
 20
-154.2218681938098
 30
0.0
 10
133.0834373705084
 20
-144.1203248028024
 30
0.0
 10
133.0834373705084
 20
-131.7038479733327
 30
0.0
 10
133.0834373705084
 20
-131.7038479733327
 30
0.0
 10
133.0641448230639
 20
-131.7038479733327
 30
0.0
 10
133.0641448230639
 20
-131.7038479733327
 30
0.0
 10
133.0641448230639
 20
-117.5965171642554
 30
0.0
 10
121.5871461521903
 20
-106.1195184933818
 30
0.0
 10
107.479815343113
 20
-106.1195184933818
 30
0.0
 10
93.37248453403565
 20
-106.1195184933818
 30
0.0
 10
81.89548586316208
 20
-117.5965171642554
 30
0.0
 10
81.89548586316208
 20
-131.7038479733327
 30
0.0
 10
81.89548586316208
 20
-147.5127125650673
 30
0.0
 10
94.75689706807255
 20
-160.3741237699778
 30
0.0
 10
110.5655894049193
 20
-160.3741237699778
 30
0.0
 10
126.3747985064296
 20
-160.3741237699778
 30
0.0
 10
139.236381966228
 20
-147.5127125650673
 30
0.0
 10
139.236381966228
 20
-131.7038479733327
 30
0.0
 10
139.236381966228
 20
-131.7038479733327
 30
0.0
 10
139.2164003992318
 20
-131.7038479733327
 30
0.0
 10
139.2164003992318
 20
-131.7038479733327
 30
0.0
 10
139.2164003992318
 20
-114.2041294019905
 30
0.0
 10
124.9795339144552
 20
-99.9670906623259
 30
0.0
 10
107.479815343113
 20
-99.9670906623259
 30
0.0
 10
89.98009677177077
 20
-99.9670906623259
 30
0.0
 10
75.74305803210619
 20
-114.2041294019905
 30
0.0
 10
75.74305803210619
 20
-131.7038479733327
 30
0.0
 10
75.74305803210619
 20
-150.9049280724442
 30
0.0
 10
91.36433705091977
 20
-166.5263793461457
 30
0.0
 10
110.5655894049193
 20
-166.5263793461457
 30
0.0
 10
129.7671862686945
 20
-166.5263793461457
 30
0.0
 10
145.388637542396
 20
-150.9049280724442
 30
0.0
 10
145.388637542396
 20
-131.7038479733327
 30
0.0
 10
145.388637542396
 20
-131.7038479733327
 30
0.0
 10
145.3690004851756
 20
-131.7038479733327
 30
0.0
 10
145.3690004851756
 20
-131.7038479733327
 30
0.0
 10
145.3690004851756
 20
-110.8117416397256
 30
0.0
 10
128.37192167672
 20
-93.81483508615793
 30
0.0
 10
107.479815343113
 20
-93.81483508615793
 30
0.0
 10
86.5877090095059
 20
-93.81483508615793
 30
0.0
 10
69.5908024559382
 20
-110.8117416397256
 30
0.0
 10
69.5908024559382
 20
-131.7038479733327
 30
0.0
 10
69.5908024559382
 20
-154.2976603444849
 30
0.0
 10
87.9719492886549
 20
-172.6789794320895
 30
0.0
 10
110.5655894049193
 20
-172.6789794320895
 30
0.0
 10
133.1595740309594
 20
-172.6789794320895
 30
0.0
 10
151.540893118564
 20
-154.2976603444849
 30
0.0
 10
151.540893118564
 20
-131.7038479733327
 30
0.0
 10
151.540893118564
 20
-131.7038479733327
 30
0.0
 10
149.5909677875577
 20
-131.7038479733327
 30
0.0
 10
149.5909677875577
 20
-131.7038479733327
 30
0.0
  0
HATCH
  5
47
330
40
100
AcDbEntity
  8
Layer 1
 62
   179
420
  2301728
100
AcDbHatch
 10
0.0
 20
0.0
 30
0.0
210
0.0
220
0.0
230
1.0
  2
SOLID
 70
     1
 71
     0
 91
        1
 92
        1
 93
        1
 72
     4
 94
        3
 73
     0
 74
     1
 95
      203
 96
      199
 40
0.0
 40
0.0
 40
0.0
 40
0.0
 40
1.0
 40
1.0
 40
1.0
 40
2.0
 40
2.0
 40
2.0
 40
3.0
 40
3.0
 40
3.0
 40
4.0
 40
4.0
 40
4.0
 40
5.0
 40
5.0
 40
5.0
 40
6.0
 40
6.0
 40
6.0
 40
7.0
 40
7.0
 40
7.0
 40
8.0
 40
8.0
 40
8.0
 40
9.0
 40
9.0
 40
9.0
 40
10.0
 40
10.0
 40
10.0
 40
11.0
 40
11.0
 40
11.0
 40
12.0
 40
12.0
 40
12.0
 40
13.0
 40
13.0
 40
13.0
 40
14.0
 40
14.0
 40
14.0
 40
15.0
 40
15.0
 40
15.0
 40
16.0
 40
16.0
 40
16.0
 40
17.0
 40
17.0
 40
17.0
 40
18.0
 40
18.0
 40
18.0
 40
19.0
 40
19.0
 40
19.0
 40
20.0
 40
20.0
 40
20.0
 40
21.0
 40
21.0
 40
21.0
 40
22.0
 40
22.0
 40
22.0
 40
23.0
 40
23.0
 40
23.0
 40
24.0
 40
24.0
 40
24.0
 40
25.0
 40
25.0
 40
25.0
 40
26.0
 40
26.0
 40
26.0
 40
27.0
 40
27.0
 40
27.0
 40
28.0
 40
28.0
 40
28.0
 40
29.0
 40
29.0
 40
29.0
 40
30.0
 40
30.0
 40
30.0
 40
31.0
 40
31.0
 40
31.0
 40
32.0
 40
32.0
 40
32.0
 40
33.0
 40
33.0
 40
33.0
 40
34.0
 40
34.0
 40
34.0
 40
35.0
 40
35.0
 40
35.0
 40
36.0
 40
36.0
 40
36.0
 40
37.0
 40
37.0
 40
37.0
 40
38.0
 40
38.0
 40
38.0
 40
39.0
 40
39.0
 40
39.0
 40
40.0
 40
40.0
 40
40.0
 40
41.0
 40
41.0
 40
41.0
 40
42.0
 40
42.0
 40
42.0
 40
43.0
 40
43.0
 40
43.0
 40
44.0
 40
44.0
 40
44.0
 40
45.0
 40
45.0
 40
45.0
 40
46.0
 40
46.0
 40
46.0
 40
47.0
 40
47.0
 40
47.0
 40
48.0
 40
48.0
 40
48.0
 40
49.0
 40
49.0
 40
49.0
 40
50.0
 40
50.0
 40
50.0
 40
51.0
 40
51.0
 40
51.0
 40
52.0
 40
52.0
 40
52.0
 40
53.0
 40
53.0
 40
53.0
 40
54.0
 40
54.0
 40
54.0
 40
55.0
 40
55.0
 40
55.0
 40
56.0
 40
56.0
 40
56.0
 40
57.0
 40
57.0
 40
57.0
 40
58.0
 40
58.0
 40
58.0
 40
59.0
 40
59.0
 40
59.0
 40
60.0
 40
60.0
 40
60.0
 40
61.0
 40
61.0
 40
61.0
 40
62.0
 40
62.0
 40
62.0
 40
63.0
 40
63.0
 40
63.0
 40
64.0
 40
64.0
 40
64.0
 40
65.0
 40
65.0
 40
65.0
 40
66.0
 40
66.0
 40
66.0
 40
66.0
 10
149.5909677875577
 20
-131.7038479733327
 10
149.5909677875577
 20
-153.2224453342251
 10
132.0843590206995
 20
-170.7290541010832
 10
110.5655894049193
 20
-170.7290541010832
 10
89.04716429891474
 20
-170.7290541010832
 10
71.54072778694453
 20
-153.2224453342251
 10
71.54072778694453
 20
-131.7038479733327
 10
71.54072778694453
 20
-111.8869566499854
 10
87.66292401976574
 20
-95.76476041716424
 10
107.479815343113
 20
-95.76476041716424
 10
127.2967066664602
 20
-95.76476041716424
 10
143.4190751541693
 20
-111.8869566499854
 10
143.4190751541693
 20
-131.7038479733327
 10
143.4190751541693
 20
-131.7038479733327
 10
143.4387122113897
 20
-131.7038479733327
 10
143.4387122113897
 20
-131.7038479733327
 10
143.4387122113897
 20
-149.8297130621844
 10
128.6919712584347
 20
-164.5764540151394
 10
110.5655894049193
 20
-164.5764540151394
 10
92.43955206117961
 20
-164.5764540151394
 10
77.6929833631125
 20
-149.8297130621844
 10
77.6929833631125
 20
-131.7038479733327
 10
77.6929833631125
 20
-115.2793444122503
 10
91.05531178203061
 20
-101.9170159933322
 10
107.479815343113
 20
-101.9170159933322
 10
123.9043189041953
 20
-101.9170159933322
 10
137.2664750682255
 20
-115.2793444122503
 10
137.2664750682255
 20
-131.7038479733327
 10
137.2664750682255
 20
-131.7038479733327
 10
137.2864566352217
 20
-131.7038479733327
 10
137.2864566352217
 20
-131.7038479733327
 10
137.2864566352217
 20
-146.4374975548074
 10
125.2995834961698
 20
-158.4241984389714
 10
110.5655894049193
 20
-158.4241984389714
 10
95.83211207833239
 20
-158.4241984389714
 10
83.84541119416839
 20
-146.4374975548074
 10
83.84541119416839
 20
-131.7038479733327
 10
83.84541119416839
 20
-118.6717321745152
 10
94.44769954429549
 20
-108.0694438243881
 10
107.479815343113
 20
-108.0694438243881
 10
120.5119311419304
 20
-108.0694438243881
 10
131.1142194920575
 20
-118.6717321745152
 10
131.1142194920575
 20
-131.7038479733327
 10
131.1142194920575
 20
-131.7038479733327
 10
131.1335120395021
 20
-131.7038479733327
 10
131.1335120395021
 20
-131.7038479733327
 10
131.1335120395021
 20
-143.0451097925425
 10
121.9068512241291
 20
-152.2719428628035
 10
110.5655894049193
 20
-152.2719428628035
 10
99.22449984059726
 20
-152.2719428628035
 10
89.99766677033637
 20
-143.0451097925425
 10
89.99766677033637
 20
-131.7038479733327
 10
89.99766677033637
 20
-122.0641199367801
 10
97.84008730656036
 20
-114.2216994005561
 10
107.479815343113
 20
-114.2216994005561
 10
117.1195433796656
 20
-114.2216994005561
 10
124.9619639158896
 20
-122.0641199367801
 10
124.9619639158896
 20
-131.7038479733327
 10
124.9619639158896
 20
-131.7038479733327
 10
124.9812564633341
 20
-131.7038479733327
 10
124.9812564633341
 20
-131.7038479733327
 10
124.9812564633341
 20
-139.6527220302777
 10
118.5144634618643
 20
-146.1195150317476
 10
110.5655894049193
 20
-146.1195150317476
 10
102.6168876028621
 20
-146.1195150317476
 10
96.15009460139225
 20
-139.6527220302777
 10
96.15009460139225
 20
-131.7038479733327
 10
96.15009460139225
 20
-125.4566799539328
 10
101.2326473237131
 20
-120.374127231612
 10
107.479815343113
 20
-120.374127231612
 10
113.7271556174007
 20
-120.374127231612
 10
118.8097083397216
 20
-125.4566799539328
 10
118.8097083397216
 20
-131.7038479733327
 10
118.8097083397216
 20
-131.7038479733327
 10
118.8290008871661
 20
-131.7038479733327
 10
118.8290008871661
 20
-131.7038479733327
 10
118.8290008871661
 20
-136.2601620131249
 10
115.1220756995994
 20
-139.9670872006917
 10
110.5655894049193
 20
-139.9670872006917
 10
106.0091031102391
 20
-139.9670872006917
 10
102.3023501775602
 20
-136.2601620131249
 10
102.3023501775602
 20
-131.7038479733327
 10
102.3023501775602
 20
-128.8490677161977
 10
104.625035085978
 20
-126.52638280778
 10
107.479815343113
 20
-126.52638280778
 10
110.33442334536
 20
-126.52638280778
 10
112.6571082537778
 20
-128.8490677161977
 10
112.6571082537778
 20
-131.7038479733327
 10
112.6571082537778
 20
-131.7038479733327
 10
112.6767453109982
 20
-131.7038479733327
 10
112.6767453109982
 20
-131.7038479733327
 10
112.6767453109982
 20
-132.86777425086
 10
111.7296879373345
 20
-133.8148316245237
 10
110.5655894049193
 20
-133.8148316245237
 10
109.4018353822798
 20
-133.8148316245237
 10
108.4547780086161
 20
-132.86777425086
 10
108.4547780086161
 20
-131.7038479733327
 10
108.4547780086161
 20
-131.7038479733327
 10
106.5048526776098
 20
-131.7038479733327
 10
106.5048526776098
 20
-131.7038479733327
 10
106.5048526776098
 20
-133.9429892611199
 10
108.3266203720199
 20
-135.76475695553
 10
110.5655894049193
 20
-135.76475695553
 10
112.8049029475943
 20
-135.76475695553
 10
114.6266706420045
 20
-133.9429892611199
 10
114.6266706420045
 20
-131.7038479733327
 10
114.6266706420045
 20
-131.7038479733327
 10
114.6070335847841
 20
-131.7038479733327
 10
114.6070335847841
 20
-131.7038479733327
 10
114.6070335847841
 20
-127.7738527059379
 10
111.4096383556199
 20
-124.5764574767736
 10
107.479815343113
 20
-124.5764574767736
 10
103.5498200757182
 20
-124.5764574767736
 10
100.3524248465539
 20
-127.7738527059379
 10
100.3524248465539
 20
-131.7038479733327
 10
100.3524248465539
 20
-137.3353770233848
 10
104.9340603548672
 20
-141.917012531698
 10
110.5655894049193
 20
-141.917012531698
 10
116.1972907098592
 20
-141.917012531698
 10
120.7789262181725
 20
-137.3353770233848
 10
120.7789262181725
 20
-131.7038479733327
 10
120.7789262181725
 20
-131.7038479733327
 10
120.7596336707279
 20
-131.7038479733327
 10
120.7596336707279
 20
-131.7038479733327
 10
120.7596336707279
 20
-124.381464943673
 10
114.8023706276605
 20
-118.4242019006057
 10
107.479815343113
 20
-118.4242019006057
 10
100.1574323134533
 20
-118.4242019006057
 10
94.20016927038594
 20
-124.381464943673
 10
94.20016927038594
 20
-131.7038479733327
 10
94.20016927038594
 20
-140.7279370405375
 10
101.5416725926023
 20
-148.0694403627539
 10
110.5655894049193
 20
-148.0694403627539
 10
119.5896784721241
 20
-148.0694403627539
 10
126.9311817943404
 20
-140.7279370405375
 10
126.9311817943404
 20
-131.7038479733327
 10
126.9311817943404
 20
-131.7038479733327
 10
126.9118892468959
 20
-131.7038479733327
 10
126.9118892468959
 20
-131.7038479733327
 10
126.9118892468959
 20
-120.9889049265202
 10
118.1947583899254
 20
-112.2717740695498
 10
107.479815343113
 20
-112.2717740695498
 10
96.76487229630052
 20
-112.2717740695498
 10
88.04774143933005
 20
-120.9889049265202
 10
88.04774143933005
 20
-131.7038479733327
 10
88.04774143933005
 20
-144.1203248028024
 10
98.14911257544952
 20
-154.2218681938098
 10
110.5655894049193
 20
-154.2218681938098
 10
122.982066234389
 20
-154.2218681938098
 10
133.0834373705084
 20
-144.1203248028024
 10
133.0834373705084
 20
-131.7038479733327
 10
133.0834373705084
 20
-131.7038479733327
 10
133.0641448230639
 20
-131.7038479733327
 10
133.0641448230639
 20
-131.7038479733327
 10
133.0641448230639
 20
-117.5965171642554
 10
121.5871461521903
 20
-106.1195184933818
 10
107.479815343113
 20
-106.1195184933818
 10
93.37248453403565
 20
-106.1195184933818
 10
81.89548586316208
 20
-117.5965171642554
 10
81.89548586316208
 20
-131.7038479733327
 10
81.89548586316208
 20
-147.5127125650673
 10
94.75689706807255
 20
-160.3741237699778
 10
110.5655894049193
 20
-160.3741237699778
 10
126.3747985064296
 20
-160.3741237699778
 10
139.236381966228
 20
-147.5127125650673
 10
139.236381966228
 20
-131.7038479733327
 10
139.236381966228
 20
-131.7038479733327
 10
139.2164003992318
 20
-131.7038479733327
 10
139.2164003992318
 20
-131.7038479733327
 10
139.2164003992318
 20
-114.2041294019905
 10
124.9795339144552
 20
-99.9670906623259
 10
107.479815343113
 20
-99.9670906623259
 10
89.98009677177077
 20
-99.9670906623259
 10
75.74305803210619
 20
-114.2041294019905
 10
75.74305803210619
 20
-131.7038479733327
 10
75.74305803210619
 20
-150.9049280724442
 10
91.36433705091977
 20
-166.5263793461457
 10
110.5655894049193
 20
-166.5263793461457
 10
129.7671862686945
 20
-166.5263793461457
 10
145.388637542396
 20
-150.9049280724442
 10
145.388637542396
 20
-131.7038479733327
 10
145.388637542396
 20
-131.7038479733327
 10
145.3690004851756
 20
-131.7038479733327
 10
145.3690004851756
 20
-131.7038479733327
 10
145.3690004851756
 20
-110.8117416397256
 10
128.37192167672
 20
-93.81483508615793
 10
107.479815343113
 20
-93.81483508615793
 10
86.5877090095059
 20
-93.81483508615793
 10
69.5908024559382
 20
-110.8117416397256
 10
69.5908024559382
 20
-131.7038479733327
 10
69.5908024559382
 20
-154.2976603444849
 10
87.9719492886549
 20
-172.6789794320895
 10
110.5655894049193
 20
-172.6789794320895
 10
133.1595740309594
 20
-172.6789794320895
 10
151.540893118564
 20
-154.2976603444849
 10
151.540893118564
 20
-131.7038479733327
 10
151.540893118564
 20
-131.7038479733327
 10
149.5909677875577
 20
-131.7038479733327
 10
149.5909677875577
 20
-131.7038479733327
 97
        0
 75
     2
 76
     1
 98
        0
  0
ENDBLK
  5
43
330
40
100
AcDbEntity
  8
0
100
AcDbBlockEnd
  0
ENDSEC
  0
SECTION
  2
ENTITIES
  0
INSERT
  5
3D
330
1F
100
AcDbEntity
  8
Layer 1
100
AcDbBlockReference
  2
block 2
 10
0.0
 20
0.0
 30
0.0
  0
INSERT
  5
41
330
1F
100
AcDbEntity
  8
Layer 1
100
AcDbBlockReference
  2
block 3
 10
0.0
 20
0.0
 30
0.0
  0
ENDSEC
  0
SECTION
  2
OBJECTS
  0
DICTIONARY
  5
C
330
0
100
AcDbDictionary
281
     1
  3
ACAD_GROUP
350
D
  3
ACAD_LAYOUT
350
1A
  3
ACAD_MLINESTYLE
350
17
  3
ACAD_PLOTSETTINGS
350
19
  3
ACAD_PLOTSTYLENAME
350
E
  3
ACAD_TABLESTYLE
350
48
  3
ACAD_VISUALSTYLE
350
2A
  0
DICTIONARY
  5
D
102
{ACAD_REACTORS
330
C
102
}
330
C
100
AcDbDictionary
281
     1
  0
DICTIONARY
  5
1A
102
{ACAD_REACTORS
330
C
102
}
330
C
100
AcDbDictionary
281
     1
  3
Layout1
350
1E
  3
Layout2
350
26
  3
Model
350
22
  0
DICTIONARY
  5
17
102
{ACAD_REACTORS
330
C
102
}
330
C
100
AcDbDictionary
281
     1
  3
Standard
350
18
  0
DICTIONARY
  5
19
102
{ACAD_REACTORS
330
C
102
}
330
C
100
AcDbDictionary
281
     1
  0
ACDBDICTIONARYWDFLT
  5
E
102
{ACAD_REACTORS
330
C
102
}
330
C
100
AcDbDictionary
281
     1
  3
Normal
350
F
100
AcDbDictionaryWithDefault
340
F
  0
DICTIONARY
  5
48
102
{ACAD_REACTORS
330
C
102
}
330
C
100
AcDbDictionary
281
     1
  0
DICTIONARY
  5
2A
102
{ACAD_REACTORS
330
C
102
}
330
C
100
AcDbDictionary
281
     1
  3
2dWireframe
350
2F
  3
3D Hidden
350
31
  3
3dWireframe
350
30
  3
Basic
350
32
  3
Brighten
350
36
  3
ColorChange
350
3A
  3
Conceptual
350
34
  3
Dim
350
35
  3
Facepattern
350
39
  3
Flat
350
2B
  3
FlatWithEdges
350
2C
  3
Gouraud
350
2D
  3
GouraudWithEdges
350
2E
  3
Linepattern
350
38
  3
Realistic
350
33
  3
Thicken
350
37
  0
LAYOUT
  5
1E
102
{ACAD_REACTORS
330
1A
102
}
330
1A
100
AcDbPlotSettings
  1

  2
none_device
  4

  6

 40
0.0
 41
0.0
 42
0.0
 43
0.0
 44
0.0
 45
0.0
 46
0.0
 47
0.0
 48
0.0
 49
0.0
140
0.0
141
0.0
142
1.0
143
1.0
 70
   688
 72
     0
 73
     0
 74
     5
  7

 75
    16
 76
     0
 77
     2
 78
   300
147
1.0
148
0.0
149
0.0
100
AcDbLayout
  1
Layout1
 70
     1
 71
     1
 10
0.0
 20
0.0
 11
12.0
 21
9.0
 12
0.0
 22
0.0
 32
0.0
 14
1.000000000000000E+20
 24
1.000000000000000E+20
 34
1.000000000000000E+20
 15
-1.000000000000000E+20
 25
-1.000000000000000E+20
 35
-1.000000000000000E+20
146
0.0
 13
0.0
 23
0.0
 33
0.0
 16
1.0
 26
0.0
 36
0.0
 17
0.0
 27
1.0
 37
0.0
 76
     0
330
1B
  0
LAYOUT
  5
26
102
{ACAD_REACTORS
330
1A
102
}
330
1A
100
AcDbPlotSettings
  1

  2
none_device
  4

  6

 40
0.0
 41
0.0
 42
0.0
 43
0.0
 44
0.0
 45
0.0
 46
0.0
 47
0.0
 48
0.0
 49
0.0
140
0.0
141
0.0
142
1.0
143
1.0
 70
   688
 72
     0
 73
     0
 74
     5
  7

 75
    16
 76
     0
 77
     2
 78
   300
147
1.0
148
0.0
149
0.0
100
AcDbLayout
  1
Layout2
 70
     1
 71
     2
 10
0.0
 20
0.0
 11
0.0
 21
0.0
 12
0.0
 22
0.0
 32
0.0
 14
0.0
 24
0.0
 34
0.0
 15
0.0
 25
0.0
 35
0.0
146
0.0
 13
0.0
 23
0.0
 33
0.0
 16
1.0
 26
0.0
 36
0.0
 17
0.0
 27
1.0
 37
0.0
 76
     0
330
23
  0
LAYOUT
  5
22
102
{ACAD_REACTORS
330
1A
102
}
330
1A
100
AcDbPlotSettings
  1

  2
none_device
  4

  6

 40
0.0
 41
0.0
 42
0.0
 43
0.0
 44
0.0
 45
0.0
 46
0.0
 47
0.0
 48
0.0
 49
0.0
140
0.0
141
0.0
142
1.0
143
1.0
 70
  1712
 72
     0
 73
     0
 74
     0
  7

 75
     0
 76
     0
 77
     2
 78
   300
147
1.0
148
0.0
149
0.0
100
AcDbLayout
  1
Model
 70
     1
 71
     0
 10
0.0
 20
0.0
 11
12.0
 21
9.0
 12
0.0
 22
0.0
 32
0.0
 14
1.000000000000000E+20
 24
1.000000000000000E+20
 34
1.000000000000000E+20
 15
-1.000000000000000E+20
 25
-1.000000000000000E+20
 35
-1.000000000000000E+20
146
0.0
 13
0.0
 23
0.0
 33
0.0
 16
1.0
 26
0.0
 36
0.0
 17
0.0
 27
1.0
 37
0.0
 76
     0
330
1F
331
29
  0
MLINESTYLE
  5
18
102
{ACAD_REACTORS
330
17
102
}
330
17
100
AcDbMlineStyle
  2
Standard
 70
     0
  3

 62
   256
 51
90.0
 52
90.0
 71
     2
 49
0.5
 62
   256
  6
BYLAYER
 49
-0.5
 62
   256
  6
BYLAYER
  0
ACDBPLACEHOLDER
  5
F
102
{ACAD_REACTORS
330
E
102
}
330
E
  0
VISUALSTYLE
  5
2F
102
{ACAD_REACTORS
330
2A
102
}
330
2A
100
AcDbVisualStyle
  2
2dWireframe
 70
     4
 71
     0
 72
     2
 73
     0
 90
        0
 40
-0.6
 41
-30.0
 62
     5
 63
     7
421
 16777215
 74
     1
 91
        4
 64
     7
 65
   257
 75
     1
175
     1
 42
1.0
 92
        0
 66
   257
 43
1.0
 76
     1
 77
     6
 78
     2
 67
     7
 79
     5
170
     0
171
     0
290
     0
174
     0
 93
        1
 44
0.0
173
     0
291
     0
 45
0.0
1001
ACAD
1000
AcDbSavedByObjectVersion
1070
     0
  0
VISUALSTYLE
  5
31
102
{ACAD_REACTORS
330
2A
102
}
330
2A
100
AcDbVisualStyle
  2
3D Hidden
 70
     6
 71
     1
 72
     2
 73
     2
 90
        0
 40
-0.6
 41
-30.0
 62
     5
 63
     7
421
 16777215
 74
     2
 91
        2
 64
     7
 65
   257
 75
     2
175
     1
 42
40.0
 92
        0
 66
   257
 43
1.0
 76
     1
 77
     6
 78
     2
 67
     7
 79
     3
170
     0
171
     0
290
     0
174
     0
 93
        1
 44
0.0
173
     0
291
     0
 45
0.0
1001
ACAD
1000
AcDbSavedByObjectVersion
1070
     0
  0
VISUALSTYLE
  5
30
102
{ACAD_REACTORS
330
2A
102
}
330
2A
100
AcDbVisualStyle
  2
3dWireframe
 70
     5
 71
     0
 72
     2
 73
     0
 90
        0
 40
-0.6
 41
-30.0
 62
     5
 63
     7
421
 16777215
 74
     1
 91
        4
 64
     7
 65
   257
 75
     1
175
     1
 42
1.0
 92
        0
 66
   257
 43
1.0
 76
     1
 77
     6
 78
     2
 67
     7
 79
     5
170
     0
171
     0
290
     0
174
     0
 93
        1
 44
0.0
173
     0
291
     0
 45
0.0
1001
ACAD
1000
AcDbSavedByObjectVersion
1070
     0
  0
VISUALSTYLE
  5
32
102
{ACAD_REACTORS
330
2A
102
}
330
2A
100
AcDbVisualStyle
  2
Basic
 70
     7
 71
     1
 72
     0
 73
     1
 90
        0
 40
-0.6
 41
-30.0
 62
     5
 63
     7
421
 16777215
 74
     0
 91
        4
 64
     7
 65
   257
 75
     1
175
     1
 42
1.0
 92
        8
 66
     7
 43
1.0
 76
     1
 77
     6
 78
     2
 67
     7
 79
     5
170
     0
171
     0
290
     0
174
     0
 93
        1
 44
0.0
173
     0
291
     1
 45
0.0
1001
ACAD
1000
AcDbSavedByObjectVersion
1070
     0
  0
VISUALSTYLE
  5
36
102
{ACAD_REACTORS
330
2A
102
}
330
2A
100
AcDbVisualStyle
  2
Brighten
 70
    12
 71
     2
 72
     2
 73
     0
 90
        0
 40
-0.6
 41
-30.0
 62
     5
 63
     7
421
 16777215
 74
     1
 91
        4
 64
     7
 65
   257
 75
     1
175
     1
 42
1.0
 92
        8
 66
     7
 43
1.0
 76
     1
 77
     6
 78
     2
 67
     7
 79
     5
170
     0
171
     0
290
     0
174
     0
 93
        1
 44
50.0
173
     0
291
     1
 45
0.0
1001
ACAD
1000
AcDbSavedByObjectVersion
1070
     0
  0
VISUALSTYLE
  5
3A
102
{ACAD_REACTORS
330
2A
102
}
330
2A
100
AcDbVisualStyle
  2
ColorChange
 70
    16
 71
     2
 72
     2
 73
     3
 90
        0
 40
-0.6
 41
-30.0
 62
     5
 63
     8
421
  8421504
 74
     1
 91
        4
 64
     7
 65
   257
 75
     1
175
     1
 42
1.0
 92
        8
 66
     8
424
  8421504
 43
1.0
 76
     1
 77
     6
 78
     2
 67
     7
 79
     5
170
     0
171
     0
290
     0
174
     0
 93
        1
 44
0.0
173
     0
291
     1
 45
0.0
1001
ACAD
1000
AcDbSavedByObjectVersion
1070
     0
  0
VISUALSTYLE
  5
34
102
{ACAD_REACTORS
330
2A
102
}
330
2A
100
AcDbVisualStyle
  2
Conceptual
 70
     9
 71
     3
 72
     2
 73
     0
 90
        0
 40
-0.6
 41
-30.0
 62
     5
 63
     7
421
 16777215
 74
     2
 91
        2
 64
     7
 65
   257
 75
     1
175
     1
 42
40.0
 92
        8
 66
     7
 43
1.0
 76
     1
 77
     6
 78
     2
 67
     7
 79
     3
170
     0
171
     0
290
     0
174
     0
 93
        1
 44
0.0
173
     0
291
     0
 45
0.0
1001
ACAD
1000
AcDbSavedByObjectVersion
1070
     0
  0
VISUALSTYLE
  5
35
102
{ACAD_REACTORS
330
2A
102
}
330
2A
100
AcDbVisualStyle
  2
Dim
 70
    11
 71
     2
 72
     2
 73
     0
 90
        0
 40
-0.6
 41
-30.0
 62
     5
 63
     7
421
 16777215
 74
     1
 91
        4
 64
     7
 65
   257
 75
     1
175
     1
 42
1.0
 92
        8
 66
     7
 43
1.0
 76
     1
 77
     6
 78
     2
 67
     7
 79
     5
170
     0
171
     0
290
     0
174
     0
 93
        1
 44
-50.0
173
     0
291
     1
 45
0.0
1001
ACAD
1000
AcDbSavedByObjectVersion
1070
     0
  0
VISUALSTYLE
  5
39
102
{ACAD_REACTORS
330
2A
102
}
330
2A
100
AcDbVisualStyle
  2
Facepattern
 70
    15
 71
     2
 72
     2
 73
     0
 90
        0
 40
-0.6
 41
-30.0
 62
     5
 63
     7
421
 16777215
 74
     1
 91
        4
 64
     7
 65
   257
 75
     1
175
     1
 42
1.0
 92
        8
 66
     7
 43
1.0
 76
     1
 77
     6
 78
     2
 67
     7
 79
     5
170
     0
171
     0
290
     0
174
     0
 93
        1
 44
0.0
173
     0
291
     1
 45
0.0
1001
ACAD
1000
AcDbSavedByObjectVersion
1070
     0
  0
VISUALSTYLE
  5
2B
102
{ACAD_REACTORS
330
2A
102
}
330
2A
100
AcDbVisualStyle
  2
Flat
 70
     0
 71
     2
 72
     1
 73
     1
 90
        2
 40
-0.6
 41
30.0
 62
     5
 63
     7
421
 16777215
 74
     0
 91
        4
 64
     7
 65
   257
 75
     1
175
     1
 42
1.0
 92
        8
 66
     7
 43
1.0
 76
     1
 77
     6
 78
     2
 67
     7
 79
     5
170
     0
171
     0
290
     0
174
     0
 93
       13
 44
0.0
173
     0
291
     1
 45
0.0
1001
ACAD
1000
AcDbSavedByObjectVersion
1070
     0
  0
VISUALSTYLE
  5
2C
102
{ACAD_REACTORS
330
2A
102
}
330
2A
100
AcDbVisualStyle
  2
FlatWithEdges
 70
     1
 71
     2
 72
     1
 73
     1
 90
        2
 40
-0.6
 41
30.0
 62
     5
 63
     7
421
 16777215
 74
     1
 91
        4
 64
     7
 65
   257
 75
     1
175
     1
 42
1.0
 92
        0
 66
   257
 43
1.0
 76
     1
 77
     6
 78
     2
 67
     7
 79
     5
170
     0
171
     0
290
     0
174
     0
 93
       13
 44
0.0
173
     0
291
     1
 45
0.0
1001
ACAD
1000
AcDbSavedByObjectVersion
1070
     0
  0
VISUALSTYLE
  5
2D
102
{ACAD_REACTORS
330
2A
102
}
330
2A
100
AcDbVisualStyle
  2
Gouraud
 70
     2
 71
     2
 72
     2
 73
     1
 90
        2
 40
-0.6
 41
30.0
 62
     5
 63
     7
421
 16777215
 74
     0
 91
        4
 64
     7
 65
   257
 75
     1
175
     1
 42
1.0
 92
        0
 66
     7
 43
1.0
 76
     1
 77
     6
 78
     2
 67
     7
 79
     5
170
     0
171
     0
290
     0
174
     0
 93
       13
 44
0.0
173
     0
291
     1
 45
0.0
1001
ACAD
1000
AcDbSavedByObjectVersion
1070
     0
  0
VISUALSTYLE
  5
2E
102
{ACAD_REACTORS
330
2A
102
}
330
2A
100
AcDbVisualStyle
  2
GouraudWithEdges
 70
     3
 71
     2
 72
     2
 73
     1
 90
        2
 40
-0.6
 41
30.0
 62
     5
 63
     7
421
 16777215
 74
     1
 91
        4
 64
     7
 65
   257
 75
     1
175
     1
 42
1.0
 92
        0
 66
   257
 43
1.0
 76
     1
 77
     6
 78
     2
 67
     7
 79
     5
170
     0
171
     0
290
     0
174
     0
 93
       13
 44
0.0
173
     0
291
     1
 45
0.0
1001
ACAD
1000
AcDbSavedByObjectVersion
1070
     0
  0
VISUALSTYLE
  5
38
102
{ACAD_REACTORS
330
2A
102
}
330
2A
100
AcDbVisualStyle
  2
Linepattern
 70
    14
 71
     2
 72
     2
 73
     0
 90
        0
 40
-0.6
 41
-30.0
 62
     5
 63
     7
421
 16777215
 74
     1
 91
        4
 64
     7
 65
   257
 75
     7
175
     7
 42
1.0
 92
        8
 66
     7
 43
1.0
 76
     1
 77
     6
 78
     2
 67
     7
 79
     5
170
     0
171
     0
290
     0
174
     0
 93
        1
 44
0.0
173
     0
291
     1
 45
0.0
1001
ACAD
1000
AcDbSavedByObjectVersion
1070
     0
  0
VISUALSTYLE
  5
33
102
{ACAD_REACTORS
330
2A
102
}
330
2A
100
AcDbVisualStyle
  2
Realistic
 70
     8
 71
     2
 72
     2
 73
     0
 90
        0
 40
-0.6
 41
-30.0
 62
     5
 63
     7
421
 16777215
 74
     1
 91
        0
 64
     7
 65
   257
 75
     1
175
     1
 42
1.0
 92
        8
 66
     8
424
  7895160
 43
1.0
 76
     1
 77
     6
 78
     2
 67
     7
 79
     5
170
     0
171
     0
290
     0
174
     0
 93
       13
 44
0.0
173
     0
291
     0
 45
0.0
1001
ACAD
1000
AcDbSavedByObjectVersion
1070
     0
  0
VISUALSTYLE
  5
37
102
{ACAD_REACTORS
330
2A
102
}
330
2A
100
AcDbVisualStyle
  2
Thicken
 70
    13
 71
     2
 72
     2
 73
     0
 90
        0
 40
-0.6
 41
-30.0
 62
     5
 63
     7
421
 16777215
 74
     1
 91
        4
 64
     7
 65
   257
 75
     1
175
     1
 42
1.0
 92
       12
 66
     7
 43
1.0
 76
     1
 77
     6
 78
     2
 67
     7
 79
     5
170
     0
171
     0
290
     0
174
     0
 93
        1
 44
0.0
173
     0
291
     1
 45
0.0
1001
ACAD
1000
AcDbSavedByObjectVersion
1070
     0
  0
ENDSEC
  0
EOF
